<svg width="70" height="70" viewBox="0 0 70 70" fill="none" xmlns="http://www.w3.org/2000/svg">
<path d="M60.6504 63.2621L23.5948 66.2167L12.8394 63.2621L11.5156 17.3105L60.6504 18.749V63.2621Z" fill="#F4F4F4"/>
<path d="M60.6507 16.015L9.35156 13.9531V63.261L10.9765 65.6404L12.8397 63.261V21.3464C12.8397 19.9113 14.0031 18.7479 15.4382 18.7479H30.3651L35.4655 17.5792L39.6369 18.7479H60.6506V16.015H60.6507Z" fill="#E5E5E5"/>
<path d="M39.6364 23.3998L33.2494 21.518L32.4023 17.3105L39.6364 18.749V23.3998Z" fill="#BAE6EF"/>
<path d="M39.6351 16.016L34.6534 14.6106L33.2481 13.6426H30.3633V21.5179L33.2481 23.8315V19.8568C33.2481 19.563 33.3648 19.2812 33.5725 19.0735C33.7803 18.8658 34.062 18.7491 34.3558 18.7491H39.635V16.016H39.6351Z" fill="#94D8E6"/>
<path d="M44.3099 55.029H42.0485C41.465 55.029 40.9922 54.556 40.9922 53.9726C40.9922 53.3892 41.465 52.9163 42.0485 52.9163H44.3101C44.9174 52.9163 45.4113 52.4223 45.4113 51.815V50.6163C45.4113 50.009 44.9173 49.515 44.3101 49.515H42.0485C41.465 49.515 40.9922 49.0421 40.9922 48.4587C40.9922 47.8753 41.465 47.4023 42.0485 47.4023H44.3101C46.0823 47.4023 47.524 48.8442 47.524 50.6163V51.815C47.524 53.5873 46.0822 55.029 44.3099 55.029Z" fill="#8E868E"/>
<path d="M62.3041 16.0159H10.868C9.08057 16.0159 6.98438 14.5669 6.98438 12.7794V3.23648C6.98423 1.44901 9.39747 0 11.1849 0H62.3042C64.0917 0 65.5407 1.44901 65.5407 3.23648V12.7794C65.5406 14.5669 64.0916 16.0159 62.3041 16.0159Z" fill="#FFC269"/>
<path d="M7.94911 12.7794V3.23648C7.94911 1.44901 9.39812 0 11.1856 0H7.69742C5.90995 0 4.46094 1.44901 4.46094 3.23648V12.7794C4.46094 14.5669 5.90995 16.0159 7.69742 16.0159H11.1856C9.39812 16.0159 7.94911 14.5669 7.94911 12.7794Z" fill="#FFA95F"/>
<path d="M53.9849 28.1522H47.0765L45.75 26.1025L46.9596 24.0527H53.9849C54.9977 24.0527 55.8189 24.8739 55.8189 25.8867V26.3182C55.819 27.331 54.9979 28.1522 53.9849 28.1522Z" fill="#BAE6EF"/>
<path d="M41.7227 28.1523H47.0767V25.2825C47.0767 24.8622 47.0355 24.4515 46.9598 24.0527H41.7227V28.1523Z" fill="#94D8E6"/>
<path d="M40.4964 21.5176H32.2304C30.1512 21.5176 27.9531 23.2032 27.9531 25.2825V28.376C27.9531 29.6526 29.3716 30.6874 30.6482 30.6874H41.9497C43.2264 30.6874 44.2612 29.6525 44.2612 28.376V25.2825C44.2613 23.2031 42.5757 21.5176 40.4964 21.5176Z" fill="#8E868E"/>
<path d="M28.6271 28.376V25.2825C28.6271 23.2032 30.3128 21.5176 32.3919 21.5176H29.5071C27.4278 21.5176 25.7422 23.2032 25.7422 25.2825V28.376C25.7422 29.6526 26.7771 30.6874 28.0536 30.6874H30.9384C29.6619 30.6874 28.6271 29.6525 28.6271 28.376Z" fill="#766D78"/>
<path d="M13.817 11.6513C12.5459 11.6513 11.5156 10.6209 11.5156 9.3499V6.66469C11.5156 5.39356 12.546 4.36328 13.817 4.36328C15.0882 4.36328 16.1184 5.3937 16.1184 6.66469V9.34976C16.1184 10.6209 15.088 11.6513 13.817 11.6513Z" fill="#F2665C"/>
<path d="M22.6178 11.6513C21.3467 11.6513 20.3164 10.6209 20.3164 9.3499V6.66469C20.3164 5.39356 21.3468 4.36328 22.6178 4.36328C23.8889 4.36328 24.9192 5.3937 24.9192 6.66469V9.34976C24.9194 10.6209 23.8889 11.6513 22.6178 11.6513ZM31.4202 11.6513C30.1491 11.6513 29.1188 10.6209 29.1188 9.3499V6.66469C29.1188 5.39356 30.1492 4.36328 31.4202 4.36328C32.6913 4.36328 33.7216 5.3937 33.7216 6.66469V9.34976C33.7216 10.6209 32.6912 11.6513 31.4202 11.6513Z" fill="#F4F4F4"/>
<path d="M37.2356 37.0245L36.3219 35.4739C35.7287 34.467 34.2723 34.467 33.6791 35.4739L32.7654 37.0245C31.7464 38.7538 32.9933 40.9356 35.0005 40.9356C37.0077 40.9355 38.2544 38.7538 37.2356 37.0245Z" fill="#B06C6C"/>
<path d="M56.7008 5.41932H48.7712C48.1877 5.41932 47.7148 4.94636 47.7148 4.36298C47.7148 3.7796 48.1877 3.30664 48.7712 3.30664H56.7008C57.2843 3.30664 57.7571 3.7796 57.7571 4.36298C57.7571 4.94636 57.2843 5.41932 56.7008 5.41932ZM56.7008 9.06326H48.7712C48.1877 9.06326 47.7148 8.5903 47.7148 8.00692C47.7148 7.42354 48.1877 6.95058 48.7712 6.95058H56.7008C57.2843 6.95058 57.7571 7.42354 57.7571 8.00692C57.7571 8.5903 57.2843 9.06326 56.7008 9.06326ZM56.7008 12.7073H48.7712C48.1877 12.7073 47.7148 12.2344 47.7148 11.651C47.7148 11.0676 48.1877 10.5947 48.7712 10.5947H56.7008C57.2843 10.5947 57.7571 11.0676 57.7571 11.651C57.7571 12.2344 57.2843 12.7073 56.7008 12.7073Z" fill="#8E868E"/>
<path d="M42.049 58.0892L30.8354 59.1195L30.0703 47.0119C30.0703 45.9698 31.6803 45.125 32.7224 45.125H40.1623C41.2044 45.125 42.0492 45.9698 42.0492 47.0119V58.0892H42.049Z" fill="#F2665C"/>
<path d="M32.7248 45.125H29.84C28.7979 45.125 27.9531 45.9698 27.9531 47.0119V58.0892L30.8379 59.1195V47.0119C30.8378 45.9698 31.6827 45.125 32.7248 45.125Z" fill="#E5524E"/>
<path d="M7.94911 67.9531V65.3085C7.94911 64.1781 8.86544 63.2617 9.99587 63.2617H6.5077C5.37728 63.2617 4.46094 64.1781 4.46094 65.3085V67.9531C4.46094 69.0835 5.37728 69.9999 6.5077 69.9999H9.99587C8.86544 69.9999 7.94911 69.0835 7.94911 67.9531Z" fill="#FFA95F"/>
<path d="M41.3773 63.2617L44.3321 60.9182C45.5092 59.9845 44.849 58.0898 43.3466 58.0898H29.3048C27.8024 58.0898 26.1619 59.9845 27.339 60.9182L31.5106 63.2617L36.0837 64.778L41.3773 63.2617Z" fill="#8E868E"/>
<path d="M29.5402 58.0898H26.6554C25.153 58.0898 24.4928 59.9846 25.6699 60.9182L28.6247 63.2617L31.1737 64.4903L31.5095 63.2617L28.5547 60.9182C27.3776 59.9845 28.0378 58.0898 29.5402 58.0898Z" fill="#766D78"/>
<path d="M63.4926 69.9999H9.34966C8.21924 69.9999 7.22656 69.0835 7.22656 67.9531V65.3085C7.22656 64.1781 8.21938 63.2617 9.34966 63.2617H63.4926C64.623 63.2617 65.5394 64.1781 65.5394 65.3085V67.9531C65.5394 69.0835 64.623 69.9999 63.4926 69.9999Z" fill="#FFC269"/>
</svg>
