<svg width="70" height="70" viewBox="0 0 70 70" fill="none" xmlns="http://www.w3.org/2000/svg">
<path d="M35 3.00781C16.5006 3.00781 1.50391 18.0045 1.50391 36.5039C1.50391 55.0033 16.5006 70 35 70C38.628 70 42.1202 69.4209 45.392 68.354L45.5287 68.2525V51.8496C45.5289 51.7253 45.5783 51.6061 45.6662 51.5182C45.7541 51.4303 45.8733 51.3808 45.9977 51.3807H61.8656C61.99 51.3808 62.1092 51.4302 62.1971 51.5182C62.285 51.6061 62.3345 51.7253 62.3346 51.8496V55.7722L62.4713 55.6706C66.2674 50.2399 68.4961 43.6326 68.4961 36.5039C68.4961 18.0045 53.4994 3.00781 35 3.00781Z" fill="#B3DAFE"/>
<path d="M21.751 0H48.2496C50.0343 0 51.4811 1.44676 51.4811 3.23148V61.4363C51.4811 63.2211 50.0343 64.6678 48.2496 64.6678H21.751C19.9663 64.6678 18.5195 63.2211 18.5195 61.4363V3.23148C18.5195 1.44676 19.9663 0 21.751 0Z" fill="#CFCAE4"/>
<path d="M24.1995 61.4365V54.4369H18.5195V61.4365C18.5195 63.2212 19.9663 64.668 21.751 64.668H27.431C25.6463 64.668 24.1995 63.2211 24.1995 61.4365ZM24.1995 7.16516V3.23148C24.1995 1.44676 25.6463 0 27.431 0H21.751C19.9663 0 18.5195 1.44676 18.5195 3.23148V7.16502L24.1995 7.16516Z" fill="#B5ADD5"/>
<path d="M51.4812 54.4359H18.5195V7.16406H51.4812V54.4359Z" fill="white"/>
<path d="M18.5195 7.16602H24.1995V54.4379H18.5195V7.16602Z" fill="#F3F0FF"/>
<path d="M44.4429 30.6727C44.4429 29.4229 45.3814 28.3831 46.5792 28.3056C46.63 28.3023 46.6809 28.3007 46.7318 28.3007C46.8261 28.3007 46.9187 28.3082 47.0101 28.3193V18.3228C47.0101 18.2247 46.9908 18.1277 46.9533 18.0371C46.9158 17.9465 46.8608 17.8642 46.7914 17.7949C46.7221 17.7255 46.6398 17.6705 46.5492 17.633C46.4586 17.5955 46.3615 17.5762 46.2635 17.5762H23.7388C23.6408 17.5762 23.5437 17.5955 23.4531 17.633C23.3625 17.6705 23.2802 17.7255 23.2109 17.7949C23.1415 17.8642 23.0865 17.9465 23.049 18.0371C23.0115 18.1277 22.9922 18.2247 22.9922 18.3228V34.8124L23.3921 34.9492H27.5671C28.389 31.6075 31.4094 29.1208 35.0012 29.1208C38.5929 29.1208 41.6133 31.6075 42.4352 34.9492H44.4429V30.6727Z" fill="#FE646F"/>
<path d="M37.522 59.5664H32.4746C31.9083 59.5664 31.4492 59.1074 31.4492 58.541C31.4492 57.9746 31.9083 57.5156 32.4746 57.5156H37.522C38.0883 57.5156 38.5474 57.9746 38.5474 58.541C38.5474 59.1074 38.0883 59.5664 37.522 59.5664Z" fill="#9182B0"/>
<path d="M27.2528 18.3228C27.2528 18.2247 27.2721 18.1277 27.3096 18.0371C27.3471 17.9465 27.4021 17.8642 27.4714 17.7949C27.5408 17.7255 27.6231 17.6705 27.7137 17.633C27.8042 17.5955 27.9013 17.5762 27.9994 17.5762H23.7388C23.6408 17.5762 23.5437 17.5955 23.4531 17.633C23.3625 17.6705 23.2802 17.7255 23.2109 17.7949C23.1415 17.8642 23.0865 17.9465 23.049 18.0371C23.0115 18.1277 22.9922 18.2247 22.9922 18.3228V34.8124H27.2528V18.3228Z" fill="#FD4755"/>
<path d="M27.3449 36.7771C27.3449 36.0981 27.4349 35.4398 27.6015 34.8125H22.9922V38.937C22.9922 39.135 23.0709 39.325 23.2109 39.465C23.3509 39.605 23.5408 39.6837 23.7388 39.6837H27.9195C27.5395 38.7618 27.3443 37.7743 27.3449 36.7771ZM44.4429 39.6837V34.8125H42.4008C42.5712 35.4535 42.6575 36.1139 42.6574 36.7771C42.658 37.7743 42.4628 38.7618 42.0828 39.6837H44.4429Z" fill="#FB2B3A"/>
<path d="M39.6819 22.0912C39.4099 22.0912 39.1491 21.9831 38.9568 21.7908C38.7645 21.5985 38.6565 21.3377 38.6565 21.0658V15.2112C38.6565 13.1939 37.0153 11.5527 34.9982 11.5527C32.981 11.5527 31.3398 13.1939 31.3398 15.2112V21.0658C31.3398 21.6322 30.8807 22.0912 30.3145 22.0912C29.7482 22.0912 29.2891 21.6322 29.2891 21.0658V15.2112C29.2891 12.0631 31.8502 9.50195 34.9982 9.50195C38.1461 9.50195 40.7073 12.063 40.7073 15.2112V21.0658C40.7073 21.3377 40.5992 21.5985 40.4069 21.7908C40.2146 21.9831 39.9538 22.0912 39.6819 22.0912Z" fill="#FB2B3A"/>
<path d="M35 44.5703C39.3039 44.5703 42.793 41.0813 42.793 36.7773C42.793 32.4734 39.3039 28.9844 35 28.9844C30.6961 28.9844 27.207 32.4734 27.207 36.7773C27.207 41.0813 30.6961 44.5703 35 44.5703Z" fill="#4FC123"/>
<path d="M32.6758 36.7773C32.6758 33.4358 34.7795 30.5864 37.7344 29.4789C36.86 29.1512 35.9338 28.9837 35 28.9844C30.6961 28.9844 27.207 32.4734 27.207 36.7773C27.207 41.0813 30.6961 44.5703 35 44.5703C35.9338 44.571 36.86 44.4035 37.7344 44.0758C34.7795 42.9682 32.6758 40.1189 32.6758 36.7773Z" fill="#47A920"/>
<path d="M34.5683 40.5754C34.2964 40.5754 34.0356 40.4674 33.8433 40.2751L30.5589 36.9907C30.368 36.7982 30.2611 36.5378 30.2617 36.2666C30.2623 35.9955 30.3703 35.7356 30.562 35.5438C30.7538 35.352 31.0136 35.244 31.2848 35.2434C31.556 35.2428 31.8164 35.3497 32.009 35.5406L34.5683 38.1001L38.4465 34.2218C38.6399 34.0348 38.899 33.9313 39.168 33.9336C39.4369 33.9359 39.6943 34.0438 39.8844 34.234C40.0746 34.4242 40.1825 34.6815 40.1847 34.9505C40.187 35.2195 40.0835 35.4786 39.8965 35.672L35.2933 40.2753C35.101 40.4674 34.8402 40.5754 34.5683 40.5754Z" fill="white"/>
<path d="M39.4271 4.86133H30.5762C30.0099 4.86133 29.5508 4.40236 29.5508 3.83594C29.5508 3.26951 30.0099 2.81055 30.5762 2.81055H39.4271C39.9934 2.81055 40.4525 3.26951 40.4525 3.83594C40.4525 4.40236 39.9934 4.86133 39.4271 4.86133Z" fill="#9182B0"/>
<path d="M61.4463 36.3954C60.0335 36.3039 58.8591 37.4227 58.8591 38.8159C58.8591 37.4762 57.773 36.3901 56.4334 36.3901C55.0937 36.3901 54.0076 37.4762 54.0076 38.8159C54.0076 37.4762 52.9215 36.3901 51.5818 36.3901C50.2422 36.3901 49.1562 37.476 49.1562 38.8156V30.5898C49.1562 29.1966 47.9817 28.0778 46.5689 28.1693C45.2796 28.2528 44.3047 29.3809 44.3047 30.6729V46.9575C44.3047 48.6089 45.6434 49.9476 47.2949 49.9476H47.32V51.3809H60.5426V49.9476H60.7205C62.3719 49.9476 63.7107 48.6089 63.7107 46.9575V38.8988C63.7105 37.607 62.7356 36.4789 61.4463 36.3954Z" fill="#FED2A4"/>
<path d="M47.32 49.9472V51.2437H50.1911V49.1963C50.1911 48.8651 49.9525 48.5859 49.6272 48.5241C48.2404 48.2606 47.1758 47.0457 47.1758 45.587V29.3024C47.1758 28.9345 47.2571 28.5811 47.4 28.2602C47.059 28.1623 46.6891 28.133 46.3034 28.2011C45.1344 28.4073 44.3047 29.4611 44.3047 30.6481V46.9573C44.3047 48.6087 45.6434 49.9475 47.2949 49.9475H47.32V49.9472Z" fill="#FFBD86"/>
<path d="M62.4699 55.6708V51.8498C62.4699 51.6892 62.4061 51.5351 62.2925 51.4215C62.179 51.308 62.0249 51.2441 61.8643 51.2441H45.9963C45.8357 51.2441 45.6816 51.308 45.568 51.4215C45.4544 51.5351 45.3906 51.6892 45.3906 51.8498V68.3542C52.3733 66.0774 58.3469 61.5693 62.4699 55.6708Z" fill="#0182FC"/>
<path d="M45.3906 51.8498V68.3542C47.3781 67.7062 49.3002 66.8725 51.1314 65.8642V51.8498C51.1314 51.6892 51.1953 51.5351 51.3088 51.4215C51.4224 51.308 51.5765 51.2441 51.7371 51.2441H45.9963C45.8357 51.2441 45.6816 51.308 45.568 51.4215C45.4544 51.5351 45.3906 51.6892 45.3906 51.8498Z" fill="#0172FB"/>
<path d="M27.1387 4.86133C27.705 4.86133 28.1641 4.40225 28.1641 3.83594C28.1641 3.26963 27.705 2.81055 27.1387 2.81055C26.5724 2.81055 26.1133 3.26963 26.1133 3.83594C26.1133 4.40225 26.5724 4.86133 27.1387 4.86133Z" fill="white"/>
<path d="M31.9941 50.7227C32.5604 50.7227 33.0195 50.2636 33.0195 49.6973C33.0195 49.131 32.5604 48.6719 31.9941 48.6719C31.4278 48.6719 30.9688 49.131 30.9688 49.6973C30.9688 50.2636 31.4278 50.7227 31.9941 50.7227Z" fill="#CFCAE4"/>
<path d="M35.002 50.7227C35.5683 50.7227 36.0273 50.2636 36.0273 49.6973C36.0273 49.131 35.5683 48.6719 35.002 48.6719C34.4356 48.6719 33.9766 49.131 33.9766 49.6973C33.9766 50.2636 34.4356 50.7227 35.002 50.7227Z" fill="#4FC123"/>
<path d="M38.0098 50.7227C38.5761 50.7227 39.0352 50.2636 39.0352 49.6973C39.0352 49.131 38.5761 48.6719 38.0098 48.6719C37.4435 48.6719 36.9844 49.131 36.9844 49.6973C36.9844 50.2636 37.4435 50.7227 38.0098 50.7227Z" fill="#CFCAE4"/>
</svg>
