<svg width="70" height="70" viewBox="0 0 70 70" fill="none" xmlns="http://www.w3.org/2000/svg">
<g clip-path="url(#clip0_1967_17415)">
<path d="M46.2658 49.5527V64.2258H37.8151V59.0145C37.8151 57.4988 36.5309 56.1975 34.9981 56.1975C33.4419 56.1975 32.1812 57.4581 32.1812 59.0145V64.2258H23.7305V49.5527H46.2658Z" fill="#DD4FB1"/>
<path d="M42.043 49.5527H46.2683V64.2258H42.043V49.5527Z" fill="#DA2EA2"/>
<path d="M66.6198 51.9717H3.38023C1.51334 51.9717 0 50.4583 0 48.5914V9.71812C0 7.85123 1.51334 6.33789 3.38023 6.33789H66.6196C68.4865 6.33789 69.9999 7.85123 69.9999 9.71812V48.5914C70 50.4583 68.4867 51.9717 66.6198 51.9717Z" fill="#4073C8"/>
<path d="M66.62 6.33789H62.3945C64.2614 6.33789 65.7748 7.85123 65.7748 9.71812V48.5914C65.7748 50.4583 64.2614 51.9716 62.3945 51.9716H66.6198C68.4867 51.9716 70.0001 50.4583 70.0001 48.5914V9.71812C70.0002 7.85137 68.4869 6.33789 66.62 6.33789Z" fill="#3B66C1"/>
<path d="M65.7746 11.0916V47.2182C65.7746 47.5094 65.5381 47.7459 65.2469 47.7459H58.3098V46.6057H25.3523V47.7459H4.7543C4.46309 47.7459 4.22656 47.5094 4.22656 47.2182V11.0916C4.22656 10.799 4.46309 10.5625 4.7543 10.5625H65.2469C65.5381 10.5625 65.7746 10.799 65.7746 11.0916Z" fill="#F4FBFF"/>
<path d="M65.2448 10.5645H61.0195C61.1596 10.5645 61.2939 10.6201 61.393 10.7191C61.492 10.8182 61.5477 10.9525 61.5477 11.0926V47.2193C61.5477 47.3594 61.492 47.4937 61.393 47.5928C61.2939 47.6918 61.1596 47.7474 61.0195 47.7474H65.2448C65.3849 47.7474 65.5192 47.6918 65.6183 47.5928C65.7173 47.4937 65.773 47.3594 65.773 47.2193V11.0926C65.773 11.0232 65.7593 10.9545 65.7328 10.8905C65.7063 10.8264 65.6674 10.7681 65.6183 10.7191C65.5693 10.6701 65.511 10.6312 65.447 10.6046C65.3829 10.5781 65.3142 10.5644 65.2448 10.5645Z" fill="#E4F6FF"/>
<path d="M49.9288 66.3387H20.0697C18.903 66.3387 17.957 65.3929 17.957 64.226C17.957 63.0592 18.9028 62.1133 20.0697 62.1133H49.9288C51.0956 62.1133 52.0416 63.0591 52.0416 64.226C52.0416 65.3929 51.0956 66.3387 49.9288 66.3387Z" fill="#4073C8"/>
<path d="M49.9284 62.1133H45.7031C46.8699 62.1133 47.8158 63.0591 47.8158 64.226C47.8158 65.3928 46.87 66.3387 45.7031 66.3387H49.9284C51.0952 66.3387 52.0411 65.3928 52.0411 64.226C52.0411 63.0591 51.0953 62.1133 49.9284 62.1133Z" fill="#3B66C1"/>
<path d="M58.3093 47.7468H25.3516V22.0426C25.3516 21.7625 25.4628 21.4938 25.6609 21.2957C25.859 21.0976 26.1277 20.9863 26.4079 20.9863H57.253C57.5331 20.9863 57.8018 21.0976 57.9999 21.2957C58.198 21.4938 58.3093 21.7625 58.3093 22.0426V47.7468Z" fill="#FFE07D"/>
<path d="M57.2526 20.9863H53.0273C53.3075 20.9863 53.5762 21.0976 53.7743 21.2957C53.9723 21.4938 54.0836 21.7625 54.0836 22.0426V47.7468H58.3089V22.0426C58.3089 21.7625 58.1976 21.4938 57.9995 21.2957C57.8015 21.0976 57.5328 20.9863 57.2526 20.9863Z" fill="#FFD064"/>
<path d="M34.1217 26.2841C34.0358 26.0577 33.883 25.8629 33.6836 25.7256C33.4841 25.5883 33.2476 25.5151 33.0055 25.5156H33.0041C32.7628 25.5154 32.527 25.5884 32.3281 25.7252C32.1292 25.862 31.9766 26.0559 31.8904 26.2814L29.0828 33.6533C28.986 33.9074 28.9941 34.1896 29.1054 34.4377C29.2166 34.6858 29.4219 34.8796 29.676 34.9764C29.8018 35.0244 29.9359 35.0471 30.0705 35.0432C30.2051 35.0394 30.3376 35.009 30.4605 34.9539C30.5833 34.8989 30.6942 34.8201 30.7866 34.7222C30.879 34.6242 30.9513 34.5091 30.9992 34.3832L31.2783 33.65H34.7093L34.9849 34.3802C35.0585 34.5752 35.1897 34.7431 35.3611 34.8617C35.5325 34.9803 35.736 35.0438 35.9444 35.0438C36.1103 35.0438 36.2737 35.0035 36.4206 34.9265C36.5675 34.8494 36.6935 34.7379 36.7878 34.6014C36.8821 34.465 36.9419 34.3077 36.962 34.143C36.9822 33.9784 36.9621 33.8113 36.9035 33.6561L34.1217 26.2841ZM32.0597 31.5993L33.0019 29.1253L33.9356 31.5993H32.0597ZM41.9084 25.737H39.8533C39.7185 25.737 39.5851 25.7637 39.4606 25.8153C39.336 25.867 39.2229 25.9427 39.1277 26.0381C39.0325 26.1335 38.957 26.2468 38.9056 26.3714C38.8541 26.496 38.8277 26.6295 38.8279 26.7643C38.8279 26.7643 38.8333 29.5551 38.8333 30.3823C38.8333 31.391 38.8426 34.022 38.8426 34.022C38.8437 34.2933 38.9522 34.5531 39.1443 34.7446C39.3365 34.936 39.5967 35.0436 39.868 35.0437H39.8718C39.9339 35.0434 41.4 35.0378 41.9864 35.0276C44.2333 34.9882 45.8639 33.038 45.8639 30.3903C45.8639 27.607 44.2743 25.737 41.9084 25.737ZM41.9506 32.9771C41.7045 32.9814 41.287 32.9848 40.8898 32.9874C40.8871 32.1377 40.8839 30.9773 40.8839 30.3823C40.8839 29.8838 40.882 28.6726 40.8805 27.7876H41.9084C43.6759 27.7876 43.8133 29.7796 43.8133 30.3902C43.8131 31.6617 43.2371 32.9546 41.9506 32.9771ZM51.8281 29.3766C50.9254 29.0437 50.0839 28.6814 49.8091 28.5613C49.6507 28.4266 49.6565 28.2429 49.6676 28.1655C49.6841 28.0508 49.7687 27.7698 50.1987 27.6404C51.2024 27.3384 52.1412 28.0745 52.1726 28.0995C52.3811 28.2722 52.6494 28.3554 52.9189 28.3311C53.1885 28.3067 53.4375 28.1767 53.6116 27.9695C53.7866 27.7613 53.8717 27.4921 53.8483 27.2212C53.8248 26.9503 53.6947 26.6997 53.4865 26.5248C53.4143 26.464 51.6955 25.0474 49.6071 25.6767C48.5407 25.998 47.786 26.8399 47.6376 27.874C47.498 28.8465 47.9196 29.7821 48.7379 30.3156C48.7833 30.3451 48.8308 30.3709 48.8802 30.3931C48.9235 30.4123 49.956 30.8719 51.1183 31.3006C51.3574 31.3888 52.1303 31.7156 52.0407 32.2174C51.9726 32.5986 51.4989 32.9928 50.8239 32.9928C50.106 32.9928 49.416 32.7044 48.9782 32.2213C48.7956 32.0198 48.5404 31.899 48.2688 31.8857C47.9971 31.8723 47.7313 31.9674 47.5298 32.15C47.3283 32.3327 47.2076 32.5879 47.1942 32.8595C47.1809 33.1311 47.276 33.3969 47.4586 33.5984C48.2908 34.5169 49.5176 35.0437 50.8239 35.0437C52.4438 35.0437 53.8045 34.0068 54.0596 32.578C54.2521 31.4994 53.7672 30.0919 51.8281 29.3766Z" fill="#4073C8"/>
<path d="M16.4573 31.261L17.1654 32.6957C17.2309 32.8284 17.3277 32.9433 17.4475 33.0303C17.5672 33.1173 17.7063 33.1738 17.8528 33.1951L19.4361 33.4252C20.7167 33.6113 21.228 35.1849 20.3014 36.0882L19.1557 37.2051C19.0497 37.3084 18.9704 37.436 18.9247 37.5768C18.879 37.7175 18.8682 37.8673 18.8932 38.0132L19.1637 39.5903C19.3824 40.8656 18.0438 41.8382 16.8984 41.2361L15.4821 40.4915C15.3511 40.4226 15.2053 40.3867 15.0573 40.3867C14.9092 40.3867 14.7634 40.4226 14.6324 40.4915L13.2161 41.2361C12.0708 41.8382 10.7321 40.8657 10.9508 39.5903L11.2213 38.0132C11.2463 37.8673 11.2355 37.7176 11.1897 37.5768C11.144 37.436 11.0647 37.3084 10.9588 37.2051L9.81306 36.0882C8.88638 35.1851 9.39771 33.6113 10.6784 33.4252L12.2617 33.1951C12.4082 33.1738 12.5473 33.1173 12.667 33.0303C12.7868 32.9433 12.8836 32.8284 12.9491 32.6957L13.6572 31.261C14.2299 30.1005 15.8846 30.1005 16.4573 31.261Z" fill="#DD4FB1"/>
<path d="M33.248 40.2188H50.4136C50.9801 40.2188 51.439 39.7596 51.439 39.1934C51.439 38.6271 50.9801 38.168 50.4136 38.168H33.248C32.9761 38.168 32.7153 38.276 32.523 38.4683C32.3307 38.6606 32.2227 38.9214 32.2227 39.1934C32.2227 39.4653 32.3307 39.7261 32.523 39.9184C32.7153 40.1107 32.9761 40.2188 33.248 40.2188ZM50.4136 42.8554H33.248C32.9761 42.8554 32.7153 42.9634 32.523 43.1557C32.3307 43.348 32.2227 43.6088 32.2227 43.8808C32.2227 44.1527 32.3307 44.4135 32.523 44.6058C32.7153 44.7981 32.9761 44.9062 33.248 44.9062H50.4136C50.9801 44.9062 51.439 44.4471 51.439 43.8808C51.439 43.3145 50.9801 42.8554 50.4136 42.8554Z" fill="#F4FBFF"/>
<path d="M16.9248 24.7888H1.38496C0.62002 24.7888 0 24.1688 0 23.4039V5.04707C0 4.28213 0.62002 3.66211 1.38496 3.66211H16.9248C17.6898 3.66211 18.3098 4.28213 18.3098 5.04707V23.4039C18.3099 24.1687 17.6898 24.7888 16.9248 24.7888Z" fill="#B7E445"/>
<path d="M16.9245 3.66211H12.6992C13.4642 3.66211 14.0842 4.28213 14.0842 5.04707V23.4039C14.0842 24.1688 13.4642 24.7888 12.6992 24.7888H16.9245C17.6895 24.7888 18.3095 24.1688 18.3095 23.4039V5.04707C18.3096 4.28213 17.6895 3.66211 16.9245 3.66211Z" fill="#AAD540"/>
<path d="M5.1543 10.332H9.72398C9.99594 10.332 10.2567 10.224 10.449 10.0317C10.6413 9.8394 10.7494 9.57859 10.7494 9.30664C10.7494 9.03469 10.6413 8.77388 10.449 8.58158C10.2567 8.38928 9.99594 8.28125 9.72398 8.28125H5.1543C4.88235 8.28125 4.62153 8.38928 4.42924 8.58158C4.23694 8.77388 4.12891 9.03469 4.12891 9.30664C4.12891 9.57859 4.23694 9.8394 4.42924 10.0317C4.62153 10.224 4.88235 10.332 5.1543 10.332ZM5.1543 15.5011H13.1521C13.424 15.5011 13.6848 15.3931 13.8771 15.2008C14.0694 15.0085 14.1775 14.7477 14.1775 14.4757C14.1775 14.2038 14.0694 13.9429 13.8771 13.7506C13.6848 13.5583 13.424 13.4503 13.1521 13.4503H5.1543C4.88235 13.4503 4.62153 13.5583 4.42924 13.7506C4.23694 13.9429 4.12891 14.2038 4.12891 14.4757C4.12891 14.7477 4.23694 15.0085 4.42924 15.2008C4.62153 15.3931 4.88235 15.5011 5.1543 15.5011ZM13.1521 17.6954H5.1543C4.88235 17.6954 4.62153 17.8035 4.42924 17.9958C4.23694 18.1881 4.12891 18.4489 4.12891 18.7208C4.12891 18.9928 4.23694 19.2536 4.42924 19.4459C4.62153 19.6382 4.88235 19.7462 5.1543 19.7462H13.1521C13.424 19.7462 13.6848 19.6382 13.8771 19.4459C14.0694 19.2536 14.1775 18.9928 14.1775 18.7208C14.1775 18.4489 14.0694 18.1881 13.8771 17.9958C13.6848 17.8035 13.424 17.6954 13.1521 17.6954Z" fill="#F4FBFF"/>
</g>
<defs>
<clipPath id="clip0_1967_17415">
<rect width="70" height="70" fill="white"/>
</clipPath>
</defs>
</svg>
