<svg width="70" height="70" viewBox="0 0 70 70" fill="none" xmlns="http://www.w3.org/2000/svg">
<g clip-path="url(#clip0_1967_17318)">
<path d="M0.909453 53.2383C0.409609 53.2383 0 53.6441 0 54.1397V69.0997C0 69.5953 0.409609 70.0007 0.909453 70.0007H16.0079C16.5082 70.0007 16.9173 69.5953 16.9173 69.0997V53.2383H0.909453Z" fill="#FB8276"/>
<path d="M30.4011 47.1136C30.4011 44.6927 31.106 42.4897 32.4272 40.6738C30.2024 41.7179 27.7159 42.0405 25.3281 41.6432V47.7217C27.0181 47.9058 28.7255 47.8537 30.4011 47.5669V47.1136Z" fill="#A2F9F9"/>
<path d="M51.0708 37.8164C49.1582 38.726 47.0668 39.1978 44.9489 39.1974H40.7123C38.5986 39.1974 36.599 38.8284 34.8088 38.1325C32.0312 40.1272 30.2656 43.2269 30.2656 47.1138V49.0375L30.8301 49.0941L30.759 48.8884L30.6545 48.6113C30.6064 48.4853 30.5838 48.3511 30.588 48.2163C30.5923 48.0816 30.6232 47.949 30.6791 47.8263C30.7343 47.7032 30.8133 47.5922 30.9116 47.4998C31.01 47.4074 31.1256 47.3354 31.2519 47.2879L31.5485 47.1763C31.6643 47.1322 31.7871 47.1096 31.911 47.1095C32.1195 47.1102 32.3229 47.1741 32.4944 47.2927C32.6659 47.4113 32.7975 47.5791 32.8718 47.7739L34.0024 50.7298L34.0125 50.7437C34.1367 50.9209 34.2456 51.1083 34.3379 51.304L34.3655 51.3628L34.428 51.3782C35.3358 51.6075 36.2684 51.7233 37.2046 51.7232C41.523 51.7232 45.539 49.2431 47.4367 45.4048C47.8996 44.4675 48.8408 43.8859 49.8921 43.8859C50.3061 43.8859 50.7056 43.9772 51.0805 44.1582C51.7336 44.4745 52.2224 45.0239 52.4567 45.7066C52.6902 46.3863 52.6427 47.117 52.3233 47.7638C50.9112 50.6209 48.7199 53.0056 45.9866 54.6595C43.3285 56.269 40.2805 57.1202 37.1731 57.121H37.1727C36.0003 57.121 34.8361 56.996 33.6959 56.7546V62.2858H36.1109L36.1247 62.1646C36.2888 60.7328 37.5106 59.6534 38.966 59.6534C40.0373 59.6534 41.0109 60.2394 41.506 61.1825L41.6267 61.4132L41.7478 61.1825C42.2429 60.2394 43.216 59.6534 44.2878 59.6534C45.7431 59.6534 46.9646 60.7333 47.1291 62.1646L47.1434 62.2858H55.9923V46.9727C55.9923 42.9118 54.0659 39.7567 51.0709 37.8164H51.0708Z" fill="#48E5E1"/>
<path d="M30.8301 49.0923L30.759 48.8867L30.6545 48.6095C30.6064 48.4836 30.5838 48.3493 30.588 48.2145C30.5923 48.0798 30.6232 47.9472 30.6791 47.8245C30.7343 47.7014 30.8133 47.5904 30.9116 47.498C31.01 47.4056 31.1256 47.3336 31.2519 47.2861L31.5485 47.1745C31.6643 47.1304 31.7871 47.1078 31.911 47.1077C32.1196 47.1084 32.323 47.1723 32.4945 47.2909C32.666 47.4095 32.7976 47.5773 32.8719 47.7721L34.0024 50.728L34.0125 50.7419C34.1367 50.9191 34.2456 51.1065 34.3379 51.3022L34.3655 51.361L34.428 51.3764C34.4831 51.3909 34.5392 51.4026 34.5941 51.4161V47.112C34.5941 43.7479 35.9176 40.9735 38.074 38.9949C36.9285 38.8196 35.8342 38.5291 34.8088 38.1309C32.0312 40.1256 30.2656 43.2257 30.2656 47.1119V49.0357L30.8301 49.0923Z" fill="#41CECA"/>
<path d="M41.4251 62.4861C41.4251 62.053 41.5265 61.6439 41.7028 61.2764C41.4643 60.7505 41.0791 60.3045 40.5934 59.9922C40.1077 59.6798 39.5422 59.5144 38.9647 59.5156C37.4244 59.5156 36.1576 60.6671 35.9878 62.1475H33.6946V69.0982C33.6946 69.5945 33.285 69.9998 32.7852 69.9998H39.1692V69.9897C39.7108 69.9539 40.2324 69.7716 40.6785 69.4625C41.1245 69.1533 41.4782 68.7287 41.7017 68.2342C41.5203 67.8584 41.4258 67.4466 41.4251 67.0293V62.4861Z" fill="#A2F9F9"/>
<path d="M44.0828 69.9896V69.9998H56.2343C58.4222 69.9998 60.1964 68.2422 60.1964 66.0733C60.1964 63.9057 58.4222 62.1475 56.2343 62.1475H47.2648C47.0944 60.6671 45.8276 59.5156 44.2873 59.5156C42.6318 59.5156 41.2891 60.8455 41.2891 62.4861V67.0293C41.2891 68.6015 42.5228 69.8849 44.0828 69.9896Z" fill="#A2F9F9"/>
<path d="M45.5796 67.0293V62.4861C45.5796 61.6802 45.9054 60.9497 46.4315 60.4146C46.1519 60.1295 45.8183 59.9031 45.4501 59.7488C45.0819 59.5944 44.6866 59.5151 44.2873 59.5156C42.6316 59.5156 41.2891 60.8459 41.2891 62.4861V67.0293C41.2891 68.6015 42.5227 69.8855 44.0826 69.9896V69.9998H48.3738V69.9896C46.8139 69.8849 45.5796 68.6015 45.5796 67.0293Z" fill="#91E0E0"/>
<path d="M44.9478 39.1973H40.7111C40.05 39.1973 39.4016 39.1583 38.7656 39.0879V39.2075C38.7656 41.0825 40.2999 42.6029 42.1921 42.6029C44.0848 42.6029 45.6192 41.0826 45.6192 39.2075V39.1802C45.3956 39.1912 45.1716 39.1969 44.9478 39.1973Z" fill="#FFC987"/>
<path d="M59.3809 17.3703C59.3618 17.3703 59.3425 17.372 59.3232 17.372V15.3686C59.3232 15.2159 59.3201 15.0637 59.3153 14.912C59.003 15.1592 58.6518 15.3527 58.276 15.4846C57.4198 15.7874 56.5835 15.9406 55.791 15.9406H55.7904C51.486 15.9406 49.5383 11.4112 49.5191 11.3654L49.3898 11.0566L49.2659 11.3675C49.2424 11.4263 46.8813 17.2406 42.9383 17.2406C42.5057 17.2406 42.0625 17.1695 41.622 17.0307C39.7522 16.4414 39.1343 15.0194 39.7848 12.804L39.5359 12.6952C38.3241 14.7177 36.4651 17.129 34.4917 17.129C34.2611 17.129 34.031 17.0958 33.8066 17.0302C33.0721 16.8155 32.5461 16.387 32.2439 15.7569C31.7509 14.7299 31.87 13.1673 32.5707 11.4701L32.3213 11.3589C30.6882 14.7837 28.9498 16.4486 27.0074 16.4486C26.7884 16.4486 26.5653 16.4261 26.3398 16.3817V25.0128C26.3398 34.3128 32.7748 39.334 40.7124 39.334H44.9492C51.6146 39.334 57.2175 34.8137 58.8447 28.6832C59.0221 28.7108 59.2014 28.7249 59.3809 28.7255C61.8424 28.7255 63.8377 26.1833 63.8377 23.0478C63.8377 19.9125 61.8424 17.3703 59.3809 17.3703Z" fill="#FFD5B3"/>
<path d="M30.6513 25.0113V15.3673C30.6513 14.9481 30.6705 14.5332 30.7058 14.123C29.5464 15.6814 28.3239 16.4473 27.0076 16.4473C26.7886 16.4473 26.5653 16.4248 26.3398 16.3804V25.0115C26.3398 34.3115 32.7748 39.3328 40.7131 39.3328H44.9496C44.9577 39.3328 44.9652 39.3321 44.9731 39.3321C37.059 39.3107 30.6513 34.2917 30.6513 25.0113Z" fill="#E5BFA1"/>
<path d="M48.1923 24.8131C48.0577 24.8132 47.9243 24.7867 47.7999 24.7352C47.6755 24.6837 47.5624 24.6081 47.4672 24.5129C47.3719 24.4177 47.2964 24.3046 47.2449 24.1802C47.1934 24.0558 47.1669 23.9224 47.167 23.7877V22.0547C47.167 21.7827 47.275 21.5219 47.4673 21.3296C47.6596 21.1373 47.9204 21.0293 48.1923 21.0293C48.4643 21.0293 48.7251 21.1373 48.9174 21.3296C49.1097 21.5219 49.2177 21.7827 49.2177 22.0547V23.7877C49.2177 24.0597 49.1097 24.3205 48.9174 24.5128C48.7251 24.7051 48.4643 24.8131 48.1923 24.8131ZM32.584 24.8131C32.312 24.8131 32.0512 24.7051 31.8589 24.5128C31.6666 24.3205 31.5586 24.0597 31.5586 23.7877V22.0547C31.5586 21.7827 31.6666 21.5219 31.8589 21.3296C32.0512 21.1373 32.312 21.0293 32.584 21.0293C32.8559 21.0293 33.1167 21.1373 33.309 21.3296C33.5013 21.5219 33.6094 21.7827 33.6094 22.0547V23.7877C33.6094 24.3544 33.1505 24.8131 32.584 24.8131ZM41.0729 26.3336H40.3876C39.4449 26.3336 38.6775 25.5576 38.6775 24.6044V23.2724C38.6775 22.7057 39.1364 22.2471 39.7029 22.2471C40.2696 22.2471 40.7283 22.7057 40.7283 23.2724V24.2828H41.0729C41.3448 24.2828 41.6056 24.3908 41.7979 24.5831C41.9902 24.7754 42.0982 25.0362 42.0982 25.3082C42.0982 25.5801 41.9902 25.8409 41.7979 26.0332C41.6056 26.2255 41.3448 26.3336 41.0729 26.3336Z" fill="#775436"/>
<path d="M40.626 34.7879C37.9589 34.7879 35.7891 32.6378 35.7891 29.9953C35.7891 29.4975 36.1965 29.0938 36.6987 29.0938H44.5536C45.056 29.0938 45.463 29.4975 45.463 29.9953C45.463 32.6383 43.2931 34.7879 40.626 34.7879Z" fill="#FB8276"/>
<path d="M40.1306 29.9947C40.1306 29.4969 40.5374 29.0938 41.0399 29.0938H36.6987C36.1961 29.0938 35.7891 29.4969 35.7891 29.9947C35.7891 32.6378 37.9589 34.7873 40.6262 34.7873C41.3795 34.788 42.1226 34.613 42.7964 34.2762C41.2173 33.4864 40.1304 31.8645 40.1304 29.9947H40.1306Z" fill="#E1756A"/>
<path d="M44.6699 0H40.0871C31.5001 0 24.5391 6.93574 24.5391 15.4915V15.7232C24.8254 15.9426 25.1618 16.135 25.5582 16.2914C28.8527 17.5978 31.0791 14.2829 32.4454 11.4177C31.4279 13.8813 31.4615 16.4869 33.7692 17.1609C35.9951 17.8108 38.1325 15.304 39.654 12.765C39.1328 14.5403 39.2477 16.425 41.5815 17.1609C46.4921 18.7091 49.3941 11.4177 49.3941 11.4177C49.3941 11.4177 52.0724 17.8243 58.3225 15.6126C59.1316 15.3259 59.7298 14.8345 60.1607 14.198C59.5001 6.24791 52.8196 0 44.6699 0Z" fill="#F7931E"/>
<path d="M28.8334 15.7232V15.4915C28.8334 6.93574 35.7946 0 44.3816 0H40.0873C31.5001 0 24.5391 6.93574 24.5391 15.4915V15.7232C24.8254 15.9426 25.1618 16.135 25.5582 16.2914C26.9146 16.8293 28.0895 16.5826 29.0984 15.9075C29.0076 15.8497 28.9193 15.7882 28.8335 15.7232H28.8334Z" fill="#DE841B"/>
<path d="M21.9206 36.6127V35.4473C21.9206 34.3524 21.0244 33.4648 19.9195 33.4648H14.0988C12.9933 33.4648 12.0977 34.3524 12.0977 35.4473V36.6125L21.9206 36.6127Z" fill="#89C947"/>
<path d="M16.4635 36.6127V35.4473C16.4635 34.3524 17.359 33.4648 18.4641 33.4648H14.0987C12.9937 33.4648 12.0977 34.3524 12.0977 35.4473V36.6125L16.4635 36.6127Z" fill="#7BB540"/>
<path d="M25.4681 52.3362C25.4681 52.8318 25.0585 53.2371 24.5586 53.2371H9.46023C8.95984 53.2371 8.55078 52.8318 8.55078 52.3362V37.3761C8.55078 36.8805 8.95984 36.4746 9.46037 36.4746H24.5585C25.0583 36.4746 25.4679 36.8805 25.4679 37.3761L25.4681 52.3362Z" fill="#D5E962"/>
<path d="M19.3951 48.9868C19.3128 48.9868 19.23 48.9677 19.1542 48.9275L17.0083 47.8161L14.8625 48.9276C14.777 48.9724 14.6807 48.9926 14.5844 48.9858C14.4881 48.979 14.3956 48.9456 14.3172 48.8892C14.2392 48.8339 14.1785 48.7576 14.1421 48.6692C14.1057 48.5808 14.0951 48.4838 14.1116 48.3897L14.5212 46.0351L12.7849 44.3671C12.716 44.3012 12.6671 44.2171 12.644 44.1246C12.6209 44.0321 12.6244 43.9349 12.6542 43.8443C12.6846 43.7532 12.7398 43.6724 12.8135 43.6109C12.8873 43.5495 12.9767 43.5097 13.0717 43.4962L15.4713 43.1533L16.5443 41.0107C16.5877 40.925 16.6541 40.853 16.736 40.8029C16.8179 40.7527 16.9122 40.7263 17.0083 40.7266C17.2054 40.7266 17.3853 40.8365 17.473 41.0107L18.5458 43.1533L20.9448 43.4962C21.0399 43.5097 21.1293 43.5494 21.2031 43.6109C21.2769 43.6724 21.3321 43.7532 21.3625 43.8443C21.3926 43.9349 21.3963 44.0322 21.3731 44.1248C21.3499 44.2174 21.3009 44.3015 21.2317 44.3672L19.496 46.0351L19.9056 48.3897C19.922 48.4838 19.9113 48.5807 19.8749 48.6691C19.8386 48.7574 19.7779 48.8337 19.7 48.8891C19.6112 48.9529 19.5045 48.9871 19.3951 48.9868Z" fill="#89C947"/>
<path d="M3.34482 69.0993V54.1393C3.34482 53.6437 3.75389 53.2383 4.25428 53.2383H0.909453C0.409609 53.2383 0 53.6437 0 54.1393V69.0993C0 69.5956 0.409609 70.0008 0.909453 70.0008H4.25428C3.75389 70.0008 3.34482 69.5954 3.34482 69.0993Z" fill="#E1756A"/>
<path d="M8.45765 65.4894C8.34493 65.4897 8.2366 65.4458 8.15591 65.3671L4.37482 61.6692C4.15734 61.4581 3.98445 61.2055 3.86639 60.9264C3.74833 60.6472 3.6875 60.3472 3.6875 60.0441C3.6875 59.741 3.74833 59.441 3.86639 59.1619C3.98445 58.8827 4.15734 58.6301 4.37482 58.419C4.8186 57.9854 5.40868 57.7461 6.03622 57.7461C6.66376 57.7461 7.25397 57.9854 7.69776 58.4196L8.45765 59.1629L9.21821 58.4196C9.662 57.9854 10.2521 57.7461 10.8796 57.7461C11.5072 57.7461 12.0972 57.9854 12.541 58.419C12.7585 58.6301 12.9314 58.8827 13.0494 59.1619C13.1675 59.441 13.2283 59.741 13.2283 60.0441C13.2283 60.3472 13.1675 60.6472 13.0494 60.9264C12.9314 61.2055 12.7585 61.4581 12.541 61.6692L8.75993 65.3665C8.67918 65.4455 8.57057 65.4896 8.45765 65.4894Z" fill="#EF5050"/>
<path d="M32.2123 56.3712L32.1702 56.3578L32.1279 56.3721C31.7301 56.5061 31.313 56.5743 30.8932 56.5741C30.7624 56.5741 30.6299 56.5677 30.4996 56.5543L26.9995 56.2023C26.483 56.15 26.1049 55.6876 26.1566 55.1711L26.186 54.879C26.1979 54.7558 26.234 54.6361 26.2924 54.5269C26.3508 54.4177 26.4302 54.3211 26.526 54.2428C26.6219 54.1644 26.7324 54.1058 26.851 54.0703C26.9696 54.0349 27.0941 54.0233 27.2173 54.0362L29.8818 54.3043L29.9283 53.8439L26.7062 53.5199C26.4852 53.4981 26.2792 53.3983 26.1252 53.2383H16.918V69.0993C16.918 69.5956 17.327 70.0008 17.8276 70.0008H32.9258C33.4257 70.0008 33.8349 69.5954 33.8349 69.0993V56.7834C33.2875 56.6731 32.7459 56.5356 32.2123 56.3712Z" fill="#FFC502"/>
<path d="M20.6777 69.0992V53.2383H16.918V69.0997C16.918 69.5953 17.327 70.0007 17.8276 70.0007H21.5873C21.0869 70.0007 20.6777 69.5953 20.6777 69.0992Z" fill="#E5B102"/>
<path d="M24.0575 65.4411C23.5571 65.4411 22.9434 65.0902 22.6935 64.6608L21.3749 62.3985C21.125 61.9692 21.125 61.2669 21.3749 60.8375L22.6935 58.5752C22.9434 58.1459 23.5571 57.7949 24.0575 57.7949H26.6936C27.194 57.7949 27.8081 58.1459 28.058 58.5752L29.3761 60.8375C29.6266 61.2668 29.6266 61.9692 29.3761 62.3985L28.0582 64.6608C27.8081 65.0901 27.1941 65.4411 26.6937 65.4411H24.0575Z" fill="#FCDB67"/>
<path d="M12.1632 52.3362V37.3761C12.1632 36.8805 12.5722 36.4746 13.0726 36.4746H9.46037C8.95998 36.4746 8.55078 36.8805 8.55078 37.3761V52.3362C8.55078 52.8318 8.95984 53.2371 9.46037 53.2371H13.0726C12.5722 53.2371 12.1632 52.8318 12.1632 52.3362Z" fill="#BFD158"/>
<path d="M59.2921 26.3267C59.107 26.3269 58.9252 26.277 58.7662 26.1822C58.6072 26.0874 58.4768 25.9513 58.3889 25.7883C58.2596 25.5491 58.2307 25.2683 58.3084 25.0077C58.3862 24.747 58.5642 24.528 58.8035 24.3987C59.9645 23.7712 59.2888 22.1711 59.2596 22.1033C59.1579 21.8549 59.1576 21.5764 59.259 21.3278C59.3603 21.0792 59.5551 20.8803 59.8015 20.7737C60.0479 20.6671 60.3263 20.6615 60.5768 20.7579C60.8274 20.8543 61.0301 21.0452 61.1415 21.2894C61.1779 21.3722 61.4934 22.1274 61.5208 23.0631C61.5623 24.4586 60.9434 25.5737 59.7781 26.2032C59.629 26.2844 59.4619 26.3268 59.2921 26.3267Z" fill="#FFB98A"/>
<path d="M51.1399 44.0342C49.7224 43.3496 48.0098 43.9354 47.3139 45.3432C44.9062 50.2138 39.3678 52.5738 34.284 51.2013C34.6007 51.8261 34.7385 52.5279 34.6685 53.2265C34.5121 54.7801 33.4081 56.0223 31.9453 56.4303C39.8403 58.9974 48.6796 55.4427 52.4456 47.8234C53.1415 46.4156 52.5568 44.7195 51.1399 44.0342Z" fill="#A2F9F9"/>
<path d="M26.0207 55.1562L26.0508 54.8635C26.11 54.2712 26.6386 53.8392 27.2315 53.8984L29.7597 54.1527L29.7788 53.9647L26.6925 53.6538C26.5517 53.6396 26.415 53.5979 26.2903 53.531C26.1656 53.464 26.0553 53.3731 25.9658 53.2635C25.8762 53.1539 25.8091 53.0278 25.7683 52.8922C25.7276 52.7567 25.7139 52.6144 25.7281 52.4736L25.7575 52.1809C25.8167 51.5886 26.3454 51.1566 26.9382 51.2158L30.0239 51.5267L30.0432 51.338L27.5145 51.0839C27.3736 51.0698 27.2368 51.0281 27.112 50.9611C26.9872 50.8941 26.8769 50.8032 26.7873 50.6935C26.6976 50.5839 26.6305 50.4576 26.5897 50.322C26.5489 50.1864 26.5353 50.0441 26.5495 49.9032L26.5788 49.6106C26.6075 49.3261 26.748 49.0646 26.9694 48.8836C27.1908 48.7026 27.475 48.6169 27.7596 48.6454L30.6254 48.9344L30.6322 48.9349L30.5276 48.6577C30.4187 48.369 30.4288 48.0489 30.5558 47.7677C30.6827 47.4865 30.9162 47.2672 31.2048 47.1581L31.5017 47.046C32.1032 46.8191 32.7739 47.1223 33.0014 47.7236L34.1256 50.663C34.6378 51.392 34.9006 52.293 34.806 53.2388C34.5919 55.3628 32.6581 56.9073 30.4861 56.6882L26.9858 56.3363C26.7013 56.3077 26.4399 56.1674 26.2589 55.9461C26.0779 55.7247 25.9922 55.4406 26.0207 55.1562Z" fill="#FFD5B3"/>
</g>
<defs>
<clipPath id="clip0_1967_17318">
<rect width="70" height="70" fill="white"/>
</clipPath>
</defs>
</svg>
