<svg width="70" height="70" viewBox="0 0 70 70" fill="none" xmlns="http://www.w3.org/2000/svg">
<path d="M70.0012 25.9209V61.9385C70.0012 64.5849 67.9082 66.7326 65.3279 66.7326H35.8725C34.9669 66.7326 34.1204 66.4681 33.4049 66.0085C32.0809 65.163 31.1992 63.6556 31.1992 61.9387V25.9209C31.1992 24.2704 32.0387 22.7558 33.3866 21.8612C35.6415 20.3625 36.8416 18.3319 37.4726 16.4371C37.481 16.4126 37.488 16.3894 37.4965 16.3649C38.0965 14.5222 38.1598 12.8152 38.1346 11.873H63.0673C63.0405 12.8284 63.1053 14.5671 63.7279 16.4373C64.3575 18.332 65.559 20.3626 67.8139 21.8613C69.1631 22.7558 70.0012 24.2704 70.0012 25.9209Z" fill="#FFEBDC"/>
<path d="M42.2656 21.1318V61.2438C42.2656 63.8713 40.1825 66.0087 37.6219 66.0087H33.4049C32.0809 65.1632 31.1992 63.6558 31.1992 61.9389V25.9213C31.1992 24.2708 32.0387 22.7562 33.3866 21.8616C35.6415 20.3628 36.8416 18.3323 37.4726 16.4375C37.481 16.4129 37.488 16.3898 37.4965 16.3652H37.6219C40.1825 16.3652 42.2656 18.5027 42.2656 21.1318Z" fill="#FFDBB1"/>
<path d="M50.1308 61.1115C50.1308 63.162 49.5838 65.0843 48.6303 66.7322H35.8724C33.2918 66.7322 31.1992 64.5849 31.1992 61.9384V53.9021C31.9598 52.9924 32.8594 52.2156 33.8628 51.6019C34.1789 51.409 34.5046 51.2332 34.8387 51.0753C35.01 50.9938 35.1835 50.9173 35.359 50.8459C36.4982 50.3769 37.7033 50.1143 38.9423 50.0652L38.9859 50.0638C39.1096 50.0608 39.2334 50.058 39.3586 50.058C43.0994 50.058 46.5139 52.0017 48.4954 55.2558C49.5655 57.0075 50.1308 59.0334 50.1308 61.1115ZM37.4719 16.4364C38.0948 14.5662 38.1593 12.8284 38.1335 11.8711H63.0653C63.0395 12.8283 63.104 14.5661 63.7269 16.4364H37.4719Z" fill="#FFDBB1"/>
<path d="M69.9998 25.9205V61.9377C69.9998 64.4486 68.1198 66.5088 65.7245 66.715C66.7636 65.8358 67.4267 64.5046 67.4267 63.0142V26.997C67.4267 25.3476 66.5886 23.8337 65.2394 22.9368C60.7589 19.9606 60.4388 14.8754 60.4932 12.9477L60.4946 11.8711H63.065C63.012 13.7988 63.3321 18.884 67.8126 21.8602C69.1617 22.7557 69.9998 24.2711 69.9998 25.9205Z" fill="#FFDBB1"/>
<path d="M65.1354 14.093H36.0643C35.7655 14.093 35.4789 13.9712 35.2675 13.7543C35.0562 13.5375 34.9375 13.2434 34.9375 12.9367V1.79886C34.9375 1.49219 35.0562 1.19809 35.2675 0.981244C35.4789 0.7644 35.7655 0.642578 36.0643 0.642578H65.1354C65.4342 0.642578 65.7209 0.7644 65.9322 0.981244C66.1435 1.19809 66.2622 1.49219 66.2622 1.79886V12.9368C66.2622 13.2435 66.1435 13.5375 65.9321 13.7544C65.7208 13.9712 65.4342 14.093 65.1354 14.093Z" fill="#B5F2D9"/>
<path d="M65.1354 14.0922H36.0643C35.7655 14.0922 35.4789 13.9704 35.2675 13.7535C35.0562 13.5367 34.9375 13.2426 34.9375 12.9359V11.8711H66.2621V12.9359C66.2621 13.0877 66.233 13.2381 66.1764 13.3784C66.1197 13.5187 66.0368 13.6461 65.9321 13.7535C65.8275 13.8609 65.7033 13.9461 65.5666 14.0042C65.4299 14.0623 65.2834 14.0922 65.1354 14.0922Z" fill="#20CFA2"/>
<path d="M39.736 14.9156C39.5973 14.9156 39.4599 14.8876 39.3317 14.8331C39.2036 14.7787 39.0871 14.6988 38.989 14.5982C38.8909 14.4975 38.8131 14.378 38.7601 14.2465C38.707 14.115 38.6797 13.9741 38.6797 13.8317V1.08389C38.6797 0.941545 38.707 0.800592 38.7601 0.66908C38.8131 0.537569 38.8909 0.418074 38.989 0.317422C39.0871 0.21677 39.2036 0.136932 39.3317 0.0824685C39.4599 0.0280046 39.5973 -1.84184e-05 39.736 9.08234e-09C39.8747 -1.84184e-05 40.0121 0.0280046 40.1402 0.0824685C40.2684 0.136932 40.3848 0.21677 40.4829 0.317422C40.581 0.418074 40.6588 0.537569 40.7119 0.66908C40.765 0.800592 40.7923 0.941545 40.7923 1.08389V13.8317C40.7923 13.9741 40.765 14.115 40.7119 14.2465C40.6588 14.378 40.581 14.4975 40.4829 14.5982C40.3848 14.6988 40.2684 14.7787 40.1402 14.8331C40.0121 14.8876 39.8747 14.9156 39.736 14.9156ZM46.9781 14.9156C46.8394 14.9156 46.702 14.8876 46.5739 14.8331C46.4457 14.7787 46.3292 14.6988 46.2312 14.5982C46.1331 14.4975 46.0553 14.378 46.0022 14.2465C45.9491 14.115 45.9218 13.9741 45.9218 13.8317V1.08389C45.9218 0.796423 46.0331 0.520732 46.2312 0.317463C46.4293 0.114195 46.698 9.08234e-09 46.9781 9.08234e-09C47.2582 9.08234e-09 47.5269 0.114195 47.725 0.317463C47.9231 0.520732 48.0344 0.796423 48.0344 1.08389V13.8317C48.0344 13.9741 48.0071 14.115 47.9541 14.2465C47.901 14.3781 47.8232 14.4976 47.7251 14.5982C47.627 14.6989 47.5105 14.7787 47.3824 14.8332C47.2542 14.8876 47.1168 14.9156 46.9781 14.9156ZM54.2205 14.9156C54.0818 14.9156 53.9444 14.8876 53.8163 14.8331C53.6881 14.7787 53.5716 14.6988 53.4736 14.5982C53.3755 14.4975 53.2977 14.378 53.2446 14.2465C53.1915 14.115 53.1642 13.9741 53.1642 13.8317V1.08389C53.1642 0.796423 53.2755 0.520732 53.4736 0.317463C53.6717 0.114195 53.9404 9.08234e-09 54.2205 9.08234e-09C54.5007 9.08234e-09 54.7693 0.114195 54.9674 0.317463C55.1655 0.520732 55.2768 0.796423 55.2768 1.08389V13.8317C55.2768 13.9741 55.2495 14.115 55.1964 14.2465C55.1433 14.378 55.0655 14.4975 54.9675 14.5982C54.8694 14.6988 54.7529 14.7787 54.6248 14.8331C54.4966 14.8876 54.3592 14.9156 54.2205 14.9156ZM61.4628 14.9156C61.3241 14.9156 61.1867 14.8876 61.0585 14.8331C60.9304 14.7787 60.8139 14.6988 60.7158 14.5982C60.6177 14.4975 60.5399 14.378 60.4868 14.2465C60.4338 14.115 60.4065 13.9741 60.4065 13.8317V1.08389C60.4065 0.796423 60.5178 0.520732 60.7159 0.317463C60.914 0.114195 61.1826 9.08234e-09 61.4628 9.08234e-09C61.7429 9.08234e-09 62.0116 0.114195 62.2097 0.317463C62.4078 0.520732 62.5191 0.796423 62.5191 1.08389V13.8317C62.5191 13.9741 62.4918 14.115 62.4387 14.2465C62.3857 14.3781 62.3079 14.4976 62.2098 14.5982C62.1117 14.6989 61.9952 14.7787 61.867 14.8332C61.7389 14.8876 61.6015 14.9156 61.4628 14.9156Z" fill="#20CFA2"/>
<path d="M51.9845 19.8885H41.4235C41.2848 19.8885 41.1474 19.8605 41.0192 19.806C40.8911 19.7515 40.7746 19.6717 40.6765 19.5711C40.5784 19.4704 40.5006 19.3509 40.4476 19.2194C40.3945 19.0879 40.3672 18.9469 40.3672 18.8046C40.3672 18.6622 40.3945 18.5213 40.4476 18.3898C40.5006 18.2583 40.5784 18.1388 40.6765 18.0381C40.7746 17.9375 40.8911 17.8576 41.0192 17.8032C41.1474 17.7487 41.2848 17.7207 41.4235 17.7207H51.9845C52.2646 17.7207 52.5333 17.8349 52.7314 18.0382C52.9295 18.2414 53.0407 18.5171 53.0407 18.8046C53.0407 19.0921 52.9295 19.3677 52.7314 19.571C52.5333 19.7743 52.2646 19.8885 51.9845 19.8885ZM57.3798 19.8885H55.2393C55.1006 19.8885 54.9632 19.8605 54.8351 19.806C54.7069 19.7515 54.5905 19.6717 54.4924 19.5711C54.3943 19.4704 54.3165 19.3509 54.2634 19.2194C54.2103 19.0879 54.183 18.9469 54.183 18.8046C54.183 18.6622 54.2103 18.5213 54.2634 18.3898C54.3165 18.2583 54.3943 18.1388 54.4924 18.0381C54.5905 17.9375 54.7069 17.8576 54.8351 17.8032C54.9632 17.7487 55.1006 17.7207 55.2393 17.7207H57.3798C57.9633 17.7207 58.4361 18.206 58.4361 18.8046C58.4361 19.4032 57.9633 19.8885 57.3798 19.8885Z" fill="#FFDBB1"/>
<path d="M37.0508 32.1582H64.1471V55.7537H37.0508V32.1582Z" fill="#FF407E"/>
<path d="M37.0508 32.1582H42.2611V55.7537H37.0508V32.1582Z" fill="#E2035A"/>
<path d="M37.0508 49.2227H64.1471V55.7525H37.0508V49.2227Z" fill="#B5F2D9"/>
<path d="M37.0508 49.2246H42.2611V55.7535H37.0508V49.2246Z" fill="#20CFA2"/>
<path d="M48.7807 55.7529H37.0508V50.3125C37.673 50.1736 38.306 50.091 38.9423 50.0657L38.9859 50.0643C39.1096 50.0614 39.2334 50.0586 39.3586 50.0586C43.0994 50.0586 46.5139 52.0023 48.4954 55.2564C48.595 55.4191 48.6902 55.5846 48.7807 55.7529Z" fill="#20CFA2"/>
<path d="M55.9214 52.4882C55.9214 52.6305 55.8942 52.7715 55.8411 52.9031C55.7881 53.0346 55.7102 53.1541 55.6122 53.2548C55.5141 53.3554 55.3976 53.4353 55.2694 53.4897C55.1412 53.5442 55.0038 53.5721 54.8651 53.5721H46.3297C46.0496 53.572 45.781 53.4577 45.5829 53.2545C45.3849 53.0512 45.2735 52.7756 45.2734 52.4882C45.2734 52.296 45.3228 52.1153 45.4087 51.9593C45.5001 51.791 45.6337 51.6509 45.7957 51.5533C45.9576 51.4557 46.142 51.4043 46.3297 51.4043H54.8651C55.0038 51.4042 55.1412 51.4322 55.2694 51.4866C55.3976 51.5411 55.5141 51.6209 55.6122 51.7216C55.7103 51.8222 55.7881 51.9417 55.8411 52.0733C55.8942 52.2048 55.9215 52.3458 55.9214 52.4882Z" fill="#FF407E"/>
<path d="M47.2396 53.5718H46.3297C46.0496 53.5717 45.781 53.4574 45.5829 53.2542C45.3849 53.0509 45.2735 52.7753 45.2734 52.4879C45.2734 52.2957 45.3228 52.115 45.4087 51.959C46.0765 52.4237 46.6908 52.9647 47.2396 53.5718Z" fill="#E2035A"/>
<path d="M53.5164 39.3263H52.2625V38.0397C52.2625 37.0969 51.5178 36.3328 50.5991 36.3328C49.6803 36.3328 48.9356 37.0969 48.9356 38.0397V39.3263H47.6818C46.7631 39.3263 46.0183 40.0905 46.0183 41.0332C46.0183 41.976 46.763 42.7401 47.6818 42.7401H48.9356V44.0267C48.9356 44.9695 49.6803 45.7337 50.5991 45.7337C51.5178 45.7337 52.2625 44.9695 52.2625 44.0267V42.7401H53.5164C54.435 42.7401 55.1798 41.976 55.1798 41.0332C55.1798 40.0905 54.435 39.3263 53.5164 39.3263ZM40.1513 21.1307V61.243C40.1513 62.6773 39.0193 63.8404 37.6213 63.8404H22.4502C21.4264 63.8404 20.5475 63.2142 20.1495 62.3166C19.8373 63.0223 19.2269 63.559 18.483 63.7567C18.2755 63.8126 18.0619 63.8407 17.8474 63.8404H2.52848C1.13203 63.8403 0 62.6773 0 61.243V21.1307C0 19.6964 1.13203 18.5332 2.52848 18.5332H17.8473C18.871 18.5332 19.7513 19.1595 20.1493 20.0556C20.5473 19.1595 21.4263 18.5332 22.45 18.5332H37.6212C39.0193 18.5332 40.1513 19.6962 40.1513 21.1307Z" fill="#B5F2D9"/>
<path d="M40.1526 50.0894V61.2441C40.1526 62.6784 39.0206 63.8415 37.6226 63.8415H22.4515C21.4277 63.8415 20.5488 63.2153 20.1508 62.3177C19.8387 63.0234 19.2282 63.5601 18.4843 63.7578C17.6011 60.1156 18.5448 56.0996 21.3139 53.2583C23.3488 51.1716 26.0531 50.0215 28.9303 50.0215C30.7979 50.0215 32.5923 50.5093 34.1787 51.4198C34.3947 51.2967 34.6151 51.1822 34.8396 51.0763C35.0109 50.9948 35.1844 50.9183 35.3599 50.847C36.4991 50.378 37.7043 50.1153 38.9432 50.0662L38.9868 50.0648C39.1105 50.0619 39.2343 50.0591 39.3595 50.0591C39.6253 50.0592 39.8896 50.0693 40.1526 50.0894Z" fill="#20CFA2"/>
<path d="M40.1504 21.1301V61.2428C40.1504 62.6766 39.0181 63.8397 37.6208 63.8397H35.7378C37.1351 63.8397 38.2686 62.6766 38.2686 61.2428V21.1301C38.2686 19.6964 37.1349 18.5332 35.7378 18.5332H37.6208C39.0181 18.5331 40.1504 19.6964 40.1504 21.1301ZM20.1487 51.8329C20.01 51.833 19.8726 51.8049 19.7445 51.7505C19.6163 51.696 19.4999 51.6162 19.4018 51.5155C19.3037 51.4149 19.2259 51.2954 19.1728 51.1639C19.1197 51.0324 19.0924 50.8914 19.0924 50.7491V22.9827C19.0924 22.8403 19.1197 22.6994 19.1728 22.5679C19.2259 22.4364 19.3037 22.3169 19.4018 22.2162C19.4999 22.1156 19.6163 22.0357 19.7445 21.9813C19.8726 21.9268 20.01 21.8988 20.1487 21.8988C20.2874 21.8988 20.4248 21.9268 20.553 21.9813C20.6811 22.0357 20.7976 22.1156 20.8957 22.2162C20.9937 22.3169 21.0716 22.4364 21.1246 22.5679C21.1777 22.6994 21.205 22.8403 21.205 22.9827V50.7489C21.205 50.8913 21.1777 51.0322 21.1247 51.1638C21.0716 51.2953 20.9938 51.4148 20.8957 51.5155C20.7976 51.6161 20.6812 51.696 20.553 51.7505C20.4248 51.8049 20.2874 51.833 20.1487 51.8329ZM8.68279 56.6863H5.70875C5.4286 56.6863 5.15993 56.5721 4.96184 56.3689C4.76375 56.1656 4.65246 55.8899 4.65246 55.6024C4.65246 55.315 4.76375 55.0393 4.96184 54.836C5.15993 54.6327 5.4286 54.5185 5.70875 54.5185H8.68279C9.26631 54.5185 9.73908 55.0038 9.73908 55.6024C9.73908 56.201 9.26631 56.6863 8.68279 56.6863ZM31.479 60.1333H5.70875C5.57003 60.1333 5.43267 60.1053 5.3045 60.0508C5.17634 59.9963 5.05989 59.9165 4.9618 59.8158C4.86371 59.7152 4.78591 59.5957 4.73283 59.4642C4.67975 59.3327 4.65244 59.1917 4.65246 59.0494C4.65244 58.907 4.67975 58.7661 4.73283 58.6346C4.78591 58.5031 4.86371 58.3836 4.9618 58.2829C5.05989 58.1823 5.17634 58.1024 5.3045 58.048C5.43267 57.9935 5.57003 57.9655 5.70875 57.9655H31.4789C31.6176 57.9655 31.7549 57.9935 31.8831 58.048C32.0113 58.1024 32.1277 58.1823 32.2258 58.2829C32.3239 58.3836 32.4017 58.5031 32.4548 58.6346C32.5079 58.7661 32.5352 58.907 32.5352 59.0494C32.5352 59.1917 32.5079 59.3327 32.4548 59.4642C32.4018 59.5957 32.324 59.7152 32.2259 59.8158C32.1278 59.9165 32.0114 59.9963 31.8832 60.0508C31.7551 60.1053 31.6177 60.1333 31.479 60.1333ZM14.3855 34.4665C13.229 35.6532 11.6916 36.3067 10.0561 36.3067C8.4207 36.3067 6.88316 35.6532 5.7268 34.4666C4.57043 33.28 3.93359 31.7023 3.93359 30.0242C3.93359 28.346 4.57043 26.7683 5.7268 25.5817C6.88316 24.3951 8.4207 23.7416 10.0561 23.7416C13.4321 23.7416 16.1787 26.56 16.1787 30.0242C16.1788 31.7022 15.5418 33.2799 14.3855 34.4665Z" fill="#20CFA2"/>
<path d="M10.0553 34.5273C12.4783 34.5273 14.4426 32.5117 14.4426 30.0254C14.4426 27.539 12.4783 25.5234 10.0553 25.5234C7.63223 25.5234 5.66797 27.539 5.66797 30.0254C5.66797 32.5117 7.63223 34.5273 10.0553 34.5273Z" fill="#FEAD44"/>
<path d="M8.67348 31.5528C8.53476 31.5528 8.39739 31.5248 8.26923 31.4703C8.14107 31.4158 8.02462 31.336 7.92653 31.2353C7.82844 31.1347 7.75063 31.0152 7.69756 30.8837C7.64448 30.7522 7.61717 30.6112 7.61719 30.4689V29.578C7.61719 29.2906 7.72847 29.0149 7.92657 28.8116C8.12466 28.6083 8.39333 28.4941 8.67348 28.4941C8.95362 28.4941 9.22229 28.6083 9.42039 28.8116C9.61848 29.0149 9.72977 29.2906 9.72977 29.578V30.4689C9.72977 30.7563 9.61848 31.032 9.42039 31.2353C9.22229 31.4386 8.95362 31.5528 8.67348 31.5528Z" fill="#FFCD72"/>
<path d="M14.3856 48.4144C13.2292 49.601 11.6917 50.2545 10.0563 50.2545C6.68027 50.2545 3.93373 47.436 3.93359 43.972C3.93359 42.2938 4.57043 40.7161 5.7268 39.5295C6.88316 38.3429 8.4207 37.6895 10.0561 37.6895C11.6916 37.6895 13.2291 38.3429 14.3855 39.5295C15.5418 40.7161 16.1787 42.2938 16.1787 43.972C16.1788 45.6501 15.542 47.2278 14.3856 48.4144Z" fill="#20CFA2"/>
<path d="M10.0553 48.4746C12.4783 48.4746 14.4426 46.459 14.4426 43.9726C14.4426 41.4863 12.4783 39.4707 10.0553 39.4707C7.63223 39.4707 5.66797 41.4863 5.66797 43.9726C5.66797 46.459 7.63223 48.4746 10.0553 48.4746Z" fill="#FEAD44"/>
<path d="M8.67348 45.502C8.53476 45.502 8.39739 45.474 8.26923 45.4195C8.14107 45.3651 8.02462 45.2852 7.92653 45.1846C7.82844 45.0839 7.75063 44.9644 7.69756 44.8329C7.64448 44.7014 7.61717 44.5604 7.61719 44.4181V43.5272C7.61719 43.2398 7.72847 42.9641 7.92657 42.7608C8.12466 42.5576 8.39333 42.4434 8.67348 42.4434C8.95362 42.4434 9.22229 42.5576 9.42039 42.7608C9.61848 42.9641 9.72977 43.2398 9.72977 43.5272V44.4181C9.72978 44.5604 9.70247 44.7014 9.6494 44.8329C9.59632 44.9644 9.51852 45.0839 9.42043 45.1846C9.32234 45.2852 9.20588 45.3651 9.07772 45.4195C8.94956 45.474 8.8122 45.502 8.67348 45.502Z" fill="#FFCD72"/>
<path d="M34.4245 34.4672C33.2682 35.6537 31.7306 36.3072 30.0952 36.3073C26.7192 36.3073 23.9725 33.4889 23.9727 30.0248C23.9727 28.3467 24.6095 26.769 25.7659 25.5824C26.9222 24.3958 28.4598 23.7423 30.0952 23.7422C33.4712 23.7422 36.2177 26.5605 36.2177 30.0247C36.2177 31.7029 35.5809 33.2806 34.4245 34.4672Z" fill="#20CFA2"/>
<path d="M30.0943 34.5273C32.5174 34.5273 34.4816 32.5117 34.4816 30.0254C34.4816 27.539 32.5174 25.5234 30.0943 25.5234C27.6713 25.5234 25.707 27.539 25.707 30.0254C25.707 32.5117 27.6713 34.5273 30.0943 34.5273Z" fill="#FEAD44"/>
<path d="M28.7125 31.5528C28.5738 31.5528 28.4365 31.5248 28.3083 31.4703C28.1801 31.4158 28.0637 31.336 27.9656 31.2353C27.8675 31.1347 27.7897 31.0152 27.7366 30.8837C27.6835 30.7522 27.6562 30.6112 27.6563 30.4689V29.578C27.6562 29.4357 27.6835 29.2947 27.7366 29.1632C27.7897 29.0317 27.8675 28.9122 27.9656 28.8116C28.0637 28.7109 28.1801 28.6311 28.3083 28.5766C28.4365 28.5221 28.5738 28.4941 28.7125 28.4941C28.8513 28.4941 28.9886 28.5221 29.1168 28.5766C29.2449 28.6311 29.3614 28.7109 29.4595 28.8116C29.5576 28.9122 29.6354 29.0317 29.6885 29.1632C29.7415 29.2947 29.7688 29.4357 29.7688 29.578V30.4689C29.7688 30.6112 29.7415 30.7522 29.6885 30.8837C29.6354 31.0152 29.5576 31.1347 29.4595 31.2353C29.3614 31.336 29.2449 31.4158 29.1168 31.4703C28.9886 31.5248 28.8513 31.5528 28.7125 31.5528Z" fill="#FFCD72"/>
<path d="M34.4245 48.4146C33.2682 49.6011 31.7306 50.2546 30.0952 50.2548C28.4598 50.2548 26.9222 49.6013 25.7659 48.4146C24.6095 47.228 23.9725 45.6503 23.9727 43.9721C23.9727 42.2939 24.6095 40.7162 25.7659 39.5297C26.9222 38.3431 28.4598 37.6896 30.0952 37.6895C31.7306 37.6895 33.2682 38.3429 34.4245 39.5295C35.5809 40.7161 36.2177 42.2939 36.2177 43.972C36.2177 45.6503 35.5809 47.228 34.4245 48.4146Z" fill="#20CFA2"/>
<path d="M30.0943 48.4746C32.5174 48.4746 34.4816 46.459 34.4816 43.9726C34.4816 41.4863 32.5174 39.4707 30.0943 39.4707C27.6713 39.4707 25.707 41.4863 25.707 43.9726C25.707 46.459 27.6713 48.4746 30.0943 48.4746Z" fill="#FEAD44"/>
<path d="M28.7125 45.502C28.5738 45.502 28.4365 45.474 28.3083 45.4195C28.1801 45.3651 28.0637 45.2852 27.9656 45.1846C27.8675 45.0839 27.7897 44.9644 27.7366 44.8329C27.6835 44.7014 27.6562 44.5604 27.6563 44.4181V43.5272C27.6562 43.3849 27.6835 43.244 27.7366 43.1124C27.7897 42.9809 27.8675 42.8614 27.9656 42.7608C28.0637 42.6601 28.1801 42.5803 28.3083 42.5258C28.4365 42.4714 28.5738 42.4433 28.7125 42.4434C28.8513 42.4433 28.9886 42.4714 29.1168 42.5258C29.2449 42.5803 29.3614 42.6601 29.4595 42.7608C29.5576 42.8614 29.6354 42.9809 29.6885 43.1124C29.7415 43.244 29.7688 43.3849 29.7688 43.5272V44.4181C29.7688 44.5604 29.7415 44.7014 29.6885 44.8329C29.6354 44.9644 29.5576 45.0839 29.4595 45.1846C29.3614 45.2852 29.2449 45.3651 29.1168 45.4195C28.9886 45.474 28.8513 45.502 28.7125 45.502Z" fill="#FFCD72"/>
<path d="M48.0209 61.1116C48.0209 66.0208 44.1423 69.9993 39.3581 69.9993C38.1979 69.9993 37.0912 69.767 36.0786 69.3414C35.9393 69.2824 35.8015 69.2198 35.6652 69.1538C35.3989 69.0259 35.1393 68.8838 34.8875 68.7282C32.3759 67.1711 30.6953 64.3428 30.6953 61.1118C30.6953 57.8577 32.3969 55.0135 34.9395 53.4637C35.192 53.3087 35.4525 53.168 35.72 53.0422C35.8569 52.9767 35.9957 52.9156 36.1363 52.859C37.0336 52.4881 38.0053 52.2688 39.0234 52.2284C39.1349 52.225 39.2465 52.2231 39.3581 52.2227C42.4561 52.2213 45.176 53.8909 46.706 56.4032C47.5385 57.7667 48.0209 59.3814 48.0209 61.1116Z" fill="#6CBEFF"/>
<path d="M36.5469 68.89C36.3956 69.0457 36.2394 69.1964 36.0786 69.3417C35.9393 69.2827 35.8015 69.2202 35.6652 69.1542C35.3989 69.0263 35.1393 68.8842 34.8875 68.7285C32.3759 67.1714 30.6953 64.3432 30.6953 61.1121C30.6953 57.8581 32.3969 55.0138 34.9395 53.464C35.192 53.3091 35.4525 53.1684 35.72 53.0426C35.8569 52.9771 35.9957 52.916 36.1363 52.8594C36.2766 52.9884 36.4135 53.1212 36.547 53.2577C40.7461 57.5678 40.7461 64.5811 36.5469 68.89Z" fill="#0095F2"/>
<path d="M42.2098 64.7908H36.5094C36.2293 64.7908 35.9606 64.6766 35.7625 64.4734C35.5644 64.2701 35.4531 63.9944 35.4531 63.7069C35.4531 63.4195 35.5644 63.1438 35.7625 62.9405C35.9606 62.7372 36.2293 62.623 36.5094 62.623H42.2098C42.4899 62.623 42.7586 62.7372 42.9567 62.9405C43.1548 63.1438 43.2661 63.4195 43.2661 63.7069C43.2661 63.9944 43.1548 64.2701 42.9567 64.4734C42.7586 64.6766 42.4899 64.7908 42.2098 64.7908Z" fill="#0095F2"/>
<path d="M28.9281 69.9632C33.7123 69.9632 37.5906 65.9836 37.5906 61.0744C37.5906 56.1652 33.7123 52.1855 28.9281 52.1855C24.144 52.1855 20.2656 56.1652 20.2656 61.0744C20.2656 65.9836 24.144 69.9632 28.9281 69.9632Z" fill="#A3E9FB"/>
<path d="M29.1575 66.0631C29.0187 66.0633 28.8812 66.0353 28.753 65.9808C28.6248 65.9263 28.5084 65.8463 28.4104 65.7455L24.3797 61.6093C24.2816 61.5086 24.2038 61.3891 24.1507 61.2576C24.0976 61.1261 24.0703 60.9851 24.0703 60.8428C24.0703 60.7004 24.0977 60.5595 24.1508 60.428C24.2039 60.2965 24.2817 60.177 24.3798 60.0763C24.7922 59.6531 25.4611 59.6532 25.9282 60.1323L29.9589 64.2685C30.317 64.6359 30.317 65.3224 29.9043 65.7456C29.8063 65.8464 29.6899 65.9263 29.5617 65.9808C29.4336 66.0352 29.2962 66.0632 29.1575 66.0631Z" fill="#6CBEFF"/>
</svg>
