<svg width="70" height="70" viewBox="0 0 70 70" fill="none" xmlns="http://www.w3.org/2000/svg">
<path d="M67.0846 29.166C67.0846 26.8454 66.1628 24.6198 64.5218 22.9788C62.8809 21.3379 60.6553 20.416 58.3346 20.416H52.5013V34.9993C52.5013 35.7729 52.194 36.5148 51.647 37.0617C51.1001 37.6087 50.3582 37.916 49.5846 37.916H37.918C37.1444 37.916 36.4026 38.2233 35.8556 38.7703C35.3086 39.3173 35.0013 40.0591 35.0013 40.8327V52.4994C35.0013 53.2729 34.694 54.0148 34.147 54.5617C33.6 55.1087 32.8582 55.416 32.0846 55.416H20.418V58.3327C20.418 60.6533 21.3398 62.8789 22.9808 64.5199C24.6217 66.1608 26.8473 67.0827 29.168 67.0827H40.8346C43.1553 67.0827 45.3809 66.1608 47.0218 64.5199C48.6628 62.8789 49.5846 60.6533 49.5846 58.3327V49.5827H58.3346C60.6553 49.5827 62.8809 48.6608 64.5218 47.0199C66.1628 45.3789 67.0846 43.1533 67.0846 40.8327V29.166Z" fill="#C4E6FF"/>
<path fill-rule="evenodd" clip-rule="evenodd" d="M29.168 8.74935C28.3944 8.74935 27.6526 9.05664 27.1056 9.60362C26.5586 10.1506 26.2513 10.8925 26.2513 11.666V23.3327C26.2513 24.1062 25.944 24.8481 25.397 25.3951C24.8501 25.9421 24.1082 26.2494 23.3346 26.2494H11.668C10.8944 26.2494 10.1526 26.5566 9.60557 27.1036C9.05859 27.6506 8.7513 28.3925 8.7513 29.166V40.8327C8.7513 41.6062 9.05859 42.3481 9.60557 42.8951C10.1526 43.4421 10.8944 43.7494 11.668 43.7494H23.3346C24.1082 43.7494 24.8501 44.0566 25.397 44.6036C25.944 45.1506 26.2513 45.8925 26.2513 46.666V58.3327C26.2513 59.1062 26.5586 59.8481 27.1056 60.3951C27.6526 60.9421 28.3944 61.2494 29.168 61.2494H40.8346C41.6082 61.2494 42.3501 60.9421 42.897 60.3951C43.444 59.8481 43.7513 59.1062 43.7513 58.3327V46.666C43.7513 45.8925 44.0586 45.1506 44.6056 44.6036C45.1526 44.0566 45.8944 43.7494 46.668 43.7494H58.3346C59.1082 43.7494 59.8501 43.4421 60.397 42.8951C60.944 42.3481 61.2513 41.6062 61.2513 40.8327V29.166C61.2513 28.3925 60.944 27.6506 60.397 27.1036C59.8501 26.5566 59.1082 26.2494 58.3346 26.2494H46.668C45.8944 26.2494 45.1526 25.9421 44.6056 25.3951C44.0586 24.8481 43.7513 24.1062 43.7513 23.3327V11.666C43.7513 10.8925 43.444 10.1506 42.897 9.60362C42.3501 9.05664 41.6082 8.74935 40.8346 8.74935H29.168ZM20.418 11.666C20.418 9.34537 21.3398 7.11977 22.9808 5.47883C24.6217 3.83789 26.8473 2.91602 29.168 2.91602H40.8346C43.1553 2.91602 45.3809 3.83789 47.0218 5.47883C48.6628 7.11977 49.5846 9.34537 49.5846 11.666V20.416H58.3346C60.6553 20.416 62.8809 21.3379 64.5218 22.9788C66.1628 24.6198 67.0846 26.8454 67.0846 29.166V40.8327C67.0846 43.1533 66.1628 45.3789 64.5218 47.0199C62.8809 48.6608 60.6553 49.5827 58.3346 49.5827H49.5846V58.3327C49.5846 60.6533 48.6628 62.8789 47.0218 64.5199C45.3809 66.1608 43.1553 67.0827 40.8346 67.0827H29.168C26.8473 67.0827 24.6217 66.1608 22.9808 64.5199C21.3398 62.8789 20.418 60.6533 20.418 58.3327V49.5827H11.668C9.34733 49.5827 7.12173 48.6608 5.48078 47.0199C3.83984 45.3789 2.91797 43.1533 2.91797 40.8327V29.166C2.91797 26.8454 3.83984 24.6198 5.48078 22.9788C7.12173 21.3379 9.34733 20.416 11.668 20.416H20.418V11.666Z" fill="#024493"/>
<path d="M32.0859 64.166C32.0859 64.9396 32.3932 65.6814 32.9402 66.2284C33.4872 66.7754 34.2291 67.0827 35.0026 67.0827H40.8359C43.1566 67.0827 45.3822 66.1608 47.0231 64.5199C48.6641 62.8789 49.5859 60.6533 49.5859 58.3327V49.5827H58.3359C60.6566 49.5827 62.8822 48.6608 64.5231 47.0199C66.1641 45.3789 67.0859 43.1533 67.0859 40.8327V29.166C67.0859 26.8454 66.1641 24.6198 64.5231 22.9788C62.8822 21.3379 60.6566 20.416 58.3359 20.416H49.5859V11.666C49.5859 9.34537 48.6641 7.11977 47.0231 5.47883C45.3822 3.83789 43.1566 2.91602 40.8359 2.91602H35.0026C34.2291 2.91602 33.4872 3.22331 32.9402 3.77029C32.3932 4.31727 32.0859 5.05913 32.0859 5.83268C32.0859 6.60623 32.3932 7.3481 32.9402 7.89508C33.4872 8.44206 34.2291 8.74935 35.0026 8.74935H40.8359C41.6095 8.74935 42.3514 9.05664 42.8983 9.60362C43.4453 10.1506 43.7526 10.8925 43.7526 11.666V23.3327C43.7526 24.1062 44.0599 24.8481 44.6069 25.3951C45.1539 25.9421 45.8957 26.2494 46.6693 26.2494H58.3359C59.1095 26.2494 59.8514 26.5566 60.3983 27.1036C60.9453 27.6506 61.2526 28.3925 61.2526 29.166V40.8327C61.2526 41.6062 60.9453 42.3481 60.3983 42.8951C59.8514 43.4421 59.1095 43.7494 58.3359 43.7494H46.6693C45.8957 43.7494 45.1539 44.0566 44.6069 44.6036C44.0599 45.1506 43.7526 45.8925 43.7526 46.666V58.3327C43.7526 59.1062 43.4453 59.8481 42.8983 60.3951C42.3514 60.9421 41.6095 61.2494 40.8359 61.2494H35.0026C34.2291 61.2494 33.4872 61.5566 32.9402 62.1036C32.3932 62.6506 32.0859 63.3925 32.0859 64.166Z" fill="#1E93FF"/>
</svg>
