<svg width="70" height="70" viewBox="0 0 70 70" fill="none" xmlns="http://www.w3.org/2000/svg">
<g clip-path="url(#clip0_1967_17360)">
<path d="M4.73047 63.9104H10.8668V3.89844L4.73047 5.50632V63.9104Z" fill="#A56464"/>
<path d="M58.3828 63.9104H65.2683V46.0682L62.6982 43.9196L65.2683 42.9052V8.81308L61.8256 7.55449L65.2683 5.50632L59.4617 3.89844L58.3828 63.9104Z" fill="#B06C6C"/>
<path d="M61.0007 8.81306H65.2704V4.85742H61.0007L56.3711 7.51841L61.0007 8.81306ZM61.0007 46.068H65.2704V42.4721H61.0007L58.3849 44.6297L61.0007 46.068Z" fill="#A56464"/>
<path d="M45.078 7.1582L9 8.81243V40.0979H60.9982V8.81243L45.078 7.1582Z" fill="#E9F1FF"/>
<path d="M9 4.49805H60.9982V8.81326H9V4.49805Z" fill="#3770C7"/>
<path d="M60.9982 63.9096H9V46.0672L34.9992 44.6289L60.9982 46.0672V63.9096Z" fill="#77AFF2"/>
<path d="M60.9982 46.0685H37.1339L34.9992 43.4075L32.8644 46.0685H9V41.7715H60.9982V46.0685Z" fill="#3770C7"/>
<path d="M69.9999 3.37112C69.9999 2.1921 69.0441 1.23633 67.8651 1.23633H5.16175C3.98273 1.23633 1.33203 2.1921 1.33203 3.37112H1.42189C1.42189 4.55013 3.98273 5.50591 5.16175 5.50591H67.865C69.044 5.50591 69.9999 4.55013 69.9999 3.37112Z" fill="#B06C6C"/>
<path d="M3.38028 3.37112C3.38028 2.1921 4.33606 1.23633 5.51507 1.23633H2.13479C0.955774 1.23633 0 2.1921 0 3.37112C0 4.55013 0.955774 5.50591 2.13479 5.50591H5.51507C4.33606 5.50591 3.38028 4.55013 3.38028 3.37112Z" fill="#A56464"/>
<path d="M37.1329 64.9103V46.0674L35.3667 44.6289L32.8633 46.0672V64.9103H37.1329Z" fill="#B06C6C"/>
<path d="M32.8633 41.7715H37.133V46.0685H32.8633V41.7715Z" fill="#A56464"/>
<path d="M69.9986 66.6196V64.5107C69.9986 63.3258 69.0381 62.3652 67.8531 62.3652H5.11256C3.92763 62.3652 2.76172 63.3258 2.76172 64.5107V66.6196C2.76172 67.8045 3.92763 68.7651 5.11256 68.7651H67.8531C69.0381 68.7651 69.9986 67.8045 69.9986 66.6196Z" fill="#B06C6C"/>
<path d="M3.38028 66.6196V64.5107C3.38028 63.3258 4.34085 62.3652 5.52577 62.3652H2.14549C0.960704 62.3651 0 63.3257 0 64.5106V66.6195C0 67.8044 0.960563 68.765 2.14549 68.765H5.52577C4.34099 68.7651 3.38028 67.8045 3.38028 66.6196Z" fill="#A56464"/>
<path d="M23.4179 52.6124H18.4517C17.3803 52.6124 16.5117 51.7438 16.5117 50.6724C16.5117 49.601 17.3803 48.7324 18.4517 48.7324H23.4179C24.4893 48.7324 25.3579 49.601 25.3579 50.6724C25.3579 51.7438 24.4893 52.6124 23.4179 52.6124ZM51.5517 52.6124H46.5855C45.5141 52.6124 44.6455 51.7438 44.6455 50.6724C44.6455 49.601 45.5141 48.7324 46.5855 48.7324H51.5517C52.6231 48.7324 53.4917 49.601 53.4917 50.6724C53.4919 51.7438 52.6233 52.6124 51.5517 52.6124Z" fill="#B06C6C"/>
<path d="M24.9213 22.2985H20.4533L19.5727 16.2212C19.5727 14.9998 21.0579 13.668 22.2793 13.668H22.7098C23.9312 13.668 24.9213 14.6581 24.9213 15.8795V22.2985ZM21.8292 38.6359L17.3612 39.9191L16.5977 34.7087C16.5977 33.4873 18.1092 32.4971 19.3306 32.4971H19.6177C20.8391 32.4971 21.8292 33.4873 21.8292 34.7087V38.6359ZM32.8905 38.6359L28.4224 39.9191L27.8174 31.5729C27.8174 30.3515 29.1131 29.3613 30.3346 29.3613H30.6789C31.9003 29.3613 32.8905 30.3515 32.8905 31.5729V38.6359Z" fill="#BAE6EF"/>
<path d="M43.9501 38.6348L39.4011 39.5585L38.8555 35.0005C38.8555 33.7791 40.2232 32.4961 41.4446 32.4961H41.7384C42.9598 32.4961 43.95 33.4862 43.95 34.7076L43.9501 38.6348Z" fill="#F2665C"/>
<path d="M55.0136 38.6348L50.4646 40.0979L49.9336 34.7076C49.9336 33.4862 51.2294 32.4961 52.4508 32.4961H52.8019C54.0233 32.4961 55.0135 33.4862 55.0135 34.7076L55.0136 38.6348Z" fill="#FFC269"/>
<path d="M51.9201 22.2984H47.4521L47.0195 15.8795C47.0195 14.6581 48.0277 13.668 49.2491 13.668H49.7085C50.93 13.668 51.9201 14.6581 51.9201 15.8795V22.2984Z" fill="#BAE6EF"/>
<path d="M40.8582 22.298H31.5133L30.9805 18.6119C30.9805 17.3905 32.1684 16.4004 33.3898 16.4004H38.6465C39.8679 16.4004 40.8581 17.3905 40.8581 18.6119V22.298H40.8582Z" fill="#F2665C"/>
<path d="M22.6653 13.668H20.2919C19.0705 13.668 18.0804 14.6581 18.0804 15.8795V22.2985H20.4538V15.8795C20.4538 14.6581 21.4439 13.668 22.6653 13.668ZM19.5732 32.4971H17.1998C15.9784 32.4971 14.9883 33.4873 14.9883 34.7087V38.6359L17.3617 40.2068V34.7087C17.3617 33.4873 18.3518 32.4971 19.5732 32.4971ZM30.6343 29.3613H28.261C27.0395 29.3613 26.0494 30.3515 26.0494 31.5729V38.6357L28.4228 39.919V31.5728C28.4228 30.3515 29.4129 29.3613 30.6343 29.3613Z" fill="#94D8E6"/>
<path d="M41.6943 32.4961H39.3209C38.0995 32.4961 37.1094 33.4862 37.1094 34.7076V38.6348L39.4828 39.9181V34.7076C39.4828 33.4862 40.4729 32.4961 41.6943 32.4961Z" fill="#E5524E"/>
<path d="M52.7568 32.4961H50.3834C49.162 32.4961 48.1719 33.4862 48.1719 34.7076V38.6348L50.5453 39.9181V34.7076C50.5453 33.4862 51.5354 32.4961 52.7568 32.4961Z" fill="#F7AE4D"/>
<path d="M49.6631 13.668H47.2897C46.0683 13.668 45.0781 14.6581 45.0781 15.8795V22.2985H47.4515V15.8795C47.4515 14.6581 48.4416 13.668 49.6631 13.668Z" fill="#94D8E6"/>
<path d="M33.7256 16.4004H31.3522C30.1308 16.4004 29.1406 17.3905 29.1406 18.6119V22.298H31.514V18.6119C31.514 17.3905 32.5041 16.4004 33.7256 16.4004Z" fill="#E5524E"/>
<path d="M60.9998 23.3549H9.00165C8.41827 23.3549 7.94531 22.882 7.94531 22.2985C7.94531 21.715 8.41827 21.2422 9.00165 21.2422H60.9998C61.5832 21.2422 62.0562 21.715 62.0562 22.2985C62.0562 22.882 61.5832 23.3549 60.9998 23.3549Z" fill="#A56464"/>
<path d="M70.0017 40.7696C70.0017 39.5905 69.046 38.6348 67.867 38.6348H4.91189C3.73287 38.6348 2.21484 39.5905 2.21484 40.7696C2.21484 41.9486 3.73287 42.9043 4.91189 42.9043H67.867C69.0458 42.9043 70.0017 41.9486 70.0017 40.7696Z" fill="#B06C6C"/>
<path d="M3.38028 40.7696C3.38028 39.5905 4.33606 38.6348 5.51507 38.6348H2.13479C0.955774 38.6348 0 39.5905 0 40.7696C0 41.9486 0.955774 42.9043 2.13479 42.9043H5.51507C4.33606 42.9043 3.38028 41.9486 3.38028 40.7696Z" fill="#A56464"/>
</g>
<defs>
<clipPath id="clip0_1967_17360">
<rect width="70" height="70" fill="white"/>
</clipPath>
</defs>
</svg>
