<svg width="347" height="406" viewBox="0 0 347 406" fill="none" xmlns="http://www.w3.org/2000/svg">
<g clip-path="url(#clip0_1917_201971)">
<path d="M153.2 127.9C153.2 127.9 147.2 131.4 142.8 126.5C142.8 126.5 143 129.9 134.4 129.9C125.8 129.9 128.4 119.6 128.4 119.6C128.4 119.6 122 122.1 117.7 117.4C113.4 112.7 118.2 106 118.2 106C118.2 106 108.1 108.8 105.4 100.5C102.7 92.1 108 88.9 108 88.9C108 88.9 98 84.8 97.8 74.4C97.6 64 105.1 61 105.1 61C105.1 61 101.1 53.5 104.6 46.2C108.1 38.9 115.1 39.1 115.1 39.1C115.1 39.1 111.3 28.6 117.4 21.4C123.6 14.1 134.3 15.1 134.3 15.1C134.3 15.1 135.5 4.79996 145.7 1.99996C155.9 -0.70004 160 4.79996 160 4.79996C160 4.79996 169.2 -1.80004 181.7 0.69996C194.2 3.19996 195.4 11.9 195.4 11.9C195.4 11.9 208.3 7.39996 219.6 15C230.8 22.5 228.4 38.9 228.4 38.9C228.4 38.9 238.3 41.8 241.3 50.1C244.2 58.3 239.5 63.6 239.5 63.6C239.5 63.6 247.6 67.1 246.8 76.3C246 85.5 238.9 90.1 238.9 90.1C238.9 90.1 244 96.1 239.8 102.6C235.6 109.1 230.3 107.7 230.3 107.7C230.3 107.7 234.2 120.6 218.7 120.2C218.7 120.2 221.5 129.2 212.7 130.1C203.9 130.9 203.2 126.2 203.2 126.2C203.2 126.2 201.1 131 196 129.3C190.9 127.6 152.9 128.2 152.9 128.2L153.2 127.9Z" fill="#D28130"/>
<path d="M197.2 122H171.7H146.2L144.7 163.3H171.7H198.7L197.2 122Z" fill="#FCB996"/>
<path d="M171.7 122.2H146.2C146.2 122.2 153.4 141.9 171.7 141.9C190 141.9 197.2 122.2 197.2 122.2H171.7Z" fill="#E08C6D"/>
<path d="M207.9 97.1C207.9 97.1 217.4 94.7 218.5 86C219.6 77.3 215.5 73.1 212.2 73.1C208.9 73.1 208.3 76.8 208.3 76.8V85C208.3 85 208.3 91.4 207.9 97.2V97.1Z" fill="#FCB996"/>
<path d="M135.5 97.1C135.5 97.1 126 94.7 124.9 86C123.8 77.3 127.9 73.1 131.2 73.1C134.5 73.1 135.1 76.8 135.1 76.8V85C135.1 85 135.1 91.4 135.5 97.2V97.1Z" fill="#FCB996"/>
<path d="M208.8 85.4V54.3C208.8 25 171.9 28.2 171.9 28.2C171.9 28.2 135 25 135 54.3V85.4C135 85.4 135 93 135.5 99.9C135.7 102.4 136 104.9 136.4 106.8C137.8 114 144 121.3 149.6 125.7C155.1 130.1 161.7 134.3 172 134.3C182.3 134.3 188.8 130.1 194.4 125.7C199.9 121.3 206.2 113.9 207.6 106.8C208 104.9 208.3 102.4 208.5 99.9C209 93 209 85.4 209 85.4H208.8Z" fill="#FCB996"/>
<path d="M185.6 88.1C187.257 88.1 188.6 86.2196 188.6 83.9C188.6 81.5804 187.257 79.7 185.6 79.7C183.943 79.7 182.6 81.5804 182.6 83.9C182.6 86.2196 183.943 88.1 185.6 88.1Z" fill="#111216"/>
<path d="M156.8 88.1C158.457 88.1 159.8 86.2196 159.8 83.9C159.8 81.5804 158.457 79.7 156.8 79.7C155.143 79.7 153.8 81.5804 153.8 83.9C153.8 86.2196 155.143 88.1 156.8 88.1Z" fill="#111216"/>
<path d="M182 74.6C181.2 74.2 180.6 73.3 180.6 72.3C180.6 71.3 181.7 70 183 69.9C185.5 69.7 188.3 70.3 190.7 71.5C192.3 72.3 192.6 74.6 191 75.8C189.4 77 189.2 76.4 188.4 75.9C186.1 74.7 184.1 74.8 183.5 74.9C183 74.9 182.5 74.9 182.1 74.6H182Z" fill="#D28130"/>
<path d="M159 74.6C159.8 74.2 160.4 73.3 160.4 72.3C160.4 71.3 159.3 70 158 69.9C155.5 69.7 152.7 70.3 150.3 71.5C148.7 72.3 148.4 74.6 150 75.8C151.6 77 151.8 76.4 152.6 75.9C154.9 74.7 156.9 74.8 157.5 74.9C158 74.9 158.5 74.9 158.9 74.6H159Z" fill="#D28130"/>
<path opacity="0.5" d="M149.6 112.6C155.896 112.6 161 107.496 161 101.2C161 94.904 155.896 89.8 149.6 89.8C143.304 89.8 138.2 94.904 138.2 101.2C138.2 107.496 143.304 112.6 149.6 112.6Z" fill="#ED9C88"/>
<path opacity="0.5" d="M193.1 112.6C199.396 112.6 204.5 107.496 204.5 101.2C204.5 94.904 199.396 89.8 193.1 89.8C186.804 89.8 181.7 94.904 181.7 101.2C181.7 107.496 186.804 112.6 193.1 112.6Z" fill="#ED9C88"/>
<path d="M172 96C170.8 95.7 169.6 95.4 168.4 94.9C166.7 94 166.2 91.7 167.3 90.1C168.5 87.8 169.9 85.6 171.5 83.6C171.6 83.5 171.8 83.4 171.9 83.5C172.1 83.5 172.1 83.8 172.1 83.9C171.3 86.5 170.2 88.8 169 91.2C168.4 92.1 168.5 93 169.2 93.6C170.2 94.2 171.2 94.8 172.2 95.4C172.5 95.6 172.3 96.2 171.9 96.1L172 96Z" fill="#111216"/>
<path d="M130.7 88.3C128.7 88.3 127.2 87.1 126.6 84.9C125.9 82.4 126.6 79 128.5 78.3C129.3 78 129.9 78.2 130.2 78.3C131.1 78.9 131.2 80.1 131.2 80.3C131.2 80.6 131 80.9 130.6 81C130.3 81 130 80.8 129.9 80.4C129.9 80.2 129.8 79.6 129.5 79.4C129.4 79.4 129.2 79.4 128.9 79.4C127.9 79.8 127.2 82.4 127.8 84.5C128.2 85.8 129.1 87.3 131.5 86.9C131.8 86.9 132.2 87.1 132.2 87.4C132.2 87.7 132 88.1 131.7 88.1C131.4 88.1 131 88.1 130.7 88.1V88.3Z" fill="#915F44"/>
<path d="M213 88.3C212.7 88.3 212.3 88.3 212 88.3C211.7 88.3 211.4 87.9 211.5 87.6C211.5 87.3 211.9 87 212.2 87.1C214.6 87.5 215.5 86.1 215.9 84.7C216.5 82.5 215.8 80 214.8 79.6C214.5 79.5 214.3 79.5 214.2 79.6C213.9 79.8 213.8 80.3 213.8 80.6C213.8 80.9 213.5 81.2 213.1 81.2C212.8 81.2 212.5 80.9 212.5 80.5C212.5 80.4 212.6 79.1 213.5 78.5C213.8 78.3 214.4 78.1 215.2 78.5C217.1 79.2 217.7 82.6 217.1 85.1C216.5 87.3 215 88.5 213 88.5V88.3Z" fill="#915F44"/>
<path d="M186.2 43.8C186.2 43.8 186.5 51.9 176.9 50.8C176.9 50.8 177.3 54.6 171.7 58.3C166.1 61.9 161 59.8 158.2 54.7C158.2 54.7 158.2 61.5 147.8 60.8C147.8 60.8 149.2 69.5 138 70C138 70 139.4 75.1 134.9 77.1L130.2 49C130.2 49 139.1 21.6 178.9 21.6C218.7 21.6 208.3 76.3 208.3 76.3C208.3 76.3 202 78.1 203.1 71.7C203.1 71.7 197.6 69.4 198.2 61.1C198.2 61.1 192 59.8 191.3 53.6C190.6 47.4 190.1 44.6 186.2 43.8Z" fill="#D28130"/>
<path d="M132.2 95.1999C133.249 95.1999 134.1 94.3492 134.1 93.2999C134.1 92.2506 133.249 91.3999 132.2 91.3999C131.151 91.3999 130.3 92.2506 130.3 93.2999C130.3 94.3492 131.151 95.1999 132.2 95.1999Z" fill="#0A6593"/>
<path d="M210.7 95.0999C211.749 95.0999 212.6 94.2493 212.6 93.1999C212.6 92.1506 211.749 91.2999 210.7 91.2999C209.651 91.2999 208.8 92.1506 208.8 93.1999C208.8 94.2493 209.651 95.0999 210.7 95.0999Z" fill="#0A6593"/>
<path d="M177.1 108.6C176.4 111.2 173.7 113.2 170.9 113.3C170.8 113.3 170.7 113.3 170.6 113.3C167.9 113.3 165.2 111.6 164.3 109.2C164.3 109 164.3 108.7 164.4 108.6C164.6 108.4 165 108.3 165.2 108.6C165.7 109.1 166.3 109.6 166.9 109.9C168.1 110.6 169.4 110.9 170.7 110.8C172 110.8 173.3 110.5 174.5 109.9C175.1 109.6 175.7 109.1 176.2 108.6C176.5 108.3 176.8 108.4 177 108.6H177.1Z" fill="#111216"/>
<path d="M23.3 389.8C23.3 389.8 23.2 397 21.5 399.9C19.9 402.8 18.8 402.3 18.8 399.4C18.8 396.5 19.3 389.2 19.3 389.2L23.3 389.7V389.8Z" fill="#FCB996"/>
<path d="M18.5 399.5C18.5 399.5 17.5 402.9 15.3 404.1C13.1 405.2 13.9 401.8 15 398.2C16.1 394.6 18.3 388 18.3 388L21.8 387.6L18.4 399.6L18.5 399.5Z" fill="#FCB996"/>
<path d="M14.4 400.9C14.4 400.9 13.4 404.3 11.2 405.5C9 406.7 9.8 403.2 10.9 399.6C12 396 14.2 389.4 14.2 389.4L17.7 389L14.3 401L14.4 400.9Z" fill="#FCB996"/>
<path d="M37.1 367.3C37.1 367.3 35.3 370.3 34.1 371.8C33 373.3 24.1 380.6 19 383.8C13.9 387 13.7 388 8.89999 392.6C4.09999 397.3 -1.00001 403.1 0.0999886 405C1.19999 406.9 5.49999 405.5 10.2 400.6C14.8 395.7 15.9 393.1 19.4 391.5C22.9 389.9 30.8 386.9 31.9 387C34.7 387.3 33.2 391 31.9 393.2C30.6 395.4 29.5 398.9 29.1 402.9C28.7 406.9 30.1 405.7 31.6 405.7C34.3 405.7 35.4 401 36.7 398.1C38 395.2 44.7 391.3 45.7 384C46.7 376.7 51.2 373.2 51.2 373.2L37.1 367.3Z" fill="#FCB996"/>
<path d="M10.9 400.1C13.6 395.4 18.1 391.5 23.3 389.9C22.7 390.2 22.1 390.5 21.5 390.8C17.3 393 13.8 396.3 10.9 400.1Z" fill="#111216"/>
<path d="M18.8 398.4C19.2 395.8 19.9 393.3 20.9 390.9C20.5 393.5 19.8 396 18.8 398.4Z" fill="#111216"/>
<path d="M14 402.3C14.6 399.4 15.5 396.5 16.7 393.8C16.1 396.7 15.2 399.6 14 402.3Z" fill="#111216"/>
<path d="M28.3 356.6L23.3 372L55.9 385.6L61.7 365L28.3 356.6Z" fill="#ED6971"/>
<path d="M237.3 249.7C242.3 277.3 261.7 405.7 259.2 405.7H91.2C87.2 406.8 101.1 278.4 107.9 249.7L100.2 256.6C103.8 237 108.6 218.1 114.8 201.6C116.5 197.2 118.2 192.9 120.1 188.8C120.9 187.1 121.7 185.5 122.5 183.9C124.5 179.9 126.7 176.1 128.9 172.6C132.9 163.7 137.3 157.2 142.4 154.2C143.3 153.8 144.3 153.5 145.3 153.1C145.3 153.1 145.4 153.1 145.5 153.1H144.2C144.4 153.1 146 150.7 146.2 150.6C146.3 150.6 146.3 153 146.5 153C147.1 152.6 147.6 152.2 148.2 151.8C148.2 151.8 154.7 155.2 168.2 156C170.2 156.1 172 156.2 173.8 156.2H174.7C176.5 156.2 178.4 156.2 180.3 156C193.8 155.2 200.3 151.8 200.3 151.8C200.3 151.8 200.3 151.8 200.4 151.9C200.9 152.3 201.4 152.6 201.9 153C202 153 202.1 153 202.2 153C203.5 153.4 204.7 153.9 205.9 154.4C209.9 156.8 213.5 161.3 216.8 167.5C217.7 169.1 218.5 170.9 219.3 172.7C219.3 172.7 219.3 172.8 219.4 172.9C220.5 174.6 221.6 176.4 222.6 178.3C224.1 181 225.6 183.8 227 186.8C236.8 207.2 243.7 233 248.5 259.9L237.3 249.9V249.7Z" fill="white"/>
<path d="M212.8 405.7H133.2C133.3 403.4 133.9 393.9 134.7 379.9C135.7 361 137.1 333.9 138.4 305C139 292.1 139.7 276.6 140.5 260.5C140.5 259.4 140.6 258.2 140.7 257.1C143.2 206.6 146.1 151.1 146.1 151.1C146.1 151.1 146 151.2 145.9 151.3C145.9 151.1 146 150.8 146.1 150.6C146.9 151 154.6 154.6 169.9 154.9C176.6 155 184.8 154.5 194.5 152.8C196.3 152.5 198.2 152.1 200.2 151.7C200.3 153.8 203.2 207.7 205.6 257.1C205.6 258.2 205.7 259.4 205.8 260.5C206.6 276.8 207.3 292.4 207.9 305.4C209.1 333.6 210.5 360.1 211.5 378.9C212.3 393.2 212.9 403.1 213 405.8L212.8 405.7Z" fill="#ED6971"/>
<path d="M149.9 157.2C162.8 160.6 176.3 160.6 189.3 158C190.5 157.7 191.8 157.5 193.1 157.3C194.9 156.9 196.6 156.4 198.4 156.1C196.6 157.1 194.7 158.1 192.7 158.8C184.9 161.9 176.3 163.3 167.9 162.6C161.6 162 155.2 160.5 149.9 157.2Z" fill="#111216"/>
<path d="M165.1 249.7C158.8 256.5 149.6 260.2 140.4 260.5C140.4 259.4 140.5 258.2 140.6 257.1C149.2 256.8 157.7 254.1 165.1 249.8V249.7Z" fill="#B85158"/>
<path d="M205.7 260.5C196.1 260.5 186.4 256.8 179.9 249.7C187.7 254.2 196.5 256.9 205.5 257.1C205.5 258.2 205.6 259.4 205.7 260.5Z" fill="#B85158"/>
<path d="M146 150.4C146 150.4 115.6 151.8 87.3 195.5C59 239.2 20.7 367.4 20.7 367.4L70.1 381.9C70.1 381.9 110 280.6 121.3 242.3L146.1 150.4H146Z" fill="white"/>
<path d="M323 390C323 390 323.1 397.2 324.8 400.1C326.4 403 327.5 402.5 327.5 399.6C327.5 396.7 327 389.4 327 389.4L323 389.9V390Z" fill="#FCB996"/>
<path d="M327.8 399.7C327.8 399.7 328.8 403.1 331 404.3C333.2 405.5 332.4 402 331.3 398.4C330.2 394.8 328 388.2 328 388.2L324.5 387.8L327.9 399.8L327.8 399.7Z" fill="#FCB996"/>
<path d="M331.9 401.1C331.9 401.1 332.9 404.5 335.1 405.7C337.3 406.9 336.5 403.4 335.4 399.8C334.3 396.2 332.1 389.6 332.1 389.6L328.6 389.2L332 401.2L331.9 401.1Z" fill="#FCB996"/>
<path d="M309.2 367.5C309.2 367.5 311 370.5 312.2 372C313.3 373.5 322.2 380.8 327.3 384C332.4 387.2 332.6 388.2 337.4 392.8C342.2 397.4 347.3 403.3 346.2 405.2C345.1 407.1 340.8 405.7 336.1 400.8C331.5 395.9 330.4 393.3 326.9 391.7C323.4 390.1 315.5 387.1 314.4 387.2C311.6 387.5 313.1 391.2 314.4 393.4C315.7 395.6 316.8 399.1 317.2 403.1C317.6 407.1 316.2 405.9 314.7 405.9C312 405.9 310.9 401.2 309.6 398.3C308.3 395.4 301.6 391.5 300.6 384.2C299.6 376.9 295.1 373.4 295.1 373.4L309.2 367.5Z" fill="#FCB996"/>
<path d="M335.4 400.3C332.6 396.5 329 393.2 324.8 391C324.2 390.6 323.6 390.4 323 390.1C328.2 391.7 332.7 395.6 335.4 400.3Z" fill="#111216"/>
<path d="M327.5 398.6C326.5 396.2 325.8 393.7 325.4 391.1C326.4 393.5 327.1 396 327.5 398.6Z" fill="#111216"/>
<path d="M332.3 402.5C331.1 399.8 330.2 396.9 329.6 394C330.8 396.7 331.7 399.6 332.3 402.5Z" fill="#111216"/>
<path d="M318.1 357.7L323 373.1L290.4 386.7L284.6 366.1L318.1 357.7Z" fill="#ED6971"/>
<path d="M200.1 151.6C200.1 151.6 230 154.5 258.3 198.2C286.6 241.9 325.6 368.6 325.6 368.6L276.2 383.1C276.2 383.1 236.3 281.8 225 243.5L200.1 151.7V151.6Z" fill="white"/>
<path d="M99.1 307.3C103 291.3 107.7 274.8 112.3 259C111.4 267.3 109.5 275.5 107.3 283.6C105 291.7 102.4 299.6 99 307.3H99.1Z" fill="#111216"/>
<path d="M246.7 305.6C243.8 298.7 241.7 291.6 240 284.3C238.4 277.1 237.1 269.7 236.8 262.2C240.2 276.2 243.8 291.5 246.7 305.6Z" fill="#111216"/>
<path d="M212.8 405.7H133.2C133.3 403.4 133.9 393.9 134.7 379.9C160.2 382.8 186 382.3 211.3 378.8C212.1 393.1 212.7 403 212.8 405.7Z" fill="#464856"/>
<path d="M141.4 156.7C136.1 161.9 130.6 166.8 125 171.6L125.3 169.9C129.6 175.7 133.9 182.1 138 188.1C137.4 188 133.5 187 133 187C129.5 186.5 125.6 186.6 122.6 188.6C122.2 188.8 121.7 189.3 121.3 189.5L121.8 187.8C125.4 200.7 128.8 213.7 131.4 226.9C127.7 217.5 124.6 207.9 121.5 198.3C120.4 194.8 119.3 191.2 118.2 187.7C119.5 186.5 120.9 185.3 122.5 184.6C126.3 182.9 130.6 182.8 134.6 183.8L132.8 186.4L130.4 182.7C127.8 178.7 125.1 174.4 122.6 170.4C128.8 165.7 135 161.1 141.5 156.8L141.4 156.7Z" fill="#111216"/>
<path d="M204.1 156.1C210.4 160.7 216.5 165.5 222.5 170.4C219.9 174.3 217 178.6 214.2 182.5L211.6 186.2L209.9 183.6C213.9 182.8 218.2 183 221.9 184.9C223.5 185.6 224.8 186.9 226.1 188.1C224.9 191.6 223.7 195.1 222.5 198.6C219.1 208.1 215.6 217.5 211.6 226.8C214.7 213.7 218.5 200.9 222.5 188.1L222.9 189.8C222.5 189.5 222.1 189 221.7 188.8C218.8 186.7 214.9 186.4 211.4 186.8C210.9 186.8 206.9 187.7 206.3 187.8C210.6 182 215.2 175.8 219.7 170.1L219.9 171.8C214.5 166.8 209.2 161.6 204.1 156.3V156.1Z" fill="#111216"/>
<path d="M216 258.9C215.9 258.9 215.7 258.9 215.6 259C215.6 258 215.4 257.1 215.3 256.1C214.9 251.9 214.5 247.7 214.1 243.5C214.1 243.9 214.2 244.3 214.3 244.7C214.8 248.4 215.3 252.2 215.7 256C215.8 256.9 215.9 257.9 216 258.8V258.9Z" fill="white"/>
</g>
<defs>
<clipPath id="clip0_1917_201971">
<rect width="346.3" height="405.9" fill="white"/>
</clipPath>
</defs>
</svg>
