<svg width="347" height="419" viewBox="0 0 347 419" fill="none" xmlns="http://www.w3.org/2000/svg">
<g clip-path="url(#clip0_1917_201911)">
<path d="M216.5 52.2001C208.7 30.8001 196.3 28.8 196.3 28.8C191.2 21.3 172.6 19.8 172.6 19.8C172.6 19.8 154 21.3 148.9 28.8C148.9 28.8 136.5 30.8001 128.7 52.2001C120.9 73.6001 118.4 208.2 118.4 208.2L172.5 177L226.6 204.7C226.6 204.7 224.1 73.6001 216.3 52.2001H216.5Z" fill="#111216"/>
<path d="M198.1 135.7H172.6H147.1L145.6 177H172.6H199.6L198.1 135.7Z" fill="#FCB996"/>
<path d="M172.6 136H147.1C147.1 136 154.3 155.7 172.6 155.7C190.9 155.7 198.1 136 198.1 136H172.6Z" fill="#E08C6D"/>
<path d="M172.6 43.4C188.285 43.4 201 33.6846 201 21.7C201 9.71542 188.285 0 172.6 0C156.915 0 144.2 9.71542 144.2 21.7C144.2 33.6846 156.915 43.4 172.6 43.4Z" fill="#111216"/>
<path d="M208.1 110.8C208.1 110.8 217.6 108.4 218.7 99.6999C219.8 90.9999 215.7 86.7999 212.4 86.7999C209.1 86.7999 208.5 90.4999 208.5 90.4999V98.6999C208.5 98.6999 208.5 105.1 208.1 110.9V110.8Z" fill="#FCB996"/>
<path d="M135.5 110.8C135.5 110.8 126 108.4 124.9 99.6999C123.8 90.9999 127.9 86.7999 131.2 86.7999C134.5 86.7999 135.1 90.4999 135.1 90.4999V98.6999C135.1 98.6999 135.1 105.1 135.5 110.9V110.8Z" fill="#FCB996"/>
<path d="M208.9 99.1V68C208.9 38.7 172 41.9 172 41.9C172 41.9 135.1 38.7 135.1 68V99.1C135.1 99.1 135.1 106.7 135.6 113.6C135.8 116.1 136.1 118.6 136.5 120.5C137.9 127.7 144.1 135 149.7 139.4C155.2 143.8 161.8 148 172.1 148C182.4 148 188.9 143.8 194.5 139.4C200 135 206.3 127.6 207.7 120.5C208.1 118.6 208.4 116.1 208.6 113.6C209.1 106.7 209.1 99.1 209.1 99.1H208.9Z" fill="#FCB996"/>
<path d="M185.8 101.8C187.457 101.8 188.8 99.9195 188.8 97.5999C188.8 95.2803 187.457 93.3999 185.8 93.3999C184.143 93.3999 182.8 95.2803 182.8 97.5999C182.8 99.9195 184.143 101.8 185.8 101.8Z" fill="#111216"/>
<path d="M156.2 101.8C157.857 101.8 159.2 99.9195 159.2 97.5999C159.2 95.2803 157.857 93.3999 156.2 93.3999C154.543 93.3999 153.2 95.2803 153.2 97.5999C153.2 99.9195 154.543 101.8 156.2 101.8Z" fill="#111216"/>
<path d="M182.1 88.2999C181.3 87.8999 180.7 86.9999 180.7 85.9999C180.7 84.9999 181.8 83.6999 183.1 83.5999C185.6 83.3999 188.4 83.9999 190.8 85.1999C192.4 85.9999 192.7 88.2999 191.1 89.4999C189.5 90.6999 189.3 90.0999 188.5 89.5999C186.2 88.3999 184.2 88.4999 183.6 88.5999C183.1 88.5999 182.6 88.5999 182.2 88.2999H182.1Z" fill="#111216"/>
<path d="M159.1 88.2999C159.9 87.8999 160.5 86.9999 160.5 85.9999C160.5 84.9999 159.4 83.6999 158.1 83.5999C155.6 83.3999 152.8 83.9999 150.4 85.1999C148.8 85.9999 148.5 88.2999 150.1 89.4999C151.7 90.6999 151.9 90.0999 152.7 89.5999C155 88.3999 157 88.4999 157.6 88.5999C158.1 88.5999 158.6 88.5999 159 88.2999H159.1Z" fill="#111216"/>
<g opacity="0.5">
<path d="M149.7 129.4C155.996 129.4 161.1 124.296 161.1 118C161.1 111.704 155.996 106.6 149.7 106.6C143.404 106.6 138.3 111.704 138.3 118C138.3 124.296 143.404 129.4 149.7 129.4Z" fill="#ED9C88"/>
<path d="M193.3 129.4C199.596 129.4 204.7 124.296 204.7 118C204.7 111.704 199.596 106.6 193.3 106.6C187.004 106.6 181.9 111.704 181.9 118C181.9 124.296 187.004 129.4 193.3 129.4Z" fill="#ED9C88"/>
</g>
<path d="M164.9 119.8C164.9 119.8 175.8 119.8 178.6 119.8C176.7 126.7 166.8 126.7 164.9 119.8Z" fill="white"/>
<path d="M172.1 109.8C170.9 109.5 169.7 109.2 168.5 108.7C166.8 107.8 166.3 105.5 167.4 103.9C168.6 101.6 170 99.4 171.6 97.4C171.7 97.3 171.9 97.2 172 97.3C172.2 97.3 172.2 97.6 172.2 97.7C171.4 100.3 170.3 102.6 169.1 105C168.5 105.9 168.6 106.8 169.3 107.4C170.3 108 171.3 108.6 172.3 109.2C172.6 109.4 172.4 110 172 109.9L172.1 109.8Z" fill="#111216"/>
<path d="M130.8 102C128.8 102 127.3 100.8 126.7 98.6C126 96.1 126.7 92.7 128.6 92C129.4 91.7 130 91.9 130.3 92C131.2 92.6 131.3 93.8 131.3 94C131.3 94.3 131.1 94.6 130.7 94.7C130.4 94.7 130.1 94.5 130 94.1C130 93.9 129.9 93.3 129.6 93.1C129.5 93.1 129.3 93.1 129 93.1C128 93.5 127.3 96.1 127.9 98.2C128.3 99.5 129.2 101 131.6 100.6C131.9 100.6 132.3 100.8 132.3 101.1C132.3 101.4 132.1 101.8 131.8 101.8C131.5 101.8 131.1 101.8 130.8 101.8V102Z" fill="#915F44"/>
<path d="M213.2 102C212.9 102 212.5 102 212.2 102C211.9 102 211.6 101.6 211.7 101.3C211.7 101 212.1 100.7 212.4 100.8C214.8 101.2 215.7 99.7999 216.1 98.3999C216.7 96.1999 216 93.6999 215 93.2999C214.7 93.1999 214.5 93.1999 214.4 93.2999C214.1 93.4999 214 93.9999 214 94.2999C214 94.5999 213.7 94.8999 213.3 94.8999C213 94.8999 212.7 94.5999 212.7 94.1999C212.7 94.0999 212.8 92.7999 213.7 92.1999C214 91.9999 214.6 91.7999 215.4 92.1999C217.3 92.8999 217.9 96.2999 217.3 98.7999C216.7 101 215.2 102.2 213.2 102.2V102Z" fill="#915F44"/>
<path d="M208.9 90.4C173.5 83.5 157.8 54.6 157.8 54.6C157.4 59.3 147.9 67.3 144.8 73C136.2 89.3 135.4 104.2 135.4 104.2L132.3 86.8C132.3 86.8 122 62.3 143.5 41.8C165 21.4 195.4 23.6 206.4 48.6C217.5 73.6 208.9 90.4 208.9 90.4Z" fill="#111216"/>
<path d="M23.3 403C23.3 403 23.2 410.2 21.5 413.1C19.9 416 18.8 415.5 18.8 412.6C18.8 409.7 19.3 402.4 19.3 402.4L23.3 402.9V403Z" fill="#FCB996"/>
<path d="M18.5 412.7C18.5 412.7 17.5 416.1 15.3 417.3C13.1 418.4 13.9 415 15 411.4C16.1 407.8 18.3 401.2 18.3 401.2L21.8 400.8L18.4 412.8L18.5 412.7Z" fill="#FCB996"/>
<path d="M14.4 414.1C14.4 414.1 13.4 417.5 11.2 418.7C9 419.9 9.8 416.4 10.9 412.8C12 409.2 14.2 402.6 14.2 402.6L17.7 402.2L14.3 414.2L14.4 414.1Z" fill="#FCB996"/>
<path d="M37.1 380.5C37.1 380.5 35.3 383.5 34.1 385C33 386.5 24.1 393.8 19 397C13.9 400.2 13.7 401.2 8.89999 405.8C4.09999 410.5 -1.00001 416.3 0.0999886 418.2C1.19999 420.1 5.49999 418.7 10.2 413.8C14.8 408.9 15.9 406.3 19.4 404.7C22.9 403.1 30.8 400.1 31.9 400.2C34.7 400.5 33.2 404.2 31.9 406.4C30.6 408.6 29.5 412.1 29.1 416.1C28.7 420.1 30.1 418.9 31.6 418.9C34.3 418.9 35.4 414.2 36.7 411.3C38 408.4 44.7 404.5 45.7 397.2C46.7 389.9 51.2 386.4 51.2 386.4L37.1 380.5Z" fill="#FCB996"/>
<path d="M10.9 413.3C13.6 408.6 18.1 404.7 23.3 403.1C22.7 403.4 22.1 403.7 21.5 404C17.3 406.2 13.8 409.5 10.9 413.3Z" fill="#111216"/>
<path d="M18.8 411.6C19.2 409 19.9 406.5 20.9 404.1C20.5 406.7 19.8 409.2 18.8 411.6Z" fill="#111216"/>
<path d="M14 415.5C14.6 412.6 15.5 409.7 16.7 407C16.1 409.9 15.2 412.8 14 415.5Z" fill="#111216"/>
<path d="M28.3 369.8L23.3 385.2L55.9 398.8L61.7 378.3L28.3 369.8Z" fill="#00C6E1"/>
<path d="M237.2 262.9C242.2 290.5 261.6 418.9 259.1 418.9H91.1C87.1 420 101 291.6 107.8 262.9L100.1 269.8C103.7 250.2 108.5 231.3 114.7 214.8C116.4 210.4 118.1 206.1 120 202C120.8 200.3 121.6 198.7 122.4 197.1C124.4 193.1 126.6 189.3 128.8 185.8C132.8 176.9 137.2 170.4 142.3 167.4C143.2 167 144.2 166.7 145.2 166.3C145.2 166.3 145.3 166.3 145.4 166.3H144.1C144.3 166.3 145.9 163.9 146.1 163.8C146.2 163.8 146.2 166.2 146.4 166.2C147 165.8 147.5 165.4 148.1 165C148.1 165 154.6 168.4 168.1 169.2C170.1 169.3 171.9 169.4 173.7 169.4H174.6C176.4 169.4 178.3 169.4 180.2 169.2C193.7 168.4 200.2 165 200.2 165C200.2 165 200.2 165 200.3 165.1C200.8 165.5 201.3 165.8 201.8 166.2C201.9 166.2 202 166.2 202.1 166.2C203.4 166.6 204.6 167.1 205.8 167.6C209.8 170 213.4 174.5 216.7 180.7C217.6 182.3 218.4 184.1 219.2 185.9C219.2 185.9 219.2 186 219.3 186.1C220.4 187.8 221.5 189.6 222.5 191.5C224 194.2 225.5 197 226.9 200C236.7 220.4 243.6 246.2 248.4 273.1L237.2 263.1V262.9Z" fill="white"/>
<path d="M212.8 418.9H133.2C133.3 416.6 133.9 407.1 134.7 393.1C135.7 374.2 137.1 347.1 138.4 318.2C139 305.3 139.7 289.8 140.5 273.7C140.5 272.6 140.6 271.4 140.7 270.3C143.2 219.8 146.1 164.3 146.1 164.3C146.1 164.3 146 164.4 145.9 164.5C145.9 164.3 146 164 146.1 163.8C146.9 164.2 154.6 167.8 169.9 168.1C176.6 168.2 184.8 167.7 194.5 166C196.3 165.7 198.2 165.3 200.2 164.9C200.3 167 203.2 220.9 205.6 270.3C205.6 271.4 205.7 272.6 205.8 273.7C206.6 290 207.3 305.6 207.9 318.6C209.1 346.8 210.5 373.3 211.5 392.1C212.3 406.4 212.9 416.3 213 419L212.8 418.9Z" fill="#00C6E1"/>
<path d="M149.9 170.4C162.8 173.8 176.3 173.8 189.3 171.2C190.5 170.9 191.8 170.7 193.1 170.5C194.9 170.1 196.6 169.6 198.4 169.3C196.6 170.3 194.7 171.3 192.7 172C184.9 175.1 176.3 176.5 167.9 175.8C161.6 175.2 155.2 173.7 149.9 170.4Z" fill="#111216"/>
<path d="M165.1 262.9C158.8 269.7 149.6 273.4 140.4 273.7C140.4 272.6 140.5 271.4 140.6 270.3C149.2 270 157.7 267.3 165.1 263V262.9Z" fill="#00B3CC"/>
<path d="M205.7 273.7C196.1 273.7 186.4 270 179.9 262.9C187.7 267.4 196.5 270.1 205.5 270.3C205.5 271.4 205.6 272.6 205.7 273.7Z" fill="#00B3CC"/>
<path d="M145.9 163.6C145.9 163.6 115.5 165 87.2 208.7C58.9 252.4 20.6 380.6 20.6 380.6L70 395.1C70 395.1 109.9 293.8 121.2 255.5L146 163.6H145.9Z" fill="white"/>
<path d="M323 403C323 403 323.1 410.2 324.8 413.1C326.4 416 327.5 415.5 327.5 412.6C327.5 409.7 327 402.4 327 402.4L323 402.9V403Z" fill="#FCB996"/>
<path d="M327.8 412.7C327.8 412.7 328.8 416.1 331 417.3C333.2 418.5 332.4 415 331.3 411.4C330.2 407.8 328 401.2 328 401.2L324.5 400.8L327.9 412.8L327.8 412.7Z" fill="#FCB996"/>
<path d="M331.9 414.1C331.9 414.1 332.9 417.5 335.1 418.7C337.3 419.9 336.5 416.4 335.4 412.8C334.3 409.2 332.1 402.6 332.1 402.6L328.6 402.2L332 414.2L331.9 414.1Z" fill="#FCB996"/>
<path d="M309.2 380.5C309.2 380.5 311 383.5 312.2 385C313.3 386.5 322.2 393.8 327.3 397C332.4 400.2 332.6 401.2 337.4 405.8C342.2 410.4 347.3 416.3 346.2 418.2C345.1 420.1 340.8 418.7 336.1 413.8C331.5 408.9 330.4 406.3 326.9 404.7C323.4 403.1 315.5 400.1 314.4 400.2C311.6 400.5 313.1 404.2 314.4 406.4C315.7 408.6 316.8 412.1 317.2 416.1C317.6 420.1 316.2 418.9 314.7 418.9C312 418.9 310.9 414.2 309.6 411.3C308.3 408.4 301.6 404.5 300.6 397.2C299.6 389.9 295.1 386.4 295.1 386.4L309.2 380.5Z" fill="#FCB996"/>
<path d="M335.4 413.3C332.6 409.5 329 406.2 324.8 404C324.2 403.6 323.6 403.4 323 403.1C328.2 404.7 332.7 408.6 335.4 413.3Z" fill="#111216"/>
<path d="M327.5 411.6C326.5 409.2 325.8 406.7 325.4 404.1C326.4 406.5 327.1 409 327.5 411.6Z" fill="#111216"/>
<path d="M332.3 415.5C331.1 412.8 330.2 409.9 329.6 407C330.8 409.7 331.7 412.6 332.3 415.5Z" fill="#111216"/>
<path d="M318.1 370.9L323 386.3L290.4 399.9L284.6 379.3L318.1 370.9Z" fill="#00C6E1"/>
<path d="M200 164.8C200 164.8 229.9 167.7 258.2 211.4C286.5 255.1 325.5 381.8 325.5 381.8L276.1 396.3C276.1 396.3 236.2 295 224.9 256.7L200 164.9V164.8Z" fill="white"/>
<path d="M99.1 320.6C103 304.6 107.7 288.1 112.3 272.3C111.4 280.6 109.5 288.8 107.3 296.9C105 305 102.4 312.9 99 320.6H99.1Z" fill="#111216"/>
<path d="M246.7 318.9C243.8 312 241.7 304.9 240 297.6C238.4 290.4 237.1 283 236.8 275.5C240.2 289.5 243.8 304.8 246.7 318.9Z" fill="#111216"/>
<path d="M212.8 418.9H133.2C133.3 416.6 133.9 407.1 134.7 393.1C160.2 396 186 395.5 211.3 392C212.1 406.3 212.7 416.2 212.8 418.9Z" fill="#010544"/>
<path d="M141.4 169.9C136.1 175.1 130.6 180 125 184.8L125.3 183.1C129.6 188.9 133.9 195.3 138 201.3C137.4 201.2 133.5 200.2 133 200.2C129.5 199.7 125.6 199.8 122.6 201.8C122.2 202 121.7 202.5 121.3 202.7L121.8 201C125.4 213.9 128.8 226.9 131.4 240.1C127.7 230.7 124.6 221.1 121.5 211.5C120.4 208 119.3 204.4 118.2 200.9C119.5 199.7 120.9 198.5 122.5 197.8C126.3 196.1 130.6 196 134.6 197L132.8 199.6L130.4 195.9C127.8 191.9 125.1 187.6 122.6 183.6C128.8 178.9 135 174.3 141.5 170L141.4 169.9Z" fill="#111216"/>
<path d="M204.1 169.3C210.4 173.9 216.5 178.7 222.5 183.6C219.9 187.5 217 191.8 214.2 195.7L211.6 199.4L209.9 196.8C213.9 196 218.2 196.2 221.9 198.1C223.5 198.8 224.8 200.1 226.1 201.3C224.9 204.8 223.7 208.3 222.5 211.8C219.1 221.3 215.6 230.7 211.6 240C214.7 226.9 218.5 214.1 222.5 201.3L222.9 203C222.5 202.7 222.1 202.2 221.7 202C218.8 199.9 214.9 199.6 211.4 200C210.9 200 206.9 200.9 206.3 201C210.6 195.2 215.2 189 219.7 183.3L219.9 185C214.5 180 209.2 174.8 204.1 169.5V169.3Z" fill="#111216"/>
<path d="M216 272.1C215.9 272.1 215.7 272.1 215.6 272.2C215.6 271.2 215.4 270.3 215.3 269.3C214.9 265.1 214.5 260.9 214.1 256.7C214.1 257.1 214.2 257.5 214.3 257.9C214.8 261.6 215.3 265.4 215.7 269.2C215.8 270.1 215.9 271.1 216 272V272.1Z" fill="white"/>
</g>
<defs>
<clipPath id="clip0_1917_201911">
<rect width="346.3" height="418.9" fill="white"/>
</clipPath>
</defs>
</svg>
