<svg width="347" height="410" viewBox="0 0 347 410" fill="none" xmlns="http://www.w3.org/2000/svg">
<g clip-path="url(#clip0_1917_202032)">
<path d="M202.9 93.9001C203.949 93.9001 204.8 93.0494 204.8 92.0001C204.8 90.9508 203.949 90.1001 202.9 90.1001C201.851 90.1001 201 90.9508 201 92.0001C201 93.0494 201.851 93.9001 202.9 93.9001Z" fill="#0A6593"/>
<path d="M166.7 22.5C166.7 22.5 165 0.60004 194.6 4.01316e-05C224.3 -0.59996 236.1 27.5 236.5 56.6C236.9 85.8 226.4 116.8 235.9 136.4C245.4 156 262.8 155.3 262.8 155.3C262.8 155.3 219.8 175.1 199.5 126.4C179.2 77.7 166.7 22.5 166.7 22.5Z" fill="#6E1410"/>
<path d="M186 14.1C179.9 13.1 174.1 13 168.4 13.9C166.3 18.7 166.6 22.9 166.6 22.9C166.6 22.9 166.6 23.1 166.8 23.6H188.4V16.9C188.4 15.5 187.4 14.3 186 14.1Z" fill="#0A6593"/>
<path d="M173.2 118.1C199.213 118.1 220.3 96.0276 220.3 68.8C220.3 41.5724 199.213 19.5 173.2 19.5C147.187 19.5 126.1 41.5724 126.1 68.8C126.1 96.0276 147.187 118.1 173.2 118.1Z" fill="#861814"/>
<path d="M198.1 126.2H172.6H147L145.6 167.5H172.6H199.5L198.1 126.2Z" fill="#FCB996"/>
<path d="M172.6 126.5H147.1C147.1 126.5 154.3 146.2 172.6 146.2C190.9 146.2 198.1 126.5 198.1 126.5H172.6Z" fill="#E08C6D"/>
<path d="M208.6 101.3C208.6 101.3 218.1 98.8999 219.2 90.1999C220.3 81.4999 216.2 77.2999 212.9 77.2999C209.6 77.2999 209 80.9999 209 80.9999V89.1999C209 89.1999 209 95.5999 208.6 101.4V101.3Z" fill="#FCB996"/>
<path d="M136.2 101.3C136.2 101.3 126.7 98.8999 125.6 90.1999C124.5 81.4999 128.6 77.2999 131.9 77.2999C135.2 77.2999 135.8 80.9999 135.8 80.9999V89.1999C135.8 89.1999 135.8 95.5999 136.2 101.4V101.3Z" fill="#FCB996"/>
<path d="M209.5 89.6V58.5C209.5 29.2 172.6 32.4 172.6 32.4C172.6 32.4 135.7 29.2 135.7 58.5V89.6C135.7 89.6 135.7 97.2 136.2 104.1C136.4 106.6 136.7 109.1 137.1 111C138.5 118.2 144.7 125.5 150.3 129.9C155.8 134.3 162.4 138.5 172.7 138.5C183 138.5 189.5 134.3 195.1 129.9C200.6 125.5 206.9 118.1 208.3 111C208.7 109.1 209 106.6 209.2 104.1C209.7 97.2 209.7 89.6 209.7 89.6H209.5Z" fill="#FCB996"/>
<path d="M186.3 92.2999C187.957 92.2999 189.3 90.4195 189.3 88.0999C189.3 85.7803 187.957 83.8999 186.3 83.8999C184.643 83.8999 183.3 85.7803 183.3 88.0999C183.3 90.4195 184.643 92.2999 186.3 92.2999Z" fill="#111216"/>
<path d="M157.5 92.2999C159.157 92.2999 160.5 90.4195 160.5 88.0999C160.5 85.7803 159.157 83.8999 157.5 83.8999C155.843 83.8999 154.5 85.7803 154.5 88.0999C154.5 90.4195 155.843 92.2999 157.5 92.2999Z" fill="#111216"/>
<path d="M182.7 76.5C181.9 76.1 181.3 75.2 181.3 74.2C181.3 73.2 182.4 71.9 183.7 71.8C186.2 71.6 189 72.2 191.4 73.4C193 74.2 193.3 76.5 191.7 77.7C190.1 78.9 189.9 78.3 189.1 77.8C186.8 76.6 184.8 76.7 184.2 76.8C183.7 76.8 183.2 76.8 182.8 76.5H182.7Z" fill="#861814"/>
<path d="M159.6 76.5C160.4 76.1 161 75.2 161 74.2C161 73.2 159.9 71.9 158.6 71.8C156.1 71.6 153.3 72.2 150.9 73.4C149.3 74.2 149 76.5 150.6 77.7C152.2 78.9 152.4 78.3 153.2 77.8C155.5 76.6 157.5 76.7 158.1 76.8C158.6 76.8 159.1 76.8 159.5 76.5H159.6Z" fill="#861814"/>
<path opacity="0.5" d="M150.3 116.8C156.596 116.8 161.7 111.696 161.7 105.4C161.7 99.104 156.596 94 150.3 94C144.004 94 138.9 99.104 138.9 105.4C138.9 111.696 144.004 116.8 150.3 116.8Z" fill="#ED9C88"/>
<path opacity="0.5" d="M193.8 116.8C200.096 116.8 205.2 111.696 205.2 105.4C205.2 99.104 200.096 94 193.8 94C187.504 94 182.4 99.104 182.4 105.4C182.4 111.696 187.504 116.8 193.8 116.8Z" fill="#ED9C88"/>
<path d="M172.7 100.3C171.5 100 170.3 99.7 169.1 99.2C167.4 98.3 166.9 96 168 94.4C169.2 92.1 170.6 89.9 172.2 87.9C172.3 87.8 172.5 87.7 172.6 87.8C172.8 87.8 172.8 88.1 172.8 88.2C172 90.8 170.9 93.1 169.7 95.5C169.1 96.4 169.2 97.3 169.9 97.9C170.9 98.5 171.9 99.1 172.9 99.7C173.2 99.9 173 100.5 172.6 100.4L172.7 100.3Z" fill="#111216"/>
<path d="M131.4 92.5C129.4 92.5 127.9 91.3 127.3 89.1C126.6 86.6 127.3 83.2 129.2 82.5C130 82.2 130.6 82.4 130.9 82.5C131.8 83.1 131.9 84.3 131.9 84.5C131.9 84.8 131.7 85.1 131.3 85.2C131 85.2 130.7 85 130.6 84.6C130.6 84.4 130.5 83.8 130.2 83.6C130.1 83.6 129.9 83.6 129.6 83.6C128.6 84 127.9 86.6 128.5 88.7C128.9 90 129.8 91.5 132.2 91.1C132.5 91.1 132.9 91.3 132.9 91.6C132.9 91.9 132.7 92.3 132.4 92.3C132.1 92.3 131.7 92.3 131.4 92.3V92.5Z" fill="#915F44"/>
<path d="M213.7 92.4999C213.4 92.4999 213 92.4999 212.7 92.4999C212.4 92.4999 212.1 92.0999 212.2 91.7999C212.2 91.4999 212.6 91.1999 212.9 91.2999C215.3 91.6999 216.2 90.2999 216.6 88.8999C217.2 86.6999 216.5 84.1999 215.5 83.7999C215.2 83.6999 215 83.6999 214.9 83.7999C214.6 83.9999 214.5 84.4999 214.5 84.7999C214.5 85.0999 214.2 85.3999 213.8 85.3999C213.5 85.3999 213.2 85.0999 213.2 84.6999C213.2 84.5999 213.3 83.2999 214.2 82.6999C214.5 82.4999 215.1 82.2999 215.9 82.6999C217.8 83.3999 218.4 86.7999 217.8 89.2999C217.2 91.4999 215.7 92.6999 213.7 92.6999V92.4999Z" fill="#915F44"/>
<path d="M192.1 50.8C192.1 50.8 187.3 73.1 155.1 75C155.1 75 175.1 67.5 180.1 57.8C180.1 57.8 170.5 67.8 158.8 71.2C147.1 74.6 139.7 77.3 138.2 80.7L135.9 94.6C135.9 94.6 134.9 83.3 132.7 76.3C130.5 69.3 133.8 34.5 158.5 29.8C183.2 25.1 208.6 36.5 211.8 53.6C215 70.7 209.1 95.7 209.1 95.7C209.1 95.7 207.5 81.4 204.6 75.9C201.7 70.4 193.7 61.6 192.2 50.8H192.1Z" fill="#861814"/>
<path d="M178.9 111.1C178.2 113.7 175.5 115.7 172.7 115.8C172.6 115.8 172.5 115.8 172.4 115.8C169.7 115.8 167 114.1 166.1 111.7C166.1 111.5 166.1 111.2 166.2 111.1C166.4 110.9 166.8 110.8 167 111.1C167.5 111.6 168.1 112.1 168.7 112.4C169.9 113.1 171.2 113.4 172.5 113.3C173.8 113.3 175.1 113 176.3 112.4C176.9 112.1 177.5 111.6 178 111.1C178.3 110.8 178.6 110.9 178.8 111.1H178.9Z" fill="#111216"/>
<g opacity="0.3">
<path d="M190.1 103.1C197.942 103.1 204.3 96.7425 204.3 88.9001C204.3 81.0576 197.942 74.7001 190.1 74.7001C182.258 74.7001 175.9 81.0576 175.9 88.9001C175.9 96.7425 182.258 103.1 190.1 103.1Z" fill="white"/>
<path d="M153.2 103.1C161.042 103.1 167.4 96.7425 167.4 88.9001C167.4 81.0576 161.042 74.7001 153.2 74.7001C145.358 74.7001 139 81.0576 139 88.9001C139 96.7425 145.358 103.1 153.2 103.1Z" fill="white"/>
</g>
<g opacity="0.4">
<path d="M203.5 84.3001L183.4 101.5C181.9 100.7 180.6 99.7001 179.5 98.4001L201.1 80.0001C202.2 81.3001 203 82.8001 203.5 84.4001V84.3001Z" fill="white"/>
<path d="M204.2 88.1002L186.9 102.8C186.1 102.6 185.4 102.4 184.7 102.1L203.9 85.8002C204.1 86.6002 204.2 87.3002 204.2 88.1002Z" fill="white"/>
<path d="M166.6 84.2001L146.5 101.4C145 100.6 143.7 99.5001 142.6 98.3001L164.2 79.9001C165.3 81.2001 166.1 82.7001 166.7 84.3001L166.6 84.2001Z" fill="white"/>
<path d="M167.4 88.0002L150.1 102.8C149.3 102.6 148.6 102.4 147.9 102.1L167.1 85.7002C167.3 86.5002 167.4 87.2002 167.4 88.0002Z" fill="white"/>
</g>
<path d="M190.1 104.4C181.6 104.4 174.7 97.5001 174.7 89.0001C174.7 80.5001 181.6 73.6001 190.1 73.6001C198.6 73.6001 205.5 80.5001 205.5 89.0001C205.5 97.5001 198.6 104.4 190.1 104.4ZM190.1 76.0001C182.9 76.0001 177.1 81.8001 177.1 89.0001C177.1 96.2001 182.9 102 190.1 102C197.3 102 203.1 96.2001 203.1 89.0001C203.1 81.8001 197.3 76.0001 190.1 76.0001Z" fill="#0A6593"/>
<path d="M153.2 104.4C144.7 104.4 137.8 97.5001 137.8 89.0001C137.8 80.5001 144.7 73.6001 153.2 73.6001C161.7 73.6001 168.6 80.5001 168.6 89.0001C168.6 97.5001 161.7 104.4 153.2 104.4ZM153.2 76.0001C146 76.0001 140.2 81.8001 140.2 89.0001C140.2 96.2001 146 102 153.2 102C160.4 102 166.2 96.2001 166.2 89.0001C166.2 81.8001 160.4 76.0001 153.2 76.0001Z" fill="#0A6593"/>
<path d="M175.9 90.2001C175.7 90.2001 175.4 90.2001 175.2 90.0001C171.5 87.6001 168.3 89.9001 168.1 90.0001C167.6 90.4001 166.8 90.3001 166.4 89.7001C166 89.1001 166.1 88.4001 166.7 88.0001C166.9 87.9001 171.4 84.6001 176.6 88.0001C177.2 88.4001 177.3 89.1001 177 89.7001C176.8 90.1001 176.4 90.3001 176 90.3001L175.9 90.2001Z" fill="#0A6593"/>
<path d="M23.3 393.5C23.3 393.5 23.2 400.7 21.5 403.6C19.9 406.5 18.8 406 18.8 403.1C18.8 400.2 19.3 392.9 19.3 392.9L23.3 393.4V393.5Z" fill="#FCB996"/>
<path d="M18.5 403.2C18.5 403.2 17.5 406.6 15.3 407.8C13.1 408.9 13.9 405.5 15 401.9C16.1 398.3 18.3 391.7 18.3 391.7L21.8 391.3L18.4 403.3L18.5 403.2Z" fill="#FCB996"/>
<path d="M14.4 404.6C14.4 404.6 13.4 408 11.2 409.2C9 410.4 9.8 406.9 10.9 403.3C12 399.7 14.2 393.1 14.2 393.1L17.7 392.7L14.3 404.7L14.4 404.6Z" fill="#FCB996"/>
<path d="M37.1 371C37.1 371 35.3 374 34.1 375.5C33 377 24.1 384.3 19 387.5C13.9 390.7 13.7 391.7 8.9 396.3C4.1 401 -1 406.8 0.0999963 408.7C1.2 410.6 5.5 409.2 10.2 404.3C14.8 399.4 15.9 396.8 19.4 395.2C22.9 393.6 30.8 390.6 31.9 390.7C34.7 391 33.2 394.7 31.9 396.9C30.6 399.1 29.5 402.6 29.1 406.6C28.9 408.1 30.1 409.4 31.6 409.4C34.3 409.4 35.4 404.7 36.7 401.8C38 398.9 44.7 395 45.7 387.7C46.7 380.4 51.2 376.9 51.2 376.9L37.1 371Z" fill="#FCB996"/>
<path d="M10.9 403.8C13.6 399.1 18.1 395.2 23.3 393.6C22.7 393.9 22.1 394.2 21.5 394.5C17.3 396.7 13.8 400 10.9 403.8Z" fill="#111216"/>
<path d="M18.8 402.1C19.2 399.5 19.9 397 20.9 394.6C20.5 397.2 19.8 399.7 18.8 402.1Z" fill="#111216"/>
<path d="M14 406C14.6 403.1 15.5 400.2 16.7 397.5C16.1 400.4 15.2 403.3 14 406Z" fill="#111216"/>
<path d="M28.3 360.3L23.3 375.7L55.9 389.3L61.7 368.7L28.3 360.3Z" fill="#1EB7AA"/>
<path d="M237.3 253.4C242.3 281 261.7 409.4 259.2 409.4H91.2C87.2 410.5 101.1 282.1 107.9 253.4L100.2 260.3C103.8 240.7 108.6 221.8 114.8 205.3C116.5 200.9 118.2 196.6 120.1 192.5C120.9 190.8 121.7 189.2 122.5 187.6C124.5 183.6 126.7 179.8 128.9 176.3C132.9 167.4 137.3 160.9 142.4 157.9C143.3 157.5 144.3 157.2 145.3 156.8C145.3 156.8 145.4 156.8 145.5 156.8H144.2C144.4 156.8 146 154.4 146.2 154.3C146.3 154.3 146.3 156.7 146.5 156.7C147.1 156.3 147.6 155.9 148.2 155.5C148.2 155.5 154.7 158.9 168.2 159.7C170.2 159.8 172 159.9 173.8 159.9H174.7C176.5 159.9 178.4 159.9 180.3 159.7C193.8 158.9 200.3 155.5 200.3 155.5C200.3 155.5 200.3 155.5 200.4 155.6C200.9 156 201.4 156.3 201.9 156.7C202 156.7 202.1 156.7 202.2 156.7C203.5 157.1 204.7 157.6 205.9 158.1C209.9 160.5 213.5 165 216.8 171.2C217.7 172.8 218.5 174.6 219.3 176.4C219.3 176.4 219.3 176.5 219.4 176.6C220.5 178.3 221.6 180.1 222.6 182C224.1 184.7 225.6 187.5 227 190.5C236.8 210.9 243.7 236.7 248.5 263.6L237.3 253.6V253.4Z" fill="white"/>
<path d="M212.8 409.4H133.2C133.3 407.1 133.9 397.6 134.7 383.6C135.7 364.7 137.1 337.6 138.4 308.7C139 295.8 139.7 280.3 140.5 264.2C140.5 263.1 140.6 261.9 140.7 260.8C143.2 210.3 146.1 154.8 146.1 154.8C146.1 154.8 146 154.9 145.9 155C145.9 154.8 146 154.5 146.1 154.3C146.9 154.7 154.6 158.3 169.9 158.6C176.6 158.7 184.8 158.2 194.5 156.5C196.3 156.2 198.2 155.8 200.2 155.4C200.3 157.5 203.2 211.4 205.6 260.8C205.6 261.9 205.7 263.1 205.8 264.2C206.6 280.5 207.3 296.1 207.9 309.1C209.1 337.3 210.5 363.8 211.5 382.6C212.3 396.9 212.9 406.8 213 409.5L212.8 409.4Z" fill="#1EB7AA"/>
<path d="M149.9 160.9C162.8 164.3 176.3 164.3 189.3 161.7C190.5 161.4 191.8 161.2 193.1 161C194.9 160.6 196.6 160.1 198.4 159.8C196.6 160.8 194.7 161.8 192.7 162.5C184.9 165.6 176.3 167 167.9 166.3C161.6 165.7 155.2 164.2 149.9 160.9Z" fill="#111216"/>
<path d="M165.1 253.4C158.8 260.2 149.6 263.9 140.4 264.2C140.4 263.1 140.5 261.9 140.6 260.8C149.2 260.5 157.7 257.8 165.1 253.5V253.4Z" fill="#178F85"/>
<path d="M205.7 264.2C196.1 264.2 186.4 260.5 179.9 253.4C187.7 257.9 196.5 260.6 205.5 260.8C205.5 261.9 205.6 263.1 205.7 264.2Z" fill="#178F85"/>
<path d="M146 154.1C146 154.1 115.6 155.5 87.3 199.2C59 242.9 20.7 371.1 20.7 371.1L70.1 385.6C70.1 385.6 110 284.3 121.3 246L146.1 154.1H146Z" fill="white"/>
<path d="M323 393.5C323 393.5 323.1 400.7 324.8 403.6C326.4 406.5 327.5 406 327.5 403.1C327.5 400.2 327 392.9 327 392.9L323 393.4V393.5Z" fill="#FCB996"/>
<path d="M327.8 403.2C327.8 403.2 328.8 406.6 331 407.8C333.2 409 332.4 405.5 331.3 401.9C330.2 398.3 328 391.7 328 391.7L324.5 391.3L327.9 403.3L327.8 403.2Z" fill="#FCB996"/>
<path d="M331.9 404.6C331.9 404.6 332.9 408 335.1 409.2C337.3 410.4 336.5 406.9 335.4 403.3C334.3 399.7 332.1 393.1 332.1 393.1L328.6 392.7L332 404.7L331.9 404.6Z" fill="#FCB996"/>
<path d="M309.2 370.9C309.2 370.9 311 373.9 312.2 375.4C313.3 376.9 322.2 384.2 327.3 387.4C332.4 390.6 332.6 391.6 337.4 396.2C342.2 400.8 347.3 406.7 346.2 408.6C345.1 410.5 340.8 409.1 336.1 404.2C331.5 399.3 330.4 396.7 326.9 395.1C323.4 393.5 315.5 390.5 314.4 390.6C311.6 390.9 313.1 394.6 314.4 396.8C315.7 399 316.8 402.5 317.2 406.5C317.6 410.5 316.2 409.3 314.7 409.3C312 409.3 310.9 404.6 309.6 401.7C308.3 398.8 301.6 394.9 300.6 387.6C299.6 380.3 295.1 376.8 295.1 376.8L309.2 370.9Z" fill="#FCB996"/>
<path d="M335.4 403.8C332.6 400 329 396.7 324.8 394.5C324.2 394.1 323.6 393.9 323 393.6C328.2 395.2 332.7 399.1 335.4 403.8Z" fill="#111216"/>
<path d="M327.5 402.1C326.5 399.7 325.8 397.2 325.4 394.6C326.4 397 327.1 399.5 327.5 402.1Z" fill="#111216"/>
<path d="M332.3 406C331.1 403.3 330.2 400.4 329.6 397.5C330.8 400.2 331.7 403.1 332.3 406Z" fill="#111216"/>
<path d="M318.1 361.4L323 376.8L290.4 390.4L284.6 369.8L318.1 361.4Z" fill="#1EB7AA"/>
<path d="M200.1 155.3C200.1 155.3 230 158.2 258.3 201.9C286.6 245.6 325.6 372.3 325.6 372.3L276.2 386.8C276.2 386.8 236.3 285.5 225 247.2L200.1 155.4V155.3Z" fill="white"/>
<path d="M99.1 311.1C103 295.1 107.7 278.6 112.3 262.8C111.4 271.1 109.5 279.3 107.3 287.4C105 295.5 102.4 303.4 99 311.1H99.1Z" fill="#111216"/>
<path d="M246.7 309.3C243.8 302.4 241.7 295.3 240 288C238.4 280.8 237.1 273.4 236.8 265.9C240.2 279.9 243.8 295.2 246.7 309.3Z" fill="#111216"/>
<path d="M212.8 409.4H133.2C133.3 407.1 133.9 397.6 134.7 383.6C160.2 386.5 186 386 211.3 382.5C212.1 396.8 212.7 406.7 212.8 409.4Z" fill="#164C6F"/>
<path d="M141.4 160.4C136.1 165.6 130.6 170.5 125 175.3L125.3 173.6C129.6 179.4 133.9 185.8 138 191.8C137.4 191.7 133.5 190.7 133 190.7C129.5 190.2 125.6 190.3 122.6 192.3C122.2 192.5 121.7 193 121.3 193.2L121.8 191.5C125.4 204.4 128.8 217.4 131.4 230.6C127.7 221.2 124.6 211.6 121.5 202C120.4 198.5 119.3 194.9 118.2 191.4C119.5 190.2 120.9 189 122.5 188.3C126.3 186.6 130.6 186.5 134.6 187.5L132.8 190.1L130.4 186.4C127.8 182.4 125.1 178.1 122.6 174.1C128.8 169.4 135 164.8 141.5 160.5L141.4 160.4Z" fill="#111216"/>
<path d="M204.1 159.8C210.4 164.4 216.5 169.2 222.5 174.1C219.9 178 217 182.3 214.2 186.2L211.6 189.9L209.9 187.3C213.9 186.5 218.2 186.7 221.9 188.6C223.5 189.3 224.8 190.6 226.1 191.8C224.9 195.3 223.7 198.8 222.5 202.3C219.1 211.8 215.6 221.2 211.6 230.5C214.7 217.4 218.5 204.6 222.5 191.8L222.9 193.5C222.5 193.2 222.1 192.7 221.7 192.5C218.8 190.4 214.9 190.1 211.4 190.5C210.9 190.5 206.9 191.4 206.3 191.5C210.6 185.7 215.2 179.5 219.7 173.8L219.9 175.5C214.5 170.5 209.2 165.3 204.1 160V159.8Z" fill="#111216"/>
<path d="M216 262.6C215.9 262.6 215.7 262.6 215.6 262.7C215.6 261.7 215.4 260.8 215.3 259.8C214.9 255.6 214.5 251.4 214.1 247.2C214.1 247.6 214.2 248 214.3 248.4C214.8 252.1 215.3 255.9 215.7 259.7C215.8 260.6 215.9 261.6 216 262.5V262.6Z" fill="white"/>
</g>
<defs>
<clipPath id="clip0_1917_202032">
<rect width="346.3" height="409.4" fill="white"/>
</clipPath>
</defs>
</svg>
