<svg width="347" height="399" viewBox="0 0 347 399" fill="none" xmlns="http://www.w3.org/2000/svg">
<g clip-path="url(#clip0_1917_202110)">
<path d="M209 90.6C209 90.6 218.3 88.2 219.3 79.8C220.3 71.3 216.4 67.2 213.2 67.2C210 67.2 209.4 70.8 209.4 70.8V78.8C209.4 78.8 209.4 85.1 209 90.7V90.6Z" fill="#FCB996"/>
<path d="M137.7 90.6C137.7 90.6 128.4 88.2 127.4 79.8C126.4 71.3 130.3 67.2 133.5 67.2C136.7 67.2 137.3 70.8 137.3 70.8V78.8C137.3 78.8 137.3 85.1 137.7 90.7V90.6Z" fill="#FCB996"/>
<path d="M198.8 114.7H173.3H147.8L146.4 156H173.3H200.3L198.8 114.7Z" fill="#FCB996"/>
<path d="M173.3 115H147.8C147.8 115 155 134.7 173.3 134.7C191.6 134.7 198.8 115 198.8 115H173.3Z" fill="#E08C6D"/>
<path d="M209.4 79.1999V48.7999C209.4 20.1999 173.4 23.2999 173.4 23.2999C173.4 23.2999 137.4 20.1999 137.4 48.7999V79.1999C137.4 79.1999 137.4 86.5999 137.9 93.2999C138.1 95.7999 138.4 98.0999 138.7 99.9999C140.1 107 146.2 114.1 151.6 118.5C157 122.8 163.4 126.9 173.4 126.9C183.4 126.9 189.8 122.8 195.2 118.5C200.6 114.2 206.7 107 208.1 99.9999C208.5 98.0999 208.7 95.6999 208.9 93.2999C209.4 86.5999 209.4 79.1999 209.4 79.1999Z" fill="#FCB996"/>
<path d="M155.3 62.3999C154.5 62.1999 153.8 61.4999 153.6 60.6999C153.3 59.3999 154.1 58.0999 155.4 57.6999C157.7 56.9999 160.5 56.9999 163 57.6999C164.7 58.1999 165.4 60.1999 164.1 61.7999C162.8 63.3999 162.5 62.6999 161.6 62.4999C160.7 62.2999 161.6 62.4999 161.5 62.4999C159.1 61.7999 157.2 62.2999 156.7 62.4999C156.2 62.5999 155.8 62.5999 155.3 62.4999V62.3999Z" fill="#111216"/>
<path d="M186.8 80.7999C188.015 80.7999 189 79.4568 189 77.7999C189 76.1431 188.015 74.7999 186.8 74.7999C185.585 74.7999 184.6 76.1431 184.6 77.7999C184.6 79.4568 185.585 80.7999 186.8 80.7999Z" fill="#111216"/>
<path d="M158.7 80.7999C159.915 80.7999 160.9 79.4568 160.9 77.7999C160.9 76.1431 159.915 74.7999 158.7 74.7999C157.485 74.7999 156.5 76.1431 156.5 77.7999C156.5 79.4568 157.485 80.7999 158.7 80.7999Z" fill="#111216"/>
<path d="M183.8 62C183 61.8 182.3 61.1 182.1 60.3C181.8 59 182.6 57.7 183.9 57.3C186.2 56.6 189 56.6 191.5 57.3C193.2 57.8 193.9 59.8 192.6 61.4C192 62.1 191 62.3 190.1 62.1C189.2 61.9 190.1 62.1 190 62.1C187.6 61.4 185.7 61.9 185.2 62.1C184.7 62.2 184.3 62.2 183.8 62.1V62Z" fill="#111216"/>
<g opacity="0.5">
<path d="M151.6 105.7C157.73 105.7 162.7 100.73 162.7 94.6C162.7 88.4696 157.73 83.5 151.6 83.5C145.47 83.5 140.5 88.4696 140.5 94.6C140.5 100.73 145.47 105.7 151.6 105.7Z" fill="#ED9C88"/>
<path d="M195.1 105.7C201.23 105.7 206.2 100.73 206.2 94.6C206.2 88.4696 201.23 83.5 195.1 83.5C188.97 83.5 184 88.4696 184 94.6C184 100.73 188.97 105.7 195.1 105.7Z" fill="#ED9C88"/>
</g>
<path d="M166.4 99.4C166.4 99.4 177.1 99.4 179.8 99.4C177.9 106.1 168.3 106.1 166.4 99.4Z" fill="white"/>
<path d="M173.5 89.5999C172.3 89.3999 171.1 88.9999 170 88.5999C168.3 87.6999 167.9 85.3999 168.9 83.8999C170.1 81.6999 171.4 79.4999 173 77.5999C173 77.4999 173.2 77.3999 173.4 77.4999C173.6 77.4999 173.6 77.6999 173.6 77.8999C172.8 80.3999 171.8 82.6999 170.6 84.9999C170 85.7999 170.1 86.6999 170.8 87.2999C171.8 87.8999 172.8 88.3999 173.7 89.0999C174 89.2999 173.8 89.8999 173.4 89.7999L173.5 89.5999Z" fill="#111216"/>
<path d="M133.1 82.0999C131.1 82.0999 129.7 80.8999 129.1 78.7999C128.4 76.3999 129.1 72.9999 130.9 72.2999C131.7 71.9999 132.3 72.1999 132.6 72.2999C133.5 72.8999 133.5 74.0999 133.6 74.1999C133.6 74.4999 133.4 74.7999 133 74.7999C132.7 74.7999 132.4 74.5999 132.4 74.1999C132.4 73.9999 132.3 73.3999 132 73.1999C131.9 73.1999 131.7 73.1999 131.4 73.1999C130.5 73.5999 129.7 76.0999 130.3 78.1999C130.7 79.4999 131.6 80.8999 133.9 80.4999C134.2 80.4999 134.6 80.6999 134.6 80.9999C134.6 81.2999 134.4 81.6999 134.1 81.6999C133.8 81.6999 133.4 81.6999 133.1 81.6999V82.0999Z" fill="#915F44"/>
<path d="M213.6 82.0999C213.3 82.0999 213 82.0999 212.6 82.0999C212.3 82.0999 212 81.6999 212.1 81.3999C212.1 81.0999 212.5 80.7999 212.8 80.8999C215.1 81.2999 216.1 79.8999 216.4 78.5999C217 76.4999 216.3 73.9999 215.3 73.5999C215 73.4999 214.8 73.4999 214.7 73.5999C214.4 73.7999 214.3 74.2999 214.3 74.5999C214.3 74.8999 214 75.1999 213.7 75.1999C213.4 75.1999 213.1 74.8999 213.1 74.5999C213.1 74.4999 213.1 73.1999 214.1 72.6999C214.4 72.4999 215 72.2999 215.8 72.6999C217.6 73.3999 218.3 76.6999 217.6 79.1999C217 81.2999 215.5 82.4999 213.6 82.4999V82.0999Z" fill="#915F44"/>
<path d="M205.9 16.8C206.4 13.5 206.4 10.6 206.2 8.29998C206 5.99998 204.2 5.99998 203.1 7.09998C202 8.19998 199.7 9.39998 198.1 9.99998C196.4 10.7 195 10.9 195 10.9C195.2 9.99998 195.4 8.99998 195.5 8.09998C195.7 5.49998 195.5 3.09998 195.1 1.39998C194.7 -0.300022 193.4 -0.500022 192.3 0.0999776C190.2 1.29998 186.6 2.39998 181 3.09998C178.7 2.79998 176.1 2.59998 173.4 2.59998C168.9 2.59998 165.1 3.09998 161.8 3.89998C150.9 6.49998 145.8 12.4 144 14.9C143.5 15.7 143.2 16.2 143.2 16.2C143.2 16.2 128.4 17.7 128.8 35.4C129.2 53.1 134.5 76.9 135.2 79.6C135.9 82.2 136.9 82.1 137.4 82.1C137.9 82.1 138.8 81.7 138.8 79.9C138.8 78.1 138 58.8 139.8 51.9C141.6 45 146.7 37.6 152.2 37.6C160.8 37.6 161.2 42.8 173.5 42.8C185.8 42.8 186.2 37.5 194.8 37.5C203.4 37.5 205.4 44.9 207.2 51.8C209 58.7 208.2 77.9 208.2 79.8C208.2 81.7 209.1 82 209.6 82C210.1 82 211.1 82.2 211.8 79.5C212.5 76.9 217.8 53 218.2 35.3C218.5 22.1 210.3 17.9 206.2 16.7L205.9 16.8Z" fill="#111216"/>
<path d="M23.3 382C23.3 382 23.2 389.2 21.5 392.1C19.8 395 18.8 394.5 18.8 391.6C18.8 388.8 19.3 381.4 19.3 381.4L23.3 381.9V382Z" fill="#FCB996"/>
<path d="M18.5 391.7C18.5 391.7 17.5 395.1 15.3 396.3C13.1 397.5 13.9 394 15 390.4C16.1 386.8 18.3 380.2 18.3 380.2L21.8 379.8L18.4 391.8L18.5 391.7Z" fill="#FCB996"/>
<path d="M14.4 393.1C14.4 393.1 13.4 396.5 11.2 397.7C9 398.9 9.8 395.4 10.9 391.8C12 388.2 14.2 381.6 14.2 381.6L17.7 381.2L14.3 393.2L14.4 393.1Z" fill="#FCB996"/>
<path d="M37.1 359.5C37.1 359.5 35.3 362.5 34.1 364C32.9 365.5 24.1 372.8 19 376C13.9 379.2 13.7 380.2 8.89999 384.8C4.09999 389.5 -1.00001 395.3 0.0999886 397.2C1.19999 399.1 5.49999 397.7 10.2 392.8C14.9 387.9 15.9 385.3 19.4 383.7C22.9 382.1 30.8 379.1 31.9 379.2C34.7 379.5 33.2 383.2 31.9 385.4C30.6 387.6 29.5 391.1 29.1 395.1C28.7 399.1 30.1 397.9 31.6 397.9C34.3 397.9 35.4 393.2 36.7 390.3C38 387.4 44.7 383.5 45.7 376.2C46.7 368.9 51.2 365.4 51.2 365.4L37.1 359.5Z" fill="#FCB996"/>
<path d="M10.9 392.3C13.6 387.6 18.1 383.7 23.3 382.1C22.7 382.4 22.1 382.7 21.5 383C17.3 385.2 13.8 388.5 10.9 392.3Z" fill="#111216"/>
<path d="M18.8 390.6C19.2 388 19.9 385.5 20.9 383.1C20.5 385.7 19.8 388.2 18.8 390.6Z" fill="#111216"/>
<path d="M14 394.5C14.6 391.6 15.5 388.7 16.7 386C16.1 388.9 15.2 391.8 14 394.5Z" fill="#111216"/>
<path d="M28.3 348.8L23.3 364.2L55.9 377.8L61.7 357.2L28.3 348.8Z" fill="#00C6E1"/>
<path d="M259.1 397.9H91.2C88.6 398.6 93.5 345.2 99.1 299.6C99.1 298.9 99.3 298.2 99.4 297.6C102.4 273.5 105.6 251.8 107.9 242L100.2 248.9C103.8 229.3 108.6 210.4 114.8 193.9C116.5 189.5 118.2 185.2 120.1 181.1C120.1 181 120.2 180.8 120.3 180.7C120.3 180.7 120.3 180.6 120.3 180.5C121 179 121.7 177.6 122.4 176.2C123.9 173.2 125.5 170.2 127.2 167.5C127.7 166.6 128.3 165.8 128.8 164.9C130.5 161.1 132.2 157.8 134.1 155C136.1 151.9 138.3 149.4 140.6 147.7C141.2 147.3 141.7 146.9 142.3 146.5C143.2 146.1 144.2 145.8 145.2 145.4C145.2 145.4 145.3 145.4 145.4 145.4H144.1C144.3 145.4 145.6 143.4 146 143C146.1 143 146.1 145.4 146.3 145.4C146.9 145 147.4 144.6 148 144.2C148 144.2 154.2 147.4 167 148.4L173.4 151.8L179.6 148.5C179.8 148.5 180 148.5 180.1 148.5C193.6 147.7 200.1 144.3 200.1 144.3C200.1 144.3 200.1 144.3 200.2 144.4C200.7 144.8 201.2 145.1 201.7 145.5C201.8 145.5 201.9 145.5 202 145.5C203.3 145.9 204.5 146.4 205.7 146.9C206 147.1 206.3 147.3 206.7 147.5C210.3 150 213.5 154.1 216.5 159.7C216.5 159.7 216.5 159.9 216.6 160C217.5 161.6 218.3 163.4 219.1 165.2C219.1 165.2 219.1 165.2 219.1 165.3C220.2 167 221.3 168.8 222.3 170.7C223.8 173.4 225.3 176.2 226.7 179.2C236.5 199.6 243.4 225.4 248.2 252.3L237 242.3C238.7 251.6 242 272.3 245.6 295.6C245.6 295.9 245.6 296.2 245.7 296.5C252.7 342.5 260.6 398.3 258.9 398.3L259.1 397.9Z" fill="white"/>
<path d="M212.8 397.9H133.2C133.3 395.6 133.9 386.1 134.7 372.1C135.7 353.2 137.1 326.1 138.4 297.2C139 284.3 139.7 268.8 140.5 252.7C140.5 251.6 140.6 250.4 140.7 249.3C142.6 210.9 144.7 169.7 145.6 152.1C145.9 146.5 146.1 143.3 146.1 143.3C146.1 143.3 146.1 143.3 146 143.3C146 143.1 146.1 142.9 146.2 142.6C146.9 143 153 145.8 164.9 146.7L167.2 147.9L173.6 151.3L179.8 148L182.7 146.5C186.4 146.2 190.4 145.6 194.7 144.9C196.5 144.6 198.4 144.2 200.4 143.8C200.4 144.3 200.6 147.4 200.9 152.6C201.8 170.2 204 211.1 205.8 249.3C205.8 250.4 205.9 251.6 206 252.7C206.8 269 207.5 284.6 208.1 297.6C209.3 325.8 210.7 352.3 211.7 371.1C212.5 385.4 213.1 395.3 213.2 398L212.8 397.9Z" fill="#00C6E1"/>
<path d="M146 142.6C146 142.6 115.6 144 87.3 187.7C59 231.4 20.7 359.7 20.7 359.7L70.1 374.2C70.1 374.2 110 273 121.3 234.6L146.1 142.7L146 142.6Z" fill="white"/>
<path d="M323 382.2C323 382.2 323.1 389.4 324.8 392.3C326.5 395.2 327.5 394.7 327.5 391.8C327.5 388.9 327 381.6 327 381.6L323 382.1V382.2Z" fill="#FCB996"/>
<path d="M327.8 391.9C327.8 391.9 328.8 395.3 331 396.5C333.2 397.7 332.4 394.2 331.3 390.6C330.2 387 328 380.4 328 380.4L324.5 380L327.9 392L327.8 391.9Z" fill="#FCB996"/>
<path d="M331.9 393.3C331.9 393.3 332.9 396.7 335.1 397.9C337.3 399.1 336.5 395.6 335.4 392C334.3 388.4 332.1 381.8 332.1 381.8L328.6 381.4L332 393.4L331.9 393.3Z" fill="#FCB996"/>
<path d="M309.2 359.6C309.2 359.6 311 362.6 312.2 364.1C313.3 365.6 322.2 372.9 327.3 376.1C332.4 379.3 332.6 380.3 337.4 384.9C342.2 389.5 347.3 395.4 346.2 397.3C345.1 399.2 340.8 397.8 336.1 392.9C331.5 388 330.4 385.4 326.9 383.8C323.4 382.2 315.5 379.2 314.4 379.3C311.6 379.6 313.1 383.3 314.4 385.5C315.7 387.7 316.8 391.2 317.2 395.2C317.6 399.2 316.2 398 314.7 398C312 398 310.9 393.3 309.6 390.4C308.3 387.5 301.6 383.6 300.6 376.3C299.6 369 295.1 365.5 295.1 365.5L309.2 359.6Z" fill="#FCB996"/>
<path d="M335.4 392.4C332.6 388.6 329 385.3 324.8 383.1C324.2 382.7 323.6 382.5 323 382.2C328.2 383.8 332.7 387.7 335.4 392.4Z" fill="#111216"/>
<path d="M327.5 390.8C326.5 388.4 325.8 385.9 325.4 383.3C326.4 385.7 327.1 388.2 327.5 390.8Z" fill="#111216"/>
<path d="M332.3 394.7C331.1 392 330.2 389.1 329.6 386.2C330.8 388.9 331.7 391.8 332.3 394.7Z" fill="#111216"/>
<path d="M318 349.9L323 365.3L290.4 378.9L284.5 358.3L318 349.9Z" fill="#00C6E1"/>
<path d="M200.1 143.8C200.1 143.8 230 146.7 258.3 190.4C286.6 234.1 325.5 360.8 325.5 360.8L276.1 375.3C276.1 375.3 236.2 274.1 224.9 235.7L200 143.9L200.1 143.8Z" fill="white"/>
<path d="M99.1 299.5C103 283.5 107.7 267 112.3 251.2C111.4 259.5 109.5 267.7 107.3 275.8C105 283.9 102.4 291.8 99 299.5H99.1Z" fill="#111216"/>
<path d="M246.6 297.8C243.7 290.9 241.6 283.8 239.9 276.5C238.3 269.3 237 261.9 236.7 254.4C240.1 268.4 243.7 283.7 246.6 297.8Z" fill="#111216"/>
<path d="M212.8 397.9H133.2C133.3 395.6 133.9 386.1 134.7 372.1C160.2 375 186 374.5 211.3 371C212.1 385.3 212.7 395.2 212.8 397.9Z" fill="#044865"/>
<path d="M141.4 148.9C136.1 154.1 130.6 159 125 163.8L125.3 162.1C129.6 167.9 133.9 174.3 138 180.3C137.4 180.2 133.5 179.2 133 179.2C129.5 178.7 125.6 178.8 122.6 180.8C122.2 181 121.7 181.5 121.3 181.7L121.8 180C125.4 192.9 128.8 205.9 131.4 219.1C127.7 209.7 124.6 200.1 121.5 190.6C120.4 187.1 119.3 183.5 118.2 180C119.5 178.8 120.9 177.6 122.5 176.9C126.3 175.2 130.6 175.1 134.6 176.1L132.8 178.7L130.4 175C127.8 171 125.1 166.7 122.6 162.7C128.8 158 135 153.4 141.5 149.1L141.4 148.9Z" fill="#111216"/>
<path d="M204 148.3C210.3 152.9 216.4 157.7 222.4 162.6C219.8 166.5 216.9 170.8 214.1 174.7L211.5 178.4L209.8 175.8C213.8 175 218.1 175.2 221.8 177.1C223.4 177.8 224.7 179.1 226 180.3C224.8 183.8 223.6 187.3 222.4 190.8C219 200.3 215.5 209.7 211.5 219C214.6 205.9 218.4 193.1 222.4 180.3L222.8 182C222.4 181.7 222 181.2 221.6 181C218.7 178.9 214.8 178.6 211.3 179C210.8 179 206.8 179.9 206.2 180C210.5 174.2 215.1 168 219.6 162.3L219.8 164C214.4 159 209.1 153.8 204 148.5V148.3Z" fill="#111216"/>
<path d="M216 251.1C215.9 251.1 215.7 251.1 215.6 251.2C215.6 250.2 215.4 249.3 215.3 248.3C214.9 244.1 214.5 239.9 214.1 235.7C214.1 236.1 214.2 236.5 214.3 236.9C214.8 240.6 215.3 244.4 215.7 248.2C215.8 249.1 215.9 250.1 216 251V251.1Z" fill="white"/>
<path d="M208.3 145.5C208.3 145.5 208.2 145.6 208 145.8C207.7 146 207.3 146.4 206.7 146.9C206.1 147.4 205.4 148 204.6 148.8C203.8 149.5 203 150.3 202 151.1C201.5 151.6 201 152 200.5 152.5C193.5 158.9 184.2 167.3 184.2 167.5C184.1 167.8 173.3 151.3 173.3 151.3L179.5 148L182.4 146.5L199.4 137.5L208.3 145.5Z" fill="#A1F4FF"/>
<path d="M173.3 151.3C173.3 151.3 162.6 167.8 162.4 167.5C162.4 167.3 152.5 158.4 145.4 151.9C144.8 151.4 144.3 150.9 143.8 150.5C142.5 149.3 141.4 148.3 140.5 147.5C139.1 146.3 138.3 145.5 138.3 145.5L140.4 143.6L147.2 137.5L164.7 146.7L167 147.9L173.4 151.3H173.3Z" fill="#A1F4FF"/>
<path d="M177.6 169L173 164.6L168.5 169L155.9 313L173 329L190.2 313L177.6 169Z" fill="#044865"/>
<path d="M177.8 171.4L177.6 168.9L173.1 164.5L168.6 168.9L168.4 170.9C168.4 170.9 168.5 170.9 168.6 171C171 172.6 173.5 172.3 173.5 172.3C173.5 172.3 175.7 172.6 177.9 171.3L177.8 171.4Z" fill="#111216"/>
<path d="M180.4 162L173.4 151.3L166.4 162C166.4 162 166.2 167.3 168.6 168.9C171 170.5 173.5 170.2 173.5 170.2C173.5 170.2 176 170.5 178.4 168.9C180.8 167.3 180.6 162 180.6 162H180.4Z" fill="#044865"/>
</g>
<defs>
<clipPath id="clip0_1917_202110">
<rect width="346.3" height="398.1" fill="white"/>
</clipPath>
</defs>
</svg>
