<svg width="347" height="396" viewBox="0 0 347 396" fill="none" xmlns="http://www.w3.org/2000/svg">
<g clip-path="url(#clip0_1917_201835)">
<path d="M198.6 109.3H173.4H148.2L146.7 150.6H173.4H200L198.6 109.3Z" fill="#FCB996"/>
<path d="M173.4 116.2H148C148 116.2 155.2 132.5 173.4 132.5C191.6 132.5 198.8 116.2 198.8 116.2H173.4Z" fill="#E08C6D"/>
<path d="M208.6 85.2C208.6 85.2 217.8 82.8001 218.8 74.4001C219.8 65.9001 215.9 61.8 212.8 61.8C209.7 61.8 209 65.4001 209 65.4001V73.4001C209 73.4001 209 79.6001 208.6 85.3001V85.2Z" fill="#FCB996"/>
<path d="M138.1 85.2C138.1 85.2 128.9 82.8001 127.9 74.4001C126.9 65.9001 130.8 61.8 133.9 61.8C137 61.8 137.7 65.4001 137.7 65.4001V73.4001C137.7 73.4001 137.7 79.6001 138.1 85.3001V85.2Z" fill="#FCB996"/>
<path d="M209 73.8V43.4C209 14.8 173.4 17.9 173.4 17.9C173.4 17.9 137.8 14.8 137.8 43.4V73.8C137.8 73.8 137.8 81.2 138.3 87.9C138.5 90.4 138.8 92.7 139.1 94.6C140.5 101.6 146.5 108.7 151.8 113.1C157.1 117.4 163.5 121.5 173.4 121.5C183.3 121.5 189.6 117.4 195 113.1C200.3 108.8 206.4 101.6 207.7 94.6C208.1 92.7 208.3 90.3 208.5 87.9C209 81.2 209 73.8 209 73.8Z" fill="#FCB996"/>
<path d="M156 57.1001C155.2 57.1001 154.4 56.7001 154 56.0001C153.3 54.9001 153.6 53.3001 154.7 52.6001C156.7 51.3001 159.4 50.5001 162.1 50.6001C163.4 50.6001 164.5 51.7001 164.5 53.1001C164.5 54.5001 163.4 55.5001 162 55.5001C162 55.5001 162 55.5001 161.9 55.5001C159.4 55.5001 157.7 56.5001 157.3 56.8001C156.9 57.1001 156.4 57.2001 156 57.2001V57.1001Z" fill="#764239"/>
<path d="M186.6 73.6C187.76 73.6 188.7 72.2568 188.7 70.6C188.7 68.9431 187.76 67.6 186.6 67.6C185.44 67.6 184.5 68.9431 184.5 70.6C184.5 72.2568 185.44 73.6 186.6 73.6Z" fill="#111216"/>
<path d="M158.9 73.6C160.06 73.6 161 72.2568 161 70.6C161 68.9431 160.06 67.6 158.9 67.6C157.74 67.6 156.8 68.9431 156.8 70.6C156.8 72.2568 157.74 73.6 158.9 73.6Z" fill="#111216"/>
<path d="M190.5 57.1001C191.3 57.1001 192.1 56.7001 192.5 56.0001C193.2 54.9001 192.9 53.3001 191.8 52.6001C189.8 51.3001 187.1 50.5001 184.4 50.6001C183.1 50.6001 182 51.7001 182 53.1001C182 54.5001 183.1 55.5001 184.5 55.5001C184.5 55.5001 184.5 55.5001 184.6 55.5001C187.1 55.5001 188.8 56.5001 189.2 56.8001C189.6 57.1001 190.1 57.2001 190.5 57.2001V57.1001Z" fill="#764239"/>
<g opacity="0.5">
<path d="M151.9 96.9001C157.975 96.9001 162.9 91.9304 162.9 85.8001C162.9 79.6697 157.975 74.7001 151.9 74.7001C145.825 74.7001 140.9 79.6697 140.9 85.8001C140.9 91.9304 145.825 96.9001 151.9 96.9001Z" fill="#ED9C88"/>
<path d="M194.8 96.9001C200.875 96.9001 205.8 91.9304 205.8 85.8001C205.8 79.6697 200.875 74.7001 194.8 74.7001C188.725 74.7001 183.8 79.6697 183.8 85.8001C183.8 91.9304 188.725 96.9001 194.8 96.9001Z" fill="#ED9C88"/>
</g>
<path d="M173.5 84.5001C172.3 84.3001 171.2 83.9001 170 83.5001C168.3 82.6001 167.9 80.3001 168.9 78.8001C170.1 76.6001 171.4 74.4001 172.9 72.5001C172.9 72.4001 173.1 72.3001 173.3 72.4001C173.5 72.4001 173.5 72.6001 173.5 72.8001C172.8 75.3001 171.7 77.6001 170.5 79.9001C170 80.7001 170 81.6001 170.7 82.2001C171.7 82.8001 172.6 83.3001 173.6 84.0001C173.9 84.2001 173.7 84.8001 173.3 84.7001L173.5 84.5001Z" fill="#111216"/>
<path d="M133.6 76.7C131.7 76.7 130.2 75.5 129.6 73.4C128.9 71 129.6 67.6 131.4 66.9C132.2 66.6 132.8 66.8 133.1 66.9C133.9 67.5 134 68.7 134 68.8C134 69.1 133.8 69.4 133.4 69.4C133.1 69.4 132.8 69.2 132.8 68.8C132.8 68.6 132.7 68 132.4 67.8C132.3 67.8 132.1 67.8 131.8 67.8C130.9 68.2 130.2 70.7 130.7 72.8C131.1 74.1 132 75.5 134.3 75.1C134.6 75.1 134.9 75.3 135 75.6C135 75.9 134.8 76.3 134.5 76.3C134.2 76.3 133.8 76.3 133.5 76.3L133.6 76.7Z" fill="#915F44"/>
<path d="M213.1 76.7C212.8 76.7 212.5 76.7 212.1 76.7C211.8 76.7 211.6 76.3 211.6 76C211.6 75.7 212 75.4 212.3 75.5C214.6 75.9 215.5 74.5 215.9 73.2C216.5 71.1 215.8 68.6 214.8 68.2C214.5 68.1 214.3 68.1 214.2 68.2C213.9 68.4 213.8 68.9 213.8 69.2C213.8 69.5 213.5 69.8 213.2 69.8C212.9 69.8 212.6 69.5 212.6 69.2C212.6 69.1 212.6 67.8 213.5 67.3C213.8 67.1 214.4 66.9 215.2 67.3C217 68 217.7 71.3 217 73.8C216.4 75.9 215 77.1 213 77.1L213.1 76.7Z" fill="#915F44"/>
<path d="M199.9 12.6C199.9 12.6 195 0 173.3 0C151.6 0 146.7 12.6 146.7 12.6C122 17 133.5 61 133.5 61C133.5 61 136.8 73.6 137.6 85.2C138.4 96.8 138 105.3 143.8 112.9C149.6 120.5 162.7 124.3 173.2 124.3C183.7 124.3 196.8 120.5 202.6 112.9C208.4 105.3 208 96.8 208.8 85.2C209.6 73.6 212.9 61 212.9 61C212.9 61 224.4 17 199.7 12.6H199.9ZM201.9 88.2C199 93.7 195 94.6 194 93.8C193.1 93.1 190.3 88.1 178.7 87C177.9 87 177.1 87.2 176.5 87.8C175.6 88.6 174.4 89.1 173.1 89.1C171.8 89.1 170.6 88.6 169.8 87.8C169 87 168.4 86.9 167.6 87C156.3 88.3 153.5 93.1 152.7 93.8C151.7 94.6 147.7 93.6 144.8 88.2C141.9 82.7 137.7 70.2 139.1 50.4C139.8 39.7 143.1 34.1 146 31.3C148 29.3 151.1 29.1 153.4 30.6C157 33.1 164 36.8 173.3 36.8C182.6 36.8 189.6 33.1 193.2 30.6C195.5 29 198.6 29.3 200.6 31.3C203.5 34.1 206.8 39.7 207.5 50.4C208.9 70.2 204.7 82.7 201.8 88.2H201.9Z" fill="#764239"/>
<path d="M166.5 92.8C166.5 92.8 177.2 92.8 179.9 92.8C178 99.5 168.4 99.5 166.5 92.8Z" fill="white"/>
<g opacity="0.3">
<path d="M191.2 86.5999C199.042 86.5999 205.4 80.2424 205.4 72.4C205.4 64.5575 199.042 58.2 191.2 58.2C183.358 58.2 177 64.5575 177 72.4C177 80.2424 183.358 86.5999 191.2 86.5999Z" fill="white"/>
<path d="M154.3 86.5999C162.142 86.5999 168.5 80.2424 168.5 72.4C168.5 64.5575 162.142 58.2 154.3 58.2C146.458 58.2 140.1 64.5575 140.1 72.4C140.1 80.2424 146.458 86.5999 154.3 86.5999Z" fill="white"/>
</g>
<g opacity="0.4">
<path d="M204.6 67.7L184.5 84.9C183 84.1 181.7 83.1 180.6 81.8L202.2 63.4C203.3 64.7 204.1 66.2 204.6 67.8V67.7Z" fill="white"/>
<path d="M205.4 71.5001L188.1 86.2001C187.3 86.0001 186.6 85.8001 185.9 85.5001L205.1 69.2001C205.3 70.0001 205.4 70.7001 205.4 71.5001Z" fill="white"/>
<path d="M167.7 67.7L147.6 84.9C146.1 84.1 144.8 83 143.7 81.8L165.3 63.4C166.4 64.7 167.2 66.2 167.8 67.8L167.7 67.7Z" fill="white"/>
<path d="M168.5 71.5001L151.2 86.3001C150.4 86.1001 149.7 85.9001 149 85.6001L168.2 69.2001C168.4 70.0001 168.5 70.7001 168.5 71.5001Z" fill="white"/>
</g>
<path d="M191.2 87.8C182.7 87.8 175.8 80.9 175.8 72.4C175.8 63.9 182.7 57 191.2 57C199.7 57 206.6 63.9 206.6 72.4C206.6 80.9 199.7 87.8 191.2 87.8ZM191.2 59.4C184 59.4 178.2 65.2 178.2 72.4C178.2 79.6 184 85.4 191.2 85.4C198.4 85.4 204.2 79.6 204.2 72.4C204.2 65.2 198.4 59.4 191.2 59.4Z" fill="#0A6593"/>
<path d="M154.3 87.8C145.8 87.8 138.9 80.9 138.9 72.4C138.9 63.9 145.8 57 154.3 57C162.8 57 169.7 63.9 169.7 72.4C169.7 80.9 162.8 87.8 154.3 87.8ZM154.3 59.4C147.1 59.4 141.3 65.2 141.3 72.4C141.3 79.6 147.1 85.4 154.3 85.4C161.5 85.4 167.3 79.6 167.3 72.4C167.3 65.2 161.5 59.4 154.3 59.4Z" fill="#0A6593"/>
<path d="M177 73.6C176.8 73.6 176.5 73.6 176.3 73.4C172.6 71 169.4 73.3 169.2 73.4C168.7 73.8 167.9 73.7 167.5 73.1C167.1 72.6 167.2 71.8 167.8 71.4C168 71.3 172.5 68 177.7 71.4C178.3 71.8 178.4 72.5 178.1 73.1C177.9 73.5 177.5 73.7 177.1 73.7L177 73.6Z" fill="#0A6593"/>
<path d="M23.3 380.1C23.3 380.1 23.2 387.3 21.5 390.2C19.9 393.1 18.8 392.6 18.8 389.7C18.8 386.8 19.3 379.5 19.3 379.5L23.3 380V380.1Z" fill="#FCB996"/>
<path d="M18.5 389.8C18.5 389.8 17.5 393.2 15.3 394.4C13.1 395.6 13.9 392.1 15 388.5C16.1 384.9 18.3 378.3 18.3 378.3L21.8 377.9L18.4 389.9L18.5 389.8Z" fill="#FCB996"/>
<path d="M14.4 391.3C14.4 391.3 13.4 394.7 11.2 395.9C9 397 9.8 393.6 10.9 390C12 386.4 14.2 379.8 14.2 379.8L17.7 379.4L14.3 391.4L14.4 391.3Z" fill="#FCB996"/>
<path d="M37.1 357.6C37.1 357.6 35.3 360.6 34.1 362.1C32.9 363.6 24.1 370.9 19 374.1C13.9 377.3 13.7 378.3 8.9 382.9C4.1 387.5 -1 393.4 0.0999963 395.3C1.2 397.2 5.5 395.8 10.2 390.9C14.9 386 15.9 383.4 19.4 381.8C22.9 380.2 30.8 377.2 31.9 377.3C34.7 377.6 33.2 381.3 31.9 383.5C30.6 385.7 29.5 389.2 29.1 393.2C28.7 397.2 30.1 396 31.6 396C34.3 396 35.4 391.3 36.7 388.4C38 385.5 44.7 381.6 45.7 374.3C46.7 367 51.2 363.5 51.2 363.5L37.1 357.6Z" fill="#FCB996"/>
<path d="M10.9 390.4C13.6 385.7 18.1 381.8 23.3 380.2C22.7 380.5 22.1 380.8 21.5 381.1C17.3 383.3 13.8 386.6 10.9 390.4Z" fill="#111216"/>
<path d="M18.8 388.7C19.2 386.1 19.9 383.6 20.9 381.2C20.5 383.8 19.8 386.3 18.8 388.7Z" fill="#111216"/>
<path d="M14 392.6C14.6 389.7 15.5 386.8 16.7 384.1C16.1 387 15.2 389.9 14 392.6Z" fill="#111216"/>
<path d="M28.3 346.9L23.3 362.2L55.9 375.8L61.7 355.3L28.3 346.9Z" fill="#FED16E"/>
<path d="M259 396H91.1C88.5 396.7 93.4 343.3 99 297.7C99 297 99.2 296.3 99.3 295.7C102.3 271.6 105.5 249.9 107.8 240.1L100.1 247C103.7 227.4 108.5 208.5 114.7 192C116.4 187.6 118.1 183.3 120 179.2C120 179.1 120.1 178.9 120.2 178.8C120.2 178.8 120.2 178.7 120.2 178.6C120.9 177.1 121.6 175.7 122.3 174.3C123.8 171.3 125.4 168.3 127.1 165.6C127.6 164.7 128.2 163.9 128.7 163C130.4 159.2 132.1 155.9 134 153.1C136 150 138.2 147.5 140.5 145.8C141.1 145.4 141.6 145 142.2 144.6C143.1 144.2 144.1 143.9 145.1 143.5C145.1 143.5 145.2 143.5 145.3 143.5H144C144.2 143.5 145.5 141.5 145.9 141.1C146 141.1 146 143.5 146.2 143.5C146.8 143.1 147.3 142.7 147.9 142.3C147.9 142.3 154.1 145.5 166.9 146.5L173.3 149.9L179.5 146.6C179.7 146.6 179.9 146.6 180 146.6C193.5 145.8 200 142.4 200 142.4C200 142.4 200 142.4 200.1 142.5C200.6 142.9 201.1 143.2 201.6 143.6C201.7 143.6 201.8 143.6 201.9 143.6C203.2 144 204.4 144.5 205.6 145C205.9 145.2 206.2 145.4 206.6 145.6C210.2 148.1 213.4 152.2 216.4 157.8C216.4 157.8 216.4 158 216.5 158.1C217.4 159.7 218.2 161.5 219 163.3C219 163.3 219 163.3 219 163.4C220.1 165.1 221.2 166.9 222.2 168.8C223.7 171.5 225.2 174.3 226.6 177.3C236.4 197.7 243.3 223.5 248.1 250.4L236.9 240.4C238.6 249.7 241.9 270.4 245.5 293.7C245.5 294 245.5 294.3 245.6 294.6C252.6 340.6 260.5 396.4 258.8 396.4L259 396Z" fill="white"/>
<path d="M146 140.7C146 140.7 115.6 142.1 87.3 185.8C59 229.5 20.7 357.7 20.7 357.7L70.1 372.2C70.1 372.2 110 270.9 121.3 232.6L146.1 140.7H146Z" fill="white"/>
<path d="M323 380.1C323 380.1 323.1 387.3 324.8 390.2C326.4 393.1 327.5 392.6 327.5 389.7C327.5 386.8 327 379.5 327 379.5L323 380V380.1Z" fill="#FCB996"/>
<path d="M327.8 389.8C327.8 389.8 328.8 393.2 331 394.4C333.2 395.6 332.4 392.1 331.3 388.5C330.2 384.9 328 378.3 328 378.3L324.5 377.9L327.9 389.9L327.8 389.8Z" fill="#FCB996"/>
<path d="M331.9 391.3C331.9 391.3 332.9 394.7 335.1 395.9C337.3 397.1 336.5 393.6 335.4 390C334.3 386.4 332.1 379.8 332.1 379.8L328.6 379.4L332 391.4L331.9 391.3Z" fill="#FCB996"/>
<path d="M309.2 357.6C309.2 357.6 311 360.6 312.2 362.1C313.4 363.6 322.2 370.9 327.3 374.1C332.4 377.3 332.6 378.3 337.4 382.9C342.2 387.6 347.3 393.4 346.2 395.3C345.1 397.2 340.8 395.8 336.1 390.9C331.5 386 330.4 383.4 326.9 381.8C323.4 380.2 315.5 377.2 314.4 377.3C311.6 377.6 313.1 381.3 314.4 383.5C315.6 385.4 316.8 389.2 317.2 393.2C317.4 394.7 316.2 396 314.7 396C312 396 310.9 391.3 309.6 388.4C308.3 385.5 301.6 381.6 300.6 374.3C299.6 367 295.1 363.5 295.1 363.5L309.2 357.6Z" fill="#FCB996"/>
<path d="M335.4 390.4C332.6 386.6 329 383.3 324.8 381.1C324.2 380.7 323.6 380.5 323 380.2C328.2 381.8 332.7 385.7 335.4 390.4Z" fill="#111216"/>
<path d="M327.5 388.7C326.5 386.3 325.8 383.8 325.4 381.2C326.4 383.6 327.1 386.1 327.5 388.7Z" fill="#111216"/>
<path d="M332.3 392.7C331.1 390 330.2 387.1 329.6 384.2C330.8 386.9 331.7 389.8 332.3 392.7Z" fill="#111216"/>
<path d="M318.1 347.9L323 363.3L290.4 376.9L284.6 356.4L318.1 347.9Z" fill="#FED16E"/>
<path d="M200.1 141.8C200.1 141.8 230 144.7 258.3 188.4C286.6 232.1 325.6 358.8 325.6 358.8L276.2 373.3C276.2 373.3 236.3 272 225 233.7L200.1 141.9V141.8Z" fill="white"/>
<path d="M99.1 297.6C103 281.6 107.7 265.1 112.3 249.3C111.4 257.6 109.5 265.8 107.3 273.9C105 282 102.4 289.9 99 297.6H99.1Z" fill="#111216"/>
<path d="M246.7 295.9C243.8 289 241.7 281.9 240 274.6C238.4 267.4 237.1 260 236.8 252.5C240.2 266.5 243.8 281.8 246.7 295.9Z" fill="#111216"/>
<path d="M212.8 396H133.2C133.3 393.6 133.9 384.1 134.7 370.1C160.2 373.1 186 372.5 211.3 369C212.1 383.4 212.7 393.3 212.8 396Z" fill="#164C6F"/>
<path d="M141.4 147C136.1 152.2 130.6 157.1 125 161.9L125.3 160.2C129.6 166 133.9 172.4 138 178.4C137.4 178.3 133.5 177.3 133 177.3C129.5 176.8 125.6 176.9 122.6 178.9C122.2 179.1 121.7 179.6 121.3 179.8L121.8 178.1C125.4 191 128.8 204 131.4 217.2C127.7 207.8 124.6 198.2 121.5 188.6C120.4 185.1 119.3 181.5 118.2 178C119.5 176.8 120.9 175.6 122.5 174.9C126.3 173.2 130.6 173.1 134.6 174.1L132.8 176.7L130.4 173C127.8 169 125.1 164.7 122.6 160.7C128.8 156 135 151.4 141.5 147.1L141.4 147Z" fill="#111216"/>
<path d="M204.1 146.3C210.4 150.9 216.5 155.7 222.5 160.6C219.9 164.5 217 168.8 214.2 172.7L211.6 176.4L209.9 173.8C213.9 173 218.2 173.2 221.9 175.1C223.5 175.8 224.8 177.1 226.1 178.3C224.9 181.8 223.7 185.3 222.5 188.8C219.1 198.3 215.6 207.7 211.6 217C214.7 203.9 218.5 191.1 222.5 178.3L222.9 180C222.5 179.7 222.1 179.2 221.7 179C218.8 176.9 214.9 176.6 211.4 177C210.9 177 206.9 177.9 206.3 178C210.6 172.2 215.2 166 219.7 160.3L219.9 162C214.5 157 209.2 151.8 204.1 146.5V146.3Z" fill="#111216"/>
<path d="M216 249.2C215.9 249.2 215.7 249.2 215.6 249.3C215.6 248.3 215.4 247.4 215.3 246.4C214.9 242.2 214.5 238 214.1 233.8C214.1 234.2 214.2 234.6 214.3 235C214.8 238.7 215.3 242.5 215.7 246.3C215.8 247.2 215.9 248.2 216 249.1V249.2Z" fill="white"/>
<path d="M211.3 369C210.3 350.2 208.9 323.7 207.7 295.5C207.1 282.6 206.4 266.9 205.6 250.6C205.6 249.5 205.5 248.3 205.4 247.2C203.5 209 201.4 168.1 200.5 150.5C200.2 145.3 200.1 142.2 200 141.7C198 142.1 196.1 142.5 194.3 142.8C190 143.6 186 144.1 182.3 144.4L179.4 145.9L173.2 149.2L166.8 145.8L164.5 144.6C152.6 143.7 146.5 140.8 145.8 140.5C145.8 140.7 145.7 140.9 145.6 141.2C145.6 141.2 145.6 141.2 145.7 141.2C145.7 141.2 145.5 144.4 145.2 150C144.3 167.6 142.1 208.8 140.3 247.2C140.3 248.3 140.2 249.5 140.1 250.6C139.3 266.8 138.6 282.3 138 295.1C136.8 324 135.4 351.2 134.3 370C159.8 372.9 185.6 372.4 210.9 368.9" fill="#FED16E"/>
<path d="M200.1 141.9C198.1 142.3 196.2 142.7 194.4 143C190.1 143.8 186.1 144.3 182.4 144.6L179.5 146.1L173.3 149.4L166.9 146L164.6 144.8C152.7 143.9 146.6 141 145.9 140.7C145.9 140.9 145.8 141.1 145.7 141.4C145.7 141.4 145.7 141.4 145.8 141.4C145.8 141.4 145.6 144.6 145.3 150.2C145.2 152.6 145 155.5 144.9 158.7C153.2 162.2 162.9 164.2 173.2 164.2C183.5 164.2 192.7 162.3 200.8 159C200.6 155.9 200.5 153.2 200.4 150.8C200.1 145.6 200 142.5 199.9 142L200.1 141.9Z" fill="#F9B000"/>
<path d="M208.2 143.7C208.2 143.7 208.1 143.8 207.9 144C207.6 144.2 207.2 144.6 206.6 145.1C206 145.6 205.3 146.2 204.5 147C203.7 147.7 202.9 148.5 201.9 149.3C201.4 149.8 200.9 150.2 200.4 150.7C193.4 157.1 184.1 165.5 184.1 165.7C184 166 173.2 149.5 173.2 149.5L179.4 146.2L182.3 144.7L199.3 135.7L208.2 143.7Z" fill="#B6E5FC"/>
<path d="M173.4 149.3C173.4 149.3 162.7 165.8 162.5 165.5C162.5 165.3 152.6 156.4 145.5 149.9C144.9 149.4 144.4 148.9 143.9 148.5C142.6 147.3 141.5 146.3 140.6 145.5C139.2 144.3 138.4 143.5 138.4 143.5L140.5 141.6L147.3 135.5L164.8 144.7L167.1 145.9L173.5 149.3H173.4Z" fill="#B6E5FC"/>
<path d="M211.3 369C197 371 182.5 372 168.1 372C153.7 372 145.8 371.4 134.7 370.1C134.7 368.4 134.9 366.6 135 364.8C146 366.1 157.1 366.7 168.1 366.7C179.1 366.7 196.9 365.7 211.1 363.7C211.1 365.5 211.3 367.3 211.4 369H211.3Z" fill="#F9B000"/>
</g>
<defs>
<clipPath id="clip0_1917_201835">
<rect width="346.3" height="396" fill="white"/>
</clipPath>
</defs>
</svg>
