<svg width="347" height="396" viewBox="0 0 347 396" fill="none" xmlns="http://www.w3.org/2000/svg">
<g clip-path="url(#clip0_1917_202171)">
<path d="M208.7 88C208.7 88 218 85.6 219 77.2C220 68.7 216.1 64.6 212.9 64.6C209.7 64.6 209.1 68.2 209.1 68.2V76.2C209.1 76.2 209.1 82.5 208.7 88.1V88Z" fill="#FCB996"/>
<path d="M137.4 88C137.4 88 128.1 85.6 127.1 77.2C126.1 68.7 130 64.6 133.2 64.6C136.4 64.6 137 68.2 137 68.2V76.2C137 76.2 137 82.5 137.4 88.1V88Z" fill="#FCB996"/>
<path d="M198.5 112H173H147.5L146 153.3H173H200L198.5 112Z" fill="#FCB996"/>
<path d="M173 112.3H147.5C147.5 112.3 154.7 132 173 132C191.3 132 198.5 112.3 198.5 112.3H173Z" fill="#E08C6D"/>
<path d="M209.1 76.5V46.1C209.1 17.5 173.1 20.6 173.1 20.6C173.1 20.6 137.1 17.5 137.1 46.1V76.5C137.1 76.5 137.1 77.6 137.1 79.3C137.1 80.3 137.1 81.6 137.1 83C137.1 83.1 137.1 83.1 137.1 83.2C137.1 84.7 137.2 86.3 137.3 87.9C137.3 88.8 137.4 89.7 137.5 90.6C137.7 93.1 138 95.4 138.3 97.3C139.7 104.3 145.8 111.4 151.2 115.8C156.6 120.2 163 124.2 173 124.2C183 124.2 189.4 120.1 194.8 115.8C200.2 111.5 206.3 104.3 207.7 97.3C208.1 95.4 208.3 93 208.5 90.6C208.5 89.7 208.6 88.8 208.7 87.9C208.7 86.9 208.8 86 208.8 85C208.8 84.8 208.8 84.7 208.8 84.5C208.8 84.4 208.8 84.3 208.8 84.2C208.8 84.2 208.8 84.2 208.8 84.1C208.8 82.3 208.8 80.6 208.9 79.3C208.9 77.6 208.9 76.5 208.9 76.5H209.1Z" fill="#FCB996"/>
<path d="M155.4 59.8C154.6 59.8 153.8 59.4 153.3 58.7C152.6 57.6 152.9 56 154 55.3C156.1 54 158.8 53.2 161.5 53.3C162.9 53.3 163.9 54.4 163.9 55.8C163.9 57.2 162.8 58.2 161.4 58.2C161.4 58.2 161.4 58.2 161.3 58.2C158.8 58.2 157.1 59.2 156.6 59.5C156.2 59.8 155.7 59.9 155.3 59.9L155.4 59.8Z" fill="#D28130"/>
<path d="M186.5 78.1C187.715 78.1 188.7 76.7568 188.7 75.1C188.7 73.4431 187.715 72.1 186.5 72.1C185.285 72.1 184.3 73.4431 184.3 75.1C184.3 76.7568 185.285 78.1 186.5 78.1Z" fill="#111216"/>
<path d="M158.3 78.1C159.515 78.1 160.5 76.7568 160.5 75.1C160.5 73.4431 159.515 72.1 158.3 72.1C157.085 72.1 156.1 73.4431 156.1 75.1C156.1 76.7568 157.085 78.1 158.3 78.1Z" fill="#111216"/>
<path d="M190.3 59.8C191.1 59.8 191.9 59.4 192.4 58.7C193.1 57.6 192.8 56 191.7 55.3C189.6 54 186.9 53.2 184.2 53.3C182.8 53.3 181.8 54.4 181.8 55.8C181.8 57.2 182.9 58.2 184.3 58.2C184.3 58.2 184.3 58.2 184.4 58.2C186.9 58.2 188.6 59.2 189.1 59.5C189.5 59.8 190 59.9 190.4 59.9L190.3 59.8Z" fill="#D28130"/>
<g opacity="0.5">
<path d="M151.3 103C157.43 103 162.4 98.0304 162.4 91.9C162.4 85.7697 157.43 80.8 151.3 80.8C145.17 80.8 140.2 85.7697 140.2 91.9C140.2 98.0304 145.17 103 151.3 103Z" fill="#ED9C88"/>
<path d="M194.8 103C200.93 103 205.9 98.0304 205.9 91.9C205.9 85.7697 200.93 80.8 194.8 80.8C188.67 80.8 183.7 85.7697 183.7 91.9C183.7 98.0304 188.67 103 194.8 103Z" fill="#ED9C88"/>
</g>
<path d="M179.4 98.3001C178.7 100.9 176 102.9 173.2 103C173.1 103 173 103 172.9 103C170.2 103 167.5 101.3 166.6 98.9001C166.6 98.7001 166.6 98.4001 166.7 98.3001C166.9 98.1001 167.3 98.0001 167.5 98.3001C168 98.8001 168.6 99.3001 169.2 99.6001C170.4 100.3 171.7 100.6 173 100.5C174.3 100.5 175.6 100.2 176.8 99.6001C177.4 99.3001 178 98.8001 178.5 98.3001C178.8 98.0001 179.1 98.1001 179.3 98.3001H179.4Z" fill="#111216"/>
<path d="M173.2 87.0001C172 86.8001 170.8 86.4001 169.7 86.0001C168 85.1001 167.6 82.8001 168.6 81.3001C169.8 79.1001 171.1 76.9001 172.7 75.0001C172.7 74.9001 172.9 74.8001 173.1 74.9001C173.3 74.9001 173.3 75.1001 173.3 75.3001C172.5 77.8001 171.5 80.1001 170.3 82.4001C169.7 83.2001 169.8 84.1001 170.5 84.7001C171.5 85.3001 172.5 85.8001 173.4 86.5001C173.7 86.7001 173.5 87.3001 173.1 87.2001L173.2 87.0001Z" fill="#111216"/>
<path d="M132.8 79.4C130.8 79.4 129.4 78.2 128.8 76.1C128.1 73.7 128.8 70.3 130.6 69.6C131.4 69.3 132 69.5 132.3 69.6C133.2 70.2 133.2 71.4 133.3 71.5C133.3 71.8 133.1 72.1 132.7 72.1C132.4 72.1 132.1 71.9 132.1 71.5C132.1 71.3 132 70.7 131.7 70.5C131.6 70.5 131.4 70.5 131.1 70.5C130.2 70.9 129.4 73.4 130 75.5C130.4 76.8 131.3 78.2 133.6 77.8C133.9 77.8 134.3 78 134.3 78.3C134.3 78.6 134.1 79 133.8 79C133.5 79 133.1 79 132.8 79V79.4Z" fill="#915F44"/>
<path d="M213.2 79.4C212.9 79.4 212.6 79.4 212.2 79.4C211.9 79.4 211.6 79 211.7 78.7C211.7 78.4 212.1 78.1 212.4 78.2C214.7 78.6 215.7 77.2 216 75.9C216.6 73.8 215.9 71.3 214.9 70.9C214.6 70.8 214.4 70.8 214.3 70.9C214 71.1 213.9 71.6 213.9 71.9C213.9 72.2 213.6 72.5 213.3 72.5C213 72.5 212.7 72.2 212.7 71.9C212.7 71.8 212.7 70.5 213.7 70C214 69.8 214.6 69.6 215.4 70C217.2 70.7 217.9 74 217.2 76.5C216.6 78.6 215.1 79.8 213.2 79.8V79.4Z" fill="#915F44"/>
<path d="M217.6 32.7C217.2 50.4 211.9 74.3 211.2 76.9C210.5 79.5 209.5 79.4 209 79.4C208.5 79.4 207.6 79 207.6 77.2C207.6 75.4 208.4 56.1 206.6 49.2C204.8 42.3 199.7 34.9 194.2 34.9C185.6 34.9 185.2 40.2 172.9 40.2C160.6 40.2 160.2 35 151.6 35C143 35 141 42.4 139.2 49.3C137.4 56.2 138.2 75.4 138.2 77.3C138.2 79.2 137.3 79.5 136.8 79.5C136.3 79.5 135.3 79.7 134.6 77C133.9 74.4 128.6 50.5 128.2 32.8C127.8 15.1 142.6 13.6 142.6 13.6C142.6 13.6 149.1 0 172.8 0C196.4 0 203 13.5 203 13.5C203 13.5 217.8 15 217.4 32.7H217.6Z" fill="#D28130"/>
<path d="M23.3 379.4C23.3 379.4 23.2 386.6 21.5 389.5C19.9 392.4 18.8 391.9 18.8 389C18.8 386.2 19.3 378.8 19.3 378.8L23.3 379.3V379.4Z" fill="#FCB996"/>
<path d="M18.5 389.1C18.5 389.1 17.5 392.5 15.3 393.7C13.1 394.8 13.9 391.4 15 387.8C16.1 384.2 18.3 377.6 18.3 377.6L21.8 377.2L18.4 389.2L18.5 389.1Z" fill="#FCB996"/>
<path d="M14.4 390.6C14.4 390.6 13.4 394 11.2 395.2C9 396.4 9.8 392.9 10.9 389.3C12 385.7 14.2 379.1 14.2 379.1L17.7 378.7L14.3 390.7L14.4 390.6Z" fill="#FCB996"/>
<path d="M37.1 356.9C37.1 356.9 35.3 359.9 34.1 361.4C33 362.9 24.1 370.2 19 373.4C13.9 376.6 13.7 377.6 8.89999 382.2C4.09999 386.9 -1.00001 392.7 0.0999886 394.6C1.19999 396.5 5.49999 395.1 10.2 390.2C14.9 385.3 15.9 382.7 19.4 381.1C22.9 379.5 30.8 376.5 31.9 376.6C34.7 376.9 33.2 380.6 31.9 382.8C30.6 385 29.5 388.5 29.1 392.5C28.9 394 30.1 395.3 31.6 395.3C34.3 395.3 35.4 390.6 36.7 387.7C38 384.8 44.7 380.9 45.7 373.6C46.7 366.3 51.2 362.8 51.2 362.8L37.1 356.9Z" fill="#FCB996"/>
<path d="M10.9 389.7C13.6 385 18.1 381.1 23.3 379.5C22.7 379.8 22.1 380.1 21.5 380.4C17.3 382.6 13.8 385.9 10.9 389.7Z" fill="#111216"/>
<path d="M18.8 388.1C19.2 385.5 19.9 383 20.9 380.6C20.5 383.2 19.8 385.7 18.8 388.1Z" fill="#111216"/>
<path d="M14 392C14.6 389.1 15.5 386.2 16.7 383.5C16.1 386.4 15.2 389.3 14 392Z" fill="#111216"/>
<path d="M28.3 346.1L23.3 361.5L55.9 375.1L61.7 354.6L28.3 346.1Z" fill="#EB6770"/>
<path d="M259.2 395.2H91.2C88.6 395.9 93.5 342.5 99.1 296.9C99.1 296.2 99.3 295.5 99.4 294.9C102.4 270.8 105.6 249.1 107.9 239.3L100.2 246.2C103.8 226.6 108.6 207.7 114.8 191.2C116.5 186.8 118.2 182.5 120.1 178.4C120.1 178.3 120.2 178.1 120.3 178C120.3 178 120.3 177.9 120.3 177.8C121 176.3 121.7 174.9 122.4 173.5C123.9 170.5 125.5 167.5 127.2 164.8C127.7 163.9 128.3 163.1 128.8 162.2C130.5 158.4 132.2 155.1 134.1 152.3C136.1 149.2 138.3 146.7 140.6 145C141.2 144.6 141.7 144.2 142.3 143.8C143.2 143.4 144.2 143.1 145.2 142.7C145.2 142.7 145.3 142.7 145.4 142.7H144.1C144.3 142.7 145.6 140.7 146 140.3C146.1 140.3 146.1 142.7 146.3 142.7C146.9 142.3 147.4 141.9 148 141.5C148 141.5 154.2 144.7 167 145.7L173.4 149.1L179.6 145.8C179.8 145.8 180 145.8 180.1 145.8C193.6 145 200.1 141.6 200.1 141.6C200.1 141.6 200.1 141.6 200.2 141.7C200.7 142.1 201.2 142.4 201.7 142.8C201.8 142.8 201.9 142.8 202 142.8C203.3 143.2 204.5 143.7 205.7 144.2C206 144.4 206.3 144.6 206.7 144.8C210.3 147.3 213.5 151.4 216.5 157C216.5 157 216.5 157.2 216.6 157.3C217.5 158.9 218.3 160.7 219.1 162.5C219.1 162.5 219.1 162.5 219.1 162.6C220.2 164.3 221.3 166.1 222.3 168C223.8 170.7 225.3 173.5 226.7 176.5C236.5 196.9 243.4 222.7 248.2 249.6L237 239.6C238.7 248.9 242 269.6 245.6 292.9C245.6 293.2 245.6 293.5 245.7 293.8C252.7 339.8 260.6 395.6 258.9 395.6L259.2 395.2Z" fill="white"/>
<path d="M212.8 395.2H133.2C133.3 392.9 133.9 383.4 134.7 369.4C135.7 350.5 137.1 323.4 138.4 294.5C139 281.6 139.7 266.1 140.5 250C140.5 248.9 140.6 247.7 140.7 246.6C142.6 208.2 144.7 167 145.6 149.4C145.9 143.8 146.1 140.6 146.1 140.6C146.1 140.6 146.1 140.6 146 140.6C146 140.4 146.1 140.2 146.2 139.9C146.9 140.3 153 143.1 164.9 144L167.2 145.2L173.6 148.6L179.8 145.3L182.7 143.8C186.4 143.5 190.4 142.9 194.7 142.2C196.5 141.9 198.4 141.5 200.4 141.1C200.4 141.6 200.6 144.7 200.9 149.9C201.8 167.5 204 208.4 205.8 246.6C205.8 247.7 205.9 248.9 206 250C206.8 266.3 207.5 281.9 208.1 294.9C209.3 323.1 210.7 349.6 211.7 368.4C212.5 382.7 213.1 392.6 213.2 395.3L212.8 395.2Z" fill="#EB6770"/>
<path d="M146 140C146 140 115.6 141.4 87.3 185.1C59 228.8 20.7 357 20.7 357L70.1 371.5C70.1 371.5 110 270.2 121.3 231.9L146.1 140H146Z" fill="white"/>
<path d="M323 379.3C323 379.3 323.1 386.5 324.8 389.4C326.4 392.3 327.5 391.8 327.5 388.9C327.5 386.1 327 378.7 327 378.7L323 379.2V379.3Z" fill="#FCB996"/>
<path d="M327.8 389C327.8 389 328.8 392.4 331 393.6C333.2 394.8 332.4 391.3 331.3 387.7C330.2 384.1 328 377.5 328 377.5L324.5 377.1L327.9 389.1L327.8 389Z" fill="#FCB996"/>
<path d="M331.9 390.5C331.9 390.5 332.9 393.9 335.1 395.1C337.3 396.3 336.5 392.8 335.4 389.2C334.3 385.6 332.1 379 332.1 379L328.6 378.6L332 390.6L331.9 390.5Z" fill="#FCB996"/>
<path d="M309.2 356.8C309.2 356.8 311 359.8 312.2 361.3C313.4 362.8 322.2 370.1 327.3 373.3C332.4 376.5 332.6 377.5 337.4 382.1C342.2 386.7 347.3 392.6 346.2 394.5C345.1 396.4 340.8 395 336.1 390.1C331.4 385.2 330.4 382.6 326.9 381C323.4 379.4 315.5 376.4 314.4 376.5C311.6 376.8 313.1 380.5 314.4 382.7C315.7 384.9 316.8 388.4 317.2 392.4C317.4 393.9 316.2 395.2 314.7 395.2C312 395.2 310.9 390.5 309.6 387.6C308.3 384.7 301.6 380.8 300.6 373.5C299.6 366.2 295.1 362.7 295.1 362.7L309.2 356.8Z" fill="#FCB996"/>
<path d="M335.4 389.6C332.6 385.8 329 382.5 324.8 380.3C324.2 379.9 323.6 379.7 323 379.4C328.2 381 332.7 384.9 335.4 389.6Z" fill="#111216"/>
<path d="M327.5 388C326.5 385.6 325.8 383.1 325.4 380.5C326.4 382.9 327.1 385.4 327.5 388Z" fill="#111216"/>
<path d="M332.3 391.9C331.1 389.2 330.2 386.3 329.6 383.4C330.8 386.1 331.7 389 332.3 391.9Z" fill="#111216"/>
<path d="M318.1 347.2L323 362.6L290.4 376.2L284.6 355.7L318.1 347.2Z" fill="#EB6770"/>
<path d="M200.1 141.1C200.1 141.1 230 144 258.3 187.7C286.6 231.4 325.6 358.1 325.6 358.1L276.2 372.6C276.2 372.6 236.3 271.3 225 233L200.1 141.2V141.1Z" fill="white"/>
<path d="M99.1 296.9C103 280.9 107.7 264.4 112.3 248.6C111.4 256.9 109.5 265.1 107.3 273.2C105 281.3 102.4 289.2 99 296.9H99.1Z" fill="#111216"/>
<path d="M246.7 295.2C243.8 288.3 241.7 281.2 240 273.9C238.4 266.7 237.1 259.3 236.8 251.8C240.2 265.8 243.8 281.1 246.7 295.2Z" fill="#111216"/>
<path d="M212.8 395.2H133.2C133.3 392.9 133.9 383.4 134.7 369.4C160.2 372.3 186 371.8 211.3 368.3C212.1 382.6 212.7 392.5 212.8 395.2Z" fill="#72768D"/>
<path d="M141.4 146.2C136.1 151.4 130.6 156.3 125 161.1L125.3 159.4C129.6 165.2 133.9 171.6 138 177.6C137.4 177.5 133.5 176.5 133 176.5C129.5 176 125.6 176.1 122.6 178.1C122.2 178.3 121.7 178.8 121.3 179L121.8 177.3C125.4 190.2 128.8 203.2 131.4 216.4C127.7 207 124.6 197.4 121.5 187.8C120.4 184.3 119.3 180.7 118.2 177.2C119.5 176 120.9 174.8 122.5 174.1C126.3 172.4 130.6 172.3 134.6 173.3L132.8 175.9L130.4 172.2C127.8 168.2 125.1 163.9 122.6 159.9C128.8 155.2 135 150.6 141.5 146.3L141.4 146.2Z" fill="#111216"/>
<path d="M204.1 145.6C210.4 150.2 216.5 155 222.5 159.9C219.9 163.8 217 168.1 214.2 172L211.6 175.7L209.9 173.1C213.9 172.3 218.2 172.5 221.9 174.4C223.5 175.1 224.8 176.4 226.1 177.6C224.9 181.1 223.7 184.6 222.5 188.1C219.1 197.6 215.6 207 211.6 216.3C214.7 203.2 218.5 190.4 222.5 177.6L222.9 179.3C222.5 179 222.1 178.5 221.7 178.3C218.8 176.2 214.9 175.9 211.4 176.3C210.9 176.3 206.9 177.2 206.3 177.3C210.6 171.5 215.2 165.3 219.7 159.6L219.9 161.3C214.5 156.3 209.2 151.1 204.1 145.8V145.6Z" fill="#111216"/>
<path d="M216 248.5C215.9 248.5 215.7 248.5 215.6 248.6C215.6 247.6 215.4 246.7 215.3 245.7C214.9 241.5 214.5 237.3 214.1 233.1C214.1 233.5 214.2 233.9 214.3 234.3C214.8 238 215.3 241.8 215.7 245.6C215.8 246.5 215.9 247.5 216 248.4V248.5Z" fill="white"/>
<path d="M208.4 142.8C208.4 142.8 208.3 142.9 208.1 143.1C207.8 143.3 207.4 143.7 206.8 144.2C206.2 144.7 205.5 145.3 204.7 146.1C203.9 146.8 203.1 147.6 202.1 148.4C201.6 148.9 201.1 149.3 200.6 149.8C193.6 156.2 184.3 164.6 184.3 164.8C184.2 165.1 173.4 148.6 173.4 148.6L179.6 145.3L182.5 143.8L199.5 134.8L208.4 142.8Z" fill="#AD3F46"/>
<path d="M173.4 148.6C173.4 148.6 162.7 165.1 162.5 164.8C162.5 164.6 152.6 155.7 145.5 149.2C144.9 148.7 144.4 148.2 143.9 147.8C142.6 146.6 141.5 145.6 140.6 144.8C139.2 143.6 138.4 142.8 138.4 142.8L140.5 140.9L147.3 134.8L164.8 144L167.1 145.2L173.5 148.6H173.4Z" fill="#AD3F46"/>
<path d="M173.4 148.6C173.4 148.6 171.4 151.7 169.1 155.3V210.5H177.3V154.6C175.2 151.4 173.4 148.6 173.4 148.6Z" fill="#DB565E"/>
<path d="M173.1 204.6C174.26 204.6 175.2 203.66 175.2 202.5C175.2 201.34 174.26 200.4 173.1 200.4C171.94 200.4 171 201.34 171 202.5C171 203.66 171.94 204.6 173.1 204.6Z" fill="white"/>
<path d="M173.1 185.3C174.26 185.3 175.2 184.36 175.2 183.2C175.2 182.04 174.26 181.1 173.1 181.1C171.94 181.1 171 182.04 171 183.2C171 184.36 171.94 185.3 173.1 185.3Z" fill="white"/>
<path d="M173.1 166.1C174.26 166.1 175.2 165.16 175.2 164C175.2 162.84 174.26 161.9 173.1 161.9C171.94 161.9 171 162.84 171 164C171 165.16 171.94 166.1 173.1 166.1Z" fill="white"/>
</g>
<defs>
<clipPath id="clip0_1917_202171">
<rect width="346.3" height="395.4" fill="white"/>
</clipPath>
</defs>
</svg>
