<svg width="141" height="175" viewBox="0 0 141 175" fill="none" xmlns="http://www.w3.org/2000/svg">
<path d="M16.5455 147.918L16.3511 148.696L12.9174 161.704C12.9174 161.704 10.4987 167.025 7.35442 167.992C4.21012 168.96 -1.44264 169.669 0.340214 170.895C4.21012 173.555 10.015 172.346 11.4662 170.895C12.9174 169.444 14.8524 166.057 15.578 166.783C16.3036 167.509 15.3361 172.588 18.4804 172.104C21.6247 171.62 19.4479 171.862 18.4804 169.927C17.5129 167.992 21.3828 163.639 18.4804 160.978L22.5922 157.108" fill="#DF9A79"/>
<path d="M122.482 147.918L123.449 148.16L127.803 161.705C127.803 161.705 130.222 167.026 133.366 167.993C136.51 168.961 142.163 169.67 140.38 170.896C136.51 173.556 130.705 172.347 129.254 170.896C127.803 169.444 125.868 166.058 125.142 166.784C124.417 167.509 125.384 172.589 122.24 172.105C119.096 171.621 121.272 171.863 122.24 169.928C123.207 167.993 119.338 163.639 122.24 160.979L118.128 157.109" fill="#DF9A79"/>
<path d="M74.5937 109.581C72.06 95.0963 74.9721 80.9774 77.0903 73.4423C73.3102 73.0387 70.082 72.8428 69.2718 72.9445C67.3369 73.1863 62.7414 74.3957 62.7414 74.3957C62.7414 74.3957 61.1759 74.8015 58.8425 75.5041C61.4371 83.6008 64.7713 97.2197 63.6517 111.239C63.7348 111.749 63.7949 112.247 63.829 112.731C64.453 121.47 62.2139 157.41 59.1126 174.369L83.6571 173.618C79.1877 157.309 74.9179 120.234 74.5521 111.345C74.5284 110.773 74.5447 110.183 74.5937 109.581Z" fill="#CF5F5F"/>
<mask id="mask0_1538_35024" style="mask-type:luminance" maskUnits="userSpaceOnUse" x="58" y="72" width="26" height="103">
<path d="M74.5937 109.585C72.06 95.1002 74.9721 80.9813 77.0903 73.4462C73.3102 73.0426 70.082 72.8467 69.2718 72.9484C67.3369 73.1903 62.7414 74.3996 62.7414 74.3996C62.7414 74.3996 61.1759 74.8054 58.8425 75.5081C61.4371 83.6047 64.7713 97.2236 63.6517 111.243C63.7348 111.753 63.7949 112.251 63.829 112.735C64.453 121.474 62.2139 157.414 59.1126 174.373L83.6571 173.622C79.1877 157.313 74.9179 120.238 74.5521 111.348C74.5284 110.777 74.5447 110.187 74.5937 109.585Z" fill="white"/>
</mask>
<g mask="url(#mask0_1538_35024)">
<path opacity="0.26" d="M59.5629 78.7109C59.5629 78.7109 69.5129 105.111 63.9499 180.573L54.2751 179.605C54.2751 179.605 54.934 79.1576 59.5629 78.7109Z" fill="#B74D4D"/>
</g>
<mask id="mask1_1538_35024" style="mask-type:luminance" maskUnits="userSpaceOnUse" x="58" y="72" width="26" height="103">
<path d="M74.5937 109.585C72.06 95.1002 74.9721 80.9813 77.0903 73.4462C73.3102 73.0426 70.082 72.8467 69.2718 72.9484C67.3369 73.1903 62.7414 74.3996 62.7414 74.3996C62.7414 74.3996 61.1759 74.8054 58.8425 75.5081C61.4371 83.6047 64.7713 97.2236 63.6517 111.243C63.7348 111.753 63.7949 112.251 63.829 112.735C64.453 121.474 62.2139 157.414 59.1126 174.373L83.6571 173.622C79.1877 157.313 74.9179 120.238 74.5521 111.348C74.5284 110.777 74.5447 110.187 74.5937 109.585Z" fill="white"/>
</mask>
<g mask="url(#mask1_1538_35024)">
<path opacity="0.26" d="M75.0618 82.2503C75.0618 82.2503 70.7223 96.8931 74.5922 125.917C78.4621 154.94 78.9459 181.061 78.9459 181.061L92.4905 177.675L82.5739 123.497C82.5739 123.497 78.6758 82.119 75.0618 82.2503Z" fill="#B74D4D"/>
</g>
<path d="M97.6148 35.1694C97.6148 35.1694 92.8976 28.4081 95.7281 21.6469C98.2722 15.569 86.0808 16.2256 83.5894 16.42C84.2371 16.0268 84.9071 15.6699 85.5978 15.3591C88.3504 14.1186 91.3908 13.6192 94.3607 14.2922C94.5084 14.3256 94.5714 14.0985 94.4238 14.0644C91.5896 13.4226 88.6909 13.8181 86.0229 14.9206C85.0925 15.3049 84.1948 15.7664 83.3394 16.2946C83.2985 16.3199 83.2585 16.3466 83.2177 16.3725C83.3394 16.219 83.4514 16.0706 83.5552 15.9259C84.4552 15.3672 85.2261 14.5956 85.5525 13.6274C85.9799 12.3594 85.5065 10.9149 84.6852 9.90959C83.8557 8.89389 82.6471 8.45021 81.4244 8.10373C80.8034 7.92789 80.1016 7.78767 79.5681 7.40335C78.8277 6.86916 78.8514 5.9833 79.0183 5.16792C79.0488 5.01953 78.8217 4.95646 78.7913 5.10485C78.5242 6.40694 78.8047 7.41967 80.0912 7.9368C81.6255 8.55334 83.3193 8.65795 84.4619 10.0097C85.7989 11.5915 85.8033 13.7179 84.24 15.1046C84.1421 15.1914 84.0405 15.2745 83.9359 15.3554C87.5194 9.50227 75.4029 11.5886 74.6603 3.56386C73.8738 -4.92679 57.6789 6.55162 51.2323 4.03573C44.7857 1.51985 40.8549 11.2688 43.2135 16.1426C45.5721 21.017 41.3268 22.9038 35.6659 22.9038C30.0057 22.9038 32.9927 30.608 37.0807 34.0676C41.1688 37.5272 38.8102 37.841 34.093 42.5582C29.3758 47.2754 42.5836 52.621 42.1118 55.6088C41.6399 58.5965 49.8167 57.0237 51.2316 61.8981C52.6464 66.7726 62.0808 62.8411 62.0808 62.8411C63.653 59.8534 75.1314 62.212 77.1754 66.7719C79.2194 71.3318 83.622 57.9667 90.2259 58.4385C96.8299 58.9104 89.5968 47.5893 96.8299 49.476C104.061 51.3642 97.6148 35.1694 97.6148 35.1694Z" fill="#242D54"/>
<mask id="mask2_1538_35024" style="mask-type:luminance" maskUnits="userSpaceOnUse" x="32" y="0" width="69" height="68">
<path d="M97.6148 35.1694C97.6148 35.1694 92.8976 28.4081 95.7281 21.6469C98.2722 15.569 86.0808 16.2256 83.5894 16.42C84.2371 16.0268 84.9071 15.6699 85.5978 15.3591C88.3504 14.1186 91.3908 13.6192 94.3607 14.2922C94.5084 14.3256 94.5714 14.0985 94.4238 14.0644C91.5896 13.4226 88.6909 13.8181 86.0229 14.9206C85.0925 15.3049 84.1948 15.7664 83.3394 16.2946C83.2985 16.3199 83.2585 16.3466 83.2177 16.3725C83.3394 16.219 83.4514 16.0706 83.5552 15.9259C84.4552 15.3672 85.2261 14.5956 85.5525 13.6274C85.9799 12.3594 85.5065 10.9149 84.6852 9.90959C83.8557 8.89389 82.6471 8.45021 81.4244 8.10373C80.8034 7.92789 80.1016 7.78767 79.5681 7.40335C78.8277 6.86916 78.8514 5.9833 79.0183 5.16792C79.0488 5.01953 78.8217 4.95646 78.7913 5.10485C78.5242 6.40694 78.8047 7.41967 80.0912 7.9368C81.6255 8.55334 83.3193 8.65795 84.4619 10.0097C85.7989 11.5915 85.8033 13.7179 84.24 15.1046C84.1421 15.1914 84.0405 15.2745 83.9359 15.3554C87.5194 9.50227 75.4029 11.5886 74.6603 3.56386C73.8738 -4.92679 57.6789 6.55162 51.2323 4.03573C44.7857 1.51985 40.8549 11.2688 43.2135 16.1426C45.5721 21.017 41.3268 22.9038 35.6659 22.9038C30.0057 22.9038 32.9927 30.608 37.0807 34.0676C41.1688 37.5272 38.8102 37.841 34.093 42.5582C29.3758 47.2754 42.5836 52.621 42.1118 55.6088C41.6399 58.5965 49.8167 57.0237 51.2316 61.8981C52.6464 66.7726 62.0808 62.8411 62.0808 62.8411C63.653 59.8534 75.1314 62.212 77.1754 66.7719C79.2194 71.3318 83.622 57.9667 90.2259 58.4385C96.8299 58.9104 89.5968 47.5893 96.8299 49.476C104.061 51.3642 97.6148 35.1694 97.6148 35.1694Z" fill="white"/>
</mask>
<g mask="url(#mask2_1538_35024)">
<path d="M85.312 45.6217C84.9239 55.9352 75.6869 63.6298 66.3438 63.6298C57.0006 63.6298 49.4263 55.263 49.4263 44.942C49.4263 34.6211 58.7093 19.2891 68.0524 19.2891C77.3963 19.2891 85.9953 27.4436 85.312 45.6217Z" fill="#1D2645"/>
</g>
<path d="M59.5635 54.5032C59.5635 54.5032 63.9661 71.1699 59.5635 76.5163L70.57 80.9189L75.6018 75.5733C75.6018 75.5733 71.1992 59.8495 75.6018 52.6172L59.5635 54.5032Z" fill="#DF9A79"/>
<mask id="mask3_1538_35024" style="mask-type:luminance" maskUnits="userSpaceOnUse" x="59" y="52" width="17" height="29">
<path d="M59.564 54.5032C59.564 54.5032 63.9666 71.1699 59.564 76.5163L70.5705 80.9189L75.6023 75.5733C75.6023 75.5733 71.1997 59.8495 75.6023 52.6172L59.564 54.5032Z" fill="white"/>
</mask>
<g mask="url(#mask3_1538_35024)">
<path opacity="0.27" d="M73.2435 62.2108C85.401 62.2108 95.2566 54.5376 95.2566 45.0722C95.2566 35.6068 85.401 27.9336 73.2435 27.9336C61.0861 27.9336 51.2305 35.6068 51.2305 45.0722C51.2305 54.5376 61.0861 62.2108 73.2435 62.2108Z" fill="#A34B3E"/>
</g>
<path d="M83.665 36.7304C83.8364 38.3886 87.8391 58.5149 67.4264 58.4578C58.4579 58.4326 51.1877 48.7304 51.1877 36.7304C51.1877 24.7304 58.5151 13.6875 67.4835 13.6875C76.4527 13.6875 82.107 21.6684 83.665 36.7304Z" fill="#DF9A79"/>
<path d="M50.4442 33.4396C50.4442 33.4396 52.4883 31.081 55.0041 36.1128C55.0041 36.1128 53.7466 29.3516 55.0041 27.3076C56.2617 25.2635 61.6081 23.6914 61.9227 20.3891C62.2372 17.0867 58.1492 15.6719 58.1492 15.6719C58.1492 15.6719 47.7711 26.2065 50.4442 33.4396Z" fill="#242D54"/>
<path d="M61.2408 11.898C61.2408 11.898 54.993 15.3606 61.8306 18.5635C68.6683 21.7664 78.4885 20.4398 75.1624 23.3C71.8363 26.1609 71.1856 29.34 75.9117 28.6271C80.6378 27.9148 81.5712 30.3328 78.1709 31.9902C78.1709 31.9902 85.9285 29.5218 81.7055 27.6076C77.4824 25.6935 75.592 25.3863 78.6606 24.2326C81.7292 23.0781 85.792 20.4139 80.9183 15.762C76.0445 11.1108 61.2408 11.898 61.2408 11.898Z" fill="#242D54"/>
<path d="M54.9129 36.6243C55.5094 39.2937 54.3438 41.8267 52.3102 42.2808C50.2765 42.7348 48.1435 40.9393 47.547 38.2699C46.9505 35.6004 48.116 33.0675 50.1497 32.6134C52.184 32.1586 54.3163 33.9541 54.9129 36.6243Z" fill="#DF9A79"/>
<path d="M64.7527 36.0703C64.7527 37.4377 63.8906 38.5469 62.8267 38.5469C61.7628 38.5469 60.9006 37.4384 60.9006 36.0703C60.9006 34.7022 61.7628 33.5938 62.8267 33.5938C63.8906 33.5937 64.7527 34.7029 64.7527 36.0703Z" fill="white"/>
<path d="M62.827 37.1351C63.283 37.1351 63.6528 36.6598 63.6528 36.0734C63.6528 35.4871 63.283 35.0117 62.827 35.0117C62.3709 35.0117 62.0012 35.4871 62.0012 36.0734C62.0012 36.6598 62.3709 37.1351 62.827 37.1351Z" fill="#212536"/>
<path d="M64.3692 34.3627C64.2089 34.1045 63.9893 33.8775 63.7267 33.7068C63.4625 33.5391 63.1465 33.4405 62.8267 33.4375C62.5069 33.4412 62.1916 33.5391 61.9275 33.7076C61.6641 33.8775 61.4452 34.1045 61.285 34.3627C61.2093 34.4821 61.1455 34.6083 61.0921 34.7366L60.5861 34.6164L61.0453 34.8605C61.0201 34.931 60.9978 35.0022 60.9785 35.0742L60.2715 35.0876L60.9437 35.2129C60.8843 35.4971 60.8702 35.7879 60.9006 36.0699C60.9696 35.4934 61.1551 34.9421 61.486 34.4999C61.8117 34.0622 62.3021 33.7461 62.8267 33.7499C63.3512 33.7461 63.8409 34.0622 64.1666 34.4999C64.4975 34.9414 64.683 35.4934 64.7527 36.0691C64.8143 35.4941 64.6949 34.8783 64.3692 34.3627Z" fill="#212536"/>
<path d="M75.3264 38.0781C76.3902 38.0781 77.2525 36.9693 77.2525 35.6016C77.2525 34.2338 76.3902 33.125 75.3264 33.125C74.2627 33.125 73.4004 34.2338 73.4004 35.6016C73.4004 36.9693 74.2627 38.0781 75.3264 38.0781Z" fill="white"/>
<path d="M75.3265 36.6586C75.7826 36.6586 76.1523 36.1832 76.1523 35.5969C76.1523 35.0105 75.7826 34.5352 75.3265 34.5352C74.8704 34.5352 74.5007 35.0105 74.5007 35.5969C74.5007 36.1832 74.8704 36.6586 75.3265 36.6586Z" fill="#212536"/>
<path d="M73.7839 33.8932C73.9442 33.635 74.1638 33.408 74.4265 33.2381C74.6906 33.0704 75.0067 32.9717 75.3264 32.9688C75.6462 32.9725 75.9615 33.0704 76.2256 33.2388C76.489 33.4095 76.7079 33.6358 76.8681 33.8939C76.9438 34.0134 77.0076 34.1395 77.061 34.2679L77.567 34.1477L77.1078 34.3918C77.133 34.4623 77.1553 34.5335 77.1746 34.6062L77.8816 34.6195L77.2094 34.7449C77.2688 35.0291 77.2829 35.3199 77.2525 35.6019C77.1835 35.0254 76.998 34.4741 76.6671 34.0319C76.3414 33.5942 75.851 33.2781 75.3264 33.2826C74.8019 33.2789 74.3122 33.5949 73.9865 34.0327C73.6556 34.4741 73.4701 35.0261 73.4004 35.6019C73.338 35.0239 73.4582 34.4081 73.7839 33.8932Z" fill="#212536"/>
<path d="M68.9273 35.7035C69.7872 37.7928 70.6204 39.9058 71.3074 42.0589C71.4751 42.5842 71.6495 43.1184 71.7467 43.6622C71.8394 44.1793 71.7422 44.2513 71.2332 44.4353C70.081 44.8508 68.7938 45.0073 67.5822 45.1542C67.2847 45.1906 67.281 45.6624 67.5822 45.6261C68.8746 45.4695 70.2598 45.3137 71.481 44.8463C72.522 44.4479 72.2831 43.7446 72.0278 42.8179C71.3497 40.3488 70.3555 37.9442 69.3821 35.5789C69.2686 35.3014 68.8116 35.4223 68.9273 35.7035Z" fill="#A64D3F"/>
<path d="M61.7189 49.4432C62.4415 50.4574 63.5092 51.2965 64.6094 51.8574C67.0474 53.0994 69.7206 52.7885 72.1044 51.5725C72.3752 51.4345 72.1363 51.0272 71.8662 51.1652C69.5388 52.353 66.9198 52.6134 64.5849 51.3106C63.6635 50.7964 62.745 50.0745 62.1262 49.2057C61.9511 48.9594 61.5423 49.1954 61.7189 49.4432Z" fill="#A7225B"/>
<path d="M63.6587 28.8776C61.3186 28.3531 59.259 29.7969 58.4162 31.9292C58.2136 32.4418 59.0416 32.6652 59.2427 32.1569C59.9119 30.4624 61.605 29.2946 63.4309 29.7041C63.968 29.8243 64.1973 28.9985 63.6587 28.8776Z" fill="#242D54"/>
<path d="M73.7076 27.9362C76.0477 27.4117 78.1073 28.8555 78.9501 30.9878C79.1526 31.5004 78.3247 31.7238 78.1236 31.2155C77.4544 29.521 75.7613 28.3532 73.9354 28.7627C73.3982 28.8829 73.169 28.0571 73.7076 27.9362Z" fill="#242D54"/>
<mask id="mask4_1538_35024" style="mask-type:luminance" maskUnits="userSpaceOnUse" x="57" y="29" width="12" height="14">
<path d="M63.1414 42.1022C66.0568 42.1022 68.4202 39.191 68.4202 35.5999C68.4202 32.0088 66.0568 29.0977 63.1414 29.0977C60.226 29.0977 57.8625 32.0088 57.8625 35.5999C57.8625 39.191 60.226 42.1022 63.1414 42.1022Z" fill="white"/>
</mask>
<g mask="url(#mask4_1538_35024)">
<path opacity="0.17" d="M56.7339 37.5255L67.5831 27.3047L68.3688 28.2484L56.7339 40.5125V37.5255Z" fill="white"/>
</g>
<mask id="mask5_1538_35024" style="mask-type:luminance" maskUnits="userSpaceOnUse" x="57" y="29" width="12" height="14">
<path d="M63.1414 42.1022C66.0568 42.1022 68.4202 39.191 68.4202 35.5999C68.4202 32.0088 66.0568 29.0977 63.1414 29.0977C60.226 29.0977 57.8625 32.0088 57.8625 35.5999C57.8625 39.191 60.226 42.1022 63.1414 42.1022Z" fill="white"/>
</mask>
<g mask="url(#mask5_1538_35024)">
<path opacity="0.17" d="M58.3061 39.4136L69.1553 28.8789H69.4699L57.8342 41.143L58.3061 39.4136Z" fill="white"/>
</g>
<mask id="mask6_1538_35024" style="mask-type:luminance" maskUnits="userSpaceOnUse" x="57" y="29" width="12" height="14">
<path d="M63.1414 42.1022C66.0568 42.1022 68.4202 39.191 68.4202 35.5999C68.4202 32.0088 66.0568 29.0977 63.1414 29.0977C60.226 29.0977 57.8625 32.0088 57.8625 35.5999C57.8625 39.191 60.226 42.1022 63.1414 42.1022Z" fill="white"/>
</mask>
<g mask="url(#mask6_1538_35024)">
<path opacity="0.17" d="M59.1973 44.5489L73.6627 30.9219L74.711 32.1795L59.1973 48.5323V44.5489Z" fill="white"/>
</g>
<path d="M63.1409 42.3227C60.0849 42.3227 57.5979 39.3075 57.5979 35.6008C57.5979 31.8941 60.0841 28.8789 63.1409 28.8789C66.1976 28.8789 68.6831 31.8941 68.6831 35.6008C68.6831 39.3075 66.1969 42.3227 63.1409 42.3227ZM63.1409 29.3181C60.3757 29.3181 58.1262 32.1367 58.1262 35.6015C58.1262 39.0663 60.3757 41.8849 63.1409 41.8849C65.906 41.8849 68.1556 39.0663 68.1556 35.6015C68.1556 32.1367 65.9053 29.3181 63.1409 29.3181Z" fill="#EAB84F"/>
<mask id="mask7_1538_35024" style="mask-type:luminance" maskUnits="userSpaceOnUse" x="70" y="28" width="12" height="14">
<path d="M76.1912 41.3288C79.1066 41.3288 81.47 38.4176 81.47 34.8265C81.47 31.2354 79.1066 28.3242 76.1912 28.3242C73.2758 28.3242 70.9124 31.2354 70.9124 34.8265C70.9124 38.4176 73.2758 41.3288 76.1912 41.3288Z" fill="white"/>
</mask>
<g mask="url(#mask7_1538_35024)">
<path opacity="0.17" d="M69.7837 36.7513L80.6322 26.5312L81.4186 27.4742L69.7837 39.7391V36.7513Z" fill="white"/>
</g>
<mask id="mask8_1538_35024" style="mask-type:luminance" maskUnits="userSpaceOnUse" x="70" y="28" width="12" height="14">
<path d="M76.1912 41.3288C79.1066 41.3288 81.47 38.4176 81.47 34.8265C81.47 31.2354 79.1066 28.3242 76.1912 28.3242C73.2758 28.3242 70.9124 31.2354 70.9124 34.8265C70.9124 38.4176 73.2758 41.3288 76.1912 41.3288Z" fill="white"/>
</mask>
<g mask="url(#mask8_1538_35024)">
<path opacity="0.17" d="M71.3559 38.6323L82.2051 28.0977H82.5197L70.884 40.3618L71.3559 38.6323Z" fill="white"/>
</g>
<mask id="mask9_1538_35024" style="mask-type:luminance" maskUnits="userSpaceOnUse" x="70" y="28" width="12" height="14">
<path d="M76.1912 41.3288C79.1066 41.3288 81.47 38.4176 81.47 34.8265C81.47 31.2354 79.1066 28.3242 76.1912 28.3242C73.2758 28.3242 70.9124 31.2354 70.9124 34.8265C70.9124 38.4176 73.2758 41.3288 76.1912 41.3288Z" fill="white"/>
</mask>
<g mask="url(#mask9_1538_35024)">
<path opacity="0.17" d="M72.2471 43.7755L86.7125 30.1484L87.7608 31.406L72.2471 47.7589V43.7755Z" fill="white"/>
</g>
<path d="M76.1911 41.5414C73.1351 41.5414 70.6489 38.5262 70.6489 34.8195C70.6489 31.1129 73.1351 28.0977 76.1911 28.0977C79.2472 28.0977 81.7334 31.1129 81.7334 34.8195C81.7334 38.5255 79.2472 41.5414 76.1911 41.5414ZM76.1911 28.5361C73.426 28.5361 71.1764 31.3547 71.1764 34.8195C71.1764 38.2844 73.426 41.103 76.1911 41.103C78.9563 41.103 81.2059 38.2844 81.2059 34.8195C81.2059 31.3547 78.9563 28.5361 76.1911 28.5361Z" fill="#EAB84F"/>
<path d="M68.4189 35.0116C68.4189 35.0116 69.7834 33.5968 70.8844 35.0116" stroke="#EAB84F" stroke-width="0.6358" stroke-miterlimit="10"/>
<path d="M58.0314 35.6762C56.7738 34.9951 55.5155 34.3133 54.2579 33.6322C53.9908 33.4875 53.7527 33.8948 54.0198 34.0395C55.2773 34.7206 56.5356 35.4024 57.7932 36.0835C58.061 36.2282 58.2992 35.8209 58.0314 35.6762Z" fill="#EAB84F"/>
<path d="M81.6642 34.7895C82.277 34.3822 82.8906 33.9756 83.5042 33.5683C83.7557 33.4014 83.5198 32.9926 83.266 33.161C82.6525 33.5683 82.0396 33.9749 81.426 34.3822C81.1745 34.5492 81.4105 34.958 81.6642 34.7895Z" fill="#EAB84F"/>
<path d="M60.0023 75.9048C60.0023 75.9048 58.6297 76.8129 58.8716 77.2966C59.1135 77.7804 62.2578 85.2783 68.5464 87.4552C68.5464 87.4552 77.4955 79.7153 77.0118 76.3292C77.0118 76.3292 76.2862 74.1523 74.1094 74.1523C71.9318 74.1531 60.0023 75.9048 60.0023 75.9048Z" fill="#DF9A79"/>
<path d="M74.594 109.581C75.4087 99.4535 85.818 85.3776 86.6445 82.5271C87.3515 80.0906 80.022 75.2347 77.1641 73.4496C77.1396 73.4466 77.1151 73.4444 77.0906 73.4414C74.9724 80.9779 72.0596 95.0961 74.594 109.581Z" fill="#F8F8F8"/>
<path d="M50.0437 83.4656C51.1952 86.2293 61.9984 101.058 63.6522 111.239C64.771 97.2195 61.4375 83.6006 58.843 75.5039C57.5187 75.9031 55.9465 76.3972 54.2727 76.9677C51.7761 79.3182 49.442 82.021 50.0437 83.4656Z" fill="#F8F8F8"/>
<path d="M126.11 153.726C126.11 153.726 95.1515 78.0225 91.0397 76.0875C88.6611 74.968 82.397 74.0109 77.1641 73.4492C80.0228 75.2343 87.3516 80.0902 86.6445 82.5267C85.8173 85.3772 75.4087 99.4524 74.5941 109.58C74.5458 110.183 74.5295 110.773 74.5525 111.344C74.9183 120.234 79.1881 157.308 83.6575 173.617L93.4584 173.318L88.8629 140.182L90.3141 111.159L114.742 159.29L126.11 153.726Z" fill="#747474"/>
<path d="M63.83 112.728C63.7951 112.244 63.735 111.746 63.6526 111.236C61.9989 101.055 51.1956 86.2264 50.0441 83.4627C49.4424 82.0181 51.7765 79.3153 54.2731 76.9648C48.4661 78.9428 41.4363 81.8304 39.281 84.7929C35.4111 90.1141 15.5785 146.468 13.6436 157.11L29.6069 162.432L46.7789 112.365L49.9232 140.18L46.0533 174.766L59.1135 174.366C62.2148 157.407 64.4539 121.467 63.83 112.728Z" fill="#747474"/>
<path d="M13.6433 157.111L14.6917 152.773L33.234 156.628L30.5742 162.916L13.6433 157.111Z" fill="#F8F8F8"/>
<path d="M126.482 154.172L125.207 150.59L109.842 155.51L112.657 160.6L126.482 154.172Z" fill="#F8F8F8"/>
</svg>
