<svg width="141" height="175" viewBox="0 0 141 175" fill="none" xmlns="http://www.w3.org/2000/svg">
<path d="M16.7071 147.531L16.5127 148.309L13.079 161.317C13.079 161.317 10.6603 166.638 7.51604 167.606C4.37174 168.573 -1.28102 169.282 0.501835 170.508C4.37174 173.169 10.1766 171.959 11.6278 170.508C13.079 169.057 15.014 165.671 15.7396 166.396C16.4652 167.122 15.4977 172.201 18.642 171.717C21.7863 171.234 19.6095 171.476 18.642 169.541C17.6746 167.606 21.5445 163.252 18.642 160.591L22.7538 156.722" fill="#DF9A79"/>
<path d="M122.644 147.531L123.611 147.773L127.965 161.318C127.965 161.318 130.384 166.639 133.528 167.606C136.672 168.574 142.325 169.283 140.542 170.509C136.672 173.169 130.867 171.96 129.416 170.509C127.965 169.058 126.03 165.671 125.304 166.397C124.579 167.123 125.546 172.202 122.402 171.718C119.258 171.234 121.434 171.476 122.402 169.541C123.369 167.606 119.499 163.253 122.402 160.592L118.29 156.722" fill="#DF9A79"/>
<path d="M74.7556 109.198C72.2219 94.7135 75.134 80.5946 77.2522 73.0595C73.472 72.6559 70.2439 72.46 69.4337 72.5617C67.4987 72.8035 62.9032 74.0129 62.9032 74.0129C62.9032 74.0129 61.3378 74.4187 59.0044 75.1213C61.5989 83.218 64.9332 96.8369 63.8136 110.856C63.8967 111.366 63.9568 111.864 63.9909 112.348C64.6149 121.087 62.3757 157.027 59.2745 173.987L83.819 173.235C79.3496 156.926 75.0798 119.852 74.714 110.962C74.6903 110.39 74.7066 109.801 74.7556 109.198Z" fill="#CF5F5F"/>
<mask id="mask0_1537_34663" style="mask-type:luminance" maskUnits="userSpaceOnUse" x="59" y="72" width="25" height="102">
<path d="M74.7556 109.206C72.2219 94.7213 75.134 80.6024 77.2522 73.0673C73.472 72.6637 70.2439 72.4678 69.4337 72.5695C67.4987 72.8113 62.9032 74.0207 62.9032 74.0207C62.9032 74.0207 61.3378 74.4265 59.0044 75.1291C61.5989 83.2258 64.9332 96.8447 63.8136 110.864C63.8967 111.374 63.9568 111.872 63.9909 112.356C64.6149 121.095 62.3757 157.035 59.2745 173.994L83.819 173.243C79.3496 156.934 75.0798 119.859 74.714 110.97C74.6903 110.398 74.7066 109.808 74.7556 109.206Z" fill="white"/>
</mask>
<g mask="url(#mask0_1537_34663)">
<path opacity="0.26" d="M59.7247 78.332C59.7247 78.332 69.6748 104.732 64.1118 180.194L54.437 179.226C54.437 179.226 55.0958 78.7787 59.7247 78.332Z" fill="#B74D4D"/>
</g>
<mask id="mask1_1537_34663" style="mask-type:luminance" maskUnits="userSpaceOnUse" x="59" y="72" width="25" height="102">
<path d="M74.7556 109.206C72.2219 94.7213 75.134 80.6024 77.2522 73.0673C73.472 72.6637 70.2439 72.4678 69.4337 72.5695C67.4987 72.8113 62.9032 74.0207 62.9032 74.0207C62.9032 74.0207 61.3378 74.4265 59.0044 75.1291C61.5989 83.2258 64.9332 96.8447 63.8136 110.864C63.8967 111.374 63.9568 111.872 63.9909 112.356C64.6149 121.095 62.3757 157.035 59.2745 173.994L83.819 173.243C79.3496 156.934 75.0798 119.859 74.714 110.97C74.6903 110.398 74.7066 109.808 74.7556 109.206Z" fill="white"/>
</mask>
<g mask="url(#mask1_1537_34663)">
<path opacity="0.26" d="M75.2237 81.8675C75.2237 81.8675 70.8842 96.5102 74.7541 125.534C78.624 154.557 79.1077 180.679 79.1077 180.679L92.6524 177.292L82.7357 123.114C82.7357 123.114 78.8376 81.7362 75.2237 81.8675Z" fill="#B74D4D"/>
</g>
<path d="M97.7767 34.7865C97.7767 34.7865 93.0595 28.0253 95.89 21.2641C98.4341 15.1862 86.2427 15.8428 83.7513 16.0372C84.399 15.644 85.0689 15.2871 85.7597 14.9763C88.5122 13.7358 91.5527 13.2364 94.5226 13.9094C94.6702 13.9427 94.7333 13.7157 94.5857 13.6816C91.7515 13.0398 88.8528 13.4353 86.1848 14.5378C85.2544 14.9221 84.3567 15.3836 83.5012 15.9118C83.4604 15.9371 83.4203 15.9638 83.3795 15.9897C83.5012 15.8362 83.6132 15.6878 83.7171 15.5431C84.6171 14.9844 85.3879 14.2128 85.7144 13.2446C86.1418 11.9766 85.6684 10.5321 84.8471 9.52678C84.0176 8.51108 82.809 8.0674 81.5863 7.72092C80.9653 7.54508 80.2634 7.40486 79.73 7.02054C78.9895 6.48635 79.0133 5.60049 79.1802 4.78511C79.2106 4.63672 78.9836 4.57365 78.9532 4.72204C78.6861 6.02412 78.9665 7.03686 80.2531 7.55398C81.7874 8.17053 83.4812 8.27514 84.6238 9.62694C85.9607 11.2087 85.9652 13.3351 84.4019 14.7218C84.304 14.8086 84.2023 14.8917 84.0977 14.9725C87.6812 9.11946 75.5648 11.2058 74.8221 3.18105C74.0357 -5.3096 57.8408 6.1688 51.3942 3.65292C44.9475 1.13703 41.0168 10.886 43.3754 15.7597C45.734 20.6342 41.4887 22.5209 35.8277 22.5209C30.1676 22.5209 33.1546 30.2252 37.2426 33.6848C41.3306 37.1444 38.972 37.4582 34.2548 42.1754C29.5376 46.8926 42.7455 52.2382 42.2736 55.226C41.8018 58.2137 49.9786 56.6408 51.3934 61.5153C52.8083 66.3898 62.2427 62.4583 62.2427 62.4583C63.8148 59.4706 75.2932 61.8292 77.3372 66.3891C79.3813 70.949 83.7839 57.5838 90.3878 58.0557C96.9917 58.5276 89.7586 47.2065 96.9917 49.0932C104.223 50.9814 97.7767 34.7865 97.7767 34.7865Z" fill="#242D54"/>
<mask id="mask2_1537_34663" style="mask-type:luminance" maskUnits="userSpaceOnUse" x="32" y="0" width="69" height="68">
<path d="M97.7767 34.7904C97.7767 34.7904 93.0595 28.0292 95.89 21.268C98.4341 15.1901 86.2427 15.8467 83.7513 16.0411C84.399 15.6479 85.0689 15.291 85.7597 14.9802C88.5122 13.7397 91.5527 13.2403 94.5226 13.9133C94.6702 13.9467 94.7333 13.7196 94.5857 13.6855C91.7515 13.0437 88.8528 13.4392 86.1848 14.5417C85.2544 14.926 84.3567 15.3875 83.5012 15.9157C83.4604 15.941 83.4203 15.9677 83.3795 15.9936C83.5012 15.8401 83.6132 15.6917 83.7171 15.547C84.6171 14.9883 85.3879 14.2167 85.7144 13.2485C86.1418 11.9805 85.6684 10.536 84.8471 9.53069C84.0176 8.51498 82.809 8.07131 81.5863 7.72482C80.9653 7.54899 80.2634 7.40876 79.73 7.02444C78.9895 6.49025 79.0133 5.60439 79.1802 4.78901C79.2106 4.64063 78.9836 4.57756 78.9532 4.72594C78.6861 6.02803 78.9665 7.04077 80.2531 7.55789C81.7874 8.17444 83.4812 8.27905 84.6238 9.63084C85.9607 11.2126 85.9652 13.339 84.4019 14.7257C84.304 14.8125 84.2023 14.8956 84.0977 14.9765C87.6812 9.12336 75.5648 11.2097 74.8221 3.18496C74.0357 -5.3057 57.8408 6.17271 51.3942 3.65682C44.9475 1.14094 41.0168 10.8899 43.3754 15.7636C45.734 20.6381 41.4887 22.5249 35.8277 22.5249C30.1676 22.5249 33.1546 30.2291 37.2426 33.6887C41.3306 37.1483 38.972 37.4621 34.2548 42.1793C29.5376 46.8965 42.7455 52.2421 42.2736 55.2299C41.8018 58.2176 49.9786 56.6447 51.3934 61.5192C52.8083 66.3937 62.2427 62.4622 62.2427 62.4622C63.8148 59.4745 75.2932 61.8331 77.3372 66.393C79.3813 70.9529 83.7839 57.5877 90.3878 58.0596C96.9917 58.5315 89.7586 47.2104 96.9917 49.0971C104.223 50.9853 97.7767 34.7904 97.7767 34.7904Z" fill="white"/>
</mask>
<g mask="url(#mask2_1537_34663)">
<path d="M85.4741 45.2428C85.086 55.5563 75.849 63.2509 66.5059 63.2509C57.1627 63.2509 49.5884 54.8841 49.5884 44.5631C49.5884 34.2422 58.8714 18.9102 68.2145 18.9102C77.5584 18.9102 86.1574 27.0647 85.4741 45.2428Z" fill="#1D2645"/>
</g>
<path d="M59.7249 54.1204C59.7249 54.1204 64.1275 70.7871 59.7249 76.1334L70.7314 80.5361L75.7632 75.1905C75.7632 75.1905 71.3605 59.4667 75.7632 52.2344L59.7249 54.1204Z" fill="#DF9A79"/>
<mask id="mask3_1537_34663" style="mask-type:luminance" maskUnits="userSpaceOnUse" x="59" y="52" width="17" height="29">
<path d="M59.7246 54.1204C59.7246 54.1204 64.1272 70.7871 59.7246 76.1334L70.7312 80.5361L75.7629 75.1905C75.7629 75.1905 71.3603 59.4667 75.7629 52.2344L59.7246 54.1204Z" fill="white"/>
</mask>
<g mask="url(#mask3_1537_34663)">
<path opacity="0.27" d="M73.4047 61.828C85.5622 61.828 95.4178 54.1548 95.4178 44.6894C95.4178 35.224 85.5622 27.5508 73.4047 27.5508C61.2472 27.5508 51.3916 35.224 51.3916 44.6894C51.3916 54.1548 61.2472 61.828 73.4047 61.828Z" fill="#A34B3E"/>
</g>
<path d="M83.8266 36.3476C83.998 38.0058 88.0007 58.1321 67.588 58.075C58.6195 58.0498 51.3494 48.3475 51.3494 36.3476C51.3494 24.3476 58.6767 13.3047 67.6451 13.3047C76.6143 13.3047 82.2686 21.2856 83.8266 36.3476Z" fill="#DF9A79"/>
<path d="M50.6059 33.0568C50.6059 33.0568 52.6499 30.6982 55.1658 35.73C55.1658 35.73 53.9082 28.9688 55.1658 26.9248C56.4233 24.8807 61.7697 23.3086 62.0843 20.0063C62.3989 16.7039 58.3108 15.2891 58.3108 15.2891C58.3108 15.2891 47.9327 25.8237 50.6059 33.0568Z" fill="#242D54"/>
<path d="M61.4024 11.5113C61.4024 11.5113 55.1546 14.9739 61.9923 18.1768C68.8299 21.3797 78.6501 20.0531 75.324 22.9133C71.9979 25.7742 71.3473 28.9533 76.0734 28.2403C80.7994 27.5281 81.7328 29.946 78.3325 31.6035C78.3325 31.6035 86.0902 29.1351 81.8671 27.2209C77.644 25.3067 75.7536 24.9996 78.8222 23.8459C81.8908 22.6914 85.9536 20.0272 81.0799 15.3753C76.2062 10.7241 61.4024 11.5113 61.4024 11.5113Z" fill="#242D54"/>
<path d="M55.0745 36.2415C55.671 38.9109 54.5054 41.4439 52.4718 41.8979C50.4381 42.352 48.3051 40.5565 47.7086 37.8871C47.1121 35.2176 48.2776 32.6846 50.3113 32.2306C52.3456 31.7758 54.478 33.5713 55.0745 36.2415Z" fill="#DF9A79"/>
<path d="M64.9139 35.6836C64.9139 37.051 64.0517 38.1602 62.9878 38.1602C61.9239 38.1602 61.0618 37.0517 61.0618 35.6836C61.0618 34.3155 61.9239 33.207 62.9878 33.207C64.0517 33.207 64.9139 34.3162 64.9139 35.6836Z" fill="white"/>
<path d="M62.9881 36.7484C63.4442 36.7484 63.8139 36.2731 63.8139 35.6867C63.8139 35.1003 63.4442 34.625 62.9881 34.625C62.5321 34.625 62.1624 35.1003 62.1624 35.6867C62.1624 36.2731 62.5321 36.7484 62.9881 36.7484Z" fill="#212536"/>
<path d="M64.5303 33.976C64.37 33.7178 64.1504 33.4908 63.8878 33.3201C63.6237 33.1524 63.3076 33.0537 62.9878 33.0508C62.668 33.0545 62.3527 33.1524 62.0886 33.3208C61.8252 33.4907 61.6063 33.7178 61.4461 33.976C61.3704 34.0954 61.3066 34.2216 61.2532 34.3499L60.7472 34.2297L61.2065 34.4738C61.1812 34.5443 61.159 34.6155 61.1397 34.6875L60.4326 34.7008L61.1048 34.8262C61.0454 35.1104 61.0313 35.4012 61.0618 35.6832C61.1308 35.1067 61.3163 34.5554 61.6472 34.1132C61.9729 33.6755 62.4633 33.3594 62.9878 33.3631C63.5124 33.3594 64.002 33.6755 64.3278 34.1132C64.6587 34.5547 64.8441 35.1067 64.9139 35.6824C64.9755 35.1074 64.856 34.4916 64.5303 33.976Z" fill="#212536"/>
<path d="M75.4878 37.6953C76.5516 37.6953 77.4139 36.5865 77.4139 35.2187C77.4139 33.851 76.5516 32.7422 75.4878 32.7422C74.4241 32.7422 73.5618 33.851 73.5618 35.2187C73.5618 36.5865 74.4241 37.6953 75.4878 37.6953Z" fill="white"/>
<path d="M75.4879 36.2758C75.9439 36.2758 76.3136 35.8004 76.3136 35.214C76.3136 34.6277 75.9439 34.1523 75.4879 34.1523C75.0318 34.1523 74.6621 34.6277 74.6621 35.214C74.6621 35.8004 75.0318 36.2758 75.4879 36.2758Z" fill="#212536"/>
<path d="M73.9453 33.5104C74.1056 33.2522 74.3252 33.0252 74.5878 32.8553C74.852 32.6876 75.168 32.5889 75.4878 32.5859C75.8076 32.5896 76.1229 32.6876 76.387 32.856C76.6504 33.0266 76.8693 33.2529 77.0295 33.5111C77.1052 33.6306 77.169 33.7567 77.2224 33.8851L77.7284 33.7649L77.2692 34.009C77.2944 34.0794 77.3167 34.1507 77.336 34.2234L78.043 34.2367L77.3708 34.3621C77.4302 34.6463 77.4443 34.9371 77.4138 35.219C77.3448 34.6426 77.1594 34.0913 76.8285 33.6491C76.5027 33.2114 76.0123 32.8953 75.4878 32.8998C74.9633 32.8961 74.4736 33.2121 74.1479 33.6499C73.817 34.0913 73.6315 34.6433 73.5617 35.219C73.4994 34.6411 73.6196 34.0253 73.9453 33.5104Z" fill="#212536"/>
<path d="M69.0887 35.3207C69.9486 37.41 70.7818 39.523 71.4688 41.6761C71.6365 42.2014 71.8108 42.7356 71.908 43.2794C72.0008 43.7965 71.9036 43.8685 71.3946 44.0525C70.2424 44.468 68.9551 44.6245 67.7436 44.7714C67.4461 44.8078 67.4423 45.2796 67.7436 45.2433C69.036 45.0867 70.4212 44.9309 71.6424 44.4635C72.6833 44.0651 72.4444 43.3618 72.1892 42.4351C71.5111 39.9659 70.5169 37.5613 69.5435 35.1961C69.43 34.9186 68.973 35.0395 69.0887 35.3207Z" fill="#A64D3F"/>
<path d="M61.88 49.0564C62.6026 50.0707 63.6703 50.9098 64.7706 51.4707C67.2086 52.7127 69.8817 52.4018 72.2655 51.1858C72.5363 51.0478 72.2974 50.6405 72.0274 50.7785C69.6999 51.9663 67.0809 52.2267 64.7461 50.9239C63.8246 50.4097 62.9061 49.6878 62.2873 48.819C62.1122 48.5727 61.7034 48.8086 61.88 49.0564Z" fill="#A7225B"/>
<path d="M63.8205 28.4909C61.4805 27.9664 59.4209 29.4101 58.578 31.5425C58.3755 32.0551 59.2035 32.2784 59.4045 31.7702C60.0738 30.0757 61.7668 28.9079 63.5927 29.3174C64.1299 29.4376 64.3592 28.6118 63.8205 28.4909Z" fill="#242D54"/>
<path d="M73.869 27.5534C76.209 27.0289 78.2686 28.4726 79.1115 30.605C79.314 31.1176 78.486 31.341 78.285 30.8327C77.6157 29.1382 75.9227 27.9704 74.0968 28.3799C73.5596 28.5001 73.3303 27.6743 73.869 27.5534Z" fill="#242D54"/>
<mask id="mask4_1537_34663" style="mask-type:luminance" maskUnits="userSpaceOnUse" x="58" y="28" width="11" height="14">
<path d="M63.3028 41.6999C66.2182 41.6999 68.5816 38.7887 68.5816 35.1976C68.5816 31.6065 66.2182 28.6953 63.3028 28.6953C60.3873 28.6953 58.0239 31.6065 58.0239 35.1976C58.0239 38.7887 60.3873 41.6999 63.3028 41.6999Z" fill="white"/>
</mask>
<g mask="url(#mask4_1537_34663)">
<path opacity="0.17" d="M56.8955 37.131L67.7448 26.9102L68.5305 27.8539L56.8955 40.118V37.131Z" fill="white"/>
</g>
<mask id="mask5_1537_34663" style="mask-type:luminance" maskUnits="userSpaceOnUse" x="58" y="28" width="11" height="14">
<path d="M63.3028 41.6999C66.2182 41.6999 68.5816 38.7887 68.5816 35.1976C68.5816 31.6065 66.2182 28.6953 63.3028 28.6953C60.3873 28.6953 58.0239 31.6065 58.0239 35.1976C58.0239 38.7887 60.3873 41.6999 63.3028 41.6999Z" fill="white"/>
</mask>
<g mask="url(#mask5_1537_34663)">
<path opacity="0.17" d="M58.4675 39.0151L69.3167 28.4805H69.6313L57.9956 40.7446L58.4675 39.0151Z" fill="white"/>
</g>
<mask id="mask6_1537_34663" style="mask-type:luminance" maskUnits="userSpaceOnUse" x="58" y="28" width="11" height="14">
<path d="M63.3028 41.6999C66.2182 41.6999 68.5816 38.7887 68.5816 35.1976C68.5816 31.6065 66.2182 28.6953 63.3028 28.6953C60.3873 28.6953 58.0239 31.6065 58.0239 35.1976C58.0239 38.7887 60.3873 41.6999 63.3028 41.6999Z" fill="white"/>
</mask>
<g mask="url(#mask6_1537_34663)">
<path opacity="0.17" d="M59.3584 44.1505L73.8238 30.5234L74.8722 31.781L59.3584 48.1339V44.1505Z" fill="white"/>
</g>
<path d="M63.3027 41.9321C60.2467 41.9321 57.7598 38.9169 57.7598 35.2102C57.7598 31.5035 60.246 28.4883 63.3027 28.4883C66.3595 28.4883 68.845 31.5035 68.845 35.2102C68.845 38.9169 66.3587 41.9321 63.3027 41.9321ZM63.3027 28.9275C60.5376 28.9275 58.288 31.7461 58.288 35.2109C58.288 38.6757 60.5376 41.4943 63.3027 41.4943C66.0679 41.4943 68.3174 38.6757 68.3174 35.2109C68.3174 31.7461 66.0672 28.9275 63.3027 28.9275Z" fill="#EAB84F"/>
<mask id="mask7_1537_34663" style="mask-type:luminance" maskUnits="userSpaceOnUse" x="71" y="27" width="11" height="14">
<path d="M76.3528 40.9264C79.2682 40.9264 81.6316 38.0153 81.6316 34.4241C81.6316 30.833 79.2682 27.9219 76.3528 27.9219C73.4374 27.9219 71.074 30.833 71.074 34.4241C71.074 38.0153 73.4374 40.9264 76.3528 40.9264Z" fill="white"/>
</mask>
<g mask="url(#mask7_1537_34663)">
<path opacity="0.17" d="M69.9453 36.3529L80.7938 26.1328L81.5803 27.0758L69.9453 39.3407V36.3529Z" fill="white"/>
</g>
<mask id="mask8_1537_34663" style="mask-type:luminance" maskUnits="userSpaceOnUse" x="71" y="27" width="11" height="14">
<path d="M76.3528 40.9264C79.2682 40.9264 81.6316 38.0153 81.6316 34.4241C81.6316 30.833 79.2682 27.9219 76.3528 27.9219C73.4374 27.9219 71.074 30.833 71.074 34.4241C71.074 38.0153 73.4374 40.9264 76.3528 40.9264Z" fill="white"/>
</mask>
<g mask="url(#mask8_1537_34663)">
<path opacity="0.17" d="M71.5178 38.2339L82.367 27.6992H82.6816L71.0459 39.9633L71.5178 38.2339Z" fill="white"/>
</g>
<mask id="mask9_1537_34663" style="mask-type:luminance" maskUnits="userSpaceOnUse" x="71" y="27" width="11" height="14">
<path d="M76.3528 40.9264C79.2682 40.9264 81.6316 38.0153 81.6316 34.4241C81.6316 30.833 79.2682 27.9219 76.3528 27.9219C73.4374 27.9219 71.074 30.833 71.074 34.4241C71.074 38.0153 73.4374 40.9264 76.3528 40.9264Z" fill="white"/>
</mask>
<g mask="url(#mask9_1537_34663)">
<path opacity="0.17" d="M72.4089 43.377L86.8743 29.75L87.9227 31.0076L72.4089 47.3605V43.377Z" fill="white"/>
</g>
<path d="M76.3528 41.1469C73.2968 41.1469 70.8105 38.1317 70.8105 34.425C70.8105 30.7183 73.2968 27.7031 76.3528 27.7031C79.4088 27.7031 81.895 30.7183 81.895 34.425C81.895 38.131 79.4088 41.1469 76.3528 41.1469ZM76.3528 28.1416C73.5876 28.1416 71.3381 30.9602 71.3381 34.425C71.3381 37.8898 73.5876 40.7084 76.3528 40.7084C79.1179 40.7084 81.3675 37.8898 81.3675 34.425C81.3675 30.9602 79.1179 28.1416 76.3528 28.1416Z" fill="#EAB84F"/>
<path d="M68.5803 34.621C68.5803 34.621 69.9447 33.2062 71.0458 34.621" stroke="#EAB84F" stroke-width="0.6358" stroke-miterlimit="10"/>
<path d="M58.1927 35.2856C56.9352 34.6045 55.6769 33.9226 54.4193 33.2415C54.1522 33.0969 53.914 33.5042 54.1811 33.6489C55.4387 34.33 56.697 35.0118 57.9546 35.6929C58.2224 35.8376 58.4606 35.4302 58.1927 35.2856Z" fill="#EAB84F"/>
<path d="M81.8253 34.3989C82.4382 33.9916 83.0517 33.585 83.6653 33.1777C83.9168 33.0108 83.6809 32.602 83.4272 32.7704C82.8136 33.1777 82.2007 33.5843 81.5872 33.9916C81.3357 34.1585 81.5716 34.5673 81.8253 34.3989Z" fill="#EAB84F"/>
<path d="M60.1639 75.522C60.1639 75.522 58.7914 76.4301 59.0332 76.9138C59.2751 77.3976 62.4194 84.8955 68.708 87.0723C68.708 87.0723 77.6571 79.3325 77.1734 75.9463C77.1734 75.9463 76.4478 73.7695 74.271 73.7695C72.0934 73.7703 60.1639 75.522 60.1639 75.522Z" fill="#DF9A79"/>
<path d="M74.7556 109.198C75.5703 99.0707 85.9796 84.9948 86.8061 82.1443C87.5131 79.7078 80.1836 74.8518 77.3257 73.0668C77.3012 73.0638 77.2767 73.0616 77.2523 73.0586C75.134 80.5951 72.2212 94.7133 74.7556 109.198Z" fill="#F8F8F8"/>
<path d="M50.2053 83.0788C51.3568 85.8425 62.1601 100.671 63.8138 110.852C64.9327 96.8327 61.5992 83.2139 59.0046 75.1172C57.6803 75.5163 56.1081 76.0105 54.4343 76.581C51.9377 78.9315 49.6036 81.6343 50.2053 83.0788Z" fill="#F8F8F8"/>
<path d="M126.272 153.339C126.272 153.339 95.3131 77.6358 91.2013 75.7008C88.8227 74.5812 82.5586 73.6241 77.3258 73.0625C80.1844 74.8476 87.5132 79.7035 86.8061 82.14C85.9789 84.9905 75.5703 99.0657 74.7557 109.194C74.7075 109.796 74.6911 110.386 74.7141 110.957C75.0799 119.847 79.3497 156.921 83.8191 173.231L93.62 172.931L89.0245 139.795L90.4757 110.772L114.904 158.903L126.272 153.339Z" fill="#FFA600"/>
<path d="M63.9916 112.341C63.9567 111.857 63.8966 111.359 63.8143 110.849C62.1605 100.668 51.3572 85.8396 50.2058 83.0759C49.6041 81.6314 51.9382 78.9286 54.4348 76.5781C48.6277 78.5561 41.5979 81.4437 39.4426 84.4062C35.5727 89.7274 15.7401 146.081 13.8052 156.724L29.7686 162.045L46.9405 111.979L50.0848 139.793L46.2149 174.379L59.2751 173.979C62.3764 157.02 64.6155 121.08 63.9916 112.341Z" fill="#FFA600"/>
<path d="M13.8049 156.725L14.8533 152.387L33.3956 156.241L30.7358 162.53L13.8049 156.725Z" fill="#F8F8F8"/>
<path d="M126.644 153.789L125.369 150.207L110.004 155.127L112.819 160.217L126.644 153.789Z" fill="#F8F8F8"/>
</svg>
