<svg width="150" height="147" viewBox="0 0 150 147" fill="none" xmlns="http://www.w3.org/2000/svg">
<g clip-path="url(#clip0_2366_14513)">
<path d="M120.669 66.7843C119.805 63.2188 117.738 59.9528 114.805 57.5194C111.872 55.086 108.248 53.6288 104.522 53.3856C83.2696 50.1358 62.008 53.5014 43.8453 62.9903C40.509 64.3514 37.8332 66.8059 36.2544 69.9534C34.6756 73.1009 34.287 76.7556 35.1522 80.321C35.7275 82.6927 36.8391 84.9478 38.4044 86.9184C39.9696 88.8889 41.9481 90.5241 44.1926 91.7023C46.437 92.8804 48.8895 93.5711 51.3676 93.7229C53.8456 93.8747 56.2852 93.4838 58.5048 92.5791C72.4619 85.6068 88.5885 83.054 104.771 85.2555C107.249 85.4166 109.691 85.0348 111.915 84.1387C114.138 83.2427 116.087 81.8553 117.615 80.08C119.143 78.3048 120.211 76.1873 120.74 73.8852C121.269 71.5832 121.245 69.156 120.669 66.7843Z" fill="#BDDBFF"/>
<path d="M35.0097 100.313C34.3729 99.6564 34.0128 98.8008 34.0086 97.9339C34.0044 97.0669 34.3564 96.2597 34.9871 95.6895L38.9981 92.0628C36.4595 89.9729 34.4429 87.3482 33.1251 84.4187L26.1661 85.5202C25.7312 85.5968 25.2784 85.5873 24.8341 85.4923C24.3898 85.3972 23.9629 85.2185 23.5784 84.9666C23.1938 84.7147 22.8592 84.3946 22.5942 84.025C22.3292 83.6555 22.139 83.2438 22.0347 82.8141C21.9305 82.3843 21.9143 81.9451 21.987 81.5221C22.0598 81.099 22.2201 80.7006 22.4585 80.3501C22.697 79.9996 23.0088 79.7039 23.3758 79.4805C23.7429 79.257 24.1577 79.1101 24.5962 79.0485L31.4203 77.9683C31.1923 75.3966 31.4964 72.8452 32.3149 70.4648L25.411 67.1139C24.6008 66.7056 23.9653 66.0161 23.6415 65.1942C23.3177 64.3722 23.3314 63.4837 23.6798 62.7202C24.0283 61.9567 24.6834 61.3793 25.504 61.1126C26.3246 60.846 27.2449 60.9113 28.0665 61.2946L35.4854 64.8966C37.1079 62.9744 39.1549 61.4345 41.4943 60.3762L37.3622 55.857C36.7504 55.1824 36.4217 54.3198 36.4481 53.4578C36.4745 52.5957 36.8538 51.8045 37.503 51.2572C38.1522 50.7099 39.0185 50.4511 39.9123 50.5373C40.8062 50.6235 41.6549 51.0477 42.2727 51.7172L47.5426 57.4821C49.4372 56.6452 51.3632 55.8688 53.3177 55.154L50.6207 48.6255C50.4443 48.2143 50.3516 47.7794 50.348 47.3458C50.3443 46.9123 50.4299 46.4888 50.5996 46.1C50.7693 45.7113 51.0198 45.365 51.3365 45.0813C51.6533 44.7976 52.0299 44.5822 52.4445 44.4476C52.8591 44.313 53.3035 44.2618 53.7518 44.2971C54.2 44.3324 54.6432 44.4535 55.0555 44.6533C55.4679 44.853 55.8412 45.1275 56.1537 45.4608C56.4663 45.794 56.7118 46.1794 56.876 46.5945L59.5526 53.0787C62.6476 52.1643 65.7899 51.4015 68.9794 50.7905L66.8687 42.1088C66.7657 41.6837 66.7489 41.2493 66.8191 40.8304C66.8893 40.4116 67.0453 40.0164 67.278 39.6676C67.5107 39.3187 67.8157 39.023 68.1754 38.7973C68.5352 38.5715 68.9428 38.4202 69.3749 38.352C69.8069 38.2838 70.2551 38.2999 70.6937 38.3996C71.1322 38.4992 71.5527 38.6804 71.931 38.9327C72.3094 39.1851 72.6381 39.5037 72.8986 39.8703C73.1591 40.2369 73.3462 40.6445 73.4491 41.0696L75.5559 49.7447C78.7652 49.3413 81.9964 49.088 85.2496 48.985L85.033 42.0186C85.0058 41.1497 85.3359 40.3317 85.9508 39.7446C86.5657 39.1575 87.415 38.8494 88.3118 38.888C89.2086 38.9266 90.0795 39.3088 90.733 39.9505C91.3864 40.5922 91.7688 41.4408 91.7961 42.3097L92.0041 49.0018C94.1785 49.0706 96.3554 49.2087 98.5312 49.4157L100.718 42.4705C100.992 41.6809 101.582 41.0494 102.362 40.7104C103.142 40.3715 104.052 40.3519 104.896 40.6558C105.741 40.9597 106.454 41.5631 106.884 42.3375C107.314 43.112 107.427 43.9964 107.198 44.8025L105.481 50.2571C108.104 50.5481 110.68 51.3391 113.059 52.584L115.337 49.9279C115.868 49.3062 116.64 48.9236 117.495 48.859C118.35 48.7944 119.223 49.0526 119.934 49.5804C120.645 50.1083 121.14 50.8657 121.317 51.6969C121.494 52.5282 121.34 53.37 120.887 54.0492C120.819 54.1503 120.746 54.2475 120.668 54.3405L118.615 56.7328C120.619 58.8034 122.171 61.2354 123.166 63.8638L128.554 63.7714C128.996 63.7638 129.442 63.8411 129.866 63.9988C130.29 64.1565 130.684 64.3916 131.026 64.6905C131.368 64.9895 131.65 65.3466 131.857 65.7413C132.064 66.136 132.192 66.5607 132.233 66.9911C132.274 67.4215 132.227 67.8492 132.096 68.2498C131.965 68.6503 131.751 69.0159 131.467 69.3256C131.184 69.6353 130.835 69.8831 130.443 70.0548C130.05 70.2265 129.62 70.3188 129.178 70.3264L124.494 70.4047C124.576 74.0624 123.569 77.5868 121.593 80.557L123.644 82.9104C123.941 83.2517 124.169 83.6414 124.316 84.0571C124.463 84.4729 124.526 84.9066 124.501 85.3334C124.477 85.7603 124.365 86.1721 124.173 86.5451C123.981 86.9181 123.711 87.2452 123.38 87.5076C123.049 87.77 122.663 87.9626 122.244 88.0744C121.825 88.1862 121.381 88.215 120.938 88.1592C120.494 88.1034 120.06 87.9641 119.66 87.7492C119.26 87.5343 118.901 87.248 118.605 86.9067L117.1 85.1748C115.396 86.3769 113.474 87.2772 111.414 87.8382L114.031 92.0958C114.505 92.8665 114.657 93.7658 114.453 94.5957C114.249 95.4257 113.707 96.1183 112.945 96.5213C112.183 96.9242 111.264 97.0045 110.391 96.7444C109.517 96.4843 108.76 95.9052 108.286 95.1344L104.294 88.6372C104.261 88.5806 104.259 88.5216 104.232 88.4689C102.25 88.2044 100.273 88.0159 98.3007 87.9035L100.539 93.3284C100.723 93.7411 100.822 94.1791 100.831 94.6167C100.839 95.0543 100.757 95.4826 100.589 95.8761C100.42 96.2697 100.17 96.6205 99.8516 96.908C99.5334 97.1954 99.1539 97.4135 98.7358 97.5495C98.3176 97.6854 97.8692 97.7365 97.417 97.6995C96.9649 97.6626 96.5182 97.5385 96.1034 97.3344C95.6887 97.1304 95.3142 96.8507 95.0021 96.5118C94.6901 96.1729 94.4469 95.7817 94.2868 95.3613L91.1812 87.8352C89.0742 87.9042 86.9823 88.0587 84.9055 88.2987L86.7968 96.0859C87.0054 96.9444 86.8588 97.8227 86.3894 98.5276C85.9199 99.2325 85.166 99.7063 84.2936 99.8447C83.4211 99.9831 82.5015 99.7748 81.7371 99.2657C80.9727 98.7565 80.4261 97.9882 80.2175 97.1298L78.3273 89.3471C75.6003 89.8897 72.9176 90.5801 70.2913 91.4152L72.3852 100.047C72.497 100.476 72.5211 100.915 72.4561 101.34C72.391 101.765 72.2381 102.166 72.0063 102.521C71.7745 102.876 71.4685 103.177 71.106 103.407C70.7435 103.637 70.3319 103.791 69.8951 103.86C69.4584 103.93 69.0052 103.912 68.5621 103.81C68.119 103.708 67.6949 103.522 67.3144 103.264C66.9339 103.006 66.6047 102.681 66.346 102.307C66.0873 101.934 65.9043 101.519 65.8077 101.088L64.0351 93.7909C62.673 94.3581 61.3309 94.9644 60.0105 95.609C59.4209 95.8455 58.8175 96.0528 58.2025 96.2303L57.9925 103.031C57.9656 103.896 57.5836 104.689 56.9305 105.237C56.2774 105.784 55.4068 106.04 54.51 105.949C53.6133 105.858 52.764 105.428 52.149 104.752C51.5339 104.076 51.2035 103.21 51.2304 102.346L51.3957 97.0035C49.3233 96.8687 47.2613 96.4188 45.2856 95.6704L39.7954 100.636C39.4828 100.919 39.1111 101.135 38.7013 101.272C38.2916 101.409 37.8519 101.464 37.4074 101.434C36.9629 101.404 36.5224 101.289 36.111 101.097C35.6995 100.904 35.3253 100.638 35.0097 100.313ZM56.7843 89.6371C71.2381 82.369 87.9614 79.6994 104.745 81.9811C106.714 82.1094 108.655 81.8064 110.423 81.0945C112.19 80.3826 113.739 79.2802 114.954 77.8695C116.168 76.4587 117.018 74.776 117.438 72.9465C117.859 71.117 117.84 69.1879 117.383 67.3029C116.675 64.4191 114.983 61.7845 112.59 59.8398C110.196 57.8951 107.246 56.7582 104.232 56.619C83.5962 53.4519 62.9513 56.7499 45.3521 66.0248C42.2883 67.3039 39.9569 69.7391 38.86 72.806C37.763 75.8728 37.9883 79.326 39.4872 82.4219C40.9861 85.5178 43.6388 88.0087 46.874 89.3582C50.1092 90.7077 53.6681 90.8078 56.7843 89.6371ZM54.3676 83.6368C55.0214 83.0907 55.4055 82.2989 55.4357 81.4346C55.4659 80.5703 55.1399 79.7039 54.5289 79.025C54.2605 78.6396 54.0744 78.2099 53.9827 77.7635C53.8911 77.3171 53.8959 76.864 53.9969 76.4334C54.157 75.6386 54.512 74.9059 55.0327 74.2949C55.5535 73.6839 56.2254 73.2119 56.9938 72.9174C57.7677 72.5542 58.3403 71.8992 58.5879 71.0936C58.8355 70.288 58.7384 69.3964 58.3175 68.6109C57.8967 67.8255 57.1857 67.2092 56.338 66.8949C55.4902 66.5806 54.5736 66.5934 53.7858 66.9307C52.1092 67.6379 50.6534 68.7245 49.5322 70.1057C48.4109 71.4869 47.6545 73.1252 47.322 74.8927C47.0428 76.2964 47.1015 77.7672 47.4937 79.1944C47.8859 80.6215 48.6014 81.9678 49.5862 83.1318C49.8895 83.4679 50.2539 83.7475 50.6586 83.9547C51.0632 84.1618 51.5001 84.2925 51.9444 84.3391C52.3886 84.3858 52.8314 84.3475 53.2475 84.2266C53.6636 84.1056 54.0431 83.9069 54.3676 83.6368ZM78.8348 76.7435C80.3037 76.5553 81.6839 76.041 82.8705 75.2396C84.0571 74.4383 85.019 73.371 85.683 72.1188C85.8662 71.7407 85.9678 71.3258 85.9821 70.8976C85.9963 70.4694 85.923 70.0363 85.7663 69.6231C85.6095 69.2099 85.3724 68.8246 85.0685 68.4894C84.7646 68.1541 84.3998 67.8753 83.995 67.669C83.5902 67.4626 83.1533 67.3328 82.7093 67.2868C82.2652 67.2409 81.8227 67.2797 81.407 67.4011C80.9912 67.5226 80.6105 67.7242 80.2864 67.9945C79.9623 68.2648 79.7012 68.5984 79.5181 68.9765C79.2709 69.338 78.9445 69.6397 78.5597 69.8622C78.1749 70.0848 77.7403 70.2233 77.2836 70.2688C76.4513 70.3753 75.59 70.2874 74.7699 70.0121C73.9498 69.7368 73.194 69.282 72.5641 68.6847C71.8678 68.0878 70.9754 67.7665 70.0833 67.7914C69.1912 67.8163 68.3724 68.1854 67.807 68.8175C67.2417 69.4496 66.9761 70.293 67.0687 71.1621C67.1613 72.0311 67.6045 72.8547 68.3008 73.4516C69.7366 74.7337 71.4347 75.6981 73.2625 76.2695C75.0903 76.8409 76.9984 77.0037 78.8377 76.7454L78.8348 76.7435ZM104.085 75.4865C104.979 75.4853 105.809 75.139 106.393 74.5239C106.977 73.9087 107.267 73.0751 107.199 72.2061C107.096 70.3812 106.56 68.5725 105.632 66.9213C104.704 65.2701 103.411 63.821 101.852 62.687C100.619 61.7729 99.208 61.1273 97.726 60.7988C96.2439 60.4703 94.7293 60.4674 93.2962 60.7905C92.4487 61.0132 91.7526 61.5607 91.3611 62.3126C90.9696 63.0644 90.9148 63.959 91.2087 64.7995C91.5026 65.6401 92.1211 66.3577 92.9282 66.7946C93.7353 67.2315 94.6649 67.3518 95.5124 67.1291C95.9678 67.0732 96.4374 67.1117 96.8909 67.2422C97.3444 67.3726 97.7717 67.592 98.1451 67.8862C98.8423 68.4055 99.415 69.0684 99.8166 69.8208C100.218 70.5732 100.437 71.394 100.456 72.216C100.525 73.0849 100.946 73.9174 101.626 74.5306C102.307 75.1439 103.191 75.4877 104.085 75.4865Z" fill="#3D9AE2"/>
</g>
<defs>
<clipPath id="clip0_2366_14513">
<rect width="102.166" height="110.793" fill="white" transform="matrix(-0.554628 0.832098 0.832098 0.554628 57.0508 0)"/>
</clipPath>
</defs>
</svg>
