<svg width="209" height="178" viewBox="0 0 209 178" fill="none" xmlns="http://www.w3.org/2000/svg">
<path d="M80.2476 21.0188C80.2166 23.8352 80.933 26.6255 82.3446 29.1864C84.3387 32.592 85.3824 36.3322 85.3955 40.1201C85.3808 40.6663 85.3746 41.2581 85.3678 41.9029C85.3442 44.2206 84.7781 46.5089 83.7019 48.6373C82.6258 50.7656 81.0606 52.6923 79.0958 54.3072C77.131 55.9221 74.8051 57.1936 72.251 58.049C69.6969 58.9045 66.9646 59.3271 64.2102 59.2928C63.9848 59.29 61.059 60.1078 42.6377 53.4091C38.6338 51.957 34.302 51.2685 29.9546 51.3934C25.6072 51.5183 21.3524 52.4533 17.4969 54.1312C13.6414 55.809 10.2812 58.1879 7.65854 61.0964C5.03586 64.0048 3.21599 67.3704 2.33009 70.9505C1.4442 74.5307 1.51435 78.2362 2.53548 81.8C3.55661 85.3639 5.5033 88.6973 8.23523 91.5601C10.9672 94.4228 14.4163 96.7436 18.3341 98.3551C22.2518 99.9666 26.5406 100.829 30.8914 100.879C62.9055 101.272 48.1114 141.811 22.2603 146.669C19.0413 147.471 16.1517 149.004 13.9084 151.1C11.6651 153.197 10.1546 155.776 9.54241 158.555C9.25475 160.55 9.47785 162.576 10.1967 164.497C10.9156 166.419 12.1136 168.191 13.7104 169.695C15.3072 171.199 17.2658 172.4 19.4548 173.217C21.6438 174.035 24.0126 174.45 26.4022 174.435C28.9301 174.342 31.3966 173.767 33.6154 172.753C35.8343 171.74 37.7474 170.313 39.2103 168.582C45.8971 160.965 53.5521 153.986 62.0404 147.768C62.9785 147.127 64.1011 146.705 65.2967 146.543C66.4922 146.381 67.719 146.486 68.8551 146.847C69.9912 147.208 70.997 147.812 71.7725 148.599C72.548 149.387 73.0662 150.33 73.2755 151.336L73.3364 151.549C73.8597 153.413 74.8227 155.171 76.1681 156.719C77.5135 158.268 79.2138 159.574 81.1677 160.561C83.1216 161.547 85.2892 162.194 87.5414 162.463C89.7937 162.732 92.0846 162.617 94.2776 162.125C96.4707 161.633 98.5211 160.774 100.307 159.599C102.093 158.424 103.577 156.958 104.672 155.287C105.767 153.617 106.45 151.776 106.68 149.874C106.911 147.972 106.684 146.049 106.013 144.218C105.625 143.105 105.642 141.922 106.06 140.82C106.478 139.719 107.279 138.75 108.359 138.038C109.439 137.326 110.75 136.903 112.122 136.825C113.495 136.746 114.866 137.014 116.061 137.596C119.778 139.219 123.041 141.495 125.629 144.269C128.216 147.042 130.067 150.248 131.056 153.669C131.509 157.363 132.933 160.93 135.226 164.111C137.518 167.293 140.621 170.009 144.309 172.062C172.995 186.74 202.922 167.325 197.967 143.503C196.771 137.94 193.64 132.791 188.97 128.712C184.3 124.633 178.302 121.806 171.739 120.592C171.601 120.565 171.462 120.54 171.321 120.518C169.43 120.247 167.628 119.638 166.035 118.734C164.442 117.83 163.095 116.651 162.084 115.276C161.074 113.9 160.423 112.361 160.176 110.761C159.929 109.16 160.091 107.536 160.651 105.997C161.674 103.368 162.438 100.672 162.936 97.936C163.141 96.5633 163.833 95.277 164.923 94.245C166.012 93.213 167.449 92.4834 169.043 92.1514C170.638 91.8194 172.318 91.9005 173.863 92.3841C175.408 92.8676 176.746 93.7312 177.703 94.862C179.906 97.1955 182.918 98.8939 186.317 99.7187C189.715 100.544 193.329 100.453 196.651 99.461C199.973 98.4685 202.836 96.6235 204.838 94.1851C206.841 91.7468 207.881 88.8376 207.814 85.866C207.747 82.8945 206.575 80.0099 204.464 77.6174C202.353 75.2248 199.408 73.4446 196.042 72.5266C192.677 71.6086 189.061 71.599 185.701 72.4992C182.342 73.3993 179.408 75.164 177.312 77.5453C173.511 81.8466 163.253 81.4247 161.16 75.4501C160.413 73.3274 159.493 71.2498 158.407 69.2321C154.09 61.1852 164.189 52.3061 172.853 53.304C175.183 53.57 177.546 53.5196 179.853 53.1547C185.085 52.307 189.747 49.8584 192.943 46.2804C196.138 42.7024 197.64 38.2483 197.16 33.7761C196.679 29.3038 194.25 25.1299 190.339 22.0583C186.429 18.9868 181.315 17.235 175.982 17.1403C172.927 17.181 169.922 17.7785 167.176 18.8916C164.429 20.0048 162.004 21.6071 160.07 23.5883C158.158 25.1712 156.643 27.0613 155.614 29.1478C154.585 31.2343 154.062 33.4751 154.077 35.7389C154.452 43.817 143.411 50.9963 134.473 46.3604L134.24 46.2399C130.343 44.2463 127.252 41.305 125.378 37.8071C123.795 34.3655 123.776 30.5605 125.323 27.1227C126.772 23.3958 126.77 19.3705 125.317 15.6306C123.688 11.2016 120.233 7.39973 115.577 4.91169C110.921 2.42366 105.371 1.41348 99.9297 2.06359C94.4879 2.71372 89.513 4.9813 85.9035 8.45676C82.2941 11.9322 80.288 16.3902 80.2476 21.0188Z" fill="#3F3F3F"/>
</svg>
