<svg width="230" height="249" viewBox="0 0 230 249" fill="none" xmlns="http://www.w3.org/2000/svg">
<path d="M206.044 64.2292C216.065 64.2292 224.189 55.4282 224.189 44.5717C224.189 33.7151 216.065 24.9141 206.044 24.9141C196.022 24.9141 187.898 33.7151 187.898 44.5717C187.898 55.4282 196.022 64.2292 206.044 64.2292Z" fill="#3F3F3F"/>
<path d="M204.177 94.3619C200.468 94.36 196.807 95.2547 193.458 96.9808C189.007 99.4165 184.1 100.716 179.114 100.779C178.395 100.768 177.615 100.768 176.766 100.768C173.715 100.769 170.693 100.118 167.874 98.8538C165.055 97.589 162.493 95.735 160.335 93.3975C158.178 91.06 156.466 88.2848 155.299 85.2306C154.132 82.1763 153.531 78.9028 153.532 75.5971C153.532 75.3266 152.408 71.8258 160.929 49.6359C162.776 44.8129 163.612 39.606 163.377 34.3906C163.143 29.1752 161.843 24.0811 159.572 19.4755C157.301 14.8699 154.115 10.8675 150.244 7.75672C146.372 4.64596 141.912 2.50432 137.185 1.48617C132.458 0.468013 127.581 0.598698 122.905 1.8688C118.23 3.13891 113.874 5.5168 110.149 8.8311C106.425 12.1454 103.425 16.3136 101.367 21.0352C99.3088 25.7568 98.2431 30.9142 98.2468 36.1358C98.2468 74.5582 44.6401 57.3139 37.8275 26.353C36.7203 22.5002 34.6554 19.052 31.8591 16.3863C29.0628 13.7206 25.6431 11.9403 21.9748 11.2406C19.3439 10.9204 16.6802 11.2136 14.1625 12.1003C11.6448 12.9871 9.33125 14.447 7.37715 16.382C5.42305 18.3171 3.87358 20.6825 2.83271 23.3196C1.79183 25.9567 1.28363 28.8045 1.3422 31.6719C1.50504 34.7043 2.30182 37.6569 3.67236 40.3068C5.0429 42.9567 6.95136 45.2346 9.25359 46.9683C19.3901 54.8971 28.7014 63.9956 37.0234 74.1037C37.8826 75.2214 38.4568 76.5633 38.6889 77.9959C38.921 79.4285 38.8029 80.902 38.3464 82.2699C37.8898 83.6378 37.1107 84.8523 36.0865 85.7928C35.0623 86.7333 33.8287 87.367 32.5083 87.6308L32.2286 87.7066C29.7834 88.3579 27.4842 89.5356 25.4679 91.1696C23.4516 92.8035 21.7593 94.8602 20.4919 97.2173C19.2245 99.5744 18.4078 102.184 18.0905 104.89C17.7731 107.596 17.9617 110.344 18.6448 112.969C19.328 115.595 20.4918 118.044 22.067 120.173C23.6422 122.301 25.5965 124.064 27.8137 125.357C30.0308 126.65 32.4655 127.446 34.9727 127.699C37.4799 127.951 40.0083 127.655 42.4075 126.827C43.8666 126.348 45.4245 126.353 46.881 126.841C48.3376 127.328 49.6261 128.277 50.581 129.565C51.5358 130.852 52.1134 132.42 52.2394 134.066C52.3653 135.712 52.034 137.361 51.2879 138.801C49.2105 143.282 46.2672 147.227 42.658 150.367C39.0488 153.506 34.8581 155.768 30.3706 156.998C25.5153 157.587 20.8422 159.341 16.691 162.132C12.5397 164.923 9.01456 168.681 6.37173 173.133C-12.4878 207.741 13.5539 243.409 44.8349 237.165C52.1394 235.66 58.8662 231.837 64.161 226.182C69.4558 220.527 73.0798 213.294 74.5725 205.403C74.6058 205.237 74.6358 205.07 74.6624 204.9C74.9894 202.628 75.7611 200.457 76.9257 198.534C78.0903 196.611 79.6208 194.98 81.4148 193.75C83.2088 192.521 85.2248 191.721 87.3275 191.404C89.4303 191.087 91.5712 191.261 93.6068 191.914C97.0837 193.108 100.645 193.991 104.255 194.554C106.066 194.783 107.77 195.598 109.146 196.893C110.522 198.187 111.506 199.901 111.969 201.811C112.432 203.721 112.352 205.738 111.741 207.598C111.129 209.458 110.014 211.074 108.541 212.237C105.504 214.91 103.317 218.546 102.286 222.635C101.255 226.723 101.432 231.059 102.793 235.033C104.153 239.007 106.628 242.419 109.87 244.791C113.112 247.163 116.959 248.375 120.87 248.257C124.781 248.14 128.559 246.698 131.675 244.134C134.79 241.57 137.086 238.014 138.24 233.964C139.394 229.914 139.349 225.575 138.109 221.554C136.87 217.534 134.5 214.036 131.331 211.55C125.607 207.043 125.997 194.728 133.828 192.141C136.61 191.218 139.331 190.088 141.969 188.759C152.493 183.478 164.345 195.485 163.171 205.896C162.859 208.695 162.963 211.53 163.481 214.293C164.681 220.561 167.98 226.125 172.742 229.915C177.504 233.705 183.392 235.451 189.271 234.818C195.151 234.186 200.607 231.218 204.587 226.487C208.567 221.756 210.791 215.597 210.829 209.196C210.726 205.531 209.891 201.933 208.382 198.65C206.872 195.368 204.723 192.479 202.084 190.182C199.969 187.908 197.456 186.113 194.693 184.905C191.93 183.696 188.971 183.097 185.991 183.143C175.363 183.695 165.733 170.536 171.692 159.752L171.847 159.471C174.408 154.768 178.23 151.022 182.805 148.73C187.31 146.787 192.319 146.716 196.87 148.53C201.799 150.222 207.098 150.169 211.998 148.378C217.802 146.367 222.751 142.174 225.952 136.556C229.152 130.938 230.392 124.265 229.448 117.743C228.504 111.221 225.439 105.279 220.805 100.991C216.172 96.7036 210.27 94.3522 204.177 94.3619Z" fill="#3F3F3F"/>
</svg>
