<svg width="477" height="298" viewBox="0 0 477 298" fill="none" xmlns="http://www.w3.org/2000/svg">
<path d="M451.935 180.154C456.918 178.827 462.187 181.485 465.457 186.268C468.228 190.445 468.758 195.686 466.947 201.016C463.479 211.217 465.906 213.428 465.938 213.459C467.161 214.376 466.265 215.948 464.768 215.801C458.646 215.506 456.755 204.795 457.378 196.611C457.195 187.496 452.128 183.503 448.893 181.748C448.467 181.289 448.099 180.743 447.822 180.154C448.829 180.161 450.937 180.143 451.935 180.154ZM425.591 186.192C428.876 181.411 434.123 178.837 439.089 180.154C440.087 180.133 442.186 180.181 443.202 180.154C442.754 181.179 442.23 181.717 441.183 182.242C437.673 184.253 432.311 190.828 433.867 199.838C433.321 208.445 431.634 215.324 426.256 215.801C425.293 215.798 424.775 215.534 424.581 214.674C424.508 214.168 424.729 213.674 425.148 213.408C425.156 213.388 425.947 212.635 425.947 210.041C425.947 208.155 425.517 205.282 424.064 201.016C422.241 195.648 422.783 190.382 425.591 186.192ZM406.993 157.444C415.22 155.406 423.39 155.145 429.225 156.304C435.393 157.529 440.651 161.904 443.441 166.698C444.071 167.782 444.579 168.696 444.937 169.48C445.292 170.258 445.577 171.068 445.629 171.925C445.651 172.276 445.678 172.566 445.701 172.811H447.706C450.08 172.811 452.004 174.533 452.004 176.656C452.004 177.294 451.427 177.811 450.715 177.811H437.293C436.581 177.811 436.004 177.294 436.004 176.656C436.004 174.533 437.929 172.811 440.302 172.811H441.501V172.809C441.501 172.594 441.177 172.567 441.189 172.367C441.192 172.304 441.155 172.222 441.156 172.215C441.157 172.214 441.157 172.211 441.156 172.199C441.153 172.14 441.121 171.912 440.861 171.342C440.602 170.777 440.194 170.03 439.567 168.952C437.325 165.101 433.08 161.638 428.352 160.699C423.291 159.695 415.8 159.879 408.071 161.793C392.857 165.561 370.187 178.053 351.099 189.793C341.606 195.632 333.082 201.232 326.931 205.372C323.856 207.442 321.374 209.147 319.663 210.333C318.808 210.926 318.146 211.389 317.697 211.703C317.473 211.861 317.303 211.981 317.189 212.062C317.132 212.102 317.088 212.132 317.06 212.153C317.046 212.162 317.035 212.17 317.029 212.175C317.025 212.177 317.022 212.179 317.021 212.18L317.019 212.182L316.825 212.305C315.837 212.865 314.565 212.598 313.894 211.652C313.178 210.642 313.416 209.243 314.425 208.527L314.428 208.525C314.43 208.523 314.434 208.522 314.438 208.519C314.445 208.513 314.456 208.505 314.471 208.494C314.501 208.473 314.546 208.442 314.605 208.401C314.722 208.318 314.895 208.195 315.122 208.035C315.577 207.716 316.248 207.248 317.111 206.65C318.836 205.453 321.334 203.738 324.428 201.656C330.615 197.491 339.193 191.855 348.752 185.976C367.768 174.28 391.004 161.404 406.993 157.444ZM445.518 193.914C447.17 197.427 447.468 204.589 447.501 209.105L446.651 211.219C446.555 211.448 446.396 211.643 446.194 211.78C445.991 211.916 445.754 211.989 445.512 211.989C445.27 211.989 445.033 211.916 444.83 211.78C444.628 211.643 444.468 211.448 444.372 211.219L443.511 209.092C443.542 204.503 443.938 197.36 445.518 193.914ZM443.781 183.622C443.708 186.47 443.843 189.015 444.212 191.293C441.23 195.259 440.991 205.415 441.06 210.864C434.609 202.034 433.519 189.028 443.781 183.622ZM446.294 182.457C446.885 183.376 447.666 184.126 448.708 184.483C457.563 190.364 455.878 202.807 449.964 210.864C450.038 205.143 449.73 194.825 446.663 191.091C446.257 188.597 446.134 185.736 446.294 182.457ZM443.781 183.622V183.61C443.858 183.574 443.81 183.6 443.781 183.622Z" fill="url(#paint0_linear_2615_27141)"/>
<path d="M289.305 229.218C289.161 230.447 288.048 231.326 286.819 231.182C285.59 231.038 284.711 229.925 284.855 228.696L289.305 229.218ZM352.373 94.6687C358.47 92.5651 364.557 92.2936 369.779 94.7605C370.914 95.2967 371.851 95.7628 372.591 96.2059C373.325 96.6457 374.019 97.1516 374.548 97.8279C375.406 98.9259 375.562 100.169 375.587 101.234H376.978C379.305 101.234 381.191 103.241 381.191 105.716C381.191 106.458 380.626 107.06 379.928 107.06H366.77C366.072 107.06 365.507 106.458 365.507 105.716C365.507 103.241 367.393 101.234 369.72 101.234H371.097C371.091 101.035 371.08 100.887 371.061 100.761C371.045 100.652 371.029 100.609 371.026 100.602C371.026 100.602 371.027 100.602 371.017 100.59C370.981 100.543 370.826 100.372 370.287 100.05C369.753 99.7301 368.992 99.3462 367.864 98.8133C364.033 97.0037 359.23 97.043 353.834 98.9051C348.392 100.783 343.455 103.575 337.385 108.764C318.737 124.708 306.665 154.589 299.262 180.928C295.58 194.024 293.09 206.109 291.519 214.921C290.734 219.325 290.18 222.908 289.822 225.386C289.643 226.624 289.514 227.588 289.43 228.238C289.387 228.563 289.356 228.811 289.336 228.975C289.326 229.058 289.318 229.119 289.313 229.16C289.311 229.18 289.309 229.195 289.307 229.205C289.307 229.21 289.307 229.213 289.306 229.216L289.305 229.218C289.299 229.217 289.18 229.203 287.081 228.957C284.98 228.71 284.862 228.696 284.855 228.694L284.863 228.624C284.869 228.579 284.877 228.512 284.888 228.426C284.909 228.251 284.942 227.995 284.985 227.66C285.072 226.99 285.205 226.006 285.387 224.746C285.75 222.225 286.312 218.593 287.106 214.135C288.695 205.221 291.216 192.988 294.947 179.715C302.368 153.314 314.72 122.246 334.472 105.357C340.901 99.8608 346.321 96.757 352.373 94.6687ZM381.721 109.211C387.7 107.663 394.024 110.764 397.948 116.344C401.273 121.217 401.909 127.332 399.736 133.55C395.569 145.468 398.495 148.038 398.524 148.067C399.992 149.136 398.917 150.971 397.12 150.8C389.774 150.455 387.505 137.958 388.253 128.41C388.033 117.777 381.953 113.118 378.07 111.071C377.559 110.535 377.117 109.899 376.784 109.211C377.993 109.22 380.523 109.199 381.721 109.211ZM350.108 116.255C354.05 110.677 360.347 107.675 366.305 109.211C367.503 109.187 370.023 109.243 371.242 109.211C370.704 110.407 370.074 111.034 368.818 111.647C364.606 113.993 358.171 121.663 360.039 132.176C359.383 142.217 357.36 150.243 350.906 150.8C349.751 150.797 349.128 150.488 348.896 149.485C348.808 148.894 349.073 148.318 349.576 148.008C349.587 147.983 350.536 147.104 350.536 144.079C350.536 141.878 350.019 138.526 348.275 133.55C346.088 127.288 346.739 121.143 350.108 116.255ZM374.02 125.263C376.004 129.362 376.36 137.718 376.4 142.986L375.38 145.453C375.265 145.72 375.075 145.947 374.832 146.107C374.589 146.267 374.304 146.352 374.013 146.352C373.723 146.352 373.438 146.267 373.195 146.107C372.952 145.947 372.761 145.72 372.646 145.453L371.611 142.971C371.648 137.618 372.124 129.283 374.02 125.263ZM371.936 113.257C371.848 116.58 372.011 119.548 372.454 122.207C368.876 126.834 368.588 138.681 368.671 145.039C360.929 134.736 359.621 119.563 371.936 113.257ZM374.952 111.898C375.661 112.97 376.598 113.845 377.848 114.262C388.474 121.123 386.452 135.639 379.355 145.039C379.444 138.363 379.075 126.327 375.395 121.971C374.908 119.061 374.76 115.723 374.952 111.898ZM371.936 113.257V113.242C372.028 113.201 371.97 113.23 371.936 113.257Z" fill="url(#paint1_linear_2615_27141)"/>
<path d="M25.0691 180.154C20.0862 178.827 14.8165 181.485 11.5467 186.268C8.77556 190.445 8.24597 195.686 10.0564 201.016C13.5244 211.217 11.0975 213.428 11.0662 213.459C9.84322 214.376 10.7385 215.948 12.2361 215.801C18.3582 215.506 20.2489 204.795 19.6258 196.611C19.8093 187.496 24.8757 183.503 28.1111 181.748C28.5372 181.289 28.9053 180.743 29.1824 180.154C28.1748 180.161 26.0666 180.143 25.0691 180.154ZM51.4129 186.192C48.1282 181.411 42.8805 178.837 37.9148 180.154C36.9173 180.133 34.8177 180.181 33.8015 180.154C34.2498 181.179 34.7742 181.717 35.8211 182.242C39.3311 184.253 44.6932 190.828 43.1365 199.838C43.6833 208.445 45.3696 215.324 50.7478 215.801C51.7109 215.798 52.2293 215.534 52.4226 214.674C52.4964 214.168 52.2749 213.674 51.8562 213.408C51.8475 213.388 51.0564 212.635 51.0564 210.041C51.0564 208.155 51.487 205.282 52.9402 201.016C54.763 195.648 54.2209 190.382 51.4129 186.192ZM70.0105 157.444C61.784 155.406 53.6142 155.145 47.7791 156.304C41.6111 157.529 36.3532 161.904 33.5633 166.698C32.9326 167.782 32.4252 168.696 32.0672 169.48C31.7117 170.258 31.4273 171.068 31.3748 171.925C31.3533 172.276 31.3263 172.566 31.3025 172.811H29.2976C26.9241 172.811 25 174.533 24.9998 176.656C24.9998 177.294 25.5769 177.811 26.2888 177.811H39.7107C40.4227 177.811 40.9998 177.294 40.9998 176.656C40.9995 174.533 39.0754 172.811 36.7019 172.811H35.5027V172.809C35.5031 172.594 35.8268 172.567 35.8152 172.367C35.8116 172.304 35.8491 172.222 35.8474 172.215C35.8472 172.214 35.8468 172.211 35.8474 172.199C35.8511 172.14 35.8831 171.912 36.1433 171.342C36.4014 170.777 36.8103 170.03 37.4373 168.952C39.6784 165.101 43.9243 161.638 48.6521 160.699C53.7128 159.695 61.2044 159.879 68.9334 161.793C84.1468 165.561 106.817 178.053 125.905 189.793C135.398 195.632 143.921 201.232 150.073 205.372C153.148 207.442 155.63 209.147 157.341 210.333C158.196 210.926 158.858 211.389 159.306 211.703C159.53 211.861 159.701 211.981 159.815 212.062C159.872 212.102 159.916 212.132 159.944 212.153C159.958 212.162 159.968 212.17 159.975 212.175C159.979 212.177 159.981 212.179 159.983 212.18L159.985 212.182L160.178 212.305C161.166 212.865 162.439 212.598 163.11 211.652C163.826 210.642 163.588 209.243 162.579 208.527L162.576 208.525C162.574 208.523 162.57 208.522 162.566 208.519C162.559 208.513 162.548 208.505 162.533 208.494C162.503 208.473 162.458 208.442 162.399 208.401C162.282 208.318 162.109 208.195 161.882 208.035C161.427 207.716 160.756 207.248 159.893 206.65C158.168 205.453 155.67 203.738 152.576 201.656C146.389 197.491 137.811 191.855 128.252 185.976C109.236 174.28 86.0003 161.404 70.0105 157.444ZM31.4861 193.914C29.8334 197.427 29.536 204.589 29.5027 209.105L30.3533 211.219C30.4491 211.448 30.608 211.643 30.8103 211.78C31.0127 211.916 31.2496 211.989 31.492 211.989C31.7343 211.989 31.9712 211.916 32.1736 211.78C32.376 211.643 32.5358 211.448 32.6316 211.219L33.493 209.092C33.4622 204.503 33.0661 197.36 31.4861 193.914ZM33.2224 183.622C33.2963 186.47 33.1612 189.015 32.7918 191.293C35.7734 195.259 36.0131 205.415 35.9441 210.864C42.3952 202.034 43.4852 189.028 33.2224 183.622ZM30.7097 182.457C30.1186 183.376 29.3376 184.126 28.2957 184.483C19.4406 190.364 21.1257 202.807 27.0398 210.864C26.9659 205.143 27.274 194.825 30.3406 191.091C30.747 188.597 30.8698 185.736 30.7097 182.457ZM33.2224 183.622V183.61C33.1461 183.574 33.1941 183.6 33.2224 183.622Z" fill="url(#paint2_linear_2615_27141)"/>
<path d="M187.698 229.218C187.843 230.447 188.956 231.326 190.185 231.182C191.414 231.038 192.293 229.925 192.149 228.696L187.698 229.218ZM124.631 94.6687C118.534 92.5651 112.447 92.2936 107.225 94.7605C106.09 95.2967 105.153 95.7628 104.413 96.2059C103.679 96.6457 102.985 97.1516 102.456 97.8279C101.597 98.9259 101.442 100.169 101.417 101.234H100.026C97.6989 101.234 95.8129 103.241 95.8127 105.716C95.8127 106.458 96.3784 107.06 97.0764 107.06H110.234C110.932 107.06 111.497 106.458 111.497 105.716C111.497 103.241 109.611 101.234 107.284 101.234H105.906C105.913 101.035 105.924 100.887 105.943 100.761C105.959 100.652 105.975 100.609 105.978 100.602C105.978 100.602 105.977 100.602 105.987 100.59C106.023 100.543 106.178 100.372 106.717 100.05C107.25 99.7301 108.012 99.3462 109.14 98.8133C112.971 97.0037 117.774 97.043 123.17 98.9051C128.612 100.783 133.549 103.575 139.619 108.764C158.267 124.708 170.339 154.589 177.742 180.928C181.424 194.024 183.914 206.109 185.485 214.921C186.269 219.325 186.824 222.908 187.182 225.386C187.361 226.624 187.49 227.588 187.574 228.238C187.617 228.563 187.648 228.811 187.668 228.975C187.678 229.058 187.686 229.119 187.691 229.16C187.693 229.18 187.695 229.195 187.696 229.205C187.697 229.21 187.697 229.213 187.697 229.216L187.698 229.218C187.705 229.217 187.824 229.203 189.923 228.957C192.024 228.71 192.142 228.696 192.149 228.694L192.141 228.624C192.135 228.579 192.127 228.512 192.116 228.426C192.095 228.251 192.062 227.995 192.019 227.66C191.932 226.99 191.799 226.006 191.617 224.746C191.254 222.225 190.692 218.593 189.898 214.135C188.309 205.221 185.788 192.988 182.057 179.715C174.636 153.314 162.284 122.246 142.531 105.357C136.103 99.8608 130.683 96.757 124.631 94.6687ZM95.2834 109.211C89.3038 107.663 82.9797 110.764 79.0558 116.344C75.7306 121.217 75.0952 127.332 77.2678 133.55C81.4353 145.468 78.5092 148.038 78.4797 148.067C77.0123 149.136 78.0869 150.971 79.884 150.8C87.2304 150.455 89.4989 137.958 88.7512 128.41C88.9714 117.777 95.0513 113.118 98.9338 111.071C99.4451 110.535 99.8874 109.899 100.22 109.211C99.011 109.22 96.4805 109.199 95.2834 109.211ZM126.896 116.255C122.954 110.677 116.657 107.675 110.698 109.211C109.501 109.187 106.981 109.243 105.762 109.211C106.3 110.407 106.93 111.034 108.186 111.647C112.398 113.993 118.833 121.663 116.965 132.176C117.621 142.217 119.644 150.243 126.098 150.8C127.253 150.797 127.875 150.488 128.108 149.485C128.196 148.894 127.93 148.318 127.428 148.008C127.417 147.983 126.468 147.104 126.468 144.079C126.468 141.878 126.985 138.526 128.729 133.55C130.916 127.288 130.265 121.143 126.896 116.255ZM102.984 125.263C101 129.362 100.644 137.718 100.604 142.986L101.624 145.453C101.739 145.72 101.929 145.947 102.172 146.107C102.415 146.267 102.7 146.352 102.99 146.352C103.281 146.352 103.566 146.267 103.809 146.107C104.052 145.947 104.243 145.72 104.358 145.453L105.393 142.971C105.356 137.618 104.88 129.283 102.984 125.263ZM105.068 113.257C105.156 116.58 104.993 119.548 104.55 122.207C108.128 126.834 108.416 138.681 108.333 145.039C116.074 134.736 117.383 119.563 105.068 113.257ZM102.052 111.898C101.343 112.97 100.406 113.845 99.1555 114.262C88.5296 121.123 90.5518 135.639 97.6486 145.039C97.56 138.363 97.9288 126.327 101.609 121.971C102.096 119.061 102.244 115.723 102.052 111.898ZM105.068 113.257V113.242C104.976 113.201 105.034 113.23 105.068 113.257Z" fill="url(#paint3_linear_2615_27141)"/>
<g clip-path="url(#clip0_2615_27141)">
<path d="M238.089 153.715C266.304 153.715 289.177 130.841 289.177 102.626C289.177 74.4103 266.304 51.5371 238.089 51.5371C209.873 51.5371 187 74.4103 187 102.626C187 130.841 209.873 153.715 238.089 153.715Z" fill="#FFDA24"/>
<path d="M289.177 102.626C289.177 130.84 266.303 153.714 238.089 153.714C209.874 153.714 187 130.84 187 102.626C187 100.6 187.118 98.6024 187.347 96.6387C190.311 122.031 211.9 141.74 238.089 141.74C264.278 141.74 285.867 122.031 288.83 96.6387C289.062 98.6259 289.178 100.625 289.177 102.626Z" fill="#FFC024"/>
<path d="M247.167 79.8603C247.981 77.5514 250.883 76.805 252.701 78.4434C254.359 79.9382 256.557 81.4928 259.213 82.4288C261.869 83.3647 264.555 83.5304 266.784 83.4066C269.229 83.2689 271.021 85.6697 270.207 87.9787C269.834 89.0364 268.972 89.8506 267.892 90.146C265.763 90.7267 261.839 91.2396 256.74 89.4415C251.641 87.6454 248.905 84.7856 247.61 82.9995C246.953 82.0915 246.792 80.916 247.165 79.8603H247.167ZM228.997 79.8603C228.182 77.5514 225.281 76.805 223.463 78.4434C221.804 79.9382 219.607 81.4928 216.951 82.4288C214.295 83.3647 211.608 83.5304 209.379 83.4066C206.935 83.2689 205.143 85.6697 205.957 87.9787C206.33 89.0364 207.192 89.8506 208.272 90.146C210.401 90.7267 214.325 91.2396 219.423 89.4415C224.522 87.6454 227.258 84.7856 228.554 82.9995C229.21 82.0915 229.372 80.916 228.999 79.8603H228.997Z" fill="#473535"/>
<path d="M224.429 132.137C224.545 130.47 228.582 124.707 238.081 124.707C247.581 124.707 251.618 130.47 251.734 132.137C251.837 133.632 250.812 134.26 249.55 134.003C248.293 133.745 245.194 130.836 238.079 130.836C230.965 130.836 227.868 133.745 226.608 134.003C225.351 134.26 224.321 133.632 224.425 132.137H224.429Z" fill="#473535"/>
<path d="M256.02 118.188C262.757 118.188 268.219 112.726 268.219 105.988C268.219 99.2509 262.757 93.7891 256.02 93.7891C249.282 93.7891 243.82 99.2509 243.82 105.988C243.82 112.726 249.282 118.188 256.02 118.188Z" fill="white"/>
<path d="M265.502 103.27C265.502 108.503 261.257 112.748 256.02 112.748C250.784 112.748 246.543 108.503 246.543 103.27C246.543 98.0378 250.786 93.7891 256.02 93.7891C256.952 93.7891 257.852 93.9228 258.7 94.1762C256.948 94.9186 255.719 96.6568 255.719 98.6784C255.719 101.381 257.908 103.57 260.608 103.57C262.636 103.57 264.37 102.34 265.113 100.586C265.366 101.438 265.5 102.338 265.5 103.27H265.502Z" fill="#473535"/>
<path d="M220.156 118.188C226.894 118.188 232.356 112.726 232.356 105.988C232.356 99.2509 226.894 93.7891 220.156 93.7891C213.419 93.7891 207.957 99.2509 207.957 105.988C207.957 112.726 213.419 118.188 220.156 118.188Z" fill="white"/>
<path d="M229.638 103.27C229.638 108.503 225.396 112.748 220.161 112.748C214.926 112.748 210.68 108.503 210.68 103.27C210.68 98.0378 214.924 93.7891 220.161 93.7891C221.093 93.7891 221.993 93.9228 222.841 94.1762C221.089 94.9186 219.86 96.6568 219.86 98.6784C219.86 101.381 222.049 103.57 224.749 103.57C226.773 103.57 228.509 102.34 229.251 100.586C229.505 101.438 229.638 102.338 229.638 103.27Z" fill="#473535"/>
</g>
<path d="M123.64 206.665C123.192 205.738 122.386 204.954 121.336 204.424C120.287 203.894 119.046 203.645 117.79 203.713L69.9516 206.277C68.9477 206.335 67.972 206.593 67.1146 207.028C66.2572 207.462 65.5456 208.06 65.0456 208.764C64.5456 209.469 64.2733 210.258 64.2536 211.059C64.234 211.861 64.4677 212.648 64.9333 213.349L89.7165 250.565L69.0532 290.222C68.6638 290.969 68.5145 291.777 68.619 292.573C68.7236 293.368 69.0785 294.124 69.6512 294.772C70.2238 295.42 70.9957 295.938 71.8954 296.279C72.7951 296.62 73.7937 296.772 74.7988 296.722L146.557 292.876C148.143 292.791 149.637 292.208 150.711 291.255C151.784 290.303 152.349 289.058 152.282 287.796L151.006 263.994C150.979 263.483 150.849 262.981 150.62 262.506L123.64 206.665Z" fill="#88584C"/>
<path d="M354.165 206.665C354.613 205.738 355.418 204.954 356.468 204.424C357.518 203.894 358.759 203.645 360.014 203.713L407.853 206.277C408.857 206.335 409.833 206.593 410.69 207.028C411.548 207.462 412.259 208.06 412.759 208.764C413.259 209.469 413.531 210.258 413.551 211.059C413.571 211.861 413.337 212.648 412.871 213.349L388.088 250.565L408.752 290.222C409.141 290.969 409.29 291.777 409.186 292.573C409.081 293.368 408.726 294.124 408.154 294.772C407.581 295.42 406.809 295.938 405.909 296.279C405.01 296.62 404.011 296.772 403.006 296.722L331.248 292.876C329.662 292.791 328.168 292.208 327.094 291.255C326.02 290.303 325.455 289.058 325.523 287.796L326.799 263.994C326.826 263.483 326.956 262.981 327.184 262.506L354.165 206.665Z" fill="#88584C"/>
<path d="M356.531 190.014H119.988C116.681 190.014 114 192.148 114 194.781V268.671C114 271.304 116.681 273.438 119.988 273.438H356.531C359.838 273.438 362.52 271.304 362.52 268.671V194.781C362.52 192.148 359.838 190.014 356.531 190.014Z" fill="#966559"/>
<path d="M149.034 245.492C148.403 245.492 147.872 245.277 147.442 244.847C147.012 244.417 146.797 243.886 146.797 243.255V214.129C146.797 213.469 147.012 212.939 147.442 212.537C147.872 212.107 148.403 211.892 149.034 211.892H171.921C172.581 211.892 173.112 212.107 173.513 212.537C173.944 212.939 174.159 213.469 174.159 214.129V243.255C174.159 243.886 173.944 244.417 173.513 244.847C173.112 245.277 172.581 245.492 171.921 245.492C171.29 245.492 170.76 245.277 170.33 244.847C169.899 244.417 169.684 243.886 169.684 243.255V215.85H151.271V243.255C151.271 243.886 151.056 244.417 150.626 244.847C150.224 245.277 149.693 245.492 149.034 245.492ZM184.998 245.492C184.367 245.492 183.836 245.277 183.406 244.847C182.975 244.417 182.76 243.886 182.76 243.255V214.129C182.76 213.469 182.975 212.939 183.406 212.537C183.836 212.107 184.367 211.892 184.998 211.892H193.602C195.753 211.892 197.66 212.365 199.324 213.312C200.987 214.258 202.278 215.577 203.196 217.27C204.142 218.933 204.616 220.855 204.616 223.035C204.616 225.128 204.142 226.993 203.196 228.628C202.278 230.262 200.987 231.539 199.324 232.456C197.66 233.374 195.753 233.833 193.602 233.833H187.235V243.255C187.235 243.886 187.02 244.417 186.589 244.847C186.188 245.277 185.657 245.492 184.998 245.492ZM187.235 229.703H193.602C194.921 229.703 196.083 229.416 197.087 228.843C198.091 228.269 198.879 227.48 199.453 226.476C200.027 225.473 200.313 224.325 200.313 223.035C200.313 221.658 200.027 220.453 199.453 219.421C198.879 218.36 198.091 217.528 197.087 216.926C196.083 216.323 194.921 216.022 193.602 216.022H187.235V229.703ZM225.096 245.922C222.572 245.922 220.263 245.507 218.17 244.675C216.076 243.814 214.269 242.624 212.749 241.104C211.257 239.555 210.096 237.734 209.264 235.64C208.432 233.518 208.016 231.195 208.016 228.671C208.016 226.147 208.432 223.838 209.264 221.744C210.096 219.65 211.257 217.843 212.749 216.323C214.269 214.774 216.076 213.584 218.17 212.752C220.263 211.892 222.572 211.462 225.096 211.462C227.62 211.462 229.915 211.892 231.98 212.752C234.073 213.584 235.88 214.774 237.4 216.323C238.921 217.843 240.096 219.65 240.928 221.744C241.76 223.838 242.176 226.147 242.176 228.671C242.176 231.195 241.76 233.518 240.928 235.64C240.096 237.734 238.921 239.555 237.4 241.104C235.88 242.624 234.073 243.814 231.98 244.675C229.915 245.507 227.62 245.922 225.096 245.922ZM225.096 241.878C226.96 241.878 228.667 241.548 230.216 240.889C231.793 240.2 233.156 239.268 234.303 238.092C235.45 236.888 236.325 235.482 236.927 233.876C237.558 232.27 237.874 230.535 237.874 228.671C237.874 226.806 237.558 225.071 236.927 223.465C236.325 221.859 235.45 220.468 234.303 219.292C233.156 218.087 231.793 217.155 230.216 216.495C228.667 215.836 226.96 215.506 225.096 215.506C223.232 215.506 221.511 215.836 219.933 216.495C218.385 217.155 217.037 218.087 215.889 219.292C214.771 220.468 213.896 221.859 213.265 223.465C212.634 225.071 212.319 226.806 212.319 228.671C212.319 230.535 212.634 232.27 213.265 233.876C213.896 235.482 214.771 236.888 215.889 238.092C217.037 239.268 218.385 240.2 219.933 240.889C221.511 241.548 223.232 241.878 225.096 241.878ZM251.421 245.492C250.79 245.492 250.26 245.277 249.829 244.847C249.399 244.417 249.184 243.886 249.184 243.255V214.129C249.184 213.469 249.399 212.939 249.829 212.537C250.26 212.107 250.79 211.892 251.421 211.892H261.704C263.654 211.892 265.36 212.279 266.823 213.054C268.315 213.799 269.476 214.846 270.308 216.194C271.168 217.542 271.599 219.091 271.599 220.841C271.599 222.246 271.211 223.522 270.437 224.669C269.691 225.788 268.659 226.677 267.339 227.337C269.232 227.796 270.753 228.699 271.9 230.047C273.047 231.395 273.621 233.159 273.621 235.339C273.621 237.318 273.147 239.068 272.201 240.588C271.283 242.108 269.992 243.312 268.329 244.202C266.665 245.062 264.758 245.492 262.607 245.492H251.421ZM253.658 241.362H262.607C263.926 241.362 265.088 241.133 266.092 240.674C267.096 240.215 267.884 239.541 268.458 238.652C269.032 237.763 269.318 236.658 269.318 235.339C269.318 234.106 269.032 233.087 268.458 232.284C267.884 231.481 267.096 230.879 266.092 230.477C265.088 230.047 263.926 229.832 262.607 229.832H253.658V241.362ZM253.658 225.702H261.704C263.338 225.702 264.672 225.3 265.705 224.497C266.766 223.694 267.296 222.475 267.296 220.841C267.296 219.206 266.766 218.001 265.705 217.227C264.672 216.424 263.338 216.022 261.704 216.022H253.658V225.702ZM277.638 245.492C276.835 245.492 276.218 245.148 275.788 244.46C275.358 243.771 275.315 243.04 275.659 242.266L287.748 213.398C288.179 212.394 288.881 211.892 289.856 211.892C290.889 211.892 291.592 212.394 291.965 213.398L304.097 242.352C304.412 243.155 304.355 243.886 303.925 244.546C303.523 245.177 302.907 245.492 302.075 245.492C301.645 245.492 301.229 245.377 300.827 245.148C300.454 244.89 300.182 244.546 300.01 244.115L289.34 217.614H290.545L279.703 244.115C279.503 244.574 279.201 244.919 278.8 245.148C278.427 245.377 278.04 245.492 277.638 245.492ZM279.918 238.092L281.639 234.392H298.504L300.225 238.092H279.918ZM307.974 245.492C307.171 245.492 306.554 245.148 306.124 244.46C305.694 243.771 305.651 243.04 305.995 242.266L318.084 213.398C318.515 212.394 319.217 211.892 320.192 211.892C321.225 211.892 321.928 212.394 322.301 213.398L334.433 242.352C334.748 243.155 334.705 243.886 334.304 244.546C333.931 245.177 333.329 245.492 332.497 245.492C332.067 245.492 331.651 245.377 331.249 245.148C330.876 244.89 330.604 244.546 330.432 244.115L319.676 217.614H321.053L310.039 244.115C309.838 244.574 309.537 244.919 309.136 245.148C308.763 245.377 308.376 245.492 307.974 245.492Z" fill="#473535"/>
<defs>
<linearGradient id="paint0_linear_2615_27141" x1="401.435" y1="148.023" x2="484.844" y2="181.878" gradientUnits="userSpaceOnUse">
<stop stop-color="#4E4B35"/>
<stop offset="1" stop-color="#FD5900"/>
</linearGradient>
<linearGradient id="paint1_linear_2615_27141" x1="391.722" y1="139.551" x2="296.94" y2="142.464" gradientUnits="userSpaceOnUse">
<stop stop-color="#FD5900"/>
<stop offset="0.75" stop-color="#4E4B35"/>
</linearGradient>
<linearGradient id="paint2_linear_2615_27141" x1="75.5692" y1="148.023" x2="-7.84018" y2="181.878" gradientUnits="userSpaceOnUse">
<stop stop-color="#4E4B35"/>
<stop offset="1" stop-color="#FD5900"/>
</linearGradient>
<linearGradient id="paint3_linear_2615_27141" x1="85.2817" y1="139.551" x2="180.064" y2="142.464" gradientUnits="userSpaceOnUse">
<stop stop-color="#FD5900"/>
<stop offset="0.75" stop-color="#4E4B35"/>
</linearGradient>
<clipPath id="clip0_2615_27141">
<rect width="102.177" height="102.177" fill="white" transform="translate(187 51.5371)"/>
</clipPath>
</defs>
</svg>
