<svg width="36" height="36" viewBox="0 0 36 36" fill="none" xmlns="http://www.w3.org/2000/svg">
<g clip-path="url(#clip0_1959_258550)">
<path d="M32 18C32 27.9411 23.9411 36 14 36C12.9154 36.0005 11.8329 35.9035 10.7656 35.7102C10.529 35.6672 10.1328 35.0961 9.89945 35.044C5.42377 34.0448 2.33129 31.5823 -0.201648 27.935C-0.344312 27.7296 -1.07613 27.8411 -1.21028 27.6296C-2.97695 24.8449 -4 21.5419 -4 18C-4 8.05887 4.05887 0 14 0C23.9411 0 32 8.05887 32 18Z" fill="#2740B1"/>
<path d="M27.6732 18.9597C27.6732 25.8777 22.0651 31.4858 15.1471 31.4858C8.22915 31.4858 2.62109 25.8777 2.62109 18.9597C2.62109 12.0417 8.22922 6.43359 15.1471 6.43359C22.065 6.43359 27.6732 12.0417 27.6732 18.9597Z" fill="#314DCA"/>
<path d="M18.4873 30.4208C18.8756 30.4208 19.1904 30.7356 19.1904 31.1239V32.4823C19.1904 32.8706 18.8756 33.1854 18.4873 33.1854C18.099 33.1854 17.7842 32.8706 17.7842 32.4823V31.1239C17.7842 30.7356 18.099 30.4208 18.4873 30.4208ZM20.0364 30.7608L20.997 31.7214C21.2715 31.9959 21.7167 31.9959 21.9913 31.7214C22.2659 31.4468 22.2659 31.0016 21.9913 30.727L21.0308 29.7665C20.7562 29.4919 20.311 29.4919 20.0364 29.7665C19.7618 30.041 19.7618 30.4863 20.0364 30.7608ZM14.9833 31.7214C15.2578 31.9959 15.7031 31.9959 15.9776 31.7214L16.9382 30.7608C17.2127 30.4863 17.2127 30.041 16.9382 29.7665C16.6636 29.4919 16.2184 29.4919 15.9438 29.7665L14.9833 30.727C14.7087 31.0016 14.7087 31.4467 14.9833 31.7214Z" fill="#6C7FD9"/>
<path d="M10.766 28.125V35.7102C5.65095 34.7821 1.28883 31.6925 -1.3398 27.4219H10.0628C10.4512 27.4219 10.766 27.7367 10.766 28.125ZM10.0628 4.21875H-1.37109C-1.75943 4.21875 -2.07422 4.53361 -2.07422 4.92188V16.3559C-2.07422 16.7442 -1.75943 17.059 -1.37109 17.059H10.0628C10.4512 17.059 10.766 16.7442 10.766 16.3559V4.92188C10.766 4.53354 10.4512 4.21875 10.0628 4.21875Z" fill="#FF3980"/>
<path d="M1.86511 28.6843L-0.569458 29.2457C-0.94788 29.333 -1.32532 29.0969 -1.41258 28.7186L-3.98186 17.5769C-4.06912 17.1986 -3.83308 16.8211 -3.45473 16.7338L-1.02016 16.1724C-0.64174 16.0852 -0.264302 16.3212 -0.177045 16.6996L2.39217 27.8411C2.4795 28.2196 2.24353 28.597 1.86511 28.6843Z" fill="#FF3980"/>
<path d="M10.573 26.6765L1.32891 28.8082C0.950487 28.8954 0.573049 28.6594 0.485791 28.281L-2.08343 17.1394C-2.17069 16.761 -1.93465 16.3835 -1.55629 16.2963L7.68783 14.1646C8.06625 14.0774 8.44369 14.3134 8.53095 14.6918L11.1002 25.8333C11.1874 26.2118 10.9515 26.5893 10.573 26.6765Z" fill="#FF5E95"/>
<path d="M0.148438 7.27539C0.148438 6.88705 0.463227 6.57227 0.851562 6.57227H7.03906C7.4274 6.57227 7.74219 6.88705 7.74219 7.27539C7.74219 7.66373 7.4274 7.97852 7.03906 7.97852H0.851562C0.463227 7.97852 0.148438 7.66373 0.148438 7.27539ZM7.03906 9.38477H0.851562C0.463227 9.38477 0.148438 9.69956 0.148438 10.0879C0.148438 10.4762 0.463227 10.791 0.851562 10.791H7.03906C7.4274 10.791 7.74219 10.4762 7.74219 10.0879C7.74219 9.69956 7.4274 9.38477 7.03906 9.38477ZM3.62188 12.1973H0.851562C0.463227 12.1973 0.148438 12.5121 0.148438 12.9004C0.148438 13.2887 0.463227 13.6035 0.851562 13.6035H3.62188C4.01021 13.6035 4.325 13.2887 4.325 12.9004C4.325 12.5121 4.01021 12.1973 3.62188 12.1973Z" fill="#FFA2C3"/>
<path d="M16.2305 4.92188V16.3559C16.2305 16.7442 15.9157 17.059 15.5274 17.059H12.875C12.4867 17.059 12.1719 16.7442 12.1719 16.3559V4.92188C12.1719 4.53361 12.4867 4.21875 12.875 4.21875H15.5274C15.9157 4.21875 16.2305 4.53361 16.2305 4.92188Z" fill="#FFAA00"/>
<path d="M25.0118 4.92188V16.3559C25.0118 16.7442 24.697 17.059 24.3087 17.059H15.0664C14.6781 17.059 14.3633 16.7442 14.3633 16.3559V4.92188C14.3633 4.53354 14.6781 4.21875 15.0664 4.21875H24.3088C24.697 4.21875 25.0118 4.53354 25.0118 4.92188Z" fill="#FFB509"/>
<path d="M18.1973 15.6556L16.8462 27.0096C16.8003 27.3952 16.4506 27.6706 16.0649 27.6247L13.4209 27.3101C13.0353 27.2642 12.7599 26.9144 12.8058 26.5288L14.1569 15.1748C14.2028 14.7892 14.5526 14.5138 14.9382 14.5597L17.5823 14.8743C17.9678 14.9202 18.2433 15.27 18.1973 15.6556Z" fill="#FFC143"/>
<path d="M26.9073 16.6921L25.5562 28.046C25.5103 28.4316 25.1605 28.707 24.7749 28.6612L15.7842 27.5913C15.3986 27.5454 15.1231 27.1956 15.1691 26.81L16.5202 15.4561C16.5661 15.0705 16.9158 14.7951 17.3015 14.8409L26.2923 15.9109C26.6778 15.9567 26.9532 16.3066 26.9073 16.6921Z" fill="#FFCD6B"/>
<path d="M19.5011 22.1354C19.4697 22.5225 19.1304 22.8107 18.7434 22.7793L15.9821 22.5548C15.5951 22.5234 15.3069 22.1842 15.3383 21.7971C15.3697 21.4101 15.709 21.1218 16.096 21.1532L18.8573 21.3776C19.2444 21.409 19.5326 21.7484 19.5011 22.1354ZM22.4911 18.8512L16.3239 18.35C15.9369 18.3185 15.5976 18.6068 15.5662 18.9939C15.5347 19.3809 15.8229 19.7202 16.21 19.7516L22.3772 20.2529C22.7643 20.2843 23.1035 19.9961 23.135 19.609C23.1664 19.222 22.8781 18.8826 22.4911 18.8512Z" fill="#FF9500"/>
<path d="M21.4845 3.69123L20.5583 15.0877C20.5269 15.4748 20.1875 15.763 19.8005 15.7315L17.2478 15.524C16.8607 15.4926 16.5725 15.1534 16.6039 14.7663L17.5301 3.36983C17.5616 2.98283 17.9009 2.69455 18.2879 2.72598L20.8407 2.93347C21.2277 2.9649 21.5159 3.30423 21.4845 3.69123Z" fill="#009B5E"/>
<path d="M30.3288 4.41084L29.4025 15.8073C29.3711 16.1944 29.0318 16.4826 28.6448 16.4511L19.6774 15.7223C19.2904 15.6909 19.0022 15.3516 19.0336 14.9645L19.9598 3.56807C19.9913 3.181 20.3306 2.89279 20.7176 2.92422L29.685 3.65308C30.072 3.68451 30.3602 4.02377 30.3288 4.41084Z" fill="#00B972"/>
<path d="M23.4665 0.703125V12.1371C23.4665 12.5255 23.1517 12.8403 22.7634 12.8403H19.8633C19.4749 12.8403 19.1602 12.5255 19.1602 12.1371V0.703125C19.1602 0.314859 19.4749 0 19.8633 0H22.7634C23.1517 0 23.4665 0.314859 23.4665 0.703125Z" fill="#00D683"/>
<path d="M31.9987 0.703125V12.1371C31.9987 12.5255 31.6839 12.8403 31.2956 12.8403H22.1953C21.807 12.8403 21.4922 12.5255 21.4922 12.1371V0.703125C21.4922 0.314789 21.807 0 22.1953 0H31.2956C31.6839 0 31.9987 0.314789 31.9987 0.703125Z" fill="#00E294"/>
<path d="M30.3874 4.2404L25.2717 9.35605C25.1344 9.49337 24.9545 9.562 24.7745 9.562C24.5946 9.562 24.4147 9.4933 24.2773 9.35605L20.9911 6.06979C20.7165 5.79522 20.7165 5.35 20.9911 5.07543C21.2657 4.80086 21.7108 4.80086 21.9855 5.07543L24.7746 7.86451L29.3931 3.24597C29.6678 2.9714 30.1129 2.9714 30.3876 3.24597C30.6621 3.52068 30.6621 3.96583 30.3874 4.2404Z" fill="#007E4B"/>
<path d="M4.84072 25.164C4.86237 25.2771 4.85001 25.3941 4.80518 25.5001C4.76036 25.6062 4.68509 25.6966 4.5889 25.7598C4.49271 25.8231 4.37991 25.8565 4.26477 25.8556C4.14963 25.8548 4.03731 25.8199 3.94203 25.7552C3.84675 25.6906 3.77278 25.5991 3.72948 25.4924C3.68617 25.3857 3.67548 25.2686 3.69874 25.1558C3.72201 25.0431 3.77819 24.9397 3.86018 24.8589C3.94218 24.7781 4.0463 24.7233 4.15939 24.7017C4.31104 24.6727 4.46801 24.7051 4.59577 24.7918C4.72354 24.8785 4.81165 25.0123 4.84072 25.164ZM5.5449 19.1904C5.24607 17.9752 4.0452 17.1887 2.81059 17.3993C1.61176 17.6041 0.754087 18.6729 0.81561 19.8851C0.821272 19.9969 0.834663 20.1081 0.855689 20.2179C0.882536 20.3548 0.962493 20.4754 1.07807 20.5534C1.19364 20.6315 1.33542 20.6606 1.47238 20.6343C1.60934 20.6081 1.73033 20.5287 1.80889 20.4135C1.88744 20.2982 1.91716 20.1566 1.89153 20.0195C1.87967 19.9576 1.87211 19.8949 1.86889 19.832C1.83444 19.1527 2.31566 18.5538 2.98813 18.439C3.68063 18.3208 4.35324 18.7615 4.52066 19.4422C4.61002 19.8056 4.54843 20.1786 4.34706 20.4926C4.14561 20.8068 3.83307 21.0184 3.46709 21.0885C3.32973 21.1149 3.20845 21.1947 3.12993 21.3104C3.05141 21.4261 3.02207 21.5683 3.04838 21.7057L3.41703 23.6299C3.42979 23.6982 3.45591 23.7633 3.49389 23.8214C3.53187 23.8795 3.58096 23.9296 3.63835 23.9687C3.69573 24.0079 3.76028 24.0353 3.82828 24.0494C3.89628 24.0635 3.9664 24.064 4.03461 24.0509C4.10282 24.0379 4.16778 24.0115 4.22575 23.9732C4.28373 23.935 4.33358 23.8857 4.37244 23.8281C4.4113 23.7706 4.43842 23.7059 4.45222 23.6378C4.46602 23.5698 4.46625 23.4996 4.45288 23.4315L4.17233 21.967C4.60426 21.778 4.97727 21.4635 5.23482 21.0618C5.59391 20.5021 5.70395 19.8374 5.5449 19.1904Z" fill="#FFF5F5"/>
</g>
<defs>
<clipPath id="clip0_1959_258550">
<rect width="36" height="36" fill="white"/>
</clipPath>
</defs>
</svg>
