<svg width="35" height="35" viewBox="0 0 35 35" fill="none" xmlns="http://www.w3.org/2000/svg">
<g clip-path="url(#clip0_1959_258572)">
<path d="M21.6699 11.3477H11.416C10.8492 11.3477 10.3906 10.889 10.3906 10.3223V6.2207C10.3906 5.65394 10.8492 5.19531 11.416 5.19531H21.6699C22.2367 5.19531 22.6953 5.65394 22.6953 6.2207V10.3223C22.6953 10.889 22.2367 11.3477 21.6699 11.3477Z" fill="#FFD580"/>
<path d="M28.5473 1.39414C28.1468 0.993621 27.4978 0.993621 27.0973 1.39414L25.7715 2.71997L24.4457 1.39414C24.0452 0.993621 23.3962 0.993621 22.9957 1.39414C22.5952 1.79466 22.5952 2.44359 22.9957 2.84411L25.0465 4.89489C25.2468 5.09518 25.5091 5.19533 25.7714 5.19533C26.0337 5.19533 26.2962 5.09518 26.4964 4.89489L28.5472 2.84411C28.9479 2.44352 28.9479 1.79466 28.5473 1.39414Z" fill="#F24973"/>
<path d="M26.4945 4.89489L28.5453 2.84411C28.9458 2.44359 28.9458 1.79466 28.5453 1.39414C28.1448 0.993621 27.4959 0.993621 27.0954 1.39414L25.7695 2.71997V5.19533C26.032 5.19533 26.2943 5.09518 26.4945 4.89489Z" fill="#D92C49"/>
<path d="M29.873 11.3477H21.6699C21.1032 11.3477 20.6445 10.889 20.6445 10.3223V4.16992C20.6445 3.60315 21.1032 3.14453 21.6699 3.14453H29.873C30.4398 3.14453 30.8984 3.60315 30.8984 4.16992V10.3223C30.8984 10.889 30.4398 11.3477 29.873 11.3477Z" fill="#8AE68A"/>
<path d="M29.8711 3.14453H25.7695V11.3477H29.8711C30.4379 11.3477 30.8965 10.889 30.8965 10.3223V4.16992C30.8965 3.60315 30.4379 3.14453 29.8711 3.14453Z" fill="#60BF80"/>
<path d="M6.15638 9.2966L4.48048 3.14453H1.02539C0.458623 3.14453 0 2.68591 0 2.11914C0 1.55237 0.458623 1.09375 1.02539 1.09375H5.26354C5.48855 1.09378 5.70731 1.16781 5.8861 1.30444C6.06488 1.44106 6.19377 1.6327 6.2529 1.8498L8.48791 10.0529L6.15638 9.2966ZM27.8221 27.7539H11.4159C10.8511 27.7539 10.3905 27.2943 10.3905 26.7285C10.3905 26.1988 10.787 25.7602 11.3118 25.7081C11.8745 25.6521 12.2871 25.1493 12.229 24.5856C12.1749 24.0229 11.6702 23.6313 11.1075 23.6673C9.52937 23.8245 8.33978 25.1403 8.33978 26.7284C8.33978 28.4247 9.71968 29.8046 11.4159 29.8046H27.8222C28.389 29.8046 28.8476 29.346 28.8476 28.7792C28.8476 28.2125 28.3889 27.7539 27.8221 27.7539Z" fill="#80334D"/>
<path d="M27.8203 27.7539H21.668V29.8047H27.8203C28.3871 29.8047 28.8457 29.3461 28.8457 28.7793C28.8457 28.2125 28.3871 27.7539 27.8203 27.7539Z" fill="#59243F"/>
<path d="M11.417 25.6831C10.9584 25.6831 10.5498 25.3777 10.4276 24.9281L6.15625 9.29688H33.9756C34.276 9.29688 34.5624 9.42908 34.7586 9.65938C34.8548 9.77303 34.925 9.90625 34.9644 10.0498C35.0038 10.1933 35.0115 10.3437 34.987 10.4905L32.9362 22.7952C32.8993 23.0177 32.7899 23.2218 32.6252 23.3759C32.4604 23.53 32.2494 23.6254 32.0249 23.6474C8.53987 25.971 11.6632 25.6831 11.417 25.6831Z" fill="#F24973"/>
<path d="M33.9727 9.29688H21.668V24.6735C24.3607 24.406 27.7459 24.0704 32.022 23.6474C32.2465 23.6254 32.4575 23.53 32.6223 23.3759C32.787 23.2219 32.8963 23.0177 32.9333 22.7952L34.984 10.4905C35.0086 10.3437 35.0009 10.1933 34.9615 10.0498C34.9221 9.90624 34.8518 9.77303 34.7557 9.65938C34.6592 9.5459 34.5392 9.45472 34.404 9.39213C34.2688 9.32954 34.1216 9.29704 33.9727 9.29688Z" fill="#D92C49"/>
<path d="M27.8223 33.9062C26.126 33.9062 24.7461 32.5263 24.7461 30.8301C24.7461 29.1338 26.126 27.7539 27.8223 27.7539C29.5185 27.7539 30.8984 29.1338 30.8984 30.8301C30.8984 32.5263 29.5185 33.9062 27.8223 33.9062Z" fill="#59243F"/>
<path d="M27.8223 31.8555C28.3886 31.8555 28.8477 31.3964 28.8477 30.8301C28.8477 30.2638 28.3886 29.8047 27.8223 29.8047C27.256 29.8047 26.7969 30.2638 26.7969 30.8301C26.7969 31.3964 27.256 31.8555 27.8223 31.8555Z" fill="#D9E5FF"/>
<path d="M13.4668 33.9062C11.7705 33.9062 10.3906 32.5263 10.3906 30.8301C10.3906 29.1338 11.7705 27.7539 13.4668 27.7539C15.1631 27.7539 16.543 29.1338 16.543 30.8301C16.543 32.5263 15.1631 33.9062 13.4668 33.9062Z" fill="#80334D"/>
<path d="M13.4668 31.8555C14.0331 31.8555 14.4922 31.3964 14.4922 30.8301C14.4922 30.2638 14.0331 29.8047 13.4668 29.8047C12.9005 29.8047 12.4414 30.2638 12.4414 30.8301C12.4414 31.3964 12.9005 31.8555 13.4668 31.8555Z" fill="#ECF2FF"/>
<path d="M27.8223 19.5508C27.2555 19.5508 26.7969 19.0922 26.7969 18.5254V14.4238C26.7969 13.8571 27.2555 13.3984 27.8223 13.3984C28.389 13.3984 28.8477 13.8571 28.8477 14.4238V18.5254C28.8477 19.0922 28.389 19.5508 27.8223 19.5508Z" fill="#D9E5FF"/>
<path d="M15.5176 19.5508C14.9508 19.5508 14.4922 19.0922 14.4922 18.5254V14.4238C14.4922 13.8571 14.9508 13.3984 15.5176 13.3984C16.0843 13.3984 16.543 13.8571 16.543 14.4238V18.5254C16.543 19.0922 16.0843 19.5508 15.5176 19.5508ZM21.6699 19.5508C21.1032 19.5508 20.6445 19.0922 20.6445 18.5254V14.4238C20.6445 13.8571 21.1032 13.3984 21.6699 13.3984C22.2367 13.3984 22.6953 13.8571 22.6953 14.4238V18.5254C22.6953 19.0922 22.2367 19.5508 21.6699 19.5508Z" fill="#ECF2FF"/>
<path d="M22.6934 18.5254V14.4238C22.6934 13.8571 22.2347 13.3984 21.668 13.3984V19.5508C22.2347 19.5508 22.6934 19.0922 22.6934 18.5254Z" fill="#D9E5FF"/>
</g>
<defs>
<clipPath id="clip0_1959_258572">
<rect width="35" height="35" fill="white"/>
</clipPath>
</defs>
</svg>
