<svg width="219" height="169" viewBox="0 0 219 169" fill="none" xmlns="http://www.w3.org/2000/svg">
<path d="M212.958 1.2601L218.368 6.93008L203.998 126.92H0.238281L4.68829 0.830078L212.958 1.2601Z" fill="#24242D"/>
<path d="M212.957 1.2601L218.367 6.93008L123.888 11.7201L14.6775 5.9201L4.6875 0.830078L212.957 1.2601Z" fill="url(#paint0_radial_2065_7759)"/>
<path d="M218.37 6.9299L204 126.92H9.41016L14.6802 5.91992L218.37 6.9299Z" fill="url(#paint1_linear_2065_7759)"/>
<path style="mix-blend-mode:multiply" opacity="0.5" d="M203.998 126.92C203.998 126.92 195.288 56.57 116.338 57.73C37.3884 58.89 9.39844 126.92 9.39844 126.92H203.998Z" fill="url(#paint2_linear_2065_7759)"/>
<path style="mix-blend-mode:multiply" opacity="0.5" d="M164.869 38.6602L159.519 109.23L139.809 109.75L138.299 126.7L94.3285 127.02L94.9585 107.72L68.0586 108.35L70.9985 38.6602H164.869Z" fill="url(#paint3_linear_2065_7759)"/>
<path d="M162.199 38.6602H70.9994L68.8594 103.06L71.4794 103.4L162.199 38.6602Z" fill="#24242D"/>
<path d="M164.867 38.6602L155.177 103.55L71.4766 103.4L74.6965 38.7701L164.867 38.6602Z" fill="url(#paint4_linear_2065_7759)"/>
<path style="mix-blend-mode:multiply" opacity="0.5" d="M101.787 59.5996L93.707 103.58H137.237L138.397 61.2996L101.787 59.5996Z" fill="url(#paint5_linear_2065_7759)"/>
<path d="M138.398 59.9896L101.788 59.5996L94.9375 157.58H132.598L138.398 59.9896Z" fill="url(#paint6_linear_2065_7759)"/>
<path d="M138.399 59.9902L106.619 60.0403L101.199 159.87L132.599 158.89L138.399 59.9902Z" fill="url(#paint7_linear_2065_7759)"/>
<path style="mix-blend-mode:multiply" opacity="0.5" d="M132.598 156.26C132.598 156.26 134.198 112 121.718 112.58C109.238 113.16 101.258 156.12 101.258 156.12L132.608 156.27L132.598 156.26Z" fill="url(#paint8_linear_2065_7759)"/>
<path d="M158.019 155.94L157.549 163.92H65.9688L66.3688 156.44L158.019 155.94Z" fill="url(#paint9_linear_2065_7759)"/>
<path d="M158.017 155.94C158.017 155.94 141.017 157.42 112.717 157.42C84.4172 157.42 66.3672 156.43 66.3672 156.43L158.017 155.93V155.94Z" fill="url(#paint10_linear_2065_7759)"/>
<path d="M164.87 38.6602H71C71 38.6602 106.08 41.5502 121.25 41.6702C136.42 41.7902 164.88 38.6602 164.88 38.6602H164.87Z" fill="url(#paint11_linear_2065_7759)"/>
<path d="M151.668 103.54L148.928 117.41L141.238 117.47L140.008 103.54H151.668Z" fill="#24242D"/>
<path d="M146.31 115.99C146.42 116.43 144.02 149.51 146.31 151.26C148.6 153 201.93 153.87 205.2 157.46C208.47 161.05 208.47 168.56 208.47 168.56L205.97 168.78C205.97 168.78 206.84 160.07 203.58 159.09C200.32 158.11 147.09 154.63 144.59 152.34C142.09 150.05 143.61 115.33 143.61 115.33L146.33 115.98L146.31 115.99Z" fill="#24242D"/>
<path style="mix-blend-mode:screen" opacity="0.39" d="M218.37 6.9299L14.6797 5.91992C14.6797 5.91992 69.8997 13.0299 114.6 15.3499C159.3 17.6699 218.37 6.9299 218.37 6.9299Z" fill="url(#paint12_linear_2065_7759)"/>
<defs>
<radialGradient id="paint0_radial_2065_7759" cx="0" cy="0" r="1" gradientUnits="userSpaceOnUse" gradientTransform="translate(112.277 -104.24) rotate(180) scale(153.94 153.94)">
<stop offset="0.03" stop-color="#DAD4D4"/>
<stop offset="0.99" stop-color="#919097"/>
</radialGradient>
<linearGradient id="paint1_linear_2065_7759" x1="120.66" y1="-73.6001" x2="109.35" y2="145.47" gradientUnits="userSpaceOnUse">
<stop stop-color="#24242D"/>
<stop offset="1" stop-color="#5B5961"/>
</linearGradient>
<linearGradient id="paint2_linear_2065_7759" x1="106.208" y1="121.16" x2="111.428" y2="181.24" gradientUnits="userSpaceOnUse">
<stop stop-color="#614268"/>
<stop offset="0.99" stop-color="white"/>
</linearGradient>
<linearGradient id="paint3_linear_2065_7759" x1="117.399" y1="84.8702" x2="124.079" y2="166.14" gradientUnits="userSpaceOnUse">
<stop stop-color="#614268"/>
<stop offset="0.99" stop-color="white"/>
</linearGradient>
<linearGradient id="paint4_linear_2065_7759" x1="119.207" y1="38.4702" x2="117.567" y2="90.4401" gradientUnits="userSpaceOnUse">
<stop stop-color="#24242D"/>
<stop offset="1" stop-color="#5B5961"/>
</linearGradient>
<linearGradient id="paint5_linear_2065_7759" x1="145.347" y1="95.7996" x2="204.567" y2="122.79" gradientUnits="userSpaceOnUse">
<stop stop-color="#614268"/>
<stop offset="0.99" stop-color="white"/>
</linearGradient>
<linearGradient id="paint6_linear_2065_7759" x1="168.898" y1="109.42" x2="79.0875" y2="108.33" gradientUnits="userSpaceOnUse">
<stop stop-color="#24242D"/>
<stop offset="1" stop-color="#5B5961"/>
</linearGradient>
<linearGradient id="paint7_linear_2065_7759" x1="113.559" y1="58.4802" x2="133.609" y2="223.74" gradientUnits="userSpaceOnUse">
<stop stop-color="#24242D"/>
<stop offset="1" stop-color="#5B5961"/>
</linearGradient>
<linearGradient id="paint8_linear_2065_7759" x1="119.518" y1="103.59" x2="117.338" y2="147.85" gradientUnits="userSpaceOnUse">
<stop stop-color="#614268"/>
<stop offset="0.99" stop-color="white"/>
</linearGradient>
<linearGradient id="paint9_linear_2065_7759" x1="158.019" y1="159.93" x2="65.9688" y2="159.93" gradientUnits="userSpaceOnUse">
<stop stop-color="#24242D"/>
<stop offset="1" stop-color="#5B5961"/>
</linearGradient>
<linearGradient id="paint10_linear_2065_7759" x1="113.217" y1="170.51" x2="112.417" y2="159.37" gradientUnits="userSpaceOnUse">
<stop stop-color="#24242D"/>
<stop offset="1" stop-color="#5B5961"/>
</linearGradient>
<linearGradient id="paint11_linear_2065_7759" x1="117.94" y1="78.6603" x2="117.94" y2="42.2602" gradientUnits="userSpaceOnUse">
<stop stop-color="#24242D"/>
<stop offset="1" stop-color="#5B5961"/>
</linearGradient>
<linearGradient id="paint12_linear_2065_7759" x1="116.53" y1="18.6799" x2="116.53" y2="-13.1301" gradientUnits="userSpaceOnUse">
<stop/>
<stop offset="1" stop-color="#F0E9F9"/>
</linearGradient>
</defs>
</svg>
