<svg width="110" height="40" viewBox="0 0 110 40" fill="none" xmlns="http://www.w3.org/2000/svg">
<g clip-path="url(#clip0_1438_432)">
<path d="M62.2831 30.2446V23.1985C62.2831 22.5037 62.2706 21.9174 62.2453 21.4401C62.2199 20.9627 62.1438 20.5737 62.0174 20.2721C61.891 19.9705 61.6945 19.7508 61.4288 19.6126C61.163 19.4744 60.7894 19.4053 60.3083 19.4053C59.9706 19.4053 59.6375 19.4785 59.3082 19.625C58.9788 19.7714 58.6204 19.9788 58.232 20.2465V30.2446H53.7762V23.1985C53.7762 22.512 53.7614 21.928 53.7319 21.4465C53.7024 20.965 53.6244 20.5737 53.4976 20.2721C53.3711 19.9705 53.1747 19.7508 52.9089 19.6126C52.6432 19.4744 52.2738 19.4053 51.8013 19.4053C51.4383 19.4053 51.084 19.489 50.738 19.6565C50.392 19.824 50.0544 20.0208 49.7254 20.2469V30.2446H45.2946V16.1401H49.7254V17.6976C50.4511 17.0865 51.1347 16.6092 51.776 16.2659C52.4172 15.9226 53.1387 15.751 53.9409 15.751C54.81 15.751 55.5739 15.9564 56.2322 16.3665C56.8904 16.777 57.3924 17.3881 57.7384 18.2001C58.5908 17.4132 59.3945 16.8082 60.15 16.3853C60.9052 15.9624 61.671 15.751 62.4478 15.751C63.1061 15.751 63.6966 15.8558 64.2201 16.065C64.7433 16.2745 65.1865 16.5885 65.5492 17.0069C65.9459 17.4591 66.2434 17.9973 66.4418 18.6207C66.6401 19.2445 66.7393 20.0588 66.7393 21.0634V30.2446H62.2831Z" fill="#274470"/>
<path d="M84.1302 17.4462C84.1302 18.3171 83.9909 19.146 83.7123 19.9328C83.4337 20.72 83.0328 21.3772 82.5097 21.9045C82.1887 22.2309 81.8366 22.5325 81.4528 22.8089C81.0686 23.0853 80.6446 23.3197 80.1805 23.5124C79.7164 23.705 79.2122 23.8556 78.6679 23.9645C78.1235 24.0735 77.5137 24.1279 76.8387 24.1279H74.3574V30.2444H69.623V11.543H76.9398C78.0285 11.543 78.9673 11.6414 79.7565 11.8382C80.5454 12.035 81.2609 12.3467 81.9021 12.7737C82.6111 13.2428 83.1596 13.8685 83.5476 14.6516C83.936 15.4346 84.1302 16.366 84.1302 17.4462ZM79.269 17.5592C79.269 17.0315 79.1425 16.5775 78.8893 16.1966C78.6361 15.8158 78.3325 15.554 77.9778 15.4117C77.5303 15.219 77.1022 15.1082 76.693 15.079C76.2834 15.0497 75.7289 15.035 75.0282 15.035H74.3574V20.6366H74.6864C75.1334 20.6366 75.5555 20.6325 75.9522 20.6242C76.3489 20.616 76.6949 20.5867 76.9902 20.5363C77.2434 20.4947 77.511 20.4128 77.7942 20.2915C78.077 20.1702 78.2942 20.0338 78.446 19.8832C78.7667 19.5734 78.9839 19.2512 79.0979 18.9161C79.2122 18.5808 79.269 18.1286 79.269 17.5592Z" fill="#274470"/>
<path d="M95.3055 20.2973H94.9383C94.7694 20.2388 94.5245 20.1948 94.2039 20.1655C93.8829 20.1362 93.5286 20.1216 93.1406 20.1216C92.6765 20.1216 92.1889 20.1888 91.6783 20.3225C91.1676 20.4566 90.6718 20.6158 90.191 20.7999V30.2447H85.7602V16.1402H90.191V18.1622C90.3935 17.9782 90.674 17.7457 91.0329 17.4652C91.3914 17.1846 91.7184 16.9608 92.0141 16.7933C92.3347 16.6006 92.7083 16.4354 93.1345 16.2972C93.5608 16.1589 93.9635 16.0898 94.3436 16.0898C94.4871 16.0898 94.6476 16.0944 94.8247 16.1022C95.0019 16.1105 95.162 16.1233 95.3058 16.1398V20.2973H95.3055Z" fill="#274470"/>
<path d="M110 23.1985C110 25.5181 109.361 27.3456 108.082 28.6807C106.804 30.0163 104.996 30.684 102.658 30.684C100.337 30.684 98.5329 30.0163 97.2462 28.6807C95.9592 27.3452 95.3157 25.5181 95.3157 23.1985C95.3157 20.8542 95.9592 19.0185 97.2462 17.6912C98.5333 16.3643 100.337 15.7007 102.658 15.7007C104.987 15.7007 106.793 16.3684 108.076 17.704C109.358 19.0395 110 20.8708 110 23.1985ZM105.455 23.2237C105.455 22.3866 105.386 21.6895 105.246 21.1325C105.107 20.5759 104.915 20.1298 104.67 19.7948C104.409 19.4432 104.113 19.1984 103.784 19.0602C103.455 18.9219 103.079 18.8528 102.657 18.8528C102.261 18.8528 101.902 18.9137 101.581 19.035C101.261 19.1563 100.965 19.3888 100.695 19.732C100.442 20.0584 100.239 20.5065 100.088 21.0758C99.9358 21.6452 99.8597 22.3614 99.8597 23.2233C99.8597 24.0856 99.9312 24.7831 100.075 25.3145C100.219 25.8463 100.404 26.2711 100.632 26.5892C100.868 26.9156 101.164 27.1544 101.518 27.305C101.872 27.4556 102.265 27.5311 102.695 27.5311C103.05 27.5311 103.41 27.4556 103.778 27.305C104.145 27.1544 104.438 26.9283 104.657 26.6267C104.919 26.2669 105.117 25.8335 105.252 25.3269C105.388 24.821 105.455 24.1198 105.455 23.2237Z" fill="#274470"/>
<path d="M41.4948 38.9649H40.6238V37.1941L40.0465 38.3697H39.6718L39.0945 37.1941V38.9649H38.2488V36.144H39.2134L39.8716 37.4503L40.5299 36.144H41.4944V38.9649H41.4948Z" fill="#274470"/>
<path d="M43.4992 39.0404C42.9624 39.0404 42.5509 38.9131 42.2648 38.6585C41.9786 38.4038 41.8355 38.0414 41.8355 37.5708C41.8355 37.1104 41.9688 36.7427 42.2356 36.4682C42.5021 36.1936 42.8754 36.0562 43.3546 36.0562C43.7899 36.0562 44.1173 36.1726 44.3369 36.4054C44.5565 36.6383 44.6659 36.9714 44.6659 37.4052V37.7218H42.7239C42.7323 37.8525 42.7603 37.9618 42.8076 38.0497C42.8549 38.1376 42.9174 38.2074 42.995 38.2592C43.0711 38.3111 43.1596 38.3483 43.2607 38.3712C43.3622 38.3937 43.4727 38.405 43.5923 38.405C43.6953 38.405 43.7963 38.3937 43.8963 38.3712C43.9958 38.3486 44.0871 38.319 44.1696 38.2818C44.2423 38.2499 44.3093 38.2157 44.371 38.1789C44.4327 38.1421 44.4826 38.1094 44.5216 38.0808H44.6151V38.8068C44.5424 38.8354 44.4762 38.8617 44.4164 38.8861C44.3566 38.9105 44.2741 38.9349 44.1696 38.9601C44.0734 38.9852 43.9743 39.0047 43.8721 39.019C43.7706 39.0333 43.6461 39.0404 43.4992 39.0404ZM43.7929 37.1919C43.788 37.006 43.7445 36.8644 43.6627 36.7675C43.581 36.6702 43.4557 36.6218 43.2868 36.6218C43.1146 36.6218 42.9802 36.6728 42.8829 36.775C42.786 36.8771 42.7323 37.0161 42.722 37.1919H43.7929Z" fill="#274470"/>
<path d="M47.8967 39.6635H47.1093V38.9552H45.4638V39.6635H44.6765V38.3321H44.8816C45.0099 38.0677 45.1125 37.7443 45.1894 37.3624C45.2662 36.9804 45.3044 36.5744 45.3044 36.144H47.6158V38.3317H47.8967V39.6635ZM46.7346 38.3321V36.7645H46.1092C46.0805 37.0777 46.032 37.3676 45.9635 37.6347C45.895 37.9017 45.8128 38.1342 45.7167 38.3317H46.7346V38.3321Z" fill="#274470"/>
<path d="M50.919 38.9649H50.0479V37.252L48.9593 38.9649H48.2173V36.144H49.0883V37.6764L50.0858 36.144H50.9186V38.9649H50.919Z" fill="#274470"/>
<path d="M54.4174 39.6631H53.6301V38.9649H51.4678V36.144H52.354V38.3445H53.2504V36.144H54.1365V38.3445H54.4174V39.6631Z" fill="#274470"/>
<path d="M57.4401 38.9649H56.5691V37.252L55.4804 38.9649H54.7384V36.144H55.6095V37.6764L56.6069 36.144H57.4397V38.9649H57.4401Z" fill="#274470"/>
<path d="M60.6777 38.9649H59.7916V37.7567H58.8751V38.9649H57.989V36.144H58.8751V37.1213H59.7916V36.144H60.6777V38.9649Z" fill="#274470"/>
<path d="M62.7938 38.6659C62.7328 38.7162 62.6787 38.7613 62.6306 38.8015C62.5826 38.8417 62.5178 38.8819 62.4368 38.922C62.3573 38.9607 62.2801 38.99 62.2052 39.0099C62.1302 39.0302 62.025 39.04 61.8898 39.04C61.6385 39.04 61.4295 38.9562 61.2633 38.7887C61.0972 38.6212 61.0139 38.4101 61.0139 38.1559C61.0139 37.9467 61.0559 37.7773 61.1403 37.6485C61.2247 37.5197 61.3462 37.4175 61.5049 37.342C61.6654 37.265 61.8569 37.2113 62.0795 37.1813C62.3021 37.1512 62.5421 37.1276 62.7987 37.1111V37.096C62.7987 36.9402 62.7408 36.8328 62.6253 36.7734C62.5099 36.7141 62.3361 36.6844 62.1052 36.6844C62.0004 36.6844 61.8781 36.7032 61.738 36.7407C61.598 36.7783 61.4613 36.8267 61.3281 36.8853H61.252V36.2044C61.3398 36.1793 61.4814 36.1496 61.6775 36.1154C61.8732 36.0812 62.0708 36.064 62.2699 36.064C62.7593 36.064 63.1159 36.1447 63.3396 36.3062C63.5634 36.4677 63.675 36.7144 63.675 37.0461V38.9652H62.7938V38.6659ZM62.7938 38.2287V37.641C62.6435 37.656 62.522 37.6691 62.4292 37.68C62.3365 37.6909 62.2453 37.7123 62.1559 37.7443C62.0783 37.7709 62.0178 37.8115 61.975 37.8659C61.9318 37.9204 61.9103 37.9929 61.9103 38.0834C61.9103 38.2156 61.9462 38.3065 62.0178 38.3561C62.0893 38.4056 62.1953 38.4301 62.3354 38.4301C62.413 38.4301 62.4925 38.4124 62.5735 38.3775C62.6545 38.3418 62.7279 38.2926 62.7938 38.2287Z" fill="#274470"/>
<path d="M68.2637 38.9649H67.3775V36.7671H66.4762V38.9649H65.5901V36.144H68.2637V38.9649Z" fill="#274470"/>
<path d="M71.6001 37.5157C71.6001 37.9664 71.4851 38.3296 71.2545 38.606C71.024 38.8824 70.7401 39.0206 70.4024 39.0206C70.2605 39.0206 70.1375 39.0049 70.033 38.9729C69.9281 38.941 69.8168 38.8918 69.6987 38.8246V40.0001H68.8126V36.1441H69.6987V36.4382C69.8286 36.3278 69.9611 36.238 70.0962 36.1693C70.2313 36.1006 70.3873 36.0664 70.5644 36.0664C70.8938 36.0664 71.1485 36.1964 71.3291 36.4559C71.51 36.715 71.6001 37.0684 71.6001 37.5157ZM70.6939 37.533C70.6939 37.2585 70.6511 37.059 70.566 36.9351C70.4808 36.8112 70.3479 36.7492 70.1674 36.7492C70.0879 36.7492 70.0091 36.7616 69.9308 36.7867C69.8524 36.8119 69.7752 36.8495 69.6991 36.8998V38.3191C69.7464 38.339 69.7983 38.3532 69.8547 38.3619C69.9111 38.3701 69.9785 38.3743 70.0561 38.3743C70.2722 38.3743 70.4323 38.3044 70.5372 38.1647C70.6417 38.025 70.6939 37.8143 70.6939 37.533Z" fill="#274470"/>
<path d="M74.6758 37.5558C74.6758 38.0196 74.5478 38.3851 74.2923 38.6521C74.0364 38.9191 73.6749 39.0528 73.2074 39.0528C72.7433 39.0528 72.3826 38.9195 72.1252 38.6521C71.8677 38.3851 71.739 38.0196 71.739 37.5558C71.739 37.0871 71.8677 36.7198 72.1252 36.4543C72.3826 36.1887 72.7433 36.0562 73.2074 36.0562C73.6734 36.0562 74.0345 36.1899 74.2912 36.4569C74.5474 36.7239 74.6758 37.0901 74.6758 37.5558ZM73.7669 37.5607C73.7669 37.3932 73.7529 37.2538 73.7252 37.1423C73.6972 37.0311 73.659 36.9417 73.6102 36.8749C73.5579 36.8047 73.4989 36.7555 73.433 36.728C73.3671 36.7003 73.2922 36.6867 73.2078 36.6867C73.1283 36.6867 73.0567 36.6988 72.9924 36.7232C72.928 36.7476 72.8694 36.7938 72.8152 36.8625C72.7645 36.9278 72.724 37.0176 72.6937 37.1314C72.6634 37.2452 72.6483 37.3883 72.6483 37.5611C72.6483 37.7334 72.6627 37.8728 72.6915 37.9794C72.7202 38.0857 72.7573 38.1706 72.8027 38.2345C72.8501 38.2998 72.9091 38.3475 72.9799 38.3775C73.0507 38.4076 73.1294 38.4226 73.2154 38.4226C73.2861 38.4226 73.3584 38.4076 73.4319 38.3775C73.5053 38.3475 73.564 38.3021 73.6079 38.242C73.6601 38.1699 73.6999 38.0835 73.7268 37.9821C73.7533 37.8803 73.7669 37.7398 73.7669 37.5607Z" fill="#274470"/>
<path d="M79.1441 37.4906C79.1441 37.9627 79.0354 38.333 78.8189 38.6008C78.602 38.8686 78.3128 39.0026 77.9517 39.0026C77.8233 39.0026 77.7166 38.9869 77.6314 38.9549C77.5462 38.923 77.4747 38.8922 77.4175 38.8622V40.0001H76.5416V38.8595C76.4655 38.9046 76.3837 38.9399 76.2959 38.9651C76.2081 38.9902 76.0968 39.0026 75.9617 39.0026C75.6021 39.0026 75.3212 38.8768 75.1187 38.6244C74.9161 38.3724 74.8147 38.022 74.8147 37.5732C74.8147 37.1263 74.9249 36.7676 75.1452 36.498C75.3655 36.2283 75.6486 36.0935 75.9946 36.0935C76.1244 36.0935 76.2331 36.1089 76.3198 36.14C76.4068 36.1712 76.4807 36.205 76.5412 36.2418V35.0562H77.4172V36.2392C77.4845 36.2039 77.5716 36.1708 77.678 36.14C77.7843 36.1093 77.8998 36.0935 78.0247 36.0935C78.3858 36.0935 78.6626 36.2148 78.8552 36.4578C79.0479 36.7008 79.1441 37.0452 79.1441 37.4906ZM76.5412 38.3469V36.7518C76.5109 36.7451 76.4754 36.7402 76.4348 36.7368C76.3943 36.7334 76.3588 36.7319 76.3285 36.7319C76.1157 36.7319 75.959 36.8007 75.8576 36.9378C75.7561 37.0752 75.7058 37.2829 75.7058 37.5608C75.7058 37.8387 75.7569 38.0427 75.8591 38.1726C75.9613 38.3026 76.1195 38.3672 76.3338 38.3672C76.3641 38.3672 76.4 38.3649 76.4413 38.3608C76.4825 38.3567 76.5159 38.3521 76.5412 38.3469ZM78.2526 37.5383C78.2526 37.2604 78.2023 37.0564 78.1019 36.9265C78.0016 36.7965 77.8442 36.7319 77.6299 36.7319C77.5894 36.7319 77.5527 36.7334 77.5197 36.7368C77.4868 36.7402 77.4527 36.7462 77.4172 36.7545V38.3469C77.4527 38.3536 77.4868 38.3585 77.5197 38.3619C77.5527 38.3653 77.5875 38.3668 77.625 38.3668C77.8377 38.3668 77.9956 38.2981 78.0985 38.161C78.2011 38.0239 78.2526 37.8162 78.2526 37.5383Z" fill="#274470"/>
<path d="M80.9459 39.0404C80.4091 39.0404 79.9977 38.9131 79.7115 38.6585C79.4253 38.4038 79.2822 38.0414 79.2822 37.5708C79.2822 37.1104 79.4155 36.7427 79.6823 36.4682C79.9488 36.1936 80.3221 36.0562 80.8013 36.0562C81.2366 36.0562 81.5641 36.1726 81.7836 36.4054C82.0032 36.6383 82.1126 36.9714 82.1126 37.4052V37.7218H80.1707C80.179 37.8525 80.207 37.9618 80.2543 38.0497C80.3016 38.1376 80.3641 38.2074 80.4417 38.2592C80.5178 38.3111 80.6064 38.3483 80.7074 38.3712C80.8089 38.3937 80.9194 38.405 81.039 38.405C81.142 38.405 81.2431 38.3937 81.343 38.3712C81.4426 38.3486 81.5338 38.319 81.6163 38.2818C81.689 38.2499 81.756 38.2157 81.8177 38.1789C81.8794 38.1421 81.9294 38.1094 81.9683 38.0808H82.0622V38.8068C81.9896 38.8354 81.9233 38.8617 81.8635 38.8861C81.8037 38.9105 81.7212 38.9349 81.6167 38.9601C81.5205 38.9852 81.4214 39.0047 81.3192 39.019C81.2173 39.0333 81.0928 39.0404 80.9459 39.0404ZM81.2397 37.1919C81.2347 37.006 81.1912 36.8644 81.1094 36.7675C81.0277 36.6702 80.9024 36.6218 80.7336 36.6218C80.5613 36.6218 80.4269 36.6728 80.3297 36.775C80.2327 36.8771 80.179 37.0161 80.1688 37.1919H81.2397Z" fill="#274470"/>
<path d="M83.8342 39.0402C83.5995 39.0402 83.3848 39.0109 83.1899 38.9523C82.9949 38.8937 82.8257 38.8032 82.6823 38.6811C82.5403 38.5591 82.4298 38.4051 82.3507 38.2203C82.2712 38.0351 82.2318 37.8173 82.2318 37.5661C82.2318 37.2964 82.275 37.0669 82.3609 36.8776C82.4468 36.6883 82.5634 36.5329 82.7103 36.4104C82.8522 36.2932 83.0188 36.2065 83.2103 36.1505C83.4019 36.0946 83.6014 36.0664 83.8092 36.0664C83.9663 36.0664 84.123 36.0844 84.2801 36.1205C84.4372 36.1565 84.595 36.214 84.7536 36.2925V37.0463H84.6397C84.6041 37.0128 84.561 36.976 84.5095 36.9358C84.458 36.8957 84.402 36.8589 84.341 36.8254C84.2767 36.7901 84.2044 36.7605 84.1234 36.7364C84.0424 36.712 83.9519 36.7 83.8523 36.7C83.626 36.7 83.4511 36.7781 83.3269 36.9347C83.2028 37.0913 83.1407 37.302 83.1407 37.5664C83.1407 37.8496 83.2069 38.0603 83.3394 38.1993C83.4719 38.3382 83.6479 38.4077 83.8675 38.4077C83.9788 38.4077 84.0768 38.3953 84.1612 38.3701C84.2456 38.345 84.3183 38.3149 84.3789 38.2796C84.4379 38.2443 84.4887 38.2079 84.5307 38.1703C84.5727 38.1328 84.609 38.0986 84.6397 38.0686H84.7536V38.822C84.7029 38.8437 84.6442 38.8689 84.5776 38.8974C84.511 38.926 84.4429 38.9493 84.374 38.9677C84.288 38.991 84.2074 39.009 84.1321 39.0218C84.0568 39.0342 83.9576 39.0402 83.8342 39.0402Z" fill="#274470"/>
<path d="M86.4389 39.0402C86.2042 39.0402 85.9896 39.0109 85.7946 38.9523C85.5997 38.8937 85.4305 38.8032 85.287 38.6811C85.1451 38.5591 85.0345 38.4051 84.9554 38.2203C84.8759 38.0351 84.8365 37.8173 84.8365 37.5661C84.8365 37.2964 84.8797 37.0669 84.9656 36.8776C85.0516 36.6883 85.1682 36.5329 85.315 36.4104C85.457 36.2932 85.6235 36.2065 85.8151 36.1505C86.0066 36.0946 86.2061 36.0664 86.4139 36.0664C86.571 36.0664 86.7277 36.0844 86.8848 36.1205C87.0419 36.1565 87.1998 36.214 87.3584 36.2925V37.0463H87.2444C87.2089 37.0128 87.1657 36.976 87.1142 36.9358C87.0627 36.8957 87.0067 36.8589 86.9458 36.8254C86.8814 36.7901 86.8091 36.7605 86.7281 36.7364C86.6471 36.712 86.5566 36.7 86.4571 36.7C86.2307 36.7 86.0558 36.7781 85.9317 36.9347C85.8075 37.0913 85.7454 37.302 85.7454 37.5664C85.7454 37.8496 85.8117 38.0603 85.9442 38.1993C86.0766 38.3382 86.2527 38.4077 86.4722 38.4077C86.5835 38.4077 86.6816 38.3953 86.766 38.3701C86.8504 38.345 86.9231 38.3149 86.9836 38.2796C87.0427 38.2443 87.0934 38.2079 87.1354 38.1703C87.1774 38.1328 87.2138 38.0986 87.2444 38.0686H87.3584V38.822C87.3077 38.8437 87.249 38.8689 87.1824 38.8974C87.1157 38.926 87.0476 38.9493 86.9787 38.9677C86.8928 38.991 86.8122 39.009 86.7368 39.0218C86.6615 39.0342 86.5623 39.0402 86.4389 39.0402Z" fill="#274470"/>
<path d="M90.35 38.9649H89.479V37.252L88.3903 38.9649H87.6483V36.144H88.5194V37.6764L89.5168 36.144H90.3496V38.9649H90.35Z" fill="#274470"/>
<path d="M93.6285 37.5558C93.6285 38.0196 93.5006 38.3851 93.2451 38.6521C92.9892 38.9191 92.6277 39.0528 92.1602 39.0528C91.6961 39.0528 91.3353 38.9195 91.0779 38.6521C90.8205 38.3851 90.6918 38.0196 90.6918 37.5558C90.6918 37.0871 90.8205 36.7198 91.0779 36.4543C91.3353 36.1887 91.6961 36.0562 92.1602 36.0562C92.6261 36.0562 92.9873 36.1899 93.2439 36.4569C93.5002 36.7239 93.6285 37.0901 93.6285 37.5558ZM92.7193 37.5607C92.7193 37.3932 92.7053 37.2538 92.6776 37.1423C92.6496 37.0311 92.6114 36.9417 92.5625 36.8749C92.5103 36.8047 92.4513 36.7555 92.3854 36.728C92.3195 36.7003 92.2446 36.6867 92.1602 36.6867C92.0807 36.6867 92.0091 36.6988 91.9448 36.7232C91.8804 36.7476 91.8217 36.7938 91.7676 36.8625C91.7169 36.9278 91.6764 37.0176 91.6461 37.1314C91.6158 37.2452 91.6007 37.3883 91.6007 37.5611C91.6007 37.7334 91.6151 37.8728 91.6438 37.9794C91.6726 38.0857 91.7097 38.1706 91.7551 38.2345C91.8024 38.2998 91.8615 38.3475 91.9323 38.3775C92.0031 38.4076 92.0818 38.4226 92.1677 38.4226C92.2385 38.4226 92.3108 38.4076 92.3843 38.3775C92.4577 38.3475 92.5164 38.3021 92.5603 38.242C92.6125 38.1699 92.6523 38.0835 92.6791 37.9821C92.706 37.8803 92.7193 37.7398 92.7193 37.5607Z" fill="#274470"/>
<path d="M96.6583 38.9649H95.7722V37.7567H94.8557V38.9649H93.9696V36.144H94.8557V37.1213H95.7722V36.144H96.6583V38.9649Z" fill="#274470"/>
<path d="M98.7744 38.6659C98.7135 38.7162 98.6593 38.7613 98.6113 38.8015C98.5632 38.8417 98.4984 38.8819 98.4174 38.922C98.3379 38.9607 98.2607 38.99 98.1858 39.0099C98.1108 39.0302 98.0056 39.04 97.8704 39.04C97.6191 39.04 97.4101 38.9562 97.244 38.7887C97.0778 38.6212 96.9945 38.4101 96.9945 38.1559C96.9945 37.9467 97.0365 37.7773 97.1209 37.6485C97.2053 37.5197 97.3269 37.4175 97.4855 37.342C97.646 37.265 97.8375 37.2113 98.0601 37.1813C98.2827 37.1512 98.5227 37.1276 98.7793 37.1111V37.096C98.7793 36.9402 98.7214 36.8328 98.6059 36.7734C98.4905 36.7141 98.3167 36.6844 98.0858 36.6844C97.981 36.6844 97.8587 36.7032 97.7186 36.7407C97.5786 36.7783 97.4419 36.8267 97.3087 36.8853H97.2326V36.2044C97.3204 36.1793 97.462 36.1496 97.6581 36.1154C97.8538 36.0812 98.0514 36.064 98.2505 36.064C98.74 36.064 99.0965 36.1447 99.3203 36.3062C99.544 36.4677 99.6556 36.7144 99.6556 37.0461V38.9652H98.7744V38.6659ZM98.7744 38.2287V37.641C98.6241 37.656 98.5026 37.6691 98.4099 37.68C98.3171 37.6909 98.2259 37.7123 98.1366 37.7443C98.059 37.7709 97.9984 37.8115 97.9556 37.8659C97.9125 37.9204 97.8909 37.9929 97.8909 38.0834C97.8909 38.2156 97.9269 38.3065 97.9984 38.3561C98.0699 38.4056 98.1759 38.4301 98.316 38.4301C98.3936 38.4301 98.4731 38.4124 98.5541 38.3775C98.6351 38.3418 98.7085 38.2926 98.7744 38.2287Z" fill="#274470"/>
<path d="M102.893 38.9652H102.007V36.7647H101.311C101.306 36.8853 101.302 36.9825 101.3 37.0562C101.297 37.1298 101.294 37.2128 101.291 37.3048C101.279 37.5744 101.256 37.7941 101.222 37.9643C101.189 38.1344 101.146 38.2737 101.093 38.3827C101.043 38.4916 100.991 38.5765 100.938 38.6377C100.885 38.6989 100.827 38.7564 100.764 38.8097C100.705 38.86 100.622 38.9013 100.514 38.934C100.406 38.9667 100.307 38.9828 100.217 38.9828C100.141 38.9828 100.066 38.9798 99.9907 38.9742C99.9153 38.9682 99.8703 38.9655 99.8551 38.9655V38.252H99.8805C99.8873 38.252 99.8987 38.2527 99.9146 38.2546C99.9305 38.2561 99.9464 38.2572 99.9615 38.2572C100.002 38.2572 100.044 38.2527 100.088 38.2433C100.132 38.2339 100.168 38.2152 100.197 38.187C100.314 38.0698 100.388 37.9132 100.421 37.7172C100.454 37.5211 100.476 37.3018 100.488 37.0592C100.495 36.927 100.502 36.779 100.508 36.616C100.515 36.4526 100.52 36.2956 100.523 36.145H102.893V38.9652H102.893Z" fill="#274470"/>
<path d="M106.171 37.5558C106.171 38.0196 106.044 38.3851 105.788 38.6521C105.532 38.9191 105.171 39.0528 104.703 39.0528C104.239 39.0528 103.878 38.9195 103.621 38.6521C103.363 38.3851 103.235 38.0196 103.235 37.5558C103.235 37.0871 103.363 36.7198 103.621 36.4543C103.878 36.1887 104.239 36.0562 104.703 36.0562C105.169 36.0562 105.53 36.1899 105.787 36.4569C106.043 36.7239 106.171 37.0901 106.171 37.5558ZM105.263 37.5607C105.263 37.3932 105.249 37.2538 105.221 37.1423C105.193 37.0311 105.155 36.9417 105.106 36.8749C105.054 36.8047 104.995 36.7555 104.929 36.728C104.863 36.7003 104.788 36.6867 104.703 36.6867C104.624 36.6867 104.552 36.6988 104.488 36.7232C104.424 36.7476 104.365 36.7938 104.311 36.8625C104.26 36.9278 104.22 37.0176 104.189 37.1314C104.159 37.2452 104.144 37.3883 104.144 37.5611C104.144 37.7334 104.158 37.8728 104.187 37.9794C104.216 38.0857 104.253 38.1706 104.298 38.2345C104.346 38.2998 104.405 38.3475 104.476 38.3775C104.546 38.4076 104.625 38.4226 104.711 38.4226C104.782 38.4226 104.854 38.4076 104.928 38.3775C105.001 38.3475 105.06 38.3021 105.104 38.242C105.156 38.1699 105.196 38.0835 105.222 37.9821C105.249 37.8803 105.263 37.7398 105.263 37.5607Z" fill="#274470"/>
<path d="M109.186 38.1135C109.186 38.2491 109.159 38.3697 109.105 38.4752C109.051 38.5807 108.979 38.6686 108.887 38.7388C108.773 38.8275 108.652 38.8876 108.524 38.9184C108.396 38.9495 108.245 38.9649 108.07 38.9649H106.513V36.144H107.996C108.204 36.144 108.357 36.1508 108.455 36.1643C108.552 36.1778 108.649 36.2105 108.744 36.2623C108.843 36.3161 108.917 36.387 108.967 36.4757C109.015 36.5643 109.04 36.6698 109.04 36.7923C109.04 36.9331 109.002 37.0552 108.926 37.1588C108.85 37.2625 108.755 37.3421 108.64 37.3973V37.4251C108.797 37.4638 108.927 37.5412 109.031 37.6576C109.134 37.774 109.186 37.9261 109.186 38.1135ZM108.156 36.9958C108.156 36.8869 108.124 36.8118 108.061 36.7697C107.998 36.7281 107.896 36.707 107.758 36.707H107.391V37.2696H107.773C107.896 37.2696 107.991 37.2452 108.057 37.1968C108.123 37.1483 108.156 37.0815 108.156 36.9958ZM108.282 38.0861C108.282 37.9641 108.247 37.878 108.178 37.8285C108.109 37.7793 108.006 37.7545 107.87 37.7545H107.391V38.4001H107.885C108.01 38.4001 108.107 38.3719 108.177 38.316C108.247 38.26 108.282 38.1834 108.282 38.0861Z" fill="#274470"/>
<path d="M37.4906 11.0762L28.7475 16.0844C29.2415 17.2637 29.5144 18.5568 29.5144 19.9133C29.5144 21.2699 29.2415 22.563 28.7475 23.7422C28.4098 24.5482 27.9688 25.3009 27.4408 25.9836C26.9025 26.6799 26.2734 27.3041 25.5715 27.8382C24.8834 28.3621 24.1248 28.7997 23.3124 29.1347C22.5084 29.4663 21.6514 29.6976 20.758 29.8122C20.331 29.8674 19.8953 29.8956 19.4532 29.8956C19.0111 29.8956 18.5754 29.8674 18.1484 29.8122C17.255 29.6976 16.398 29.4663 15.594 29.1347C14.7816 28.7997 14.023 28.3621 13.3348 27.8382C12.633 27.3041 12.0039 26.6799 11.4656 25.9836L2.72247 30.9915C4.19348 33.1743 6.08732 35.0533 8.28739 36.5127C9.00889 36.9916 9.76294 37.425 10.5461 37.8092C12.8628 38.9468 15.4323 39.654 18.1484 39.8267C18.5795 39.8542 19.0148 39.8681 19.4532 39.8681C19.8915 39.8681 20.3269 39.8542 20.758 39.8267C23.474 39.654 26.0436 38.9468 28.3602 37.8092C29.1434 37.425 29.8975 36.9916 30.619 36.5127C32.8191 35.0533 34.7129 33.1743 36.1839 30.9915C36.6666 30.2756 37.1034 29.5275 37.4906 28.7505C38.8193 26.0869 39.5658 23.0865 39.5658 19.9133C39.5658 16.7401 38.8193 13.7397 37.4906 11.0762Z" fill="#274470"/>
<path d="M20.758 0V10.0146C21.6514 10.1291 22.5084 10.3605 23.3124 10.6921L28.3602 2.01756C26.0436 0.879959 23.474 0.172762 20.758 0Z" fill="#274470"/>
<path d="M8.28739 3.31396C6.08732 4.77343 4.19348 6.6524 2.72247 8.83521L11.4656 13.843C12.0039 13.1467 12.633 12.5225 13.3348 11.9885L8.28739 3.31396Z" fill="#008CCA"/>
<path d="M0 14.827L9.72205 17.3692C9.83864 16.9283 9.98476 16.4994 10.1589 16.0844L1.41574 11.0762C0.822947 12.2641 0.346364 13.5192 0 14.827Z" fill="#22AAE2"/>
<path d="M10.5461 2.01756L15.594 10.6921C16.398 10.3605 17.255 10.1291 18.1484 10.0146V0C15.4323 0.172762 12.8628 0.879959 10.5461 2.01756Z" fill="#0072A4"/>
<path d="M30.619 3.31396L25.5715 11.9885C26.2733 12.5225 26.9025 13.1467 27.4408 13.843L36.1839 8.83521C34.7129 6.6524 32.8191 4.77343 30.619 3.31396Z" fill="#274470"/>
<path d="M19.4532 27.6507C23.7486 27.6507 27.2307 24.1959 27.2307 19.9342C27.2307 15.6725 23.7486 12.2178 19.4532 12.2178C15.1578 12.2178 11.6757 15.6725 11.6757 19.9342C11.6757 24.1959 15.1578 27.6507 19.4532 27.6507Z" fill="#DC0C15"/>
</g>
<defs>
<clipPath id="clip0_1438_432">
<rect width="110" height="40" fill="white"/>
</clipPath>
</defs>
</svg>
