<svg width="36" height="35" viewBox="0 0 36 35" fill="none" xmlns="http://www.w3.org/2000/svg">
<path fill-rule="evenodd" clip-rule="evenodd" d="M7.59375 25.092C7.59375 22.2949 13.9516 20.0293 21.7967 20.0293C29.6417 20.0293 36.0017 22.2948 36.0017 25.092V29.7433C36.0017 32.5404 29.6417 34.806 21.7967 34.806C13.9516 34.806 7.59375 32.5405 7.59375 29.7433V25.092Z" fill="#FE9923"/>
<path fill-rule="evenodd" clip-rule="evenodd" d="M21.7967 20.0293C29.6417 20.0293 36.0017 22.2948 36.0017 25.092C36.0017 27.887 29.6417 30.1547 21.7967 30.1547C13.9516 30.1547 7.59375 27.8871 7.59375 25.092C7.59375 22.2949 13.9516 20.0293 21.7967 20.0293Z" fill="#FECD3D"/>
<path fill-rule="evenodd" clip-rule="evenodd" d="M21.7966 20.0293C24.1845 20.0293 26.4353 20.2382 28.4097 20.6094V20.9448C28.4097 23.7419 22.0498 26.0075 14.2068 26.0075C11.8316 26.0075 9.59347 25.8008 7.62537 25.4337C7.60439 25.321 7.5938 25.2066 7.59375 25.092C7.59368 22.2949 13.9515 20.0293 21.7966 20.0293Z" fill="#CEA732"/>
<path fill-rule="evenodd" clip-rule="evenodd" d="M21.7964 22.3945C28.0382 22.3945 33.0967 23.6033 33.0967 25.0925C33.0967 26.5818 28.0382 27.7884 21.7964 27.7884C15.5567 27.7884 10.4961 26.5817 10.4961 25.0925C10.4961 23.6033 15.5566 22.3945 21.7964 22.3945Z" fill="#FEA832"/>
<path fill-rule="evenodd" clip-rule="evenodd" d="M21.7964 22.3945C23.8636 22.3945 25.8022 22.5275 27.4708 22.7595C25.4226 24.66 20.2565 26.008 14.2066 26.008C13.097 26.008 12.0191 25.9637 10.9834 25.8773C10.667 25.6284 10.4961 25.3647 10.4961 25.0926C10.4961 23.6033 15.5566 22.3945 21.7964 22.3945Z" fill="#CE8829"/>
<path d="M32.1573 30.7287V33.2051C32.594 33.0385 33.0011 32.8634 33.3724 32.6757V30.7266L32.1573 30.7287ZM28.9826 34.1101C28.5799 34.1943 28.1755 34.2703 27.7697 34.338V31.9776L28.9826 31.9797V34.1101ZM24.5949 34.7071C24.1963 34.7366 23.7913 34.7577 23.382 34.7746V32.5217L24.5949 32.5259V34.7071ZM20.2073 34.7746C19.7959 34.7577 19.3909 34.7366 18.9923 34.7071V32.5238H20.2073V34.7746ZM15.8175 34.3379C15.4117 34.2702 15.0073 34.1943 14.6046 34.1101V31.9774L15.8175 31.9795V34.3379ZM11.4299 33.2052C10.9932 33.0386 10.5861 32.8635 10.2148 32.6757V30.7287L11.4299 30.7266V33.2052Z" fill="#C85929"/>
<path fill-rule="evenodd" clip-rule="evenodd" d="M0 15.0785C0 12.2814 6.35996 10.0137 14.205 10.0137C22.0479 10.0137 28.408 12.2814 28.408 15.0785V19.7298C28.408 22.5248 22.048 24.7925 14.205 24.7925C6.35996 24.7925 0 22.5248 0 19.7298V15.0785Z" fill="#FE9923"/>
<path fill-rule="evenodd" clip-rule="evenodd" d="M14.205 10.0137C22.0479 10.0137 28.408 12.2814 28.408 15.0785C28.408 17.8735 22.048 20.1411 14.205 20.1411C6.35996 20.1411 0 17.8735 0 15.0785C0 12.2814 6.35996 10.0137 14.205 10.0137Z" fill="#FECD3D"/>
<path fill-rule="evenodd" clip-rule="evenodd" d="M14.2059 10.0137C22.0488 10.0137 28.4088 12.2814 28.4088 15.0785C28.4088 15.3527 28.3476 15.6227 28.2274 15.8864C26.7276 16.0572 25.1286 16.1479 23.4685 16.1479C14.8093 16.1479 7.78906 13.6462 7.78906 10.5601C9.71488 10.2119 11.896 10.0137 14.2059 10.0137Z" fill="#CEA732"/>
<path fill-rule="evenodd" clip-rule="evenodd" d="M14.2026 12.3809C20.4424 12.3809 25.503 13.5896 25.503 15.0788C25.503 16.5681 20.4424 17.7747 14.2026 17.7747C7.96082 17.7747 2.90234 16.5681 2.90234 15.0788C2.90234 13.5896 7.96075 12.3809 14.2026 12.3809Z" fill="#FEA832"/>
<path fill-rule="evenodd" clip-rule="evenodd" d="M14.2047 12.3809C20.4444 12.3809 25.505 13.5896 25.505 15.0788C25.505 15.4522 25.1844 15.8108 24.6043 16.1335C24.2288 16.1441 23.8491 16.1483 23.4673 16.1483C16.9217 16.1483 11.3148 14.7202 8.96484 12.6888C10.5321 12.4926 12.3125 12.3809 14.2047 12.3809Z" fill="#CE8829"/>
<path d="M24.5696 20.715V23.1915C25.0062 23.0248 25.4134 22.8476 25.7846 22.662V20.7129L24.5696 20.715ZM21.3948 24.0964C20.9921 24.1806 20.5877 24.2565 20.1819 24.3242V21.9637L21.3948 21.9659V24.0964ZM17.0051 24.6934C16.6064 24.7229 16.2035 24.744 15.7922 24.7609V22.508L17.0051 22.5101V24.6934ZM12.6174 24.7608C12.2082 24.744 11.8032 24.7228 11.4024 24.6933V22.5101L12.6174 22.508V24.7608ZM8.22769 24.3242C7.82191 24.2563 7.41752 24.1803 7.01476 24.0964V21.9637L8.22769 21.9659V24.3242ZM3.84214 23.1915C3.40338 23.0248 2.99834 22.8476 2.625 22.662V20.715L3.84214 20.7129V23.1915Z" fill="#C85929"/>
<path fill-rule="evenodd" clip-rule="evenodd" d="M7.59375 5.06269C7.59375 2.26769 13.9516 0 21.7967 0C29.6417 0 36.0017 2.26762 36.0017 5.06269V9.71613C36.0017 12.5111 29.6417 14.7788 21.7967 14.7788C13.9516 14.7788 7.59375 12.5112 7.59375 9.71613V5.06269Z" fill="#FE9923"/>
<path fill-rule="evenodd" clip-rule="evenodd" d="M21.7967 0C29.6417 0 36.0017 2.26762 36.0017 5.06269C36.0017 7.85979 29.6417 10.1275 21.7967 10.1275C13.9516 10.1275 7.59375 7.85979 7.59375 5.06269C7.59375 2.26769 13.9516 0 21.7967 0Z" fill="#FECD3D"/>
<path fill-rule="evenodd" clip-rule="evenodd" d="M21.7964 2.36719C28.0382 2.36719 33.0967 3.57381 33.0967 5.06305C33.0967 6.55446 28.0382 7.76101 21.7964 7.76101C15.5567 7.76101 10.4961 6.55439 10.4961 5.06305C10.4961 3.57381 15.5566 2.36719 21.7964 2.36719Z" fill="#FEA832"/>
<path d="M32.1573 10.7013V13.1778C32.594 13.0111 33.0011 12.834 33.3724 12.6483V10.6992L32.1573 10.7013ZM28.9826 14.0827C28.5801 14.1672 28.1756 14.2424 27.7697 14.3084V11.9501L28.9826 11.9522V14.0827ZM24.5949 14.6797C24.1963 14.7071 23.7913 14.7304 23.382 14.7473V12.4944L24.5949 12.4965V14.6797ZM20.2073 14.7473C19.802 14.7303 19.3969 14.7078 18.9923 14.6797V12.4965L20.2073 12.4944V14.7473ZM15.8175 14.3084C15.4116 14.2424 15.0071 14.1672 14.6046 14.0827V11.9501L15.8175 11.9522V14.3084ZM11.4299 13.1778C10.9932 13.0111 10.5861 12.834 10.2148 12.6483V10.7013L11.4299 10.6992V13.1778Z" fill="#C85929"/>
</svg>
