<svg width="28" height="102" viewBox="0 0 28 102" fill="none" xmlns="http://www.w3.org/2000/svg">
<path d="M20.3017 41.8309C19.8617 38.8309 18.4616 36.6909 16.4616 34.8509C16.2016 34.6109 15.9316 34.3809 15.7616 34.0709C15.5916 33.7709 15.5216 33.4309 15.4916 33.0909C15.3116 31.0109 16.5517 29.0609 16.6817 26.9809C16.8017 25.1409 16.0416 23.3709 15.3716 21.6609C13.5416 16.9909 12.2017 12.1309 11.3917 7.18087C11.1317 5.57087 10.8817 3.87089 9.89165 2.57089C9.57165 2.15089 9.12162 1.80088 8.61163 1.53088C6.79163 0.560878 4.52169 0.830894 2.93169 2.14089C2.43169 2.55089 2.02168 3.03088 1.79168 3.56088C1.14168 5.06088 1.31159 6.77087 1.45159 8.40087C1.86159 13.4009 1.74161 18.4409 1.09161 23.4109C0.851606 25.2409 0.551625 27.1309 1.11163 28.8909C1.74163 30.8809 3.42164 32.4709 3.75164 34.5309C3.80164 34.8709 3.82161 35.2209 3.72161 35.5509C3.62161 35.8909 3.42162 36.1809 3.23162 36.4709C1.73162 38.7509 0.851625 41.4509 1.11163 44.1709C1.25163 45.6109 1.94159 51.1709 2.32159 54.2309C3.13159 60.8209 3.94164 67.4109 4.75164 74.0109C5.52164 80.2809 6.2917 86.5509 7.0617 92.8209L7.69158 97.9609C7.88158 99.5309 9.31164 100.641 10.8816 100.451L24.5217 98.7709C26.0917 98.5809 27.2017 97.1509 27.0117 95.5809L26.3816 90.4409C25.6116 84.1709 20.4117 42.5309 20.3117 41.8309H20.3017Z" fill="#87D9FF"/>
<path d="M25.6898 94.3203C24.9298 88.1303 22.0799 65.4602 21.2599 58.9902L4.33984 61.0802C4.52984 62.7202 8.66992 96.4203 8.66992 96.4203C9.18992 100.61 26.2398 98.6903 25.6998 94.3203H25.6898Z" fill="#00C6E1"/>
<path style="mix-blend-mode:screen" opacity="0.9" d="M17.2203 72.2703C17.4903 74.5003 16.3703 76.4703 14.7103 76.6703C13.0503 76.8703 11.4803 75.2303 11.2003 73.0103C10.9303 70.7803 12.0503 68.8103 13.7103 68.6103C15.3703 68.4103 16.9403 70.0503 17.2203 72.2703Z" fill="url(#paint0_linear_2271_18605)"/>
<path style="mix-blend-mode:screen" opacity="0.9" d="M20.0121 66.0611C20.1521 67.1811 19.5821 68.1711 18.7521 68.2811C17.9121 68.3811 17.1221 67.5611 16.9821 66.4411C16.8421 65.3211 17.4121 64.3311 18.2421 64.2211C19.0821 64.1211 19.8721 64.9411 20.0121 66.0611Z" fill="url(#paint1_linear_2271_18605)"/>
<g style="mix-blend-mode:multiply" opacity="0.4">
<path d="M12.7999 60.03C8.56993 60.57 4.33984 61.1 4.33984 61.1V61.16C4.33984 61.16 4.61984 61.17 5.08984 61.16C5.55984 61.14 6.22991 61.16 7.02991 61.1C7.82991 61.04 8.75989 61.02 9.75989 60.91C10.7499 60.81 11.8099 60.7 12.8799 60.59C13.9399 60.44 14.9899 60.29 15.9799 60.14C16.9699 60 17.8799 59.8 18.6699 59.66C20.2399 59.35 21.2799 59.06 21.2799 59.06V59C21.2799 59 17.0399 59.51 12.8099 60.01L12.7999 60.03Z" fill="#6CB4C4"/>
</g>
<g style="mix-blend-mode:multiply" opacity="0.8">
<path d="M3.23291 36.4704C2.77291 37.1704 2.37298 37.9104 2.05298 38.6804C4.12298 36.4004 6.45292 34.9304 9.49292 34.4904C12.6729 34.0304 15.6729 34.6204 18.3729 36.9704C17.8229 36.2104 17.1929 35.5004 16.4629 34.8404C16.2029 34.6004 15.9329 34.3704 15.7629 34.0604C15.5929 33.7604 15.5229 33.4204 15.4929 33.0804C15.3329 31.2304 16.2929 29.4804 16.6029 27.6504C16.1129 29.1904 14.4529 32.6104 9.12292 33.2704C5.86292 33.6704 3.38297 32.3404 1.29297 29.3304C2.01297 31.1104 3.45293 32.6204 3.75293 34.5204C3.80293 34.8604 3.8229 35.2104 3.7229 35.5404C3.6229 35.8804 3.42291 36.1704 3.23291 36.4604V36.4704Z" fill="#6CB4C4"/>
</g>
<path style="mix-blend-mode:screen" opacity="0.58" d="M9.51009 96.7001L3.01009 43.9701C2.12009 36.7501 10.1601 34.8301 10.8901 40.7301L17.6601 95.7001C17.9901 98.3701 9.83008 99.3701 9.50008 96.7001H9.51009Z" fill="url(#paint2_linear_2271_18605)"/>
<g style="mix-blend-mode:multiply" opacity="0.8">
<path opacity="0.7" d="M20.2993 41.83C19.8593 38.83 18.4592 36.69 16.4592 34.85C16.1992 34.61 15.9293 34.38 15.7593 34.07C15.5893 33.77 15.5193 33.43 15.4893 33.09C15.3093 31.01 16.5493 29.06 16.6793 26.98C16.7993 25.14 16.0393 23.37 15.3693 21.66C13.5393 16.99 12.1993 12.13 11.3893 7.17999C11.1293 5.56999 10.8793 3.87001 9.88928 2.57001C9.63928 2.25001 9.30922 1.99 8.94922 1.75C10.9192 6.67 14.2392 23.02 14.3392 26.84C14.4592 31.05 12.9693 30.9 13.1493 32.99C13.1793 33.33 13.2493 33.68 13.4193 33.98C13.5893 34.29 13.8593 34.52 14.1193 34.76C16.1293 36.62 17.5292 38.77 17.9692 41.78C18.0692 42.48 23.2992 84.37 24.0792 90.67L24.7192 95.84C24.9092 97.41 23.7993 98.85 22.2393 99.04L24.5193 98.76C26.0893 98.57 27.1993 97.14 27.0093 95.57L26.3793 90.43C25.6093 84.16 20.4093 42.52 20.3093 41.82L20.2993 41.83Z" fill="#6CB4C4"/>
</g>
<path d="M27.391 94.2013L27.081 91.6812C26.871 90.0012 26.661 88.3212 26.451 86.6512C25.601 79.9812 24.771 73.4213 23.971 67.0713C23.151 60.7213 22.361 54.5912 21.601 48.7712C21.411 47.3212 21.2211 45.8813 21.0411 44.4713C20.8211 43.0613 20.761 41.6712 20.361 40.2712C19.981 38.9012 19.321 37.6213 18.491 36.5413C18.081 35.9913 17.621 35.4912 17.141 35.0312C16.671 34.5513 16.111 34.1813 15.951 33.7013C15.611 32.6213 15.901 31.3512 16.241 30.2112C16.581 29.0612 16.991 27.8613 16.981 26.6413C16.921 24.1513 15.731 22.1713 15.071 20.2313C13.591 16.3513 12.651 12.8512 12.021 9.93124C11.371 7.03124 11.221 4.62125 10.361 3.22125C9.971 2.51125 9.51105 2.08126 9.16105 1.85126C8.82105 1.61126 8.62101 1.53125 8.62101 1.53125C8.62101 1.53125 8.81104 1.62124 9.15104 1.86124C9.49104 2.10124 9.94108 2.53124 10.3111 3.24124C11.1311 4.65124 11.241 7.04125 11.831 9.97125C12.401 12.9013 13.2811 16.4412 14.6811 20.3712C15.3211 22.3412 16.4411 24.3712 16.4311 26.6212C16.4111 27.7512 16.0311 28.8613 15.6611 30.0413C15.3211 31.2113 14.931 32.5212 15.341 33.9312C15.471 34.2912 15.721 34.6012 15.961 34.8312L16.6611 35.5013C17.1111 35.9513 17.5411 36.4313 17.9211 36.9513C18.6911 37.9913 19.291 39.1813 19.631 40.4713C19.981 41.7313 20.051 43.1712 20.241 44.5812C20.411 46.0012 20.581 47.4313 20.751 48.8913C21.451 54.7213 22.191 60.8612 22.961 67.2112C23.741 73.5612 24.551 80.1312 25.371 86.8012C25.571 88.4712 25.781 90.1413 25.981 91.8112L26.261 94.1013C26.421 99.1813 9.34106 101.531 8.04106 96.3813L7.731 93.8612C7.521 92.1812 7.311 90.5112 7.101 88.8412C6.271 82.1712 5.45105 75.6113 4.66105 69.2613C3.86105 62.9113 3.08099 56.7812 2.34099 50.9612C2.16099 49.5012 1.98107 48.0713 1.80107 46.6613C1.65107 45.2413 1.35097 43.8513 1.45097 42.5413C1.53097 41.2113 1.87103 39.9213 2.39103 38.7313C2.65103 38.1313 2.95104 37.5612 3.27104 37.0212C3.44104 36.7412 3.61107 36.4912 3.80107 36.1812C3.98107 35.8812 4.11101 35.4812 4.11101 35.1112C4.09101 33.6712 3.38103 32.5112 2.76103 31.4612C2.12103 30.4012 1.50101 29.4312 1.24101 28.3312C0.75101 26.1212 1.341 23.9012 1.481 21.8312C1.881 17.6812 1.86097 14.0312 1.70097 11.0512C1.62097 9.56124 1.48103 8.23126 1.39103 7.07126C1.31103 5.92126 1.37099 4.92125 1.59099 4.16125C1.80099 3.38125 2.18098 2.88124 2.46098 2.58124C2.74098 2.28124 2.91105 2.15125 2.91105 2.15125C2.91105 2.15125 2.74097 2.28126 2.45097 2.57126C2.16097 2.86126 1.77106 3.36127 1.54106 4.14127C1.30106 4.91127 1.21105 5.91126 1.28105 7.07126C1.34105 8.23126 1.46102 9.56124 1.50102 11.0512C1.60102 14.0312 1.54108 17.6613 1.06108 21.7812C0.921078 22.8113 0.781034 23.8813 0.641034 24.9713C0.511034 26.0713 0.430961 27.2513 0.690961 28.4513C1.17096 30.8813 3.39097 32.6812 3.45097 35.0912C3.46097 35.6212 3.06097 36.0813 2.70097 36.6613C2.34097 37.2313 2.02102 37.8313 1.75102 38.4513C1.20102 39.7013 0.820981 41.0612 0.710981 42.4912C0.590981 43.9412 0.881029 45.3413 1.01103 46.7513C1.17103 48.1712 1.34102 49.6012 1.50102 51.0612C2.19102 56.8913 2.91105 63.0313 3.66105 69.3913C4.43105 75.7413 5.22105 82.3113 6.03105 88.9813C6.23105 90.6513 6.43103 92.3213 6.64103 94.0013L6.95097 96.5212L7.101 97.7812L7.12101 97.9413L7.15104 98.1313C7.17104 98.2413 7.18099 98.3313 7.22099 98.4713C7.29099 98.7513 7.38102 98.9713 7.50102 99.1913C7.97102 100.101 8.87101 100.751 9.87101 100.951C10.361 101.061 10.941 101.001 11.321 100.951L12.591 100.801L17.6711 100.181L22.751 99.5512L24.021 99.3913L24.6811 99.3012C24.8611 99.2712 25.181 99.2012 25.401 99.1112C26.361 98.7512 27.1111 97.9312 27.4211 96.9612C27.5811 96.4812 27.6211 95.9512 27.5511 95.4612L27.391 94.2013Z" fill="#4A9CAF"/>
<path style="mix-blend-mode:screen" opacity="0.9" d="M14.5001 29.4103C14.3101 29.2903 13.8302 29.7403 12.9302 30.1903C12.4902 30.4303 11.9202 30.6403 11.2902 30.8503C10.6502 31.0403 9.93018 31.2003 9.16018 31.3003C8.39018 31.3803 7.65013 31.4103 6.98013 31.3803C6.32013 31.3303 5.72013 31.2603 5.23013 31.1303C4.25013 30.9103 3.67017 30.5803 3.52017 30.7503C3.39017 30.8703 3.78012 31.5703 4.85012 32.1203C5.38012 32.4103 6.06009 32.6103 6.82009 32.7503C7.59009 32.8703 8.4401 32.8803 9.3301 32.7903C10.2101 32.6703 11.0402 32.4503 11.7602 32.1503C12.4702 31.8303 13.0802 31.4703 13.5202 31.0603C14.4302 30.2603 14.6401 29.4903 14.4801 29.4103H14.5001Z" fill="url(#paint3_linear_2271_18605)"/>
<g style="mix-blend-mode:multiply" opacity="0.8">
<path d="M27.079 91.6805C27.029 91.3005 26.989 90.9305 26.939 90.5605C26.989 91.1805 27.029 91.8006 27.079 92.4106L27.249 94.7006C27.119 99.6206 8.80903 102.101 7.25903 97.2006L6.82898 94.7105C6.72898 94.1505 6.63906 93.5805 6.53906 93.0205C6.57906 93.3505 6.61906 93.6805 6.65906 94.0005L6.96899 96.5205L7.11902 97.7805L7.13904 97.9406L7.16907 98.1306C7.18907 98.2406 7.19901 98.3306 7.23901 98.4706C7.30901 98.7506 7.39904 98.9706 7.51904 99.1906C7.98904 100.101 8.88904 100.751 9.88904 100.951C10.379 101.061 10.959 101.001 11.339 100.951L12.609 100.801L17.689 100.181L22.769 99.5505L24.0391 99.3906L24.699 99.3005C24.879 99.2705 25.1991 99.2005 25.4191 99.1105C26.3791 98.7505 27.129 97.9305 27.439 96.9605C27.599 96.4805 27.639 95.9505 27.569 95.4605L27.4091 94.2006L27.099 91.6805H27.079Z" fill="#4A9CAF"/>
</g>
<defs>
<linearGradient id="paint0_linear_2271_18605" x1="13.6619" y1="68.7351" x2="14.6555" y2="76.8042" gradientUnits="userSpaceOnUse">
<stop stop-color="white"/>
<stop offset="0.13" stop-color="#F7FAFB"/>
<stop offset="0.32" stop-color="#E1EFF3"/>
<stop offset="0.56" stop-color="#BDDDE4"/>
<stop offset="0.84" stop-color="#8CC4D1"/>
<stop offset="1" stop-color="#6CB4C4"/>
</linearGradient>
<linearGradient id="paint1_linear_2271_18605" x1="18.1916" y1="64.3498" x2="18.6914" y2="68.4091" gradientUnits="userSpaceOnUse">
<stop stop-color="white"/>
<stop offset="0.13" stop-color="#F7FAFB"/>
<stop offset="0.32" stop-color="#E1EFF3"/>
<stop offset="0.56" stop-color="#BDDDE4"/>
<stop offset="0.84" stop-color="#8CC4D1"/>
<stop offset="1" stop-color="#6CB4C4"/>
</linearGradient>
<linearGradient id="paint2_linear_2271_18605" x1="13.7844" y1="67.4403" x2="2.07284" y2="68.8824" gradientUnits="userSpaceOnUse">
<stop stop-color="white"/>
<stop offset="0.13" stop-color="#F7FAFB"/>
<stop offset="0.32" stop-color="#E1EFF3"/>
<stop offset="0.56" stop-color="#BDDDE4"/>
<stop offset="0.84" stop-color="#8CC4D1"/>
<stop offset="1" stop-color="#6CB4C4"/>
</linearGradient>
<linearGradient id="paint3_linear_2271_18605" x1="3.60494" y1="32.2306" x2="14.6415" y2="30.8716" gradientUnits="userSpaceOnUse">
<stop stop-color="white"/>
<stop offset="0.13" stop-color="#F7FAFB"/>
<stop offset="0.32" stop-color="#E1EFF3"/>
<stop offset="0.56" stop-color="#BDDDE4"/>
<stop offset="0.84" stop-color="#8CC4D1"/>
<stop offset="1" stop-color="#6CB4C4"/>
</linearGradient>
</defs>
</svg>
