<svg width="208" height="113" viewBox="0 0 208 113" fill="none" xmlns="http://www.w3.org/2000/svg">
<path fill-rule="evenodd" clip-rule="evenodd" d="M156.737 27.7685V23.2985L152.938 22.7285V27.7685H156.737Z" fill="#C1A8D4"/>
<path fill-rule="evenodd" clip-rule="evenodd" d="M167.698 110.819L169.407 44.209H140.938L143.378 110.819H167.698Z" fill="url(#paint0_radial_2271_18423)"/>
<path fill-rule="evenodd" clip-rule="evenodd" d="M169.407 44.2092C169.407 44.2092 155.887 27.7292 140.938 44.2092H169.407Z" fill="url(#paint1_radial_2271_18423)"/>
<path fill-rule="evenodd" clip-rule="evenodd" d="M161.609 38.4391H148.359V27.2891L161.609 28.0591V38.4391Z" fill="url(#paint2_radial_2271_18423)"/>
<path fill-rule="evenodd" clip-rule="evenodd" d="M162.707 23.8091L148.357 23.1891C148.357 23.1891 146.977 20.9491 146.667 16.9691C146.327 12.5091 147.607 10.1191 147.607 10.1191H163.707V12.7291C163.707 12.7291 190.537 13.0391 193.297 13.0391C196.057 13.0391 197.747 10.8891 197.747 10.8891L206.567 10.8091V18.2491L198.017 17.9991C198.017 17.9991 196.637 16.2891 193.187 16.0591C189.737 15.8291 163.747 16.0591 163.747 16.0591L162.707 23.8091Z" fill="url(#paint3_radial_2271_18423)"/>
<g style="mix-blend-mode:multiply" opacity="0.5">
<path fill-rule="evenodd" clip-rule="evenodd" d="M156.737 25.8287L152.938 25.2487V23.3887L156.737 23.5487V25.8287Z" fill="#BFC5D1"/>
</g>
<path fill-rule="evenodd" clip-rule="evenodd" d="M169.138 54.8184H141.328L143.038 101.498L167.918 102.408L169.138 54.8184Z" fill="url(#paint4_radial_2271_18423)"/>
<path fill-rule="evenodd" clip-rule="evenodd" d="M169.137 56.4199H141.387L142.977 99.6699H167.987L169.137 56.4199Z" fill="url(#paint5_linear_2271_18423)"/>
<path style="mix-blend-mode:screen" opacity="0.79" fill-rule="evenodd" clip-rule="evenodd" d="M143.378 110.82L140.938 44.1997C140.938 44.1997 145.347 39.5297 148.357 38.4297H152.938L154.838 110.82H143.378Z" fill="url(#paint6_linear_2271_18423)"/>
<g style="mix-blend-mode:soft-light">
<path fill-rule="evenodd" clip-rule="evenodd" d="M164.427 59.8691H144.777L145.347 62.6292L163.867 63.1691L164.427 59.8691Z" fill="white"/>
</g>
<path fill-rule="evenodd" clip-rule="evenodd" d="M206.567 10.8086C206.567 10.8086 203.657 13.2586 206.567 18.2486C206.567 18.2486 209.477 13.3386 206.567 10.8086Z" fill="#C1A8D4"/>
<path fill-rule="evenodd" clip-rule="evenodd" d="M163.707 10.1191C163.707 10.1191 159.947 15.3491 162.707 23.8091L163.747 16.0591C163.747 16.0591 162.747 13.9291 163.707 12.7291V10.1191Z" fill="#C1A8D4"/>
<g style="mix-blend-mode:multiply" opacity="0.71">
<path fill-rule="evenodd" clip-rule="evenodd" d="M206.569 10.8091L197.749 10.8891C197.749 10.8891 196.059 13.0391 193.299 13.0391C190.539 13.0391 163.709 12.7291 163.709 12.7291V10.1191H147.609C147.609 10.1191 146.329 12.5091 146.669 16.9691C146.979 20.9491 148.359 23.1891 148.359 23.1891L152.939 23.3891V27.5591L148.359 27.2891V38.4391C147.459 38.7691 146.429 39.4291 145.429 40.1791C144.009 41.1891 142.559 42.4591 141.109 44.0491C141.009 44.1491 140.949 44.2091 140.949 44.2091L141.339 54.8191L141.919 70.7491L143.389 110.819H167.709L167.929 102.409L167.999 99.6591L169.149 56.4191H169.109L169.419 44.2091C169.419 44.2091 166.389 40.5191 161.619 38.3791V28.0591L156.759 27.7791V23.5591L162.729 23.8191L163.769 16.0691C163.769 16.0691 189.759 15.8391 193.209 16.0691C196.659 16.2991 198.039 18.0091 198.039 18.0091L206.589 18.2591C206.589 18.2591 209.499 13.3491 206.589 10.8191L206.569 10.8091Z" fill="#A5ABC5"/>
</g>
<path fill-rule="evenodd" clip-rule="evenodd" d="M46.5697 110.82L44.9297 18.5996H90.7497V110.4L46.5697 110.82Z" fill="url(#paint7_linear_2271_18423)"/>
<path style="mix-blend-mode:soft-light" fill-rule="evenodd" clip-rule="evenodd" d="M47.3711 18.5996L48.5911 31.2296H86.6911L88.3211 18.5996H47.3711Z" fill="url(#paint8_radial_2271_18423)"/>
<path fill-rule="evenodd" clip-rule="evenodd" d="M44.9292 18.6003L43.6992 3.32031H91.6392L90.7492 18.6003H44.9292Z" fill="url(#paint9_radial_2271_18423)"/>
<path fill-rule="evenodd" clip-rule="evenodd" d="M45.3594 42.7794L90.7494 42.6895V99.2495L46.3994 101.299L45.3594 42.7794Z" fill="url(#paint10_radial_2271_18423)"/>
<path fill-rule="evenodd" clip-rule="evenodd" d="M45.5391 55.4712C45.5391 55.4712 54.6691 88.4612 90.7491 89.6912V48.9512H45.5391V55.4712Z" fill="url(#paint11_linear_2271_18423)"/>
<g style="mix-blend-mode:multiply" opacity="0.71">
<path fill-rule="evenodd" clip-rule="evenodd" d="M43.6992 3.32031L44.9192 18.6003L45.3492 42.7803L45.5292 52.9903V55.4703C45.5292 55.4703 45.5492 55.5303 45.5792 55.6303L46.3892 101.3L46.5592 110.82L90.7392 110.4V18.6003L91.6292 3.32031H43.6992Z" fill="#A5ABC5"/>
</g>
<path style="mix-blend-mode:screen" opacity="0.79" fill-rule="evenodd" clip-rule="evenodd" d="M46.5697 110.82L44.9297 18.5996H67.6897V110.62L46.5697 110.82Z" fill="url(#paint12_linear_2271_18423)"/>
<path fill-rule="evenodd" clip-rule="evenodd" d="M13.6409 110.82L11.9609 15.9004H59.1109V110.39L13.6409 110.82Z" fill="url(#paint13_linear_2271_18423)"/>
<path style="mix-blend-mode:soft-light" fill-rule="evenodd" clip-rule="evenodd" d="M14.4688 15.9004L15.7288 28.9004H54.9388L56.6188 15.9004H14.4688Z" fill="url(#paint14_radial_2271_18423)"/>
<path fill-rule="evenodd" clip-rule="evenodd" d="M11.9592 15.8999L10.6992 0.169922H60.0292L59.1092 15.8999H11.9592Z" fill="url(#paint15_radial_2271_18423)"/>
<path fill-rule="evenodd" clip-rule="evenodd" d="M12.3984 40.7892L59.1084 40.6992V98.9092L13.4684 101.019L12.3984 40.7892Z" fill="url(#paint16_radial_2271_18423)"/>
<path fill-rule="evenodd" clip-rule="evenodd" d="M12.5781 53.8506C12.5781 53.8506 21.9781 87.8106 59.1081 89.0706V47.1406H12.5781V53.8506Z" fill="url(#paint17_linear_2271_18423)"/>
<path style="mix-blend-mode:screen" opacity="0.79" fill-rule="evenodd" clip-rule="evenodd" d="M13.6409 110.82L11.9609 15.9004H35.3909V110.62L13.6409 110.82Z" fill="url(#paint18_linear_2271_18423)"/>
<path fill-rule="evenodd" clip-rule="evenodd" d="M87.6203 110.821L84.8203 18.5508H142.1L137.45 110.821H87.6203Z" fill="url(#paint19_linear_2271_18423)"/>
<g style="mix-blend-mode:soft-light">
<path fill-rule="evenodd" clip-rule="evenodd" d="M85.4883 40.5311L141.058 39.1211L140.378 52.6811L85.9283 55.0311L85.4883 40.5311Z" fill="white"/>
</g>
<path fill-rule="evenodd" clip-rule="evenodd" d="M99.7891 18.5508L101.619 34.8508H126.319L127.619 18.5508H99.7891Z" fill="#8DE5FF"/>
<g style="mix-blend-mode:soft-light">
<path fill-rule="evenodd" clip-rule="evenodd" d="M100.969 107.27V104.41L129.339 104.34L128.739 107.27H100.969Z" fill="white"/>
</g>
<g style="mix-blend-mode:soft-light">
<path fill-rule="evenodd" clip-rule="evenodd" d="M96.5781 58.0312H130.888L130.198 100.021L97.4381 100.321L96.5781 58.0312Z" fill="#81ACFF"/>
</g>
<path fill-rule="evenodd" clip-rule="evenodd" d="M92.3594 51.6007V45.2207H118.979V50.7407L92.3594 51.6007Z" fill="url(#paint20_linear_2271_18423)"/>
<path fill-rule="evenodd" clip-rule="evenodd" d="M84.8191 18.5508H76.0391L80.4291 110.821H87.6191L84.8191 18.5508Z" fill="#044865"/>
<path fill-rule="evenodd" clip-rule="evenodd" d="M98.2181 110.82L96.5781 61.4902H185.928L184.628 109.86L98.2181 110.82Z" fill="url(#paint21_radial_2271_18423)"/>
<g style="mix-blend-mode:multiply" opacity="0.71">
<path fill-rule="evenodd" clip-rule="evenodd" d="M185.929 61.4902H195.899L194.899 109.75L184.629 109.86L185.929 61.4902Z" fill="#A5ABC5"/>
</g>
<path fill-rule="evenodd" clip-rule="evenodd" d="M106.359 61.4902L107.889 110.72L116.749 110.62L116.059 61.4902H106.359Z" fill="url(#paint22_linear_2271_18423)"/>
<path fill-rule="evenodd" clip-rule="evenodd" d="M98.0494 105.751H184.629L184.919 98.9512L97.8594 100.121L98.0494 105.751Z" fill="url(#paint23_linear_2271_18423)"/>
<path fill-rule="evenodd" clip-rule="evenodd" d="M184.919 98.9512H195.119L194.979 105.751H184.629L184.919 98.9512Z" fill="#403B98"/>
<path fill-rule="evenodd" clip-rule="evenodd" d="M142.547 65.7207L143.197 71.5907H182.537L183.037 65.7207H142.547Z" fill="#72768D"/>
<path fill-rule="evenodd" clip-rule="evenodd" d="M155.547 75.0111V80.3111L182.157 80.8811L182.537 74.3711L155.547 75.0111Z" fill="#72768D"/>
<path fill-rule="evenodd" clip-rule="evenodd" d="M179.618 89.9008C179.618 93.3608 176.808 96.1709 173.348 96.1709C169.888 96.1709 167.078 93.3608 167.078 89.9008C167.078 86.4408 169.888 83.6309 173.348 83.6309C176.808 83.6309 179.618 86.4408 179.618 89.9008Z" fill="#EB6770"/>
<path fill-rule="evenodd" clip-rule="evenodd" d="M1.41888 112.171L0.628906 86.8008H118.979L118.689 111.051L1.41888 112.171Z" fill="url(#paint24_linear_2271_18423)"/>
<path fill-rule="evenodd" clip-rule="evenodd" d="M49.4688 86.8002C49.4688 86.8002 60.3688 112.97 118.759 105.19L118.979 85.7402L49.4688 86.8002Z" fill="url(#paint25_radial_2271_18423)"/>
<path d="M40.1103 89.5996H5.32031V92.3296H40.1103V89.5996Z" fill="url(#paint26_radial_2271_18423)"/>
<g style="mix-blend-mode:multiply" opacity="0.5">
<path fill-rule="evenodd" clip-rule="evenodd" d="M6.14062 94.7311L40.1106 94.3711V97.3811L6.14062 96.6211V94.7311Z" fill="#773686"/>
</g>
<path fill-rule="evenodd" clip-rule="evenodd" d="M59.8086 86.6402C59.8086 86.6402 75.8886 105.01 118.819 100.58L118.989 85.7402L59.8086 86.6402Z" fill="#EB6770"/>
<path d="M27.9302 109.26H7.16016V111.04H27.9302V109.26Z" fill="url(#paint27_radial_2271_18423)"/>
<defs>
<radialGradient id="paint0_radial_2271_18423" cx="0" cy="0" r="1" gradientUnits="userSpaceOnUse" gradientTransform="translate(155.177 77.519) rotate(180) scale(25.61 25.61)">
<stop offset="0.02" stop-color="white"/>
<stop offset="0.53" stop-color="#FBFCFF"/>
<stop offset="1" stop-color="#F0F6FF"/>
</radialGradient>
<radialGradient id="paint1_radial_2271_18423" cx="0" cy="0" r="1" gradientUnits="userSpaceOnUse" gradientTransform="translate(155.177 40.5492) rotate(180) scale(10.39 10.39)">
<stop offset="0.02" stop-color="white"/>
<stop offset="0.53" stop-color="#FBFCFF"/>
<stop offset="1" stop-color="#F0F6FF"/>
</radialGradient>
<radialGradient id="paint2_radial_2271_18423" cx="0" cy="0" r="1" gradientUnits="userSpaceOnUse" gradientTransform="translate(154.979 32.8591) rotate(180) scale(6.12 6.12)">
<stop offset="0.02" stop-color="white"/>
<stop offset="0.53" stop-color="#FBFCFF"/>
<stop offset="1" stop-color="#F0F6FF"/>
</radialGradient>
<radialGradient id="paint3_radial_2271_18423" cx="0" cy="0" r="1" gradientUnits="userSpaceOnUse" gradientTransform="translate(176.587 16.9591) rotate(180) scale(21.74 21.74)">
<stop offset="0.02" stop-color="white"/>
<stop offset="0.53" stop-color="#FBFCFF"/>
<stop offset="1" stop-color="#F0F6FF"/>
</radialGradient>
<radialGradient id="paint4_radial_2271_18423" cx="0" cy="0" r="1" gradientUnits="userSpaceOnUse" gradientTransform="translate(155.228 78.6184) rotate(180) scale(0.5)">
<stop offset="0.02" stop-color="white"/>
<stop offset="0.41" stop-color="#FDFBFF"/>
<stop offset="0.77" stop-color="#F6F0FF"/>
<stop offset="1" stop-color="#F1E5FF"/>
</radialGradient>
<linearGradient id="paint5_linear_2271_18423" x1="169.137" y1="78.0399" x2="141.387" y2="78.0399" gradientUnits="userSpaceOnUse">
<stop stop-color="#3B85FF"/>
<stop offset="1" stop-color="#00C6E1"/>
</linearGradient>
<linearGradient id="paint6_linear_2271_18423" x1="154.838" y1="74.6297" x2="140.938" y2="74.6297" gradientUnits="userSpaceOnUse">
<stop/>
<stop offset="0.1" stop-color="#070500"/>
<stop offset="0.25" stop-color="#1D1602"/>
<stop offset="0.43" stop-color="#403005"/>
<stop offset="0.64" stop-color="#715508"/>
<stop offset="0.86" stop-color="#AF830D"/>
<stop offset="1" stop-color="#D8A211"/>
</linearGradient>
<linearGradient id="paint7_linear_2271_18423" x1="67.8397" y1="110.82" x2="67.8397" y2="18.5996" gradientUnits="userSpaceOnUse">
<stop stop-color="#471527"/>
<stop offset="0.31" stop-color="#591723"/>
<stop offset="0.93" stop-color="#881E1B"/>
<stop offset="1" stop-color="#8E1F1B"/>
</linearGradient>
<radialGradient id="paint8_radial_2271_18423" cx="0" cy="0" r="1" gradientUnits="userSpaceOnUse" gradientTransform="translate(67.8511 24.9096) scale(15.15 15.15)">
<stop offset="0.02" stop-color="white"/>
<stop offset="0.41" stop-color="#FDFBFF"/>
<stop offset="0.77" stop-color="#F6F0FF"/>
<stop offset="1" stop-color="#F1E5FF"/>
</radialGradient>
<radialGradient id="paint9_radial_2271_18423" cx="0" cy="0" r="1" gradientUnits="userSpaceOnUse" gradientTransform="translate(67.6692 10.9603) scale(17.79 17.79)">
<stop offset="0.02" stop-color="white"/>
<stop offset="0.41" stop-color="#FDFBFF"/>
<stop offset="0.77" stop-color="#F6F0FF"/>
<stop offset="1" stop-color="#F1E5FF"/>
</radialGradient>
<radialGradient id="paint10_radial_2271_18423" cx="0" cy="0" r="1" gradientUnits="userSpaceOnUse" gradientTransform="translate(68.0494 71.9995) scale(26.21 26.21)">
<stop offset="0.02" stop-color="white"/>
<stop offset="0.53" stop-color="#FBFCFF"/>
<stop offset="1" stop-color="#F0F6FF"/>
</radialGradient>
<linearGradient id="paint11_linear_2271_18423" x1="45.5391" y1="69.3212" x2="90.7491" y2="69.3212" gradientUnits="userSpaceOnUse">
<stop offset="0.02" stop-color="#F9B000"/>
<stop offset="1" stop-color="#FED16E"/>
</linearGradient>
<linearGradient id="paint12_linear_2271_18423" x1="44.9297" y1="64.7096" x2="67.6897" y2="64.7096" gradientUnits="userSpaceOnUse">
<stop stop-color="#F2A27E"/>
<stop offset="0.2" stop-color="#AF755B"/>
<stop offset="0.41" stop-color="#714C3B"/>
<stop offset="0.61" stop-color="#402B21"/>
<stop offset="0.77" stop-color="#1D130F"/>
<stop offset="0.91" stop-color="#070504"/>
<stop offset="1"/>
</linearGradient>
<linearGradient id="paint13_linear_2271_18423" x1="35.5309" y1="-106" x2="35.5309" y2="15.9004" gradientUnits="userSpaceOnUse">
<stop stop-color="#471527"/>
<stop offset="0.31" stop-color="#591723"/>
<stop offset="0.93" stop-color="#881E1B"/>
<stop offset="1" stop-color="#8E1F1B"/>
</linearGradient>
<radialGradient id="paint14_radial_2271_18423" cx="0" cy="0" r="1" gradientUnits="userSpaceOnUse" gradientTransform="translate(35.5388 22.4004) scale(15.59 15.59)">
<stop offset="0.02" stop-color="white"/>
<stop offset="0.41" stop-color="#FDFBFF"/>
<stop offset="0.77" stop-color="#F6F0FF"/>
<stop offset="1" stop-color="#F1E5FF"/>
</radialGradient>
<radialGradient id="paint15_radial_2271_18423" cx="0" cy="0" r="1" gradientUnits="userSpaceOnUse" gradientTransform="translate(35.3692 8.03992) scale(18.31 18.31)">
<stop offset="0.02" stop-color="white"/>
<stop offset="0.41" stop-color="#FDFBFF"/>
<stop offset="0.77" stop-color="#F6F0FF"/>
<stop offset="1" stop-color="#F1E5FF"/>
</radialGradient>
<radialGradient id="paint16_radial_2271_18423" cx="0" cy="0" r="1" gradientUnits="userSpaceOnUse" gradientTransform="translate(35.7584 70.8592) scale(26.98 26.98)">
<stop offset="0.02" stop-color="white"/>
<stop offset="0.53" stop-color="#FBFCFF"/>
<stop offset="1" stop-color="#F0F6FF"/>
</radialGradient>
<linearGradient id="paint17_linear_2271_18423" x1="12.5781" y1="68.1106" x2="59.1081" y2="68.1106" gradientUnits="userSpaceOnUse">
<stop offset="0.02" stop-color="#F9B000"/>
<stop offset="1" stop-color="#FED16E"/>
</linearGradient>
<linearGradient id="paint18_linear_2271_18423" x1="11.9609" y1="63.3604" x2="35.3909" y2="63.3604" gradientUnits="userSpaceOnUse">
<stop stop-color="#F2A27E"/>
<stop offset="0.2" stop-color="#AF755B"/>
<stop offset="0.41" stop-color="#714C3B"/>
<stop offset="0.61" stop-color="#402B21"/>
<stop offset="0.77" stop-color="#1D130F"/>
<stop offset="0.91" stop-color="#070504"/>
<stop offset="1"/>
</linearGradient>
<linearGradient id="paint19_linear_2271_18423" x1="113.46" y1="110.821" x2="113.46" y2="18.5508" gradientUnits="userSpaceOnUse">
<stop stop-color="#3B85FF"/>
<stop offset="1" stop-color="#00C6E1"/>
</linearGradient>
<linearGradient id="paint20_linear_2271_18423" x1="105.669" y1="51.6007" x2="105.669" y2="45.2207" gradientUnits="userSpaceOnUse">
<stop stop-color="#F1E5FF"/>
<stop offset="0.23" stop-color="#F6F0FF"/>
<stop offset="0.59" stop-color="#FDFBFF"/>
<stop offset="0.98" stop-color="white"/>
</linearGradient>
<radialGradient id="paint21_radial_2271_18423" cx="0" cy="0" r="1" gradientUnits="userSpaceOnUse" gradientTransform="translate(140.598 86.1602) scale(34.9504 40.64)">
<stop offset="0.02" stop-color="white"/>
<stop offset="0.4" stop-color="#FBFEFF"/>
<stop offset="0.75" stop-color="#F0FBFF"/>
<stop offset="1" stop-color="#E3F8FF"/>
</radialGradient>
<linearGradient id="paint22_linear_2271_18423" x1="111.559" y1="110.72" x2="111.559" y2="61.4902" gradientUnits="userSpaceOnUse">
<stop stop-color="#576FFF"/>
<stop offset="1" stop-color="#568FFF"/>
</linearGradient>
<linearGradient id="paint23_linear_2271_18423" x1="97.8594" y1="102.351" x2="184.919" y2="102.351" gradientUnits="userSpaceOnUse">
<stop stop-color="#576FFF"/>
<stop offset="1" stop-color="#568FFF"/>
</linearGradient>
<linearGradient id="paint24_linear_2271_18423" x1="59.8089" y1="112.171" x2="59.8089" y2="86.8008" gradientUnits="userSpaceOnUse">
<stop stop-color="#3B85FF"/>
<stop offset="1" stop-color="#00C6E1"/>
</linearGradient>
<radialGradient id="paint25_radial_2271_18423" cx="0" cy="0" r="1" gradientUnits="userSpaceOnUse" gradientTransform="translate(84.2288 96.1802) scale(25.66 25.66)">
<stop offset="0.02" stop-color="white"/>
<stop offset="0.41" stop-color="#FDFBFF"/>
<stop offset="0.77" stop-color="#F6F0FF"/>
<stop offset="1" stop-color="#F1E5FF"/>
</radialGradient>
<radialGradient id="paint26_radial_2271_18423" cx="0" cy="0" r="1" gradientUnits="userSpaceOnUse" gradientTransform="translate(27.0503 90.832) scale(12.4416 8.55359)">
<stop offset="0.02" stop-color="white"/>
<stop offset="0.41" stop-color="#FDFBFF"/>
<stop offset="0.77" stop-color="#F6F0FF"/>
<stop offset="1" stop-color="#F1E5FF"/>
</radialGradient>
<radialGradient id="paint27_radial_2271_18423" cx="0" cy="0" r="1" gradientUnits="userSpaceOnUse" gradientTransform="translate(17.5502 110.15) scale(7.37001 7.36999)">
<stop offset="0.02" stop-color="white"/>
<stop offset="0.41" stop-color="#FDFBFF"/>
<stop offset="0.77" stop-color="#F6F0FF"/>
<stop offset="1" stop-color="#F1E5FF"/>
</radialGradient>
</defs>
</svg>
