<svg width="189" height="116" viewBox="0 0 189 116" fill="none" xmlns="http://www.w3.org/2000/svg">
<path fill-rule="evenodd" clip-rule="evenodd" d="M2.21967 112.551L0.179688 37.4707H67.7697L66.2297 112.171L2.21967 112.551Z" fill="url(#paint0_linear_2271_18478)"/>
<path fill-rule="evenodd" clip-rule="evenodd" d="M0.179688 37.4703L28.1697 13.0703H40.1597L67.7697 37.4703H0.179688Z" fill="url(#paint1_linear_2271_18478)"/>
<path fill-rule="evenodd" clip-rule="evenodd" d="M19.0683 14.5405H49.0383L49.7083 0.730469H18.2383L19.0683 14.5405Z" fill="url(#paint2_linear_2271_18478)"/>
<path fill-rule="evenodd" clip-rule="evenodd" d="M22.6797 14.541L23.0297 17.561H44.8397L45.4397 14.541H22.6797Z" fill="#631842"/>
<path fill-rule="evenodd" clip-rule="evenodd" d="M0.429688 46.4509L67.7697 45.3809L66.3297 107.061L2.14972 108.121L0.429688 46.4509Z" fill="url(#paint3_radial_2271_18478)"/>
<path fill-rule="evenodd" clip-rule="evenodd" d="M0.550781 50.7912L67.6708 49.7812L67.2608 54.7912H0.550781V50.7912Z" fill="url(#paint4_linear_2271_18478)"/>
<path fill-rule="evenodd" clip-rule="evenodd" d="M1.92969 100.25L66.2597 101.65V105.85H1.92969V100.25Z" fill="url(#paint5_linear_2271_18478)"/>
<path fill-rule="evenodd" clip-rule="evenodd" d="M18.2383 62.5996V67.4096L53.8483 69.0096V63.1996L18.2383 62.5996Z" fill="#72768D"/>
<g style="mix-blend-mode:soft-light">
<path fill-rule="evenodd" clip-rule="evenodd" d="M37.7383 17.5605L46.4383 36.5706H61.2583L41.8283 17.5605H37.7383Z" fill="white"/>
</g>
<g style="mix-blend-mode:soft-light">
<path fill-rule="evenodd" clip-rule="evenodd" d="M3.91797 37.4706L24.478 17.5605H26.518L6.18799 37.4706H3.91797Z" fill="white"/>
</g>
<g style="mix-blend-mode:multiply" opacity="0.71">
<path fill-rule="evenodd" clip-rule="evenodd" d="M67.6097 45.3805L67.7697 37.4705L44.8997 17.2605L45.4397 14.5405H49.0397L49.7097 0.730469H18.2397L19.0697 14.5405H22.6797L23.0297 17.5605L0.179688 37.4705L0.429688 46.4505V46.5305L0.549683 50.9205V54.7905H0.649719L1.92969 101.86V105.85H2.03967L2.21967 112.55L66.2297 112.17L66.3297 107L67.7697 45.3805H67.6097Z" fill="#A5ABC5"/>
</g>
<path fill-rule="evenodd" clip-rule="evenodd" d="M78.6575 114.16L75.4375 7.98047H141.347L135.997 114.16H78.6575Z" fill="url(#paint6_linear_2271_18478)"/>
<g style="mix-blend-mode:soft-light">
<path fill-rule="evenodd" clip-rule="evenodd" d="M76.207 33.2704L140.157 31.6504L139.367 47.2504L76.707 49.9604L76.207 33.2704Z" fill="white"/>
</g>
<path fill-rule="evenodd" clip-rule="evenodd" d="M92.6562 7.98047L94.7663 26.7405H123.196L124.676 7.98047H92.6562Z" fill="#8DE5FF"/>
<g style="mix-blend-mode:soft-light">
<path fill-rule="evenodd" clip-rule="evenodd" d="M94.0195 110.071V106.781L126.669 106.701L125.969 110.071H94.0195Z" fill="white"/>
</g>
<g style="mix-blend-mode:soft-light">
<path fill-rule="evenodd" clip-rule="evenodd" d="M88.957 53.4102H128.447L127.657 101.73L89.957 102.07L88.957 53.4102Z" fill="#81ACFF"/>
</g>
<path fill-rule="evenodd" clip-rule="evenodd" d="M84.1094 46.0199V38.6699H114.749V45.0199L84.1094 46.0199Z" fill="url(#paint7_linear_2271_18478)"/>
<path fill-rule="evenodd" clip-rule="evenodd" d="M75.4381 7.98047H65.3281L70.3881 114.16H78.6581L75.4381 7.98047Z" fill="#044865"/>
<g style="mix-blend-mode:multiply" opacity="0.71">
<path fill-rule="evenodd" clip-rule="evenodd" d="M140.158 31.6505L141.348 7.98047H124.678H92.6581H75.4381H65.3281L70.3881 114.16H78.6581H135.998L139.618 42.3205L140.158 31.6505Z" fill="#A5ABC5"/>
</g>
<path fill-rule="evenodd" clip-rule="evenodd" d="M122.571 46.9707L117.661 115.521H16.3814L15.9114 107.891L12.4014 50.6007L12.1914 46.9707H122.571Z" fill="#EB6770"/>
<path fill-rule="evenodd" clip-rule="evenodd" d="M15.8516 106.82L118.442 104.49L117.652 115.51H16.3816L15.8516 106.82Z" fill="#EB6770"/>
<path fill-rule="evenodd" clip-rule="evenodd" d="M41.1684 79.3716C41.1684 94.0616 30.1484 106.172 15.9084 107.892L12.3984 50.6016C28.2984 50.6016 41.1684 63.4716 41.1684 79.3716Z" fill="#63EDFF"/>
<path fill-rule="evenodd" clip-rule="evenodd" d="M37.2398 79.3512C37.2398 91.9412 27.7998 102.321 15.5998 103.791L12.5898 54.7012C26.2098 54.7012 37.2398 65.7312 37.2398 79.3512Z" fill="url(#paint8_linear_2271_18478)"/>
<path fill-rule="evenodd" clip-rule="evenodd" d="M60.9805 58.1699V65.5599H107.8V59.3999L60.9805 58.1699Z" fill="white"/>
<path fill-rule="evenodd" clip-rule="evenodd" d="M67.3789 68.5217V69.9417L101.639 70.1516V67.9316L67.3789 68.5217Z" fill="white"/>
<path fill-rule="evenodd" clip-rule="evenodd" d="M71.3281 96.1299V75.5898L97.6881 73.5898V96.1299H71.3281Z" fill="white"/>
<path fill-rule="evenodd" clip-rule="evenodd" d="M15.9102 107.891L118.32 106.271L118.65 101.221L15.9102 105.111V107.891Z" fill="#63EDFF"/>
<path fill-rule="evenodd" clip-rule="evenodd" d="M12.1897 46.9707H0.179688L2.35968 115.511H16.3797L12.1897 46.9707Z" fill="#8F3F44"/>
<path fill-rule="evenodd" clip-rule="evenodd" d="M134.619 113.851L133.289 5.56055H188.519L185.619 113.851H134.619Z" fill="url(#paint9_linear_2271_18478)"/>
<path d="M160.907 66.4713C171.799 66.4713 180.628 57.6423 180.628 46.7513C180.628 35.8602 171.799 27.0312 160.907 27.0312C150.016 27.0312 141.188 35.8602 141.188 46.7513C141.188 57.6423 150.016 66.4713 160.907 66.4713Z" fill="url(#paint10_radial_2271_18478)"/>
<path fill-rule="evenodd" clip-rule="evenodd" d="M134.039 66.4707C134.039 66.4707 140.759 81.6707 160.909 81.6707C181.059 81.6707 186.849 68.1507 186.849 68.1507L185.629 113.851H134.629L134.049 66.4707H134.039Z" fill="url(#paint11_linear_2271_18478)"/>
<path d="M173.116 58.9598C179.86 52.2155 179.86 41.2807 173.116 34.5363C166.371 27.792 155.437 27.792 148.692 34.5363C141.948 41.2807 141.948 52.2154 148.692 58.9598C155.437 65.7041 166.371 65.7042 173.116 58.9598Z" fill="#606060"/>
<path opacity="0.63" d="M172.309 103.92H146.879V107.84H172.309V103.92Z" fill="white"/>
<g style="mix-blend-mode:multiply" opacity="0.71">
<path fill-rule="evenodd" clip-rule="evenodd" d="M154.201 75.8398H146.231H90.3708H82.6208H74.8008L76.1108 115.28L83.8408 115.19L90.9308 115.12L145.181 114.51L153.391 114.42L153.461 111.22L153.571 105.79L154.201 75.8398Z" fill="#A5ABC5"/>
</g>
<path fill-rule="evenodd" clip-rule="evenodd" d="M87.6194 115.141L86.3594 77.1309H155.199L154.199 114.401L87.6194 115.141Z" fill="url(#paint12_radial_2271_18478)"/>
<g style="mix-blend-mode:multiply" opacity="0.71">
<path fill-rule="evenodd" clip-rule="evenodd" d="M155.199 77.1309H162.889L162.109 114.311L154.199 114.401L155.199 77.1309Z" fill="#A5ABC5"/>
</g>
<path fill-rule="evenodd" clip-rule="evenodd" d="M93.8984 77.1309L95.0784 115.061L101.898 114.981L101.368 77.1309H93.8984Z" fill="url(#paint13_linear_2271_18478)"/>
<path fill-rule="evenodd" clip-rule="evenodd" d="M87.4877 111.23H154.198L154.418 105.99L87.3477 106.89L87.4877 111.23Z" fill="url(#paint14_linear_2271_18478)"/>
<path fill-rule="evenodd" clip-rule="evenodd" d="M154.419 105.99H162.279L162.169 111.23H154.199L154.419 105.99Z" fill="#403B98"/>
<path fill-rule="evenodd" clip-rule="evenodd" d="M121.781 80.3906L122.281 84.9106H152.591L152.971 80.3906H121.781Z" fill="#72768D"/>
<path fill-rule="evenodd" clip-rule="evenodd" d="M131.801 87.5408V91.6308L152.301 92.0708L152.591 87.0508L131.801 87.5408Z" fill="#72768D"/>
<path fill-rule="evenodd" clip-rule="evenodd" d="M150.34 99.0214C150.34 101.691 148.18 103.851 145.51 103.851C142.84 103.851 140.68 101.691 140.68 99.0214C140.68 96.3514 142.84 94.1914 145.51 94.1914C148.18 94.1914 150.34 96.3514 150.34 99.0214Z" fill="#EB6770"/>
<defs>
<linearGradient id="paint0_linear_2271_18478" x1="33.9797" y1="112.551" x2="33.9797" y2="37.4707" gradientUnits="userSpaceOnUse">
<stop stop-color="#6B1527"/>
<stop offset="1" stop-color="#7F240E"/>
</linearGradient>
<linearGradient id="paint1_linear_2271_18478" x1="33.9797" y1="37.4703" x2="33.9797" y2="13.0703" gradientUnits="userSpaceOnUse">
<stop stop-color="#7F240E"/>
<stop offset="1" stop-color="#A14527"/>
</linearGradient>
<linearGradient id="paint2_linear_2271_18478" x1="18.2383" y1="7.63047" x2="49.7083" y2="7.63047" gradientUnits="userSpaceOnUse">
<stop stop-color="#3B85FF"/>
<stop offset="1" stop-color="#00C6E1"/>
</linearGradient>
<radialGradient id="paint3_radial_2271_18478" cx="0" cy="0" r="1" gradientUnits="userSpaceOnUse" gradientTransform="translate(34.0997 76.7509) scale(32.54 32.54)">
<stop offset="0.02" stop-color="white"/>
<stop offset="0.53" stop-color="#FBFCFF"/>
<stop offset="1" stop-color="#F0F6FF"/>
</radialGradient>
<linearGradient id="paint4_linear_2271_18478" x1="0.550781" y1="52.2912" x2="67.6708" y2="52.2912" gradientUnits="userSpaceOnUse">
<stop stop-color="#3B85FF"/>
<stop offset="1" stop-color="#00C6E1"/>
</linearGradient>
<linearGradient id="paint5_linear_2271_18478" x1="1.92969" y1="103.05" x2="66.2597" y2="103.05" gradientUnits="userSpaceOnUse">
<stop stop-color="#3B85FF"/>
<stop offset="1" stop-color="#00C6E1"/>
</linearGradient>
<linearGradient id="paint6_linear_2271_18478" x1="108.387" y1="114.16" x2="108.387" y2="7.98047" gradientUnits="userSpaceOnUse">
<stop stop-color="#3B85FF"/>
<stop offset="1" stop-color="#00C6E1"/>
</linearGradient>
<linearGradient id="paint7_linear_2271_18478" x1="99.4294" y1="46.0199" x2="99.4294" y2="38.6699" gradientUnits="userSpaceOnUse">
<stop stop-color="#F1E5FF"/>
<stop offset="0.23" stop-color="#F6F0FF"/>
<stop offset="0.59" stop-color="#FDFBFF"/>
<stop offset="0.98" stop-color="white"/>
</linearGradient>
<linearGradient id="paint8_linear_2271_18478" x1="12.5798" y1="79.2412" x2="37.2398" y2="79.2412" gradientUnits="userSpaceOnUse">
<stop stop-color="#3B85FF"/>
<stop offset="1" stop-color="#00C6E1"/>
</linearGradient>
<linearGradient id="paint9_linear_2271_18478" x1="160.909" y1="113.851" x2="160.909" y2="5.56055" gradientUnits="userSpaceOnUse">
<stop offset="0.02" stop-color="#F9B000"/>
<stop offset="1" stop-color="#FED16E"/>
</linearGradient>
<radialGradient id="paint10_radial_2271_18478" cx="0" cy="0" r="1" gradientUnits="userSpaceOnUse" gradientTransform="translate(162.878 33.2213) scale(18.29)">
<stop offset="0.02" stop-color="white"/>
<stop offset="0.41" stop-color="#FDFBFF"/>
<stop offset="0.77" stop-color="#F6F0FF"/>
<stop offset="1" stop-color="#F1E5FF"/>
</radialGradient>
<linearGradient id="paint11_linear_2271_18478" x1="160.439" y1="113.851" x2="160.439" y2="66.4707" gradientUnits="userSpaceOnUse">
<stop stop-color="#3B85FF"/>
<stop offset="1" stop-color="#00C6E1"/>
</linearGradient>
<radialGradient id="paint12_radial_2271_18478" cx="0" cy="0" r="1" gradientUnits="userSpaceOnUse" gradientTransform="translate(120.265 96.1409) scale(26.9352 31.32)">
<stop offset="0.02" stop-color="white"/>
<stop offset="0.4" stop-color="#FBFEFF"/>
<stop offset="0.75" stop-color="#F0FBFF"/>
<stop offset="1" stop-color="#E3F8FF"/>
</radialGradient>
<linearGradient id="paint13_linear_2271_18478" x1="97.8984" y1="115.061" x2="97.8984" y2="77.1309" gradientUnits="userSpaceOnUse">
<stop stop-color="#576FFF"/>
<stop offset="1" stop-color="#568FFF"/>
</linearGradient>
<linearGradient id="paint14_linear_2271_18478" x1="87.3477" y1="108.61" x2="154.418" y2="108.61" gradientUnits="userSpaceOnUse">
<stop stop-color="#576FFF"/>
<stop offset="1" stop-color="#568FFF"/>
</linearGradient>
</defs>
</svg>
