<svg width="200" height="106" viewBox="0 0 200 106" fill="none" xmlns="http://www.w3.org/2000/svg">
<path fill-rule="evenodd" clip-rule="evenodd" d="M2.40125 105.59L0.53125 36.5H62.7312L61.3113 105.25L2.40125 105.59Z" fill="url(#paint0_linear_2271_18527)"/>
<path fill-rule="evenodd" clip-rule="evenodd" d="M0.53125 36.4988L26.2913 14.0488H37.3113L62.7312 36.4988H0.53125Z" fill="url(#paint1_linear_2271_18527)"/>
<path fill-rule="evenodd" clip-rule="evenodd" d="M17.9124 15.3995H45.4923L46.1123 2.68945H17.1523L17.9124 15.3995Z" fill="url(#paint2_linear_2271_18527)"/>
<path fill-rule="evenodd" clip-rule="evenodd" d="M21.2305 15.4004L21.5505 18.1804H41.6205L42.1705 15.4004H21.2305Z" fill="#631842"/>
<path fill-rule="evenodd" clip-rule="evenodd" d="M0.75 44.7693L62.73 43.7793L61.4 100.539L2.33997 101.519L0.75 44.7693Z" fill="url(#paint3_radial_2271_18527)"/>
<path fill-rule="evenodd" clip-rule="evenodd" d="M0.859375 48.7598L62.6294 47.8398L62.2594 52.4398H0.859375V48.7598Z" fill="url(#paint4_linear_2271_18527)"/>
<path fill-rule="evenodd" clip-rule="evenodd" d="M2.14062 94.2695L61.3406 95.5595V99.4295H2.14062V94.2695Z" fill="url(#paint5_linear_2271_18527)"/>
<path fill-rule="evenodd" clip-rule="evenodd" d="M17.1523 59.6289V64.0489L49.9124 65.5289V60.1789L17.1523 59.6289Z" fill="#72768D"/>
<g style="mix-blend-mode:soft-light">
<path fill-rule="evenodd" clip-rule="evenodd" d="M35.0898 18.1797L43.0999 35.6697H56.7299L38.8599 18.1797H35.0898Z" fill="white"/>
</g>
<g style="mix-blend-mode:soft-light">
<path fill-rule="evenodd" clip-rule="evenodd" d="M3.97266 36.4997L22.8927 18.1797H24.7627L6.06274 36.4997H3.97266Z" fill="white"/>
</g>
<path fill-rule="evenodd" clip-rule="evenodd" d="M142.54 105.588L141.07 22.4082H182.39V105.208L142.54 105.588Z" fill="url(#paint6_linear_2271_18527)"/>
<path style="mix-blend-mode:soft-light" fill-rule="evenodd" clip-rule="evenodd" d="M143.27 22.4082L144.37 33.7982H178.729L180.199 22.4082H143.27Z" fill="url(#paint7_radial_2271_18527)"/>
<path fill-rule="evenodd" clip-rule="evenodd" d="M141.071 22.4089L139.961 8.62891H183.201L182.391 22.4089H141.071Z" fill="url(#paint8_radial_2271_18527)"/>
<path fill-rule="evenodd" clip-rule="evenodd" d="M141.449 44.2187L182.389 44.1387V95.1487L142.389 97.0087L141.449 44.2187Z" fill="url(#paint9_radial_2271_18527)"/>
<path fill-rule="evenodd" clip-rule="evenodd" d="M141.621 55.6691C141.621 55.6691 149.851 85.4191 182.391 86.5291V49.7891H141.621V55.6691Z" fill="url(#paint10_linear_2271_18527)"/>
<g style="mix-blend-mode:multiply" opacity="0.71">
<path fill-rule="evenodd" clip-rule="evenodd" d="M139.961 8.62914L141.061 22.4091L141.451 44.2191L141.611 53.4291V55.6591C141.611 55.6591 141.631 55.7191 141.651 55.7991L142.381 96.9891L142.531 105.579L182.381 105.199V22.3991L183.191 8.61914H139.961V8.62914Z" fill="#A5ABC5"/>
</g>
<path style="mix-blend-mode:screen" opacity="0.79" fill-rule="evenodd" clip-rule="evenodd" d="M142.54 105.588L141.07 22.4082H161.6V105.408L142.54 105.588Z" fill="url(#paint11_linear_2271_18527)"/>
<path fill-rule="evenodd" clip-rule="evenodd" d="M86.3604 105.59L85.0703 0.580078H138.63L135.82 105.59H86.3604Z" fill="url(#paint12_linear_2271_18527)"/>
<path d="M130.703 43.5918C132.4 33.1695 125.327 23.3445 114.905 21.6471C104.483 19.9497 94.6575 27.0227 92.9601 37.445C91.2627 47.8674 98.3357 57.6924 108.758 59.3898C119.18 61.0872 129.005 54.0142 130.703 43.5918Z" fill="url(#paint13_radial_2271_18527)"/>
<path fill-rule="evenodd" clip-rule="evenodd" d="M85.8008 59.6504C85.8008 59.6504 92.3107 74.3904 111.851 74.3904C131.391 74.3904 137.001 61.2804 137.001 61.2804L135.821 105.6H86.3607L85.8008 59.6604V59.6504Z" fill="url(#paint14_linear_2271_18527)"/>
<path d="M111.849 57.271C121.095 57.271 128.589 49.7763 128.589 40.531C128.589 31.2858 121.095 23.791 111.849 23.791C102.604 23.791 95.1094 31.2858 95.1094 40.531C95.1094 49.7763 102.604 57.271 111.849 57.271Z" fill="#606060"/>
<path opacity="0.63" d="M122.922 95.9609H98.2617V99.7609H122.922V95.9609Z" fill="white"/>
<g style="mix-blend-mode:multiply" opacity="0.71">
<path fill-rule="evenodd" clip-rule="evenodd" d="M86.3604 105.59L85.0703 0.580078H138.63L135.82 105.59H86.3604Z" fill="#A5ABC5"/>
</g>
<g style="mix-blend-mode:multiply" opacity="0.71">
<g style="mix-blend-mode:multiply" opacity="0.71">
<path fill-rule="evenodd" clip-rule="evenodd" d="M45.7209 21.7402L46.101 43.2902L46.271 52.7702V55.0702C46.271 55.0702 46.291 55.1302 46.311 55.2202L47.061 97.6202L47.2009 105.6L61.301 105.52L61.401 100.81L62.7209 44.0502H62.5709L62.7209 36.7702L45.7109 21.7402H45.7209Z" fill="#A5ABC5"/>
</g>
<g style="mix-blend-mode:soft-light">
<path fill-rule="evenodd" clip-rule="evenodd" d="M45.2904 15.6604H45.4904L45.9304 6.65039H44.5703L45.2904 15.6604Z" fill="#A5ABC5"/>
</g>
</g>
<path fill-rule="evenodd" clip-rule="evenodd" d="M52.5707 105.59L51.0508 19.9805H93.5807V105.2L52.5707 105.59Z" fill="url(#paint15_linear_2271_18527)"/>
<path style="mix-blend-mode:soft-light" fill-rule="evenodd" clip-rule="evenodd" d="M53.3203 19.9805L54.4503 31.7005H89.8203L91.3303 19.9805H53.3203Z" fill="url(#paint16_radial_2271_18527)"/>
<path fill-rule="evenodd" clip-rule="evenodd" d="M51.0502 19.981L49.9102 5.79102H94.4102L93.5801 19.981H51.0502Z" fill="url(#paint17_radial_2271_18527)"/>
<path fill-rule="evenodd" clip-rule="evenodd" d="M51.4492 42.4318L93.5792 42.3418V94.8418L52.4093 96.7518L51.4492 42.4318Z" fill="url(#paint18_radial_2271_18527)"/>
<path fill-rule="evenodd" clip-rule="evenodd" d="M51.6211 54.2102C51.6211 54.2102 60.1011 84.8401 93.5911 85.9801V48.1602H51.6211V54.2102Z" fill="url(#paint19_linear_2271_18527)"/>
<path style="mix-blend-mode:screen" opacity="0.79" fill-rule="evenodd" clip-rule="evenodd" d="M52.5707 105.59L51.0508 19.9805H72.1808V105.41L52.5707 105.59Z" fill="url(#paint20_linear_2271_18527)"/>
<path fill-rule="evenodd" clip-rule="evenodd" d="M96.1307 105.59L95.8008 75.1897C95.8008 75.1897 105.891 66.0397 116.291 75.1897L116.381 105.4L96.1307 105.59Z" fill="url(#paint21_radial_2271_18527)"/>
<path d="M111.251 69.5801H101.281V72.0401H111.251V69.5801Z" fill="#C1A8D4"/>
<path d="M112.039 68.1289H100.039V69.5789H112.039V68.1289Z" fill="url(#paint22_radial_2271_18527)"/>
<path fill-rule="evenodd" clip-rule="evenodd" d="M101.281 68.1292V60.6292L111.481 60.6191L111.251 68.1292H101.281Z" fill="url(#paint23_radial_2271_18527)"/>
<path fill-rule="evenodd" clip-rule="evenodd" d="M103.561 60.6298V45.7198C103.561 44.2198 104.771 43.0098 106.271 43.0098C107.791 43.0098 109.021 44.2698 108.981 45.7898L108.811 60.6298H103.551H103.561Z" fill="url(#paint24_radial_2271_18527)"/>
<path fill-rule="evenodd" clip-rule="evenodd" d="M95.8925 82.5195L116.392 83.1795L116.372 98.7695H95.8125L95.8925 82.5195Z" fill="url(#paint25_linear_2271_18527)"/>
<path fill-rule="evenodd" clip-rule="evenodd" d="M100.039 84.2305L100.739 92.3505H112.039L113.129 84.2305H100.039Z" fill="url(#paint26_radial_2271_18527)"/>
<g style="mix-blend-mode:multiply" opacity="0.5">
<path fill-rule="evenodd" clip-rule="evenodd" d="M100.039 96.4102L113.129 96.9301V98.0502L100.039 97.7901V96.4102Z" fill="#BF90D1"/>
</g>
<path fill-rule="evenodd" clip-rule="evenodd" d="M124.29 105.59L123.02 67.5801H191.87L190.859 104.85L124.29 105.59Z" fill="url(#paint27_radial_2271_18527)"/>
<g style="mix-blend-mode:multiply" opacity="0.71">
<path fill-rule="evenodd" clip-rule="evenodd" d="M191.869 67.5801H199.549L198.779 104.76L190.859 104.85L191.869 67.5801Z" fill="#A5ABC5"/>
</g>
<path fill-rule="evenodd" clip-rule="evenodd" d="M130.559 67.5801L131.739 105.51L138.568 105.43L138.039 67.5801H130.559Z" fill="url(#paint28_linear_2271_18527)"/>
<path fill-rule="evenodd" clip-rule="evenodd" d="M124.16 101.679H190.859L191.089 96.4492L124.02 97.3392L124.16 101.679Z" fill="url(#paint29_linear_2271_18527)"/>
<path fill-rule="evenodd" clip-rule="evenodd" d="M191.089 96.4492H198.949L198.839 101.679H190.859L191.089 96.4492Z" fill="#403B98"/>
<path fill-rule="evenodd" clip-rule="evenodd" d="M158.449 70.8398L158.949 75.3598H189.259L189.639 70.8398H158.449Z" fill="#72768D"/>
<path fill-rule="evenodd" clip-rule="evenodd" d="M168.461 78V82.08L188.961 82.52L189.261 77.5L168.461 78Z" fill="#72768D"/>
<path fill-rule="evenodd" clip-rule="evenodd" d="M187.008 89.4706C187.008 92.1406 184.848 94.3006 182.178 94.3006C179.508 94.3006 177.348 92.1406 177.348 89.4706C177.348 86.8006 179.508 84.6406 182.178 84.6406C184.848 84.6406 187.008 86.8006 187.008 89.4706Z" fill="#EB6770"/>
<defs>
<linearGradient id="paint0_linear_2271_18527" x1="31.6312" y1="105.59" x2="31.6312" y2="36.5" gradientUnits="userSpaceOnUse">
<stop stop-color="#6B1527"/>
<stop offset="1" stop-color="#7F240E"/>
</linearGradient>
<linearGradient id="paint1_linear_2271_18527" x1="31.6312" y1="36.4988" x2="31.6312" y2="14.0488" gradientUnits="userSpaceOnUse">
<stop stop-color="#7F240E"/>
<stop offset="1" stop-color="#A14527"/>
</linearGradient>
<linearGradient id="paint2_linear_2271_18527" x1="17.1523" y1="9.04945" x2="46.1123" y2="9.04945" gradientUnits="userSpaceOnUse">
<stop stop-color="#3B85FF"/>
<stop offset="1" stop-color="#00C6E1"/>
</linearGradient>
<radialGradient id="paint3_radial_2271_18527" cx="0" cy="0" r="1" gradientUnits="userSpaceOnUse" gradientTransform="translate(31.74 72.6493) scale(29.95 29.95)">
<stop offset="0.02" stop-color="white"/>
<stop offset="0.53" stop-color="#FBFCFF"/>
<stop offset="1" stop-color="#F0F6FF"/>
</radialGradient>
<linearGradient id="paint4_linear_2271_18527" x1="0.859375" y1="50.1398" x2="62.6294" y2="50.1398" gradientUnits="userSpaceOnUse">
<stop stop-color="#3B85FF"/>
<stop offset="1" stop-color="#00C6E1"/>
</linearGradient>
<linearGradient id="paint5_linear_2271_18527" x1="2.14062" y1="96.8495" x2="61.3406" y2="96.8495" gradientUnits="userSpaceOnUse">
<stop stop-color="#3B85FF"/>
<stop offset="1" stop-color="#00C6E1"/>
</linearGradient>
<linearGradient id="paint6_linear_2271_18527" x1="161.73" y1="105.588" x2="161.73" y2="22.4082" gradientUnits="userSpaceOnUse">
<stop stop-color="#471527"/>
<stop offset="0.31" stop-color="#591723"/>
<stop offset="0.93" stop-color="#881E1B"/>
<stop offset="1" stop-color="#8E1F1B"/>
</linearGradient>
<radialGradient id="paint7_radial_2271_18527" cx="0" cy="0" r="1" gradientUnits="userSpaceOnUse" gradientTransform="translate(161.739 28.1082) scale(13.66 13.66)">
<stop offset="0.02" stop-color="white"/>
<stop offset="0.41" stop-color="#FDFBFF"/>
<stop offset="0.77" stop-color="#F6F0FF"/>
<stop offset="1" stop-color="#F1E5FF"/>
</radialGradient>
<radialGradient id="paint8_radial_2271_18527" cx="0" cy="0" r="1" gradientUnits="userSpaceOnUse" gradientTransform="translate(161.581 15.5189) scale(16.04 16.04)">
<stop offset="0.02" stop-color="white"/>
<stop offset="0.41" stop-color="#FDFBFF"/>
<stop offset="0.77" stop-color="#F6F0FF"/>
<stop offset="1" stop-color="#F1E5FF"/>
</radialGradient>
<radialGradient id="paint9_radial_2271_18527" cx="0" cy="0" r="1" gradientUnits="userSpaceOnUse" gradientTransform="translate(161.919 70.5687) scale(23.64 23.64)">
<stop offset="0.02" stop-color="white"/>
<stop offset="0.53" stop-color="#FBFCFF"/>
<stop offset="1" stop-color="#F0F6FF"/>
</radialGradient>
<linearGradient id="paint10_linear_2271_18527" x1="141.621" y1="68.1591" x2="182.391" y2="68.1591" gradientUnits="userSpaceOnUse">
<stop offset="0.02" stop-color="#F9B000"/>
<stop offset="1" stop-color="#FED16E"/>
</linearGradient>
<linearGradient id="paint11_linear_2271_18527" x1="141.07" y1="63.9982" x2="161.6" y2="63.9982" gradientUnits="userSpaceOnUse">
<stop stop-color="#F2A27E"/>
<stop offset="0.2" stop-color="#AF755B"/>
<stop offset="0.41" stop-color="#714C3B"/>
<stop offset="0.61" stop-color="#402B21"/>
<stop offset="0.77" stop-color="#1D130F"/>
<stop offset="0.91" stop-color="#070504"/>
<stop offset="1"/>
</linearGradient>
<linearGradient id="paint12_linear_2271_18527" x1="111.85" y1="105.59" x2="111.85" y2="0.580078" gradientUnits="userSpaceOnUse">
<stop offset="0.02" stop-color="#F9B000"/>
<stop offset="1" stop-color="#FED16E"/>
</linearGradient>
<radialGradient id="paint13_radial_2271_18527" cx="0" cy="0" r="1" gradientUnits="userSpaceOnUse" gradientTransform="translate(113.74 27.428) scale(17.73)">
<stop offset="0.02" stop-color="white"/>
<stop offset="0.41" stop-color="#FDFBFF"/>
<stop offset="0.77" stop-color="#F6F0FF"/>
<stop offset="1" stop-color="#F1E5FF"/>
</radialGradient>
<linearGradient id="paint14_linear_2271_18527" x1="111.401" y1="105.59" x2="111.401" y2="59.6504" gradientUnits="userSpaceOnUse">
<stop stop-color="#3B85FF"/>
<stop offset="1" stop-color="#00C6E1"/>
</linearGradient>
<linearGradient id="paint15_linear_2271_18527" x1="72.3207" y1="105.59" x2="72.3207" y2="19.9805" gradientUnits="userSpaceOnUse">
<stop stop-color="#471527"/>
<stop offset="0.31" stop-color="#591723"/>
<stop offset="0.93" stop-color="#881E1B"/>
<stop offset="1" stop-color="#8E1F1B"/>
</linearGradient>
<radialGradient id="paint16_radial_2271_18527" cx="0" cy="0" r="1" gradientUnits="userSpaceOnUse" gradientTransform="translate(72.3203 25.8405) scale(14.06 14.06)">
<stop offset="0.02" stop-color="white"/>
<stop offset="0.41" stop-color="#FDFBFF"/>
<stop offset="0.77" stop-color="#F6F0FF"/>
<stop offset="1" stop-color="#F1E5FF"/>
</radialGradient>
<radialGradient id="paint17_radial_2271_18527" cx="0" cy="0" r="1" gradientUnits="userSpaceOnUse" gradientTransform="translate(72.1602 12.891) scale(16.51 16.51)">
<stop offset="0.02" stop-color="white"/>
<stop offset="0.41" stop-color="#FDFBFF"/>
<stop offset="0.77" stop-color="#F6F0FF"/>
<stop offset="1" stop-color="#F1E5FF"/>
</radialGradient>
<radialGradient id="paint18_radial_2271_18527" cx="0" cy="0" r="1" gradientUnits="userSpaceOnUse" gradientTransform="translate(72.5092 69.5518) scale(24.33 24.33)">
<stop offset="0.02" stop-color="white"/>
<stop offset="0.53" stop-color="#FBFCFF"/>
<stop offset="1" stop-color="#F0F6FF"/>
</radialGradient>
<linearGradient id="paint19_linear_2271_18527" x1="51.6211" y1="67.0602" x2="93.5811" y2="67.0602" gradientUnits="userSpaceOnUse">
<stop offset="0.02" stop-color="#F9B000"/>
<stop offset="1" stop-color="#FED16E"/>
</linearGradient>
<linearGradient id="paint20_linear_2271_18527" x1="51.0508" y1="62.7905" x2="72.1808" y2="62.7905" gradientUnits="userSpaceOnUse">
<stop stop-color="#F2A27E"/>
<stop offset="0.2" stop-color="#AF755B"/>
<stop offset="0.41" stop-color="#714C3B"/>
<stop offset="0.61" stop-color="#402B21"/>
<stop offset="0.77" stop-color="#1D130F"/>
<stop offset="0.91" stop-color="#070504"/>
<stop offset="1"/>
</linearGradient>
<radialGradient id="paint21_radial_2271_18527" cx="0" cy="0" r="1" gradientUnits="userSpaceOnUse" gradientTransform="translate(106.101 88.3597) scale(14.19 14.19)">
<stop offset="0.02" stop-color="white"/>
<stop offset="0.53" stop-color="#FBFCFF"/>
<stop offset="1" stop-color="#F0F6FF"/>
</radialGradient>
<radialGradient id="paint22_radial_2271_18527" cx="0" cy="0" r="1" gradientUnits="userSpaceOnUse" gradientTransform="translate(111.726 68.8589) scale(4.2845 4.50999)">
<stop offset="0.02" stop-color="white"/>
<stop offset="0.53" stop-color="#FBFCFF"/>
<stop offset="1" stop-color="#F0F6FF"/>
</radialGradient>
<radialGradient id="paint23_radial_2271_18527" cx="0" cy="0" r="1" gradientUnits="userSpaceOnUse" gradientTransform="translate(106.381 64.3791) scale(4.47998 4.48001)">
<stop offset="0.02" stop-color="white"/>
<stop offset="0.53" stop-color="#FBFCFF"/>
<stop offset="1" stop-color="#F0F6FF"/>
</radialGradient>
<radialGradient id="paint24_radial_2271_18527" cx="0" cy="0" r="1" gradientUnits="userSpaceOnUse" gradientTransform="translate(106.271 55.1846) scale(6.51992 12.5184)">
<stop offset="0.02" stop-color="white"/>
<stop offset="0.53" stop-color="#FBFCFF"/>
<stop offset="1" stop-color="#F0F6FF"/>
</radialGradient>
<linearGradient id="paint25_linear_2271_18527" x1="95.8125" y1="90.6495" x2="116.392" y2="90.6495" gradientUnits="userSpaceOnUse">
<stop offset="0.02" stop-color="#F9B000"/>
<stop offset="1" stop-color="#FED16E"/>
</linearGradient>
<radialGradient id="paint26_radial_2271_18527" cx="0" cy="0" r="1" gradientUnits="userSpaceOnUse" gradientTransform="translate(106.579 88.2905) scale(5.44999 5.45001)">
<stop offset="0.02" stop-color="white"/>
<stop offset="0.53" stop-color="#FBFCFF"/>
<stop offset="1" stop-color="#F0F6FF"/>
</radialGradient>
<radialGradient id="paint27_radial_2271_18527" cx="0" cy="0" r="1" gradientUnits="userSpaceOnUse" gradientTransform="translate(156.512 86.5901) scale(26.9352 31.32)">
<stop offset="0.02" stop-color="white"/>
<stop offset="0.4" stop-color="#FBFEFF"/>
<stop offset="0.75" stop-color="#F0FBFF"/>
<stop offset="1" stop-color="#E3F8FF"/>
</radialGradient>
<linearGradient id="paint28_linear_2271_18527" x1="134.569" y1="105.51" x2="134.569" y2="67.5801" gradientUnits="userSpaceOnUse">
<stop stop-color="#576FFF"/>
<stop offset="1" stop-color="#568FFF"/>
</linearGradient>
<linearGradient id="paint29_linear_2271_18527" x1="124.02" y1="99.0692" x2="191.089" y2="99.0692" gradientUnits="userSpaceOnUse">
<stop stop-color="#576FFF"/>
<stop offset="1" stop-color="#568FFF"/>
</linearGradient>
</defs>
</svg>
