<svg width="184" height="113" viewBox="0 0 184 113" fill="none" xmlns="http://www.w3.org/2000/svg">
<path fill-rule="evenodd" clip-rule="evenodd" d="M85.7993 112.86L83.9492 45.5898L171.269 45.6698L168.449 112.86H85.7993Z" fill="url(#paint0_linear_2271_18356)"/>
<path fill-rule="evenodd" clip-rule="evenodd" d="M84.3789 61.1702L170.739 58.2402L169.349 91.5102H84.8989L84.3789 61.1702Z" fill="url(#paint1_radial_2271_18356)"/>
<path fill-rule="evenodd" clip-rule="evenodd" d="M103.188 62.3295L152.128 61.0195V63.3795L103.188 64.4195V62.3295Z" fill="url(#paint2_linear_2271_18356)"/>
<path fill-rule="evenodd" clip-rule="evenodd" d="M94.8008 68.1099L160.521 67.1699V72.6799H94.8008V68.1099Z" fill="url(#paint3_linear_2271_18356)"/>
<path d="M149.018 107.439H110.238V109.029H149.018V107.439Z" fill="#C2C2FF"/>
<path fill-rule="evenodd" clip-rule="evenodd" d="M117.301 88.7904L116.121 74.9304L141.651 74.6504L140.241 88.7904H117.301Z" fill="#72768D"/>
<path fill-rule="evenodd" clip-rule="evenodd" d="M171.269 45.6699L183.719 45.6799L180.369 112.86H168.449L171.269 45.6699Z" fill="#04839C"/>
<path fill-rule="evenodd" clip-rule="evenodd" d="M170.738 58.2402H183.088L181.398 92.2702L169.348 91.5102L170.738 58.2402Z" fill="#8FA8CF"/>
<g style="mix-blend-mode:multiply" opacity="0.71">
<path fill-rule="evenodd" clip-rule="evenodd" d="M183.089 58.2399L183.719 45.6798L171.269 45.6698L83.9492 45.5898L84.3793 61.1698L84.8993 91.5098H85.2092L85.7993 112.86H168.449H180.369L182.429 71.6599L183.089 58.2399Z" fill="#A5ABC5"/>
</g>
<path fill-rule="evenodd" clip-rule="evenodd" d="M57.6615 112.857L55.6914 40.4375H120.891L119.401 112.497L57.6615 112.857Z" fill="url(#paint4_linear_2271_18356)"/>
<path fill-rule="evenodd" clip-rule="evenodd" d="M55.6914 40.4382L82.6914 16.9082H94.2515L120.891 40.4382H55.6914Z" fill="url(#paint5_linear_2271_18356)"/>
<path fill-rule="evenodd" clip-rule="evenodd" d="M73.9133 18.3183H102.823L103.473 4.98828H73.1133L73.9133 18.3183Z" fill="url(#paint6_linear_2271_18356)"/>
<path fill-rule="evenodd" clip-rule="evenodd" d="M77.3906 18.3184L77.7306 21.2284H98.7706L99.3506 18.3184H77.3906Z" fill="#631842"/>
<path fill-rule="evenodd" clip-rule="evenodd" d="M55.9297 49.0984L120.89 48.0684L119.5 107.568L57.5896 108.598L55.9297 49.0984Z" fill="url(#paint7_radial_2271_18356)"/>
<path fill-rule="evenodd" clip-rule="evenodd" d="M56.043 53.2883L120.793 52.3184L120.403 57.1483H56.043V53.2883Z" fill="url(#paint8_linear_2271_18356)"/>
<path fill-rule="evenodd" clip-rule="evenodd" d="M57.3828 100.998L119.443 102.348V106.408H57.3828V100.998Z" fill="url(#paint9_linear_2271_18356)"/>
<path fill-rule="evenodd" clip-rule="evenodd" d="M73.1133 64.6777V69.3177L107.463 70.8577V65.2577L73.1133 64.6777Z" fill="#72768D"/>
<g style="mix-blend-mode:soft-light">
<path fill-rule="evenodd" clip-rule="evenodd" d="M91.9219 21.2285L100.312 39.5685H114.612L95.8718 21.2285H91.9219Z" fill="white"/>
</g>
<g style="mix-blend-mode:soft-light">
<path fill-rule="evenodd" clip-rule="evenodd" d="M59.3008 40.4385L79.1307 21.2285H81.0907L61.4907 40.4385H59.3008Z" fill="white"/>
</g>
<g style="mix-blend-mode:multiply" opacity="0.71">
<path fill-rule="evenodd" clip-rule="evenodd" d="M120.731 48.0683L120.891 40.4383L98.8314 20.9483L99.3514 18.3183H102.821L103.471 4.98828H73.1115L73.9115 18.3183H77.3915L77.7314 21.2283L55.6914 40.4383L55.9315 49.0983V49.1783L56.0415 53.4083V57.1483H56.1515L57.3815 102.548V106.408H57.4814L57.6615 112.858L119.401 112.498L119.511 107.508L120.891 48.0683H120.731Z" fill="#A5ABC5"/>
</g>
<path fill-rule="evenodd" clip-rule="evenodd" d="M2.6203 112.86L0.570312 37.1797H68.7003L67.1503 112.49L2.6203 112.86Z" fill="url(#paint10_linear_2271_18356)"/>
<path fill-rule="evenodd" clip-rule="evenodd" d="M0.570312 37.1781L28.7903 12.5781H40.8603L68.7003 37.1781H0.570312Z" fill="url(#paint11_linear_2271_18356)"/>
<path fill-rule="evenodd" clip-rule="evenodd" d="M19.6095 14.0589H49.8195L50.4995 0.128906H18.7695L19.6095 14.0589Z" fill="url(#paint12_linear_2271_18356)"/>
<path fill-rule="evenodd" clip-rule="evenodd" d="M23.2422 14.0586L23.6022 17.0986H45.5822L46.1921 14.0586H23.2422Z" fill="#631842"/>
<path fill-rule="evenodd" clip-rule="evenodd" d="M0.808594 46.2284L68.6985 45.1484L67.2486 107.328L2.54858 108.398L0.808594 46.2284Z" fill="url(#paint13_radial_2271_18356)"/>
<path fill-rule="evenodd" clip-rule="evenodd" d="M0.929688 50.5999L68.5997 49.5898L68.1896 54.6398H0.929688V50.5999Z" fill="url(#paint14_linear_2271_18356)"/>
<path fill-rule="evenodd" clip-rule="evenodd" d="M2.33203 100.459L67.1821 101.879V106.119H2.33203V100.459Z" fill="url(#paint15_linear_2271_18356)"/>
<path fill-rule="evenodd" clip-rule="evenodd" d="M18.7695 62.5098V67.3598L54.6696 68.9698V63.1198L18.7695 62.5098Z" fill="#72768D"/>
<g style="mix-blend-mode:soft-light">
<path fill-rule="evenodd" clip-rule="evenodd" d="M38.4219 17.0996L47.2018 36.2696H62.1419L42.562 17.0996H38.4219Z" fill="white"/>
</g>
<g style="mix-blend-mode:soft-light">
<path fill-rule="evenodd" clip-rule="evenodd" d="M4.33203 37.1796L25.062 17.0996H27.112L6.62201 37.1796H4.33203Z" fill="white"/>
</g>
<path fill-rule="evenodd" clip-rule="evenodd" d="M103.569 29.8076V25.3376L99.7695 24.7676V29.8076H103.569Z" fill="#C1A8D4"/>
<path fill-rule="evenodd" clip-rule="evenodd" d="M114.53 112.858L116.24 46.248H87.7695L90.2095 112.858H114.53Z" fill="url(#paint16_radial_2271_18356)"/>
<path fill-rule="evenodd" clip-rule="evenodd" d="M116.24 46.2483C116.24 46.2483 102.72 29.7683 87.7695 46.2483H116.24Z" fill="url(#paint17_radial_2271_18356)"/>
<path fill-rule="evenodd" clip-rule="evenodd" d="M108.438 40.4781H95.1875V29.3281L108.438 30.0881V40.4781Z" fill="url(#paint18_radial_2271_18356)"/>
<path fill-rule="evenodd" clip-rule="evenodd" d="M109.539 25.8482L95.1888 25.2282C95.1888 25.2282 93.8089 22.9882 93.4989 19.0082C93.1589 14.5482 94.4388 12.1582 94.4388 12.1582H110.539V14.7682C110.539 14.7682 137.369 15.0782 140.129 15.0782C142.889 15.0782 144.579 12.9282 144.579 12.9282L153.399 12.8482V20.2882L144.849 20.0382C144.849 20.0382 143.469 18.3282 140.019 18.0982C136.569 17.8682 110.579 18.0982 110.579 18.0982L109.539 25.8482Z" fill="url(#paint19_radial_2271_18356)"/>
<g style="mix-blend-mode:multiply" opacity="0.5">
<path fill-rule="evenodd" clip-rule="evenodd" d="M103.569 27.8677L99.7695 27.2877V25.4277L103.569 25.5877V27.8677Z" fill="#BFC5D1"/>
</g>
<path fill-rule="evenodd" clip-rule="evenodd" d="M115.96 56.8594H88.1602L89.8701 103.539L114.74 104.449L115.96 56.8594Z" fill="url(#paint20_radial_2271_18356)"/>
<path fill-rule="evenodd" clip-rule="evenodd" d="M115.959 58.459H88.2188L89.7988 101.699H114.809L115.959 58.459Z" fill="url(#paint21_linear_2271_18356)"/>
<path style="mix-blend-mode:screen" opacity="0.79" fill-rule="evenodd" clip-rule="evenodd" d="M90.2095 112.859L87.7695 46.2388C87.7695 46.2388 92.1795 41.5688 95.1895 40.4688H99.7695L101.67 112.859H90.2095Z" fill="url(#paint22_linear_2271_18356)"/>
<g style="mix-blend-mode:soft-light">
<path fill-rule="evenodd" clip-rule="evenodd" d="M111.248 61.9082H91.5977L92.1777 64.6682L110.688 65.2082L111.248 61.9082Z" fill="white"/>
</g>
<path fill-rule="evenodd" clip-rule="evenodd" d="M153.399 12.8379C153.399 12.8379 150.489 15.2879 153.399 20.2779C153.399 20.2779 156.309 15.3679 153.399 12.8379Z" fill="#C1A8D4"/>
<path fill-rule="evenodd" clip-rule="evenodd" d="M110.539 12.1484C110.539 12.1484 106.779 17.3784 109.539 25.8384L110.579 18.0884C110.579 18.0884 109.579 15.9584 110.539 14.7584V12.1484Z" fill="#C1A8D4"/>
<path fill-rule="evenodd" clip-rule="evenodd" d="M41.9012 112.67L34.0312 45.9196L86.4512 44.8496L79.3113 112.86L41.9012 112.67Z" fill="url(#paint23_linear_2271_18356)"/>
<path fill-rule="evenodd" clip-rule="evenodd" d="M40.8008 103.329L80.4008 102.549L79.3109 112.859L41.9008 112.669L40.8008 103.329Z" fill="#EB6770"/>
<g style="mix-blend-mode:multiply" opacity="0.5">
<path fill-rule="evenodd" clip-rule="evenodd" d="M34.5712 50.4296H85.8712L86.4512 44.8496L34.0312 45.9196L34.5712 50.4296Z" fill="#FCC9D1"/>
</g>
<path fill-rule="evenodd" clip-rule="evenodd" d="M34.5703 50.4299C34.5703 50.4299 43.9503 95.4299 60.6003 96.3799C77.2603 97.3399 85.8703 50.4299 85.8703 50.4299L80.4003 102.54L40.8103 103.32L34.5703 50.4199V50.4299Z" fill="url(#paint24_radial_2271_18356)"/>
<path style="mix-blend-mode:soft-light" opacity="0.5" fill-rule="evenodd" clip-rule="evenodd" d="M34.5703 50.4297C34.5703 50.4297 42.5603 62.4397 58.0903 64.4897C73.6203 66.5397 85.8703 50.4297 85.8703 50.4297H34.5703Z" fill="url(#paint25_radial_2271_18356)"/>
<g style="mix-blend-mode:multiply" opacity="0.5">
<path fill-rule="evenodd" clip-rule="evenodd" d="M44.6602 60.7301L46.3901 68.5401H74.0402L75.7701 59.6602L44.6602 60.7301Z" fill="#C25486"/>
</g>
<path fill-rule="evenodd" clip-rule="evenodd" d="M53.7227 71.7498V73.2098L67.0627 72.7298V71.5098L53.7227 71.7498Z" fill="url(#paint26_radial_2271_18356)"/>
<path style="mix-blend-mode:soft-light" fill-rule="evenodd" clip-rule="evenodd" d="M72.2109 112.859L84.611 56.2988L75.771 112.849L72.2109 112.859Z" fill="url(#paint27_radial_2271_18356)"/>
<path style="mix-blend-mode:soft-light" fill-rule="evenodd" clip-rule="evenodd" d="M47.0703 112.69L34.5703 50.4297L50.5703 112.71L47.0703 112.69Z" fill="url(#paint28_radial_2271_18356)"/>
<path fill-rule="evenodd" clip-rule="evenodd" d="M114.932 112.859L114.602 82.4592C114.602 82.4592 124.692 73.3092 135.092 82.4592L135.182 112.669L114.932 112.859Z" fill="url(#paint29_radial_2271_18356)"/>
<path d="M130.052 76.8496H120.082V79.3096H130.052V76.8496Z" fill="#C1A8D4"/>
<path d="M130.84 75.3984H118.84V76.8484H130.84V75.3984Z" fill="url(#paint30_radial_2271_18356)"/>
<path fill-rule="evenodd" clip-rule="evenodd" d="M120.082 75.3987V67.8987L130.282 67.8887L130.052 75.3987H120.082Z" fill="url(#paint31_radial_2271_18356)"/>
<path fill-rule="evenodd" clip-rule="evenodd" d="M122.362 67.8993V52.9893C122.362 51.4893 123.572 50.2793 125.072 50.2793C126.592 50.2793 127.822 51.5393 127.782 53.0593L127.612 67.8993H122.352H122.362Z" fill="url(#paint32_radial_2271_18356)"/>
<path fill-rule="evenodd" clip-rule="evenodd" d="M114.693 89.7891L135.193 90.4491L135.173 106.039H114.613L114.693 89.7891Z" fill="url(#paint33_linear_2271_18356)"/>
<path fill-rule="evenodd" clip-rule="evenodd" d="M118.84 91.5L119.54 99.62H130.84L131.93 91.5H118.84Z" fill="url(#paint34_radial_2271_18356)"/>
<g style="mix-blend-mode:multiply" opacity="0.5">
<path fill-rule="evenodd" clip-rule="evenodd" d="M118.84 103.68L131.93 104.2V105.32L118.84 105.06V103.68Z" fill="#BF90D1"/>
</g>
<defs>
<linearGradient id="paint0_linear_2271_18356" x1="127.609" y1="112.86" x2="127.609" y2="45.5898" gradientUnits="userSpaceOnUse">
<stop stop-color="#3B85FF"/>
<stop offset="1" stop-color="#00C6E1"/>
</linearGradient>
<radialGradient id="paint1_radial_2271_18356" cx="0" cy="0" r="1" gradientUnits="userSpaceOnUse" gradientTransform="translate(127.559 74.8702) scale(32.72 32.72)">
<stop offset="0.02" stop-color="white"/>
<stop offset="0.53" stop-color="#FBFCFF"/>
<stop offset="1" stop-color="#F0F6FF"/>
</radialGradient>
<linearGradient id="paint2_linear_2271_18356" x1="103.188" y1="62.7195" x2="152.128" y2="62.7195" gradientUnits="userSpaceOnUse">
<stop offset="0.02" stop-color="#F9B000"/>
<stop offset="1" stop-color="#FED16E"/>
</linearGradient>
<linearGradient id="paint3_linear_2271_18356" x1="94.8008" y1="69.9199" x2="160.521" y2="69.9199" gradientUnits="userSpaceOnUse">
<stop offset="0.02" stop-color="#F9B000"/>
<stop offset="1" stop-color="#FED16E"/>
</linearGradient>
<linearGradient id="paint4_linear_2271_18356" x1="88.2914" y1="112.857" x2="88.2914" y2="40.4375" gradientUnits="userSpaceOnUse">
<stop stop-color="#6B1527"/>
<stop offset="1" stop-color="#7F240E"/>
</linearGradient>
<linearGradient id="paint5_linear_2271_18356" x1="88.2914" y1="40.4382" x2="88.2914" y2="16.9082" gradientUnits="userSpaceOnUse">
<stop stop-color="#7F240E"/>
<stop offset="1" stop-color="#A14527"/>
</linearGradient>
<linearGradient id="paint6_linear_2271_18356" x1="73.1133" y1="11.6583" x2="103.473" y2="11.6583" gradientUnits="userSpaceOnUse">
<stop stop-color="#3B85FF"/>
<stop offset="1" stop-color="#00C6E1"/>
</linearGradient>
<radialGradient id="paint7_radial_2271_18356" cx="0" cy="0" r="1" gradientUnits="userSpaceOnUse" gradientTransform="translate(88.4097 78.3284) scale(31.39 31.39)">
<stop offset="0.02" stop-color="white"/>
<stop offset="0.53" stop-color="#FBFCFF"/>
<stop offset="1" stop-color="#F0F6FF"/>
</radialGradient>
<linearGradient id="paint8_linear_2271_18356" x1="56.043" y1="54.7284" x2="120.793" y2="54.7284" gradientUnits="userSpaceOnUse">
<stop stop-color="#3B85FF"/>
<stop offset="1" stop-color="#00C6E1"/>
</linearGradient>
<linearGradient id="paint9_linear_2271_18356" x1="57.3828" y1="103.698" x2="119.443" y2="103.698" gradientUnits="userSpaceOnUse">
<stop stop-color="#3B85FF"/>
<stop offset="1" stop-color="#00C6E1"/>
</linearGradient>
<linearGradient id="paint10_linear_2271_18356" x1="34.6303" y1="-103" x2="34.6303" y2="37.1797" gradientUnits="userSpaceOnUse">
<stop stop-color="#6B1527"/>
<stop offset="1" stop-color="#7F240E"/>
</linearGradient>
<linearGradient id="paint11_linear_2271_18356" x1="34.6303" y1="37.1781" x2="34.6303" y2="12.5781" gradientUnits="userSpaceOnUse">
<stop stop-color="#7F240E"/>
<stop offset="1" stop-color="#A14527"/>
</linearGradient>
<linearGradient id="paint12_linear_2271_18356" x1="18.7695" y1="7.09891" x2="50.4995" y2="7.09891" gradientUnits="userSpaceOnUse">
<stop stop-color="#3B85FF"/>
<stop offset="1" stop-color="#00C6E1"/>
</linearGradient>
<radialGradient id="paint13_radial_2271_18356" cx="0" cy="0" r="1" gradientUnits="userSpaceOnUse" gradientTransform="translate(34.7586 76.7784) scale(32.81 32.81)">
<stop offset="0.02" stop-color="white"/>
<stop offset="0.53" stop-color="#FBFCFF"/>
<stop offset="1" stop-color="#F0F6FF"/>
</radialGradient>
<linearGradient id="paint14_linear_2271_18356" x1="0.929688" y1="52.1098" x2="68.5997" y2="52.1098" gradientUnits="userSpaceOnUse">
<stop stop-color="#3B85FF"/>
<stop offset="1" stop-color="#00C6E1"/>
</linearGradient>
<linearGradient id="paint15_linear_2271_18356" x1="2.33203" y1="103.289" x2="67.1821" y2="103.289" gradientUnits="userSpaceOnUse">
<stop stop-color="#3B85FF"/>
<stop offset="1" stop-color="#00C6E1"/>
</linearGradient>
<radialGradient id="paint16_radial_2271_18356" cx="0" cy="0" r="1" gradientUnits="userSpaceOnUse" gradientTransform="translate(102 79.558) rotate(180) scale(25.61 25.61)">
<stop offset="0.02" stop-color="white"/>
<stop offset="0.53" stop-color="#FBFCFF"/>
<stop offset="1" stop-color="#F0F6FF"/>
</radialGradient>
<radialGradient id="paint17_radial_2271_18356" cx="0" cy="0" r="1" gradientUnits="userSpaceOnUse" gradientTransform="translate(102 42.5783) rotate(180) scale(10.39 10.39)">
<stop offset="0.02" stop-color="white"/>
<stop offset="0.53" stop-color="#FBFCFF"/>
<stop offset="1" stop-color="#F0F6FF"/>
</radialGradient>
<radialGradient id="paint18_radial_2271_18356" cx="0" cy="0" r="1" gradientUnits="userSpaceOnUse" gradientTransform="translate(101.808 34.8981) rotate(180) scale(6.12 6.12)">
<stop offset="0.02" stop-color="white"/>
<stop offset="0.53" stop-color="#FBFCFF"/>
<stop offset="1" stop-color="#F0F6FF"/>
</radialGradient>
<radialGradient id="paint19_radial_2271_18356" cx="0" cy="0" r="1" gradientUnits="userSpaceOnUse" gradientTransform="translate(123.419 18.9982) rotate(180) scale(21.74 21.74)">
<stop offset="0.02" stop-color="white"/>
<stop offset="0.53" stop-color="#FBFCFF"/>
<stop offset="1" stop-color="#F0F6FF"/>
</radialGradient>
<radialGradient id="paint20_radial_2271_18356" cx="0" cy="0" r="1" gradientUnits="userSpaceOnUse" gradientTransform="translate(102.06 80.6594) rotate(180) scale(19.4899 19.49)">
<stop offset="0.02" stop-color="white"/>
<stop offset="0.41" stop-color="#FDFBFF"/>
<stop offset="0.77" stop-color="#F6F0FF"/>
<stop offset="1" stop-color="#F1E5FF"/>
</radialGradient>
<linearGradient id="paint21_linear_2271_18356" x1="115.959" y1="80.079" x2="88.2188" y2="80.079" gradientUnits="userSpaceOnUse">
<stop stop-color="#3B85FF"/>
<stop offset="1" stop-color="#00C6E1"/>
</linearGradient>
<linearGradient id="paint22_linear_2271_18356" x1="101.67" y1="76.6687" x2="87.7695" y2="76.6687" gradientUnits="userSpaceOnUse">
<stop/>
<stop offset="0.1" stop-color="#070500"/>
<stop offset="0.25" stop-color="#1D1602"/>
<stop offset="0.43" stop-color="#403005"/>
<stop offset="0.64" stop-color="#715508"/>
<stop offset="0.86" stop-color="#AF830D"/>
<stop offset="1" stop-color="#D8A211"/>
</linearGradient>
<linearGradient id="paint23_linear_2271_18356" x1="60.2412" y1="112.86" x2="60.2412" y2="44.8496" gradientUnits="userSpaceOnUse">
<stop offset="0.02" stop-color="#F9B000"/>
<stop offset="1" stop-color="#FED16E"/>
</linearGradient>
<radialGradient id="paint24_radial_2271_18356" cx="0" cy="0" r="1" gradientUnits="userSpaceOnUse" gradientTransform="translate(60.2203 76.8799) scale(26.05 26.05)">
<stop offset="0.02" stop-color="white"/>
<stop offset="0.41" stop-color="#FDFBFF"/>
<stop offset="0.77" stop-color="#F6F0FF"/>
<stop offset="1" stop-color="#F1E5FF"/>
</radialGradient>
<radialGradient id="paint25_radial_2271_18356" cx="0" cy="0" r="1" gradientUnits="userSpaceOnUse" gradientTransform="translate(60.2203 57.5497) scale(18.82 18.82)">
<stop offset="0.02" stop-color="white"/>
<stop offset="0.41" stop-color="#FDFBFF"/>
<stop offset="0.77" stop-color="#F6F0FF"/>
<stop offset="1" stop-color="#F1E5FF"/>
</radialGradient>
<radialGradient id="paint26_radial_2271_18356" cx="0" cy="0" r="1" gradientUnits="userSpaceOnUse" gradientTransform="translate(60.3927 72.3598) scale(4.75003 4.75003)">
<stop offset="0.02" stop-color="white"/>
<stop offset="0.41" stop-color="#FDFBFF"/>
<stop offset="0.77" stop-color="#F6F0FF"/>
<stop offset="1" stop-color="#F1E5FF"/>
</radialGradient>
<radialGradient id="paint27_radial_2271_18356" cx="0" cy="0" r="1" gradientUnits="userSpaceOnUse" gradientTransform="translate(78.4109 84.5788) scale(20.47 20.47)">
<stop offset="0.02" stop-color="white"/>
<stop offset="0.41" stop-color="#FDFBFF"/>
<stop offset="0.77" stop-color="#F6F0FF"/>
<stop offset="1" stop-color="#F1E5FF"/>
</radialGradient>
<radialGradient id="paint28_radial_2271_18356" cx="0" cy="0" r="1" gradientUnits="userSpaceOnUse" gradientTransform="translate(42.5703 81.5697) scale(22.7299 22.73)">
<stop offset="0.02" stop-color="white"/>
<stop offset="0.41" stop-color="#FDFBFF"/>
<stop offset="0.77" stop-color="#F6F0FF"/>
<stop offset="1" stop-color="#F1E5FF"/>
</radialGradient>
<radialGradient id="paint29_radial_2271_18356" cx="0" cy="0" r="1" gradientUnits="userSpaceOnUse" gradientTransform="translate(124.902 95.6292) scale(14.1901 14.19)">
<stop offset="0.02" stop-color="white"/>
<stop offset="0.53" stop-color="#FBFCFF"/>
<stop offset="1" stop-color="#F0F6FF"/>
</radialGradient>
<radialGradient id="paint30_radial_2271_18356" cx="0" cy="0" r="1" gradientUnits="userSpaceOnUse" gradientTransform="translate(129.696 76.1284) scale(4.2845 4.51004)">
<stop offset="0.02" stop-color="white"/>
<stop offset="0.53" stop-color="#FBFCFF"/>
<stop offset="1" stop-color="#F0F6FF"/>
</radialGradient>
<radialGradient id="paint31_radial_2271_18356" cx="0" cy="0" r="1" gradientUnits="userSpaceOnUse" gradientTransform="translate(125.182 71.6487) scale(4.48003 4.48)">
<stop offset="0.02" stop-color="white"/>
<stop offset="0.53" stop-color="#FBFCFF"/>
<stop offset="1" stop-color="#F0F6FF"/>
</radialGradient>
<radialGradient id="paint32_radial_2271_18356" cx="0" cy="0" r="1" gradientUnits="userSpaceOnUse" gradientTransform="translate(125.072 62.4513) scale(6.52006 12.5184)">
<stop offset="0.02" stop-color="white"/>
<stop offset="0.53" stop-color="#FBFCFF"/>
<stop offset="1" stop-color="#F0F6FF"/>
</radialGradient>
<linearGradient id="paint33_linear_2271_18356" x1="114.613" y1="97.9191" x2="135.193" y2="97.9191" gradientUnits="userSpaceOnUse">
<stop offset="0.02" stop-color="#F9B000"/>
<stop offset="1" stop-color="#FED16E"/>
</linearGradient>
<radialGradient id="paint34_radial_2271_18356" cx="0" cy="0" r="1" gradientUnits="userSpaceOnUse" gradientTransform="translate(125.38 95.56) scale(5.45004 5.45)">
<stop offset="0.02" stop-color="white"/>
<stop offset="0.53" stop-color="#FBFCFF"/>
<stop offset="1" stop-color="#F0F6FF"/>
</radialGradient>
</defs>
</svg>
