<svg width="327" height="239" viewBox="0 0 327 239" fill="none" xmlns="http://www.w3.org/2000/svg">
<path d="M151.689 81.7852C154.763 74.3907 165.237 74.3907 168.311 81.7852L182.676 116.349C183.385 118.054 184.976 119.229 186.814 119.406L223.404 122.923C231.176 123.67 234.376 133.281 228.602 138.537L200.645 163.985C199.324 165.187 198.745 167.002 199.124 168.746L207.246 206.086C208.932 213.838 200.492 219.821 193.735 215.664L162.62 196.521C161.013 195.532 158.987 195.532 157.38 196.521L126.265 215.664C119.508 219.821 111.068 213.838 112.754 206.086L120.876 168.746C121.255 167.002 120.676 165.187 119.355 163.985L91.3984 138.537C85.6244 133.281 88.8236 123.67 96.5957 122.923L133.186 119.406C135.024 119.229 136.615 118.054 137.324 116.349L151.689 81.7852Z" fill="#FFA600" stroke="#FEA832" stroke-width="4"/>
<path d="M47.424 124.898C45.2395 124.201 43.2536 122.992 41.6325 121.37C40.0115 119.748 38.8026 117.761 38.1071 115.576L32.5014 98L26.8958 115.576C26.1993 117.762 24.9893 119.749 23.3673 121.37C21.7453 122.992 19.7585 124.202 17.5731 124.898L0 130.499L17.5731 136.102C19.7585 136.798 21.7453 138.008 23.3673 139.63C24.9893 141.251 26.1993 143.238 26.8958 145.424L32.4957 163L38.1071 145.424C38.8032 143.238 40.013 141.251 41.635 139.629C43.2571 138.007 45.2442 136.798 47.4298 136.102L65 130.499L47.424 124.898Z" fill="#8EFFFF"/>
<path d="M194.424 26.8976C192.239 26.2013 190.254 24.9916 188.633 23.3698C187.012 21.748 185.803 19.7613 185.107 17.5762L179.501 0L173.896 17.5762C173.199 19.7618 171.989 21.7486 170.367 23.3704C168.745 24.9922 166.758 26.2017 164.573 26.8976L147 32.4986L164.573 38.1024C166.758 38.7983 168.745 40.0078 170.367 41.6296C171.989 43.2514 173.199 45.2382 173.896 47.4238L179.496 65L185.107 47.4238C185.803 45.238 187.013 43.2509 188.635 41.6291C190.257 40.0072 192.244 38.7979 194.43 38.1024L212 32.4986L194.424 26.8976Z" fill="#8EFFFF"/>
<path d="M309.424 91.8976C307.239 91.2013 305.254 89.9916 303.633 88.3698C302.012 86.748 300.803 84.7613 300.107 82.5762L294.501 65L288.896 82.5762C288.199 84.7618 286.989 86.7486 285.367 88.3704C283.745 89.9922 281.758 91.2017 279.573 91.8976L262 97.4986L279.573 103.102C281.758 103.798 283.745 105.008 285.367 106.63C286.989 108.251 288.199 110.238 288.896 112.424L294.496 130L300.107 112.424C300.803 110.238 302.013 108.251 303.635 106.629C305.257 105.007 307.244 103.798 309.43 103.102L327 97.4986L309.424 91.8976Z" fill="#8EFFFF"/>
<path d="M292.939 182.518C291.191 181.96 289.601 180.992 288.304 179.695C287.006 178.397 286.038 176.807 285.481 175.059L281.001 161L276.519 175.059C275.962 176.808 274.995 178.397 273.697 179.695C272.399 180.993 270.81 181.961 269.061 182.518L255 187L269.061 191.479C270.809 192.037 272.399 193.005 273.696 194.303C274.994 195.6 275.962 197.19 276.519 198.938L281.001 213L285.481 198.938C286.038 197.19 287.007 195.601 288.304 194.303C289.602 193.005 291.191 192.037 292.939 191.479L307 187L292.939 182.518Z" fill="#FF3838"/>
<path d="M240.94 74.5131C239.191 73.9566 237.601 72.9889 236.303 71.6913C235.005 70.3936 234.036 68.8038 233.479 67.0549L228.999 53L224.518 67.0599C223.961 68.8084 222.993 70.398 221.696 71.6956C220.398 72.9933 218.808 73.9611 217.06 74.5182L203 78.9987L217.06 83.4793C218.808 84.0372 220.398 85.0056 221.695 86.3036C222.993 87.6016 223.961 89.1914 224.518 90.9401L228.999 105L233.479 90.9401C234.037 89.1914 235.004 87.6016 236.302 86.3036C237.6 85.0056 239.189 84.0372 240.938 83.4793L255 78.9987L240.94 74.5131Z" fill="#FF8EC4"/>
<path d="M79.9401 195.513C78.191 194.957 76.6008 193.989 75.3027 192.691C74.0046 191.394 73.0364 189.804 72.4793 188.055L67.9987 174L63.5182 188.06C62.9611 189.808 61.9933 191.398 60.6957 192.696C59.398 193.993 57.8084 194.961 56.0599 195.518L42 199.999L56.0599 204.479C57.8084 205.037 59.3979 206.006 60.6955 207.304C61.993 208.602 62.9609 210.191 63.5182 211.94L67.9987 226L72.4793 211.94C73.0366 210.191 74.0045 208.602 75.302 207.304C76.5996 206.006 78.189 205.037 79.9375 204.479L94 199.999L79.9401 195.513Z" fill="#FF8EC4"/>
<path d="M144.234 163.86C143.427 163.86 142.749 163.603 142.199 163.09C141.686 162.54 141.429 161.862 141.429 161.055V153.685H134.059C133.252 153.685 132.574 153.41 132.024 152.86C131.511 152.31 131.254 151.632 131.254 150.825C131.254 150.018 131.511 149.358 132.024 148.845C132.574 148.295 133.252 148.02 134.059 148.02H141.429V140.65C141.429 139.88 141.704 139.22 142.254 138.67C142.841 138.12 143.501 137.845 144.234 137.845C145.077 137.845 145.756 138.12 146.269 138.67C146.782 139.183 147.039 139.843 147.039 140.65V148.02H154.409C155.179 148.02 155.839 148.295 156.389 148.845C156.976 149.395 157.269 150.073 157.269 150.88C157.269 151.65 156.976 152.31 156.389 152.86C155.839 153.41 155.179 153.685 154.409 153.685H147.039V161.055C147.039 161.862 146.782 162.54 146.269 163.09C145.756 163.603 145.077 163.86 144.234 163.86Z" fill="white"/>
<path d="M172.497 172C171.764 172 171.122 171.725 170.572 171.175C170.022 170.625 169.747 169.965 169.747 169.195V135.645L165.732 137.35C165.109 137.607 164.522 137.735 163.972 137.735C163.165 137.735 162.487 137.478 161.937 136.965C161.424 136.452 161.167 135.792 161.167 134.985C161.167 134.398 161.314 133.867 161.607 133.39C161.9 132.913 162.359 132.565 162.982 132.345L171.562 129.265C171.745 129.192 171.929 129.137 172.112 129.1C172.295 129.063 172.46 129.045 172.607 129.045C173.45 129.045 174.11 129.32 174.587 129.87C175.1 130.383 175.357 131.062 175.357 131.905V169.195C175.357 169.965 175.082 170.625 174.532 171.175C173.982 171.725 173.304 172 172.497 172Z" fill="white"/>
</svg>
