<svg width="477" height="298" viewBox="0 0 477 298" fill="none" xmlns="http://www.w3.org/2000/svg">
<path d="M468.753 178.784L443.812 122.126L435.697 142.273C434.739 144.651 433.504 146.907 432.016 148.994C426.652 158.66 428.986 165.973 435.516 169.123C439.909 168.924 444.296 169.618 448.414 171.162L468.753 178.784Z" fill="#FAD989"/>
<path d="M432.019 148.995C428.615 153.781 423.981 157.557 418.606 159.923L377.185 178.157L371.812 194.762L423.857 171.851C427.579 170.212 431.531 169.302 435.518 169.124C431.21 164.997 429.073 157.597 432.019 148.995Z" fill="#F9D171"/>
<path d="M450.431 120.993L474.059 174.669C475.147 177.139 474.026 180.023 471.555 181.111C469.085 182.198 466.201 181.078 465.113 178.607L441.484 124.931C440.397 122.461 441.518 119.576 443.988 118.489C446.459 117.401 449.343 118.522 450.431 120.993Z" fill="#FFC024"/>
<path d="M327.102 214.439L382.02 190.264L376.769 178.336L321.851 202.512L327.102 214.439Z" fill="#FAD989"/>
<path d="M324.836 201.201L330.086 213.129L326.039 217.581C322.866 221.07 317.153 220.139 315.253 215.823L312.831 210.321C310.931 206.005 314.103 201.163 318.818 201.18L324.836 201.201ZM379.973 176.039L385.88 189.458C387.149 192.34 385.841 195.705 382.959 196.974C380.077 198.243 376.712 196.935 375.443 194.053L369.536 180.634C368.267 177.751 369.575 174.387 372.457 173.118C375.339 171.849 378.704 173.157 379.973 176.039Z" fill="#FFC024"/>
<path d="M419.223 139.087L376.55 94.241L375.746 115.946C375.652 118.508 375.254 121.049 374.562 123.517C372.792 134.429 377.468 140.518 384.679 141.267C388.744 139.591 393.107 138.756 397.505 138.813L419.223 139.087Z" fill="#FAD989"/>
<path d="M374.56 123.519C372.98 129.174 369.9 134.298 365.646 138.346L332.86 169.544L333.435 186.986L374.63 147.787C377.576 144.984 380.986 142.787 384.676 141.268C379.224 138.847 374.705 132.609 374.56 123.519Z" fill="#F9D171"/>
<path d="M382.39 90.929L422.818 133.415C424.678 135.37 424.602 138.464 422.646 140.324C420.691 142.185 417.597 142.108 415.736 140.153L375.309 97.6668C373.448 95.7115 373.525 92.618 375.48 90.7572C377.436 88.8967 380.53 88.9735 382.39 90.929Z" fill="#FFC024"/>
<path d="M298.051 220.658L341.52 179.295L332.536 169.854L289.067 211.217L298.051 220.658Z" fill="#FAD989"/>
<path d="M291.427 208.971L300.411 218.413L298.112 223.974C296.311 228.332 290.62 229.392 287.369 225.976L283.226 221.622C279.975 218.206 281.317 212.575 285.759 210.991L291.427 208.971ZM334.768 166.606L344.874 177.228C347.045 179.509 346.956 183.118 344.674 185.289C342.393 187.46 338.784 187.37 336.613 185.089L326.507 174.467C324.336 172.186 324.425 168.577 326.707 166.406C328.988 164.236 332.597 164.325 334.768 166.606Z" fill="#FFC024"/>
<path d="M7.27816 178.787L32.2194 122.13L40.3347 142.277C41.2919 144.654 42.5272 146.911 44.015 148.998C49.3797 158.664 47.0457 165.977 40.5156 169.126C36.1226 168.928 31.7349 169.622 27.6175 171.166L7.27816 178.787Z" fill="#FAD989"/>
<path d="M44.0124 148.999C47.416 153.785 52.0505 157.56 57.425 159.927L98.8463 178.161L104.219 194.765L52.1742 171.855C48.4526 170.216 44.4998 169.306 40.513 169.128C44.8214 165.001 46.9578 157.601 44.0124 148.999Z" fill="#F9D171"/>
<path d="M25.5968 120.995L1.96823 174.671C0.880792 177.141 2.00165 180.025 4.47223 181.113C6.94251 182.2 9.82683 181.08 10.9144 178.609L34.5431 124.933C35.6305 122.463 34.5097 119.578 32.0391 118.491C29.5684 117.403 26.6844 118.524 25.5968 120.995Z" fill="#FFC024"/>
<path d="M148.926 214.443L94.0073 190.268L99.258 178.34L154.177 202.515L148.926 214.443Z" fill="#FAD989"/>
<path d="M151.196 201.203L145.945 213.131L149.993 217.583C153.165 221.072 158.878 220.141 160.778 215.825L163.2 210.323C165.1 206.007 161.928 201.165 157.213 201.181L151.196 201.203ZM96.0583 176.041L90.1512 189.46C88.8824 192.342 90.1902 195.707 93.0724 196.976C95.9546 198.244 99.3193 196.937 100.588 194.054L106.495 180.636C107.764 177.753 106.456 174.389 103.574 173.12C100.692 171.851 97.3271 173.159 96.0583 176.041Z" fill="#FFC024"/>
<path d="M56.8082 139.089L99.4815 94.243L100.285 115.948C100.38 118.51 100.777 121.051 101.469 123.519C103.239 134.431 98.5636 140.52 91.3525 141.269C87.2869 139.593 82.9238 138.758 78.5267 138.815L56.8082 139.089Z" fill="#FAD989"/>
<path d="M101.468 123.52C103.047 129.176 106.127 134.3 110.381 138.348L143.167 169.545L142.592 186.988L101.397 147.789C98.4516 144.986 95.0417 142.789 91.3514 141.27C96.8038 138.849 101.323 132.611 101.468 123.52Z" fill="#F9D171"/>
<path d="M93.6371 90.9329L53.2098 133.419C51.3492 135.374 51.4258 138.467 53.3813 140.328C55.3366 142.189 58.4301 142.112 60.2909 140.157L100.718 97.6707C102.579 95.7154 102.502 92.6219 100.547 90.7611C98.5911 88.9006 95.4978 88.9774 93.6371 90.9329Z" fill="#FFC024"/>
<path d="M177.977 220.66L134.507 179.297L143.491 169.856L186.96 211.219L177.977 220.66Z" fill="#FAD989"/>
<path d="M184.6 208.971L175.617 218.413L177.915 223.974C179.717 228.332 185.407 229.392 188.658 225.976L192.802 221.622C196.052 218.206 194.71 212.575 190.269 210.991L184.6 208.971ZM141.26 166.606L131.153 177.228C128.982 179.509 129.072 183.118 131.353 185.289C133.634 187.46 137.243 187.37 139.414 185.089L149.521 174.467C151.692 172.186 151.602 168.577 149.321 166.406C147.04 164.236 143.43 164.325 141.26 166.606Z" fill="#FFC024"/>
<path d="M122.827 206.669C122.38 205.742 121.574 204.958 120.524 204.428C119.474 203.898 118.233 203.649 116.978 203.717L69.1391 206.281C68.1352 206.339 67.1595 206.597 66.3021 207.032C65.4447 207.466 64.7331 208.064 64.2331 208.768C63.7331 209.473 63.4608 210.262 63.4411 211.063C63.4215 211.864 63.6552 212.652 64.1208 213.352L88.904 250.569L68.2407 290.226C67.8513 290.973 67.702 291.781 67.8065 292.576C67.9111 293.372 68.266 294.128 68.8387 294.776C69.4113 295.424 70.1832 295.942 71.0829 296.283C71.9826 296.624 72.9812 296.776 73.9863 296.726L145.744 292.88C147.33 292.795 148.825 292.212 149.898 291.259C150.972 290.307 151.537 289.062 151.469 287.799L150.194 263.998C150.167 263.487 150.036 262.984 149.808 262.51L122.827 206.669Z" fill="#F93E56"/>
<path d="M353.352 206.669C353.8 205.742 354.606 204.958 355.656 204.428C356.706 203.898 357.946 203.649 359.202 203.717L407.041 206.281C408.045 206.339 409.02 206.597 409.878 207.032C410.735 207.466 411.447 208.064 411.947 208.768C412.447 209.473 412.719 210.262 412.739 211.063C412.758 211.864 412.524 212.652 412.059 213.352L387.276 250.569L407.939 290.226C408.328 290.973 408.478 291.781 408.373 292.576C408.269 293.372 407.914 294.128 407.341 294.776C406.768 295.424 405.997 295.942 405.097 296.283C404.197 296.624 403.199 296.776 402.193 296.726L330.435 292.88C328.849 292.795 327.355 292.212 326.282 291.259C325.208 290.307 324.643 289.062 324.711 287.799L325.986 263.998C326.013 263.487 326.143 262.984 326.372 262.51L353.352 206.669Z" fill="#F93E56"/>
<path d="M356.359 190.014H119.817C116.509 190.014 113.828 192.148 113.828 194.781V268.671C113.828 271.304 116.509 273.438 119.817 273.438H356.359C359.667 273.438 362.348 271.304 362.348 268.671V194.781C362.348 192.148 359.667 190.014 356.359 190.014Z" fill="#FF6569"/>
<g clip-path="url(#clip0_2615_27185)">
<path d="M237.964 153.715C266.179 153.715 289.052 130.841 289.052 102.626C289.052 74.4103 266.179 51.5371 237.964 51.5371C209.748 51.5371 186.875 74.4103 186.875 102.626C186.875 130.841 209.748 153.715 237.964 153.715Z" fill="#FFDA24"/>
<path d="M289.052 102.626C289.052 130.84 266.178 153.714 237.964 153.714C209.749 153.714 186.875 130.84 186.875 102.626C186.875 100.6 186.993 98.6024 187.222 96.6387C190.186 122.031 211.775 141.74 237.964 141.74C264.153 141.74 285.742 122.031 288.705 96.6387C288.937 98.6259 289.053 100.625 289.052 102.626Z" fill="#FFC024"/>
<path d="M218.049 96.916H257.877C260.93 96.916 263.409 99.3946 263.409 102.448V102.546C263.409 116.535 252.051 127.893 238.062 127.893H237.964C223.921 127.893 212.52 116.491 212.52 102.448C212.52 99.3946 214.998 96.916 218.051 96.916H218.049Z" fill="#473535"/>
<path d="M253.691 122.504C249.385 125.878 243.96 127.892 238.063 127.892H237.965C232.04 127.892 226.59 125.868 222.266 122.472C225.816 117.662 231.527 114.541 237.965 114.541C244.403 114.541 250.141 117.674 253.691 122.504Z" fill="#FF7E27"/>
<path d="M260.642 97.6584V99.1292C260.642 102.793 257.671 105.767 254.005 105.767H221.923C218.257 105.767 215.285 102.793 215.285 99.1292V97.6584C216.099 97.1874 217.043 96.918 218.051 96.918H257.878C258.884 96.918 259.83 97.1874 260.644 97.6584H260.642Z" fill="white"/>
<path d="M270.165 53.3185L271.365 64.2447C271.4 64.5662 271.513 64.8743 271.694 65.1426C271.875 65.411 272.118 65.6315 272.402 65.7853L282.083 70.99C283.54 71.7743 283.466 73.8877 281.957 74.5662L271.937 79.0843C271.339 79.3538 270.912 79.9026 270.794 80.5472L268.834 91.3616C268.539 92.9901 266.505 93.5728 265.394 92.3475L258.002 84.2132C257.784 83.9732 257.512 83.79 257.207 83.6794C256.903 83.5688 256.576 83.5342 256.255 83.5786L245.365 85.0573C243.727 85.2809 242.543 83.5267 243.364 82.0898L248.814 72.5466C249.139 71.9758 249.163 71.2813 248.877 70.6906L244.106 60.7902C243.387 59.2994 244.691 57.6331 246.309 57.9703L257.07 60.2055C257.712 60.3392 258.381 60.1476 258.856 59.6926L266.802 52.0951C267.998 50.9516 269.986 51.676 270.165 53.3185ZM205.765 53.3185L204.566 64.2447C204.53 64.5662 204.417 64.8743 204.237 65.1426C204.056 65.411 203.813 65.6315 203.528 65.7853L193.847 70.99C192.391 71.7743 192.464 73.8877 193.973 74.5662L203.993 79.0843C204.592 79.3538 205.019 79.9026 205.137 80.5472L207.096 91.3616C207.392 92.9901 209.425 93.5728 210.537 92.3475L217.929 84.2132C218.146 83.9732 218.419 83.79 218.723 83.6794C219.028 83.5688 219.354 83.5342 219.675 83.5786L230.565 85.0573C232.204 85.2809 233.387 83.5267 232.567 82.0898L227.117 72.5466C226.957 72.2656 226.867 71.9498 226.856 71.6265C226.845 71.3032 226.912 70.982 227.053 70.6906L231.825 60.7902C232.543 59.2994 231.24 57.6331 229.621 57.9703L218.861 60.2055C218.218 60.3392 217.55 60.1476 217.075 59.6926L209.128 52.0951C207.933 50.9516 205.945 51.676 205.765 53.3185Z" fill="#FF7E27"/>
</g>
<path d="M165.962 245.879C164.643 245.879 163.381 245.492 162.176 244.718C161.631 244.374 161.287 243.929 161.143 243.384C161.029 242.839 161.129 242.323 161.445 241.835C161.76 241.319 162.205 241.018 162.778 240.932C163.352 240.817 163.954 240.932 164.585 241.276C164.786 241.391 165.015 241.491 165.273 241.577C165.532 241.635 165.761 241.663 165.962 241.663C166.736 241.663 167.525 241.305 168.328 240.588C169.16 239.842 169.891 238.809 170.522 237.49L182.353 213.226C182.984 211.964 183.916 211.605 185.15 212.15C186.383 212.695 186.684 213.613 186.053 214.903L174.222 239.211C173.19 241.305 171.971 242.94 170.565 244.115C169.16 245.291 167.625 245.879 165.962 245.879ZM172.243 238.695L157.874 215.119C157.185 213.943 157.458 212.996 158.691 212.279C159.896 211.591 160.857 211.849 161.574 213.054L175.04 236.501L172.243 238.695ZM207.14 245.922C204.817 245.922 202.637 245.492 200.601 244.632C198.593 243.743 196.829 242.524 195.309 240.975C193.818 239.397 192.642 237.562 191.781 235.468C190.95 233.374 190.534 231.108 190.534 228.671C190.534 226.261 190.95 224.024 191.781 221.959C192.642 219.865 193.818 218.044 195.309 216.495C196.829 214.918 198.593 213.685 200.601 212.795C202.609 211.906 204.789 211.462 207.14 211.462C209.349 211.462 211.242 211.749 212.819 212.322C214.425 212.896 216.032 213.842 217.638 215.162C217.867 215.334 218.039 215.52 218.154 215.721C218.297 215.893 218.383 216.079 218.412 216.28C218.47 216.452 218.498 216.667 218.498 216.926C218.498 217.47 218.297 217.929 217.896 218.302C217.523 218.646 217.064 218.847 216.519 218.905C215.974 218.933 215.444 218.747 214.927 218.345C213.866 217.427 212.762 216.725 211.615 216.237C210.496 215.75 209.005 215.506 207.14 215.506C205.448 215.506 203.856 215.85 202.365 216.538C200.873 217.227 199.554 218.173 198.407 219.378C197.288 220.582 196.414 221.988 195.783 223.594C195.152 225.171 194.836 226.864 194.836 228.671C194.836 230.506 195.152 232.227 195.783 233.833C196.414 235.411 197.288 236.802 198.407 238.006C199.554 239.211 200.873 240.157 202.365 240.846C203.856 241.505 205.448 241.835 207.14 241.835C208.603 241.835 209.98 241.592 211.271 241.104C212.59 240.588 213.852 239.885 215.056 238.996C215.573 238.623 216.075 238.465 216.562 238.523C217.078 238.551 217.509 238.752 217.853 239.125C218.197 239.469 218.369 239.957 218.369 240.588C218.369 240.874 218.312 241.161 218.197 241.448C218.082 241.706 217.91 241.95 217.681 242.179C216.132 243.413 214.468 244.345 212.69 244.976C210.941 245.607 209.091 245.922 207.14 245.922ZM227.763 245.492C227.132 245.492 226.601 245.277 226.171 244.847C225.741 244.417 225.526 243.886 225.526 243.255V214.129C225.526 213.469 225.741 212.939 226.171 212.537C226.601 212.107 227.132 211.892 227.763 211.892H250.651C251.31 211.892 251.841 212.107 252.242 212.537C252.673 212.939 252.888 213.469 252.888 214.129V243.255C252.888 243.886 252.673 244.417 252.242 244.847C251.841 245.277 251.31 245.492 250.651 245.492C250.02 245.492 249.489 245.277 249.059 244.847C248.628 244.417 248.413 243.886 248.413 243.255V215.85H230V243.255C230 243.886 229.785 244.417 229.355 244.847C228.953 245.277 228.422 245.492 227.763 245.492ZM263.727 245.492C263.096 245.492 262.565 245.277 262.135 244.847C261.705 244.417 261.489 243.886 261.489 243.255V214.129C261.489 213.469 261.705 212.939 262.135 212.537C262.565 212.107 263.096 211.892 263.727 211.892H283.173C283.832 211.892 284.363 212.093 284.764 212.494C285.166 212.867 285.367 213.369 285.367 214C285.367 214.602 285.166 215.09 284.764 215.463C284.363 215.836 283.832 216.022 283.173 216.022H265.964V226.476H278.311C278.971 226.476 279.501 226.677 279.903 227.079C280.304 227.452 280.505 227.939 280.505 228.541C280.505 229.144 280.304 229.646 279.903 230.047C279.501 230.42 278.971 230.607 278.311 230.607H265.964V241.362H283.173C283.832 241.362 284.363 241.548 284.764 241.921C285.166 242.294 285.367 242.782 285.367 243.384C285.367 244.015 285.166 244.531 284.764 244.933C284.363 245.306 283.832 245.492 283.173 245.492H263.727ZM291.484 245.492C290.825 245.492 290.323 245.291 289.978 244.89C289.634 244.46 289.462 243.972 289.462 243.427C289.462 242.853 289.634 242.337 289.978 241.878L300.82 227.423L302.756 225.702L312.651 212.537C313.053 212.107 313.583 211.892 314.243 211.892C314.845 211.892 315.318 212.078 315.663 212.451C316.007 212.824 316.193 213.283 316.222 213.828C316.251 214.373 316.093 214.903 315.749 215.42L305.294 229.359L303.444 230.994L293.033 244.847C292.603 245.277 292.087 245.492 291.484 245.492ZM313.985 245.492C313.612 245.492 313.282 245.435 312.995 245.32C312.737 245.177 312.493 244.962 312.264 244.675L302.24 230.779L300.648 229.445L290.538 215.42C290.194 214.961 290.05 214.459 290.107 213.914C290.165 213.369 290.366 212.896 290.71 212.494C291.083 212.093 291.57 211.892 292.173 211.892C292.918 211.892 293.449 212.107 293.764 212.537L303.315 225.788L304.95 227.122L315.577 241.878C315.921 242.337 316.078 242.853 316.05 243.427C316.021 244.001 315.82 244.488 315.448 244.89C315.103 245.291 314.616 245.492 313.985 245.492Z" fill="white"/>
<defs>
<clipPath id="clip0_2615_27185">
<rect width="102.177" height="102.177" fill="white" transform="translate(186.875 51.5371)"/>
</clipPath>
</defs>
</svg>
