<svg width="28" height="30" viewBox="0 0 28 30" fill="none" xmlns="http://www.w3.org/2000/svg">
<path fill-rule="evenodd" clip-rule="evenodd" d="M5.90625 21.6273C5.90625 19.2164 10.8509 17.2637 16.9522 17.2637C23.0534 17.2637 27.9997 19.2164 27.9997 21.6273V25.6364C27.9997 28.0473 23.0534 30.0001 16.9522 30.0001C10.8509 30.0001 5.90625 28.0474 5.90625 25.6364V21.6273Z" fill="#FE9923"/>
<path fill-rule="evenodd" clip-rule="evenodd" d="M16.9522 17.2637C23.0534 17.2637 27.9997 19.2164 27.9997 21.6273C27.9997 24.0364 23.0534 25.991 16.9522 25.991C10.8509 25.991 5.90625 24.0365 5.90625 21.6273C5.90625 19.2164 10.8509 17.2637 16.9522 17.2637Z" fill="#FECD3D"/>
<path fill-rule="evenodd" clip-rule="evenodd" d="M16.9521 17.2637C18.8092 17.2637 20.5597 17.4437 22.0953 17.7637V18.0528C22.0953 20.4637 17.149 22.4164 11.0494 22.4164C9.2021 22.4164 7.46148 22.2383 5.93084 21.9219C5.91452 21.8247 5.90629 21.7261 5.90625 21.6273C5.90619 19.2164 10.8508 17.2637 16.9521 17.2637Z" fill="#CEA732"/>
<path fill-rule="evenodd" clip-rule="evenodd" d="M16.9408 19.3018C21.7952 19.3018 25.7293 20.3436 25.7293 21.6272C25.7293 22.9109 21.7952 23.9508 16.9408 23.9508C12.0881 23.9508 8.15234 22.9108 8.15234 21.6272C8.15234 20.3436 12.088 19.3018 16.9408 19.3018Z" fill="#FEA832"/>
<path fill-rule="evenodd" clip-rule="evenodd" d="M16.9408 19.3018C18.5486 19.3018 20.0563 19.4163 21.354 19.6163C19.761 21.2545 15.7433 22.4163 11.0381 22.4163C10.1751 22.4163 9.33684 22.3781 8.53131 22.3036C8.28523 22.0891 8.15234 21.8618 8.15234 21.6273C8.15234 20.3436 12.088 19.3018 16.9408 19.3018Z" fill="#CE8829"/>
<path d="M25.0026 26.4862V28.6207C25.3422 28.4771 25.6589 28.3262 25.9476 28.1644V26.4844L25.0026 26.4862ZM22.5336 29.4008C22.2204 29.4733 21.9059 29.5388 21.5903 29.5972V27.5626L22.5336 27.5645V29.4008ZM19.1212 29.9153C18.8112 29.9407 18.4962 29.9589 18.1779 29.9735V28.0316L19.1212 28.0353V29.9153ZM15.7088 29.9735C15.3889 29.9589 15.0739 29.9407 14.7639 29.9153V28.0335H15.7088V29.9735ZM12.2948 29.5971C11.9792 29.5388 11.6647 29.4733 11.3515 29.4007V27.5625L12.2948 27.5643V29.5971ZM8.88246 28.6208C8.54286 28.4771 8.22622 28.3263 7.9375 28.1644V26.4863L8.88246 26.4844V28.6208Z" fill="#C85929"/>
<path fill-rule="evenodd" clip-rule="evenodd" d="M0 12.9963C0 10.5854 4.94628 8.63086 11.0476 8.63086C17.1471 8.63086 22.0935 10.5854 22.0935 12.9963V17.0054C22.0935 19.4145 17.1472 21.3691 11.0476 21.3691C4.94628 21.3691 0 19.4145 0 17.0054V12.9963Z" fill="#FE9923"/>
<path fill-rule="evenodd" clip-rule="evenodd" d="M11.0476 8.63086C17.1471 8.63086 22.0935 10.5854 22.0935 12.9963C22.0935 15.4054 17.1472 17.3599 11.0476 17.3599C4.94628 17.36 0 15.4055 0 12.9963C0 10.5854 4.94628 8.63086 11.0476 8.63086Z" fill="#FECD3D"/>
<path fill-rule="evenodd" clip-rule="evenodd" d="M11.0608 8.63086C17.1604 8.63086 22.1067 10.5854 22.1067 12.9963C22.1067 13.2327 22.0591 13.4654 21.9657 13.6927C20.7992 13.8399 19.5557 13.9181 18.2646 13.9181C11.5301 13.9181 6.07031 11.7618 6.07031 9.1018C7.56807 8.80176 9.26435 8.63086 11.0608 8.63086Z" fill="#CEA732"/>
<path fill-rule="evenodd" clip-rule="evenodd" d="M11.0385 10.6709C15.8913 10.6709 19.827 11.7127 19.827 12.9963C19.827 14.28 15.8913 15.32 11.0385 15.32C6.18409 15.32 2.25 14.28 2.25 12.9963C2.25 11.7127 6.18403 10.6709 11.0385 10.6709Z" fill="#FEA832"/>
<path fill-rule="evenodd" clip-rule="evenodd" d="M11.04 10.6709C15.8928 10.6709 19.8285 11.7127 19.8285 12.9963C19.8285 13.3181 19.5791 13.6272 19.128 13.9054C18.836 13.9145 18.5407 13.9182 18.2437 13.9182C13.153 13.9182 8.79243 12.6872 6.96484 10.9363C8.18375 10.7672 9.56841 10.6709 11.04 10.6709Z" fill="#CE8829"/>
<path d="M19.098 17.8553V19.9899C19.4376 19.8462 19.7543 19.6935 20.043 19.5335V17.8535L19.098 17.8553ZM16.629 20.7699C16.3158 20.8424 16.0013 20.9078 15.6857 20.9662V18.9317L16.629 18.9335V20.7699ZM13.215 21.2844C12.9049 21.3099 12.5916 21.3281 12.2716 21.3426V19.4008L13.215 19.4026V21.2844ZM9.80259 21.3426C9.48431 21.328 9.16931 21.3098 8.85763 21.2844V19.4026L9.80259 19.4008V21.3426ZM6.38858 20.9662C6.073 20.9077 5.7585 20.8422 5.44526 20.7699V18.9317L6.38858 18.9335V20.9662ZM2.97784 19.9899C2.63661 19.8462 2.32161 19.6935 2.03125 19.5335V17.8553L2.97784 17.8535V19.9899Z" fill="#C85929"/>
<path fill-rule="evenodd" clip-rule="evenodd" d="M5.90625 4.36366C5.90625 1.95458 10.8509 0 16.9522 0C23.0534 0 27.9997 1.95452 27.9997 4.36366V8.37458C27.9997 10.7837 23.0534 12.7382 16.9522 12.7382C10.8509 12.7382 5.90625 10.7837 5.90625 8.37458V4.36366Z" fill="#FE9923"/>
<path fill-rule="evenodd" clip-rule="evenodd" d="M16.9522 0C23.0534 0 27.9997 1.95452 27.9997 4.36366C27.9997 6.77455 23.0534 8.72913 16.9522 8.72913C10.8509 8.72913 5.90625 6.77455 5.90625 4.36366C5.90625 1.95458 10.8509 0 16.9522 0Z" fill="#FECD3D"/>
<path fill-rule="evenodd" clip-rule="evenodd" d="M16.9408 2.04004C21.7952 2.04004 25.7293 3.08006 25.7293 4.36367C25.7293 5.64916 21.7952 6.68911 16.9408 6.68911C12.0881 6.68911 8.15234 5.6491 8.15234 4.36367C8.15234 3.08006 12.088 2.04004 16.9408 2.04004Z" fill="#FEA832"/>
<path d="M25.0026 9.22349V11.358C25.3422 11.2144 25.6589 11.0617 25.9476 10.9017V9.22168L25.0026 9.22349ZM22.5336 12.138C22.2205 12.2108 21.906 12.2757 21.5903 12.3325V10.2998L22.5336 10.3016V12.138ZM19.1212 12.6526C18.8112 12.6762 18.4962 12.6962 18.1779 12.7108V10.769L19.1212 10.7708V12.6526ZM15.7088 12.7108C15.3936 12.6962 15.0786 12.6768 14.7639 12.6526V10.7708L15.7088 10.769V12.7108ZM12.2948 12.3325C11.9791 12.2756 11.6646 12.2108 11.3515 12.138V10.2998L12.2948 10.3016V12.3325ZM8.88246 11.358C8.54286 11.2144 8.22622 11.0617 7.9375 10.9017V9.22349L8.88246 9.22168V11.358Z" fill="#C85929"/>
</svg>
