<svg width="200" height="150" viewBox="0 0 200 150" fill="none" xmlns="http://www.w3.org/2000/svg">
<path d="M101 103.709C129.167 103.709 152 82.4444 152 56.213C152 29.9816 129.167 8.7168 101 8.7168C72.8335 8.7168 50 29.9816 50 56.213C50 82.4444 72.8335 103.709 101 103.709Z" fill="#FFDA24"/>
<path d="M152 56.2124C152 82.443 129.166 103.709 101 103.709C72.8345 103.709 50 82.443 50 56.2124C50 54.3293 50.1175 52.4721 50.3466 50.6465C53.305 74.2536 74.8565 92.5767 101 92.5767C127.143 92.5767 148.695 74.2536 151.653 50.6465C151.885 52.494 152.001 54.3524 152 56.2124Z" fill="#FFC024"/>
<path d="M130.296 20.6751C130.769 22.909 128.653 24.8774 126.258 24.4247C124.073 24.011 121.395 23.8051 118.638 24.3116C115.881 24.8181 113.486 25.9535 111.634 27.1075C109.602 28.3729 106.842 27.2986 106.37 25.0648C106.153 24.0426 106.482 22.9832 107.261 22.2355C108.797 20.7642 111.911 18.5007 117.204 17.5285C122.499 16.5563 126.302 17.5526 128.322 18.3708C129.348 18.7864 130.081 19.6529 130.298 20.6751H130.296Z" fill="#473535"/>
<path d="M71.7032 20.6751C71.231 22.909 73.3468 24.8774 75.7414 24.4247C77.9268 24.011 80.6043 23.8051 83.3615 24.3116C86.1207 24.8181 88.5133 25.9535 90.366 27.1075C92.398 28.3729 95.1572 27.2986 95.6294 25.0648C95.8465 24.0426 95.5178 22.9832 94.7389 22.2355C93.2029 20.7642 90.0891 18.5007 84.7959 17.5285C79.5006 16.5563 75.6975 17.5526 73.6775 18.3708C72.6515 18.7864 71.9184 19.6529 71.7012 20.6751H71.7032Z" fill="#473535"/>
<path d="M116.388 70.9942C116.256 72.7438 111.704 78.7959 100.994 78.7959C90.284 78.7959 85.7319 72.7438 85.6004 70.9942C85.4829 69.4246 86.6403 68.7641 88.0607 69.035C89.4792 69.3059 92.9715 72.3597 100.994 72.3597C109.017 72.3597 112.509 69.304 113.927 69.035C115.346 68.7641 116.505 69.4246 116.388 70.9942ZM146.82 35.8656V39.5447C146.82 40.2813 146.48 40.977 145.9 41.4835C145.121 42.1626 144.091 43.3797 143.864 45.1626C143.531 47.7842 140.734 62.226 126.072 62.226C111.409 62.226 106.867 51.6358 106.273 48.2091C105.636 44.5281 103.556 44.081 101 44.081C98.444 44.081 96.3642 44.5281 95.7267 48.2091C95.135 51.6358 91.1168 62.226 75.9283 62.226C60.7399 62.226 58.4688 47.7842 58.1361 45.1626C57.909 43.3815 56.877 42.1626 56.1001 41.4835C55.5204 40.977 55.1797 40.2813 55.1797 39.5447V35.8656C55.1797 34.7784 55.9088 33.8229 56.9886 33.4166C84.178 23.1901 95.2266 36.1921 95.2266 36.1921C96.5554 35.3146 100.998 35.2738 100.998 35.2738C100.998 35.2738 105.443 35.3146 106.769 36.1921C106.769 36.1921 117.818 23.1901 145.007 33.4166C146.089 33.821 146.816 34.7784 146.816 35.8656H146.82Z" fill="#473535"/>
<path d="M19.9507 17.2607C17.5038 18.9499 16.4315 21.8334 17.9655 24.2832C19.4999 26.7316 22.8735 27.5614 25.5048 26.1335C30.2671 23.5472 29.2948 17.4728 34.4747 17.1359C31.016 14.558 24.4075 14.1855 19.9507 17.2607ZM23.9372 10.709C24.1446 13.5379 22.4852 16.1704 19.4874 16.6728C16.4924 17.1749 13.6255 15.3202 13.0852 12.5291C12.1063 7.477 17.7006 4.22389 14.6142 0.335938C18.9687 1.11375 23.5583 5.55468 23.9372 10.709ZM14.3267 32.9671C12.3313 35.111 11.9582 38.1426 14.0279 40.2235C16.0939 42.3048 19.5843 42.4293 21.818 40.5026C25.8642 37.0133 23.4997 31.2806 28.4761 29.9043C24.4978 28.0878 17.9616 29.0614 14.3267 32.9671ZM16.6897 25.7642C17.5514 28.4851 16.5471 31.3886 13.7357 32.4873C10.9297 33.5834 7.69949 32.3527 6.51897 29.7384C4.38725 25.0032 9.08782 20.6968 5.16697 17.5267C9.59682 17.4048 15.1177 20.8107 16.6897 25.7642ZM11.5008 49.3859C9.77183 51.7204 9.75503 54.7727 12.0555 56.6299C14.356 58.4875 17.8366 58.2587 19.8324 56.1151C23.4458 52.2341 20.4214 46.7774 25.206 44.9035C21.0383 43.5021 14.6537 45.136 11.5008 49.3859ZM13.0024 41.988C14.1833 44.6037 13.5239 47.5916 10.8586 48.9701C8.19716 50.3452 4.84274 49.4517 3.3626 46.9724C0.687504 42.4824 4.85485 37.7224 0.585938 34.9717C4.97204 34.3983 10.8594 37.2233 13.0024 41.988ZM12.5407 66.0222C11.0953 68.5175 11.4367 71.5538 13.9407 73.1658C16.4447 74.7793 19.8812 74.195 21.6113 71.8616C24.7451 67.6375 21.0984 62.5224 25.6349 60.1712C21.3293 59.2013 15.1756 61.4757 12.5407 66.0222Z" fill="#1A6810"/>
<path d="M13.1673 58.5164C14.6451 60.9961 14.3404 64.0357 11.8579 65.6735C9.37184 67.3146 5.92913 66.766 4.17086 64.4522C0.982068 60.263 4.56345 55.1076 0 52.8062C4.29469 51.7908 10.4777 53.9969 13.1673 58.5164ZM17.1307 82.1035C16.3131 84.8357 17.3651 87.7261 20.1929 88.7811C23.0204 89.8376 26.2287 88.561 27.3639 85.9289C29.4163 81.1638 24.6423 76.9263 28.5097 73.6982C24.0818 73.6411 18.6202 77.1267 17.1307 82.1035ZM15.9557 74.6529C17.9854 76.7673 18.4116 79.7919 16.3784 81.9031C14.3439 84.0149 10.8563 84.191 8.58978 82.2952C4.48884 78.8675 6.75651 73.1005 1.7571 71.7974C5.7049 69.9216 12.2587 70.8013 15.9557 74.6529ZM24.7345 97.0842C24.6017 99.9171 26.3338 102.511 29.3429 102.943C32.3512 103.375 35.1689 101.455 35.633 98.65C36.4736 93.576 30.7957 90.4553 33.7739 86.4975C29.4456 87.3757 24.9759 91.9218 24.7345 97.0842ZM21.7774 90.0766C24.2693 91.7064 25.4213 94.5637 23.9525 97.0492C22.486 99.5355 19.132 100.441 16.4631 99.0749C11.6333 96.5992 12.4423 90.5041 7.25652 90.2891C10.6434 87.63 17.2409 87.1036 21.7774 90.0766ZM35.1494 110.45C35.7853 113.223 38.1589 115.332 41.1867 115.045C44.2173 114.763 46.4256 112.245 46.1217 109.423C45.5697 104.314 39.23 102.617 41.0515 98.0904C37.0955 99.9517 33.9927 105.397 35.1494 110.45ZM30.4039 104.354C33.2516 105.351 35.1361 107.849 34.3833 110.599C33.6302 113.347 30.6305 115.006 27.6803 114.308C22.338 113.04 21.477 106.95 16.3987 107.954C18.9632 104.588 25.2084 102.537 30.4039 104.354ZM47.2819 122.67C47.919 125.444 50.2902 127.552 53.3223 127.268C56.3498 126.984 58.5596 124.467 58.2565 121.644C57.7057 116.536 51.3676 114.839 53.1836 110.311C49.2308 112.172 46.1267 117.618 47.2819 122.67ZM42.5352 116.574C45.3861 117.574 47.2682 120.072 46.515 122.82C45.7662 125.568 42.7622 127.228 39.814 126.528C34.4708 125.26 33.6102 119.172 28.5351 120.173C31.0977 116.808 37.3413 114.761 42.5352 116.574ZM62.6371 131.235C64.0606 133.746 66.9584 135.17 69.7894 134.127C72.6227 133.085 74.0118 130.102 72.8934 127.465C70.8675 122.689 64.2735 122.665 64.6997 117.846C61.4386 120.641 60.0441 126.669 62.6371 131.235Z" fill="#1A6810"/>
<path d="M56.2841 126.576C59.3186 126.81 61.8608 128.739 61.9401 131.572C62.023 134.406 59.6186 136.766 56.5747 136.842C51.0643 136.976 48.4545 131.335 43.8633 133.589C45.3458 129.7 50.7565 126.144 56.2841 126.576ZM79.0111 137.536C81.0967 139.602 84.298 140.264 86.7321 138.559C89.1654 136.855 89.658 133.637 87.8282 131.372C84.5148 127.264 78.1517 128.868 77.1927 124.117C74.8418 127.614 75.2102 133.771 79.0111 137.536ZM71.5616 134.61C74.5543 134.091 77.5532 135.319 78.4365 138.034C79.3205 140.747 77.6743 143.615 74.7613 144.439C69.4861 145.929 65.3672 141.13 61.5792 144.436C61.9042 140.322 66.1087 135.56 71.5616 134.61ZM88.7357 139.221C91.7272 138.701 94.7289 139.929 95.6121 142.643C96.4965 145.357 94.8507 148.225 91.937 149.048C86.6602 150.537 82.5421 145.743 78.7537 149.046C79.0775 144.932 83.2816 140.17 88.7357 139.221ZM165.528 17.1359C170.708 17.4732 169.736 23.5472 174.498 26.1335C177.129 27.5614 180.503 26.7319 182.037 24.2832C183.571 21.8337 182.499 18.9499 180.052 17.2607C175.595 14.1855 168.987 14.558 165.528 17.1359ZM185.388 0.335938C182.302 4.22389 187.896 7.477 186.917 12.5291C186.377 15.3202 183.51 17.1749 180.515 16.6728C177.517 16.1704 175.858 13.5383 176.065 10.709C176.445 5.55468 181.034 1.11375 185.388 0.335938ZM171.527 29.9043C176.503 31.2806 174.139 37.0133 178.185 40.5026C180.419 42.4296 183.909 42.3048 185.975 40.2235C188.045 38.1422 187.672 35.1107 185.676 32.9671C182.041 29.0614 175.505 28.0878 171.527 29.9043ZM194.835 17.527C190.915 20.6976 195.615 25.0039 193.483 29.7388C192.303 32.3531 189.073 33.5834 186.267 32.4877C183.456 31.3886 182.451 28.4855 183.313 25.7646C184.885 20.8107 190.406 17.4048 194.835 17.527ZM174.797 44.9035C179.581 46.7774 176.557 52.2341 180.17 56.1151C182.167 58.2587 185.647 58.4875 187.947 56.6299C190.248 54.7727 190.231 51.7204 188.502 49.3859C185.349 45.136 178.964 43.5021 174.797 44.9035ZM199.417 34.9717C195.148 37.7228 199.315 42.4827 196.641 46.9724C195.16 49.4517 191.806 50.3452 189.145 48.9701C186.479 47.5916 185.819 44.6037 187.001 41.988C189.143 37.2233 195.031 34.3983 199.417 34.9717ZM174.368 60.1712C178.904 62.5224 175.257 67.6371 178.392 71.8616C180.122 74.195 183.558 74.7793 186.062 73.1658C188.566 71.5538 188.907 68.5179 187.462 66.0222C184.827 61.4757 178.673 59.2013 174.368 60.1712Z" fill="#1A6810"/>
<path d="M200.003 52.8062C195.439 55.1076 199.021 60.263 195.831 64.4522C194.073 66.766 190.631 67.3146 188.144 65.6735C185.662 64.0357 185.357 60.9965 186.835 58.5164C189.525 53.9969 195.708 51.7908 200.003 52.8062ZM171.494 73.6982C175.36 76.9263 170.587 81.1638 172.639 85.9289C173.774 88.5606 176.983 89.8376 179.81 88.7811C182.638 87.7261 183.69 84.8353 182.872 82.1035C181.382 77.1267 175.921 73.6411 171.494 73.6982ZM198.246 71.7974C193.247 73.1005 195.514 78.8679 191.413 82.2952C189.146 84.191 185.659 84.0149 183.625 81.9031C181.591 79.7919 182.018 76.7673 184.047 74.6529C187.744 70.8013 194.298 69.9216 198.246 71.7974ZM166.229 86.4975C169.207 90.4553 163.529 93.576 164.37 98.65C164.834 101.455 167.651 103.374 170.66 102.943C173.669 102.511 175.401 99.9171 175.268 97.0842C175.027 91.9218 170.557 87.3757 166.229 86.4975ZM192.746 90.2891C187.56 90.5044 188.369 96.5996 183.54 99.0749C180.871 100.441 177.517 99.5355 176.05 97.0492C174.581 94.5637 175.733 91.7064 178.225 90.0766C182.762 87.1036 189.359 87.63 192.746 90.2891ZM158.951 98.0901C160.772 102.617 154.433 104.314 153.881 109.423C153.577 112.244 155.785 114.762 158.816 115.045C161.843 115.331 164.217 113.222 164.853 110.449C166.01 105.397 162.907 99.9516 158.951 98.0901ZM183.604 107.954C178.526 106.95 177.665 113.04 172.322 114.309C169.372 115.006 166.373 113.347 165.619 110.599C164.866 107.85 166.751 105.352 169.599 104.354C174.794 102.537 181.039 104.588 183.604 107.954ZM146.819 110.311C148.635 114.838 142.297 116.535 141.746 121.643C141.443 124.466 143.653 126.983 146.68 127.267C149.713 127.551 152.084 125.443 152.721 122.67C153.876 117.618 150.772 112.172 146.819 110.311ZM171.468 120.173C166.392 119.172 165.532 125.26 160.189 126.528C157.241 127.228 154.237 125.568 153.488 122.82C152.735 120.072 154.617 117.574 157.468 116.574C162.661 114.761 168.905 116.808 171.468 120.173ZM135.303 117.846C135.73 122.665 129.135 122.689 127.109 127.465C125.991 130.102 127.38 133.085 130.213 134.127C133.044 135.17 135.942 133.746 137.366 131.235C139.959 126.669 138.564 120.641 135.303 117.846Z" fill="#1A6810"/>
<path d="M156.144 133.59C151.553 131.336 148.943 136.978 143.433 136.843C140.389 136.767 137.984 134.407 138.067 131.573C138.146 128.74 140.689 126.811 143.723 126.576C149.251 126.145 154.661 129.701 156.144 133.59ZM122.815 124.117C121.856 128.869 115.493 127.265 112.179 131.372C110.349 133.638 110.842 136.856 113.276 138.56C115.709 140.265 118.911 139.603 120.996 137.536C124.797 133.772 125.165 127.615 122.815 124.117ZM138.428 144.438C134.64 141.131 130.521 145.93 125.246 144.44C122.333 143.616 120.687 140.749 121.571 138.035C122.454 135.32 125.453 134.092 128.445 134.612C133.898 135.561 138.103 140.323 138.428 144.438ZM121.254 149.048C117.465 145.744 113.347 150.538 108.07 149.049C105.157 148.226 103.511 145.358 104.395 142.645C105.279 139.93 108.28 138.702 111.272 139.222C116.725 140.171 120.93 144.933 121.254 149.048Z" fill="#1A6810"/>
</svg>
